G04 #@! TF.FileFunction,Legend,Bot*
%FSLAX46Y46*%
G04 Gerber Fmt 4.6, Leading zero omitted, Abs format (unit mm)*
G04 Created by KiCad (PCBNEW 4.0.7) date 09/30/18 13:23:00*
%MOMM*%
%LPD*%
G01*
G04 APERTURE LIST*
%ADD10C,0.100000*%
%ADD11C,0.300000*%
%ADD12C,0.120000*%
G04 APERTURE END LIST*
D10*
D11*
X144365001Y-141013571D02*
X144365001Y-139513571D01*
X143722144Y-141013571D02*
X143722144Y-140227857D01*
X143793573Y-140085000D01*
X143936430Y-140013571D01*
X144150715Y-140013571D01*
X144293573Y-140085000D01*
X144365001Y-140156429D01*
X143222144Y-140013571D02*
X142650715Y-140013571D01*
X143007858Y-139513571D02*
X143007858Y-140799286D01*
X142936430Y-140942143D01*
X142793572Y-141013571D01*
X142650715Y-141013571D01*
X142365001Y-140013571D02*
X141793572Y-140013571D01*
X142150715Y-139513571D02*
X142150715Y-140799286D01*
X142079287Y-140942143D01*
X141936429Y-141013571D01*
X141793572Y-141013571D01*
X141293572Y-140013571D02*
X141293572Y-141513571D01*
X141293572Y-140085000D02*
X141150715Y-140013571D01*
X140865001Y-140013571D01*
X140722144Y-140085000D01*
X140650715Y-140156429D01*
X140579286Y-140299286D01*
X140579286Y-140727857D01*
X140650715Y-140870714D01*
X140722144Y-140942143D01*
X140865001Y-141013571D01*
X141150715Y-141013571D01*
X141293572Y-140942143D01*
X140007858Y-140942143D02*
X139865001Y-141013571D01*
X139579286Y-141013571D01*
X139436429Y-140942143D01*
X139365001Y-140799286D01*
X139365001Y-140727857D01*
X139436429Y-140585000D01*
X139579286Y-140513571D01*
X139793572Y-140513571D01*
X139936429Y-140442143D01*
X140007858Y-140299286D01*
X140007858Y-140227857D01*
X139936429Y-140085000D01*
X139793572Y-140013571D01*
X139579286Y-140013571D01*
X139436429Y-140085000D01*
X138722143Y-140870714D02*
X138650715Y-140942143D01*
X138722143Y-141013571D01*
X138793572Y-140942143D01*
X138722143Y-140870714D01*
X138722143Y-141013571D01*
X138722143Y-140085000D02*
X138650715Y-140156429D01*
X138722143Y-140227857D01*
X138793572Y-140156429D01*
X138722143Y-140085000D01*
X138722143Y-140227857D01*
X136936429Y-139442143D02*
X138222143Y-141370714D01*
X135365000Y-139442143D02*
X136650714Y-141370714D01*
X134864999Y-141013571D02*
X134864999Y-139513571D01*
X134222142Y-141013571D02*
X134222142Y-140227857D01*
X134293571Y-140085000D01*
X134436428Y-140013571D01*
X134650713Y-140013571D01*
X134793571Y-140085000D01*
X134864999Y-140156429D01*
X133650713Y-140013571D02*
X133293570Y-141013571D01*
X132936428Y-140013571D01*
X131793571Y-140942143D02*
X131936428Y-141013571D01*
X132222142Y-141013571D01*
X132364999Y-140942143D01*
X132436428Y-140799286D01*
X132436428Y-140227857D01*
X132364999Y-140085000D01*
X132222142Y-140013571D01*
X131936428Y-140013571D01*
X131793571Y-140085000D01*
X131722142Y-140227857D01*
X131722142Y-140370714D01*
X132436428Y-140513571D01*
X131293571Y-140013571D02*
X130722142Y-140013571D01*
X131079285Y-139513571D02*
X131079285Y-140799286D01*
X131007857Y-140942143D01*
X130864999Y-141013571D01*
X130722142Y-141013571D01*
X129650714Y-140942143D02*
X129793571Y-141013571D01*
X130079285Y-141013571D01*
X130222142Y-140942143D01*
X130293571Y-140799286D01*
X130293571Y-140227857D01*
X130222142Y-140085000D01*
X130079285Y-140013571D01*
X129793571Y-140013571D01*
X129650714Y-140085000D01*
X129579285Y-140227857D01*
X129579285Y-140370714D01*
X130293571Y-140513571D01*
X128936428Y-141013571D02*
X128936428Y-139513571D01*
X128936428Y-140085000D02*
X128793571Y-140013571D01*
X128507857Y-140013571D01*
X128365000Y-140085000D01*
X128293571Y-140156429D01*
X128222142Y-140299286D01*
X128222142Y-140727857D01*
X128293571Y-140870714D01*
X128365000Y-140942143D01*
X128507857Y-141013571D01*
X128793571Y-141013571D01*
X128936428Y-140942143D01*
X127364999Y-141013571D02*
X127507857Y-140942143D01*
X127579285Y-140870714D01*
X127650714Y-140727857D01*
X127650714Y-140299286D01*
X127579285Y-140156429D01*
X127507857Y-140085000D01*
X127364999Y-140013571D01*
X127150714Y-140013571D01*
X127007857Y-140085000D01*
X126936428Y-140156429D01*
X126864999Y-140299286D01*
X126864999Y-140727857D01*
X126936428Y-140870714D01*
X127007857Y-140942143D01*
X127150714Y-141013571D01*
X127364999Y-141013571D01*
X126007856Y-141013571D02*
X126150714Y-140942143D01*
X126222142Y-140799286D01*
X126222142Y-139513571D01*
X125222142Y-141013571D02*
X125365000Y-140942143D01*
X125436428Y-140799286D01*
X125436428Y-139513571D01*
X124079286Y-140942143D02*
X124222143Y-141013571D01*
X124507857Y-141013571D01*
X124650714Y-140942143D01*
X124722143Y-140799286D01*
X124722143Y-140227857D01*
X124650714Y-140085000D01*
X124507857Y-140013571D01*
X124222143Y-140013571D01*
X124079286Y-140085000D01*
X124007857Y-140227857D01*
X124007857Y-140370714D01*
X124722143Y-140513571D01*
X123365000Y-140870714D02*
X123293572Y-140942143D01*
X123365000Y-141013571D01*
X123436429Y-140942143D01*
X123365000Y-140870714D01*
X123365000Y-141013571D01*
X122650714Y-141013571D02*
X122650714Y-139513571D01*
X122650714Y-140085000D02*
X122507857Y-140013571D01*
X122222143Y-140013571D01*
X122079286Y-140085000D01*
X122007857Y-140156429D01*
X121936428Y-140299286D01*
X121936428Y-140727857D01*
X122007857Y-140870714D01*
X122079286Y-140942143D01*
X122222143Y-141013571D01*
X122507857Y-141013571D01*
X122650714Y-140942143D01*
X121079285Y-141013571D02*
X121222143Y-140942143D01*
X121293571Y-140799286D01*
X121293571Y-139513571D01*
X120293571Y-141013571D02*
X120436429Y-140942143D01*
X120507857Y-140870714D01*
X120579286Y-140727857D01*
X120579286Y-140299286D01*
X120507857Y-140156429D01*
X120436429Y-140085000D01*
X120293571Y-140013571D01*
X120079286Y-140013571D01*
X119936429Y-140085000D01*
X119865000Y-140156429D01*
X119793571Y-140299286D01*
X119793571Y-140727857D01*
X119865000Y-140870714D01*
X119936429Y-140942143D01*
X120079286Y-141013571D01*
X120293571Y-141013571D01*
X118507857Y-140013571D02*
X118507857Y-141227857D01*
X118579286Y-141370714D01*
X118650714Y-141442143D01*
X118793571Y-141513571D01*
X119007857Y-141513571D01*
X119150714Y-141442143D01*
X118507857Y-140942143D02*
X118650714Y-141013571D01*
X118936428Y-141013571D01*
X119079286Y-140942143D01*
X119150714Y-140870714D01*
X119222143Y-140727857D01*
X119222143Y-140299286D01*
X119150714Y-140156429D01*
X119079286Y-140085000D01*
X118936428Y-140013571D01*
X118650714Y-140013571D01*
X118507857Y-140085000D01*
X117865000Y-140942143D02*
X117722143Y-141013571D01*
X117436428Y-141013571D01*
X117293571Y-140942143D01*
X117222143Y-140799286D01*
X117222143Y-140727857D01*
X117293571Y-140585000D01*
X117436428Y-140513571D01*
X117650714Y-140513571D01*
X117793571Y-140442143D01*
X117865000Y-140299286D01*
X117865000Y-140227857D01*
X117793571Y-140085000D01*
X117650714Y-140013571D01*
X117436428Y-140013571D01*
X117293571Y-140085000D01*
X116579285Y-140013571D02*
X116579285Y-141513571D01*
X116579285Y-140085000D02*
X116436428Y-140013571D01*
X116150714Y-140013571D01*
X116007857Y-140085000D01*
X115936428Y-140156429D01*
X115864999Y-140299286D01*
X115864999Y-140727857D01*
X115936428Y-140870714D01*
X116007857Y-140942143D01*
X116150714Y-141013571D01*
X116436428Y-141013571D01*
X116579285Y-140942143D01*
X115007856Y-141013571D02*
X115150714Y-140942143D01*
X115222142Y-140870714D01*
X115293571Y-140727857D01*
X115293571Y-140299286D01*
X115222142Y-140156429D01*
X115150714Y-140085000D01*
X115007856Y-140013571D01*
X114793571Y-140013571D01*
X114650714Y-140085000D01*
X114579285Y-140156429D01*
X114507856Y-140299286D01*
X114507856Y-140727857D01*
X114579285Y-140870714D01*
X114650714Y-140942143D01*
X114793571Y-141013571D01*
X115007856Y-141013571D01*
X114079285Y-140013571D02*
X113507856Y-140013571D01*
X113864999Y-139513571D02*
X113864999Y-140799286D01*
X113793571Y-140942143D01*
X113650713Y-141013571D01*
X113507856Y-141013571D01*
X113007856Y-140870714D02*
X112936428Y-140942143D01*
X113007856Y-141013571D01*
X113079285Y-140942143D01*
X113007856Y-140870714D01*
X113007856Y-141013571D01*
X111650713Y-140942143D02*
X111793570Y-141013571D01*
X112079284Y-141013571D01*
X112222142Y-140942143D01*
X112293570Y-140870714D01*
X112364999Y-140727857D01*
X112364999Y-140299286D01*
X112293570Y-140156429D01*
X112222142Y-140085000D01*
X112079284Y-140013571D01*
X111793570Y-140013571D01*
X111650713Y-140085000D01*
X110793570Y-141013571D02*
X110936428Y-140942143D01*
X111007856Y-140870714D01*
X111079285Y-140727857D01*
X111079285Y-140299286D01*
X111007856Y-140156429D01*
X110936428Y-140085000D01*
X110793570Y-140013571D01*
X110579285Y-140013571D01*
X110436428Y-140085000D01*
X110364999Y-140156429D01*
X110293570Y-140299286D01*
X110293570Y-140727857D01*
X110364999Y-140870714D01*
X110436428Y-140942143D01*
X110579285Y-141013571D01*
X110793570Y-141013571D01*
X109650713Y-141013571D02*
X109650713Y-140013571D01*
X109650713Y-140156429D02*
X109579285Y-140085000D01*
X109436427Y-140013571D01*
X109222142Y-140013571D01*
X109079285Y-140085000D01*
X109007856Y-140227857D01*
X109007856Y-141013571D01*
X109007856Y-140227857D02*
X108936427Y-140085000D01*
X108793570Y-140013571D01*
X108579285Y-140013571D01*
X108436427Y-140085000D01*
X108364999Y-140227857D01*
X108364999Y-141013571D01*
X139007857Y-120895000D02*
X138293571Y-120895000D01*
X139150714Y-121323571D02*
X138650714Y-119823571D01*
X138150714Y-121323571D01*
X137007857Y-121252143D02*
X137150714Y-121323571D01*
X137436428Y-121323571D01*
X137579286Y-121252143D01*
X137650714Y-121180714D01*
X137722143Y-121037857D01*
X137722143Y-120609286D01*
X137650714Y-120466429D01*
X137579286Y-120395000D01*
X137436428Y-120323571D01*
X137150714Y-120323571D01*
X137007857Y-120395000D01*
X136150714Y-121323571D02*
X136293572Y-121252143D01*
X136365000Y-121180714D01*
X136436429Y-121037857D01*
X136436429Y-120609286D01*
X136365000Y-120466429D01*
X136293572Y-120395000D01*
X136150714Y-120323571D01*
X135936429Y-120323571D01*
X135793572Y-120395000D01*
X135722143Y-120466429D01*
X135650714Y-120609286D01*
X135650714Y-121037857D01*
X135722143Y-121180714D01*
X135793572Y-121252143D01*
X135936429Y-121323571D01*
X136150714Y-121323571D01*
X135007857Y-121323571D02*
X135007857Y-120323571D01*
X135007857Y-120609286D02*
X134936429Y-120466429D01*
X134865000Y-120395000D01*
X134722143Y-120323571D01*
X134579286Y-120323571D01*
X134079286Y-120323571D02*
X134079286Y-121323571D01*
X134079286Y-120466429D02*
X134007858Y-120395000D01*
X133865000Y-120323571D01*
X133650715Y-120323571D01*
X133507858Y-120395000D01*
X133436429Y-120537857D01*
X133436429Y-121323571D01*
X131150715Y-119823571D02*
X131150715Y-120895000D01*
X131222143Y-121109286D01*
X131365000Y-121252143D01*
X131579286Y-121323571D01*
X131722143Y-121323571D01*
X130222143Y-121323571D02*
X130365001Y-121252143D01*
X130436429Y-121180714D01*
X130507858Y-121037857D01*
X130507858Y-120609286D01*
X130436429Y-120466429D01*
X130365001Y-120395000D01*
X130222143Y-120323571D01*
X130007858Y-120323571D01*
X129865001Y-120395000D01*
X129793572Y-120466429D01*
X129722143Y-120609286D01*
X129722143Y-121037857D01*
X129793572Y-121180714D01*
X129865001Y-121252143D01*
X130007858Y-121323571D01*
X130222143Y-121323571D01*
X129222143Y-120323571D02*
X128865000Y-121323571D01*
X128507858Y-120323571D02*
X128865000Y-121323571D01*
X129007858Y-121680714D01*
X129079286Y-121752143D01*
X129222143Y-121823571D01*
X128007858Y-121252143D02*
X127865001Y-121323571D01*
X127579286Y-121323571D01*
X127436429Y-121252143D01*
X127365001Y-121109286D01*
X127365001Y-121037857D01*
X127436429Y-120895000D01*
X127579286Y-120823571D01*
X127793572Y-120823571D01*
X127936429Y-120752143D01*
X128007858Y-120609286D01*
X128007858Y-120537857D01*
X127936429Y-120395000D01*
X127793572Y-120323571D01*
X127579286Y-120323571D01*
X127436429Y-120395000D01*
X126936429Y-120323571D02*
X126365000Y-120323571D01*
X126722143Y-119823571D02*
X126722143Y-121109286D01*
X126650715Y-121252143D01*
X126507857Y-121323571D01*
X126365000Y-121323571D01*
X125865000Y-121323571D02*
X125865000Y-120323571D01*
X125865000Y-119823571D02*
X125936429Y-119895000D01*
X125865000Y-119966429D01*
X125793572Y-119895000D01*
X125865000Y-119823571D01*
X125865000Y-119966429D01*
X124507857Y-121252143D02*
X124650714Y-121323571D01*
X124936428Y-121323571D01*
X125079286Y-121252143D01*
X125150714Y-121180714D01*
X125222143Y-121037857D01*
X125222143Y-120609286D01*
X125150714Y-120466429D01*
X125079286Y-120395000D01*
X124936428Y-120323571D01*
X124650714Y-120323571D01*
X124507857Y-120395000D01*
X123865000Y-121323571D02*
X123865000Y-119823571D01*
X123722143Y-120752143D02*
X123293572Y-121323571D01*
X123293572Y-120323571D02*
X123865000Y-120895000D01*
X121579286Y-120895000D02*
X120865000Y-120895000D01*
X121722143Y-121323571D02*
X121222143Y-119823571D01*
X120722143Y-121323571D01*
X119579286Y-121323571D02*
X119579286Y-119823571D01*
X119579286Y-121252143D02*
X119722143Y-121323571D01*
X120007857Y-121323571D01*
X120150715Y-121252143D01*
X120222143Y-121180714D01*
X120293572Y-121037857D01*
X120293572Y-120609286D01*
X120222143Y-120466429D01*
X120150715Y-120395000D01*
X120007857Y-120323571D01*
X119722143Y-120323571D01*
X119579286Y-120395000D01*
X118222143Y-121323571D02*
X118222143Y-120537857D01*
X118293572Y-120395000D01*
X118436429Y-120323571D01*
X118722143Y-120323571D01*
X118865000Y-120395000D01*
X118222143Y-121252143D02*
X118365000Y-121323571D01*
X118722143Y-121323571D01*
X118865000Y-121252143D01*
X118936429Y-121109286D01*
X118936429Y-120966429D01*
X118865000Y-120823571D01*
X118722143Y-120752143D01*
X118365000Y-120752143D01*
X118222143Y-120680714D01*
X117507857Y-120323571D02*
X117507857Y-121823571D01*
X117507857Y-120395000D02*
X117365000Y-120323571D01*
X117079286Y-120323571D01*
X116936429Y-120395000D01*
X116865000Y-120466429D01*
X116793571Y-120609286D01*
X116793571Y-121037857D01*
X116865000Y-121180714D01*
X116936429Y-121252143D01*
X117079286Y-121323571D01*
X117365000Y-121323571D01*
X117507857Y-121252143D01*
X116365000Y-120323571D02*
X115793571Y-120323571D01*
X116150714Y-119823571D02*
X116150714Y-121109286D01*
X116079286Y-121252143D01*
X115936428Y-121323571D01*
X115793571Y-121323571D01*
X114722143Y-121252143D02*
X114865000Y-121323571D01*
X115150714Y-121323571D01*
X115293571Y-121252143D01*
X115365000Y-121109286D01*
X115365000Y-120537857D01*
X115293571Y-120395000D01*
X115150714Y-120323571D01*
X114865000Y-120323571D01*
X114722143Y-120395000D01*
X114650714Y-120537857D01*
X114650714Y-120680714D01*
X115365000Y-120823571D01*
X114007857Y-121323571D02*
X114007857Y-120323571D01*
X114007857Y-120609286D02*
X113936429Y-120466429D01*
X113865000Y-120395000D01*
X113722143Y-120323571D01*
X113579286Y-120323571D01*
X135186428Y-123087857D02*
X134972142Y-123159286D01*
X134900714Y-123230714D01*
X134829285Y-123373571D01*
X134829285Y-123587857D01*
X134900714Y-123730714D01*
X134972142Y-123802143D01*
X135115000Y-123873571D01*
X135686428Y-123873571D01*
X135686428Y-122373571D01*
X135186428Y-122373571D01*
X135043571Y-122445000D01*
X134972142Y-122516429D01*
X134900714Y-122659286D01*
X134900714Y-122802143D01*
X134972142Y-122945000D01*
X135043571Y-123016429D01*
X135186428Y-123087857D01*
X135686428Y-123087857D01*
X133972142Y-123873571D02*
X134115000Y-123802143D01*
X134186428Y-123730714D01*
X134257857Y-123587857D01*
X134257857Y-123159286D01*
X134186428Y-123016429D01*
X134115000Y-122945000D01*
X133972142Y-122873571D01*
X133757857Y-122873571D01*
X133615000Y-122945000D01*
X133543571Y-123016429D01*
X133472142Y-123159286D01*
X133472142Y-123587857D01*
X133543571Y-123730714D01*
X133615000Y-123802143D01*
X133757857Y-123873571D01*
X133972142Y-123873571D01*
X132186428Y-123873571D02*
X132186428Y-123087857D01*
X132257857Y-122945000D01*
X132400714Y-122873571D01*
X132686428Y-122873571D01*
X132829285Y-122945000D01*
X132186428Y-123802143D02*
X132329285Y-123873571D01*
X132686428Y-123873571D01*
X132829285Y-123802143D01*
X132900714Y-123659286D01*
X132900714Y-123516429D01*
X132829285Y-123373571D01*
X132686428Y-123302143D01*
X132329285Y-123302143D01*
X132186428Y-123230714D01*
X131472142Y-123873571D02*
X131472142Y-122873571D01*
X131472142Y-123159286D02*
X131400714Y-123016429D01*
X131329285Y-122945000D01*
X131186428Y-122873571D01*
X131043571Y-122873571D01*
X129900714Y-123873571D02*
X129900714Y-122373571D01*
X129900714Y-123802143D02*
X130043571Y-123873571D01*
X130329285Y-123873571D01*
X130472143Y-123802143D01*
X130543571Y-123730714D01*
X130615000Y-123587857D01*
X130615000Y-123159286D01*
X130543571Y-123016429D01*
X130472143Y-122945000D01*
X130329285Y-122873571D01*
X130043571Y-122873571D01*
X129900714Y-122945000D01*
X127186428Y-123873571D02*
X127686428Y-123159286D01*
X128043571Y-123873571D02*
X128043571Y-122373571D01*
X127472143Y-122373571D01*
X127329285Y-122445000D01*
X127257857Y-122516429D01*
X127186428Y-122659286D01*
X127186428Y-122873571D01*
X127257857Y-123016429D01*
X127329285Y-123087857D01*
X127472143Y-123159286D01*
X128043571Y-123159286D01*
X125972143Y-123802143D02*
X126115000Y-123873571D01*
X126400714Y-123873571D01*
X126543571Y-123802143D01*
X126615000Y-123659286D01*
X126615000Y-123087857D01*
X126543571Y-122945000D01*
X126400714Y-122873571D01*
X126115000Y-122873571D01*
X125972143Y-122945000D01*
X125900714Y-123087857D01*
X125900714Y-123230714D01*
X126615000Y-123373571D01*
X125400714Y-122873571D02*
X125043571Y-123873571D01*
X124686429Y-122873571D01*
X124115000Y-123873571D02*
X124115000Y-122873571D01*
X124115000Y-122373571D02*
X124186429Y-122445000D01*
X124115000Y-122516429D01*
X124043572Y-122445000D01*
X124115000Y-122373571D01*
X124115000Y-122516429D01*
X123472143Y-123802143D02*
X123329286Y-123873571D01*
X123043571Y-123873571D01*
X122900714Y-123802143D01*
X122829286Y-123659286D01*
X122829286Y-123587857D01*
X122900714Y-123445000D01*
X123043571Y-123373571D01*
X123257857Y-123373571D01*
X123400714Y-123302143D01*
X123472143Y-123159286D01*
X123472143Y-123087857D01*
X123400714Y-122945000D01*
X123257857Y-122873571D01*
X123043571Y-122873571D01*
X122900714Y-122945000D01*
X122186428Y-123873571D02*
X122186428Y-122873571D01*
X122186428Y-122373571D02*
X122257857Y-122445000D01*
X122186428Y-122516429D01*
X122115000Y-122445000D01*
X122186428Y-122373571D01*
X122186428Y-122516429D01*
X121257856Y-123873571D02*
X121400714Y-123802143D01*
X121472142Y-123730714D01*
X121543571Y-123587857D01*
X121543571Y-123159286D01*
X121472142Y-123016429D01*
X121400714Y-122945000D01*
X121257856Y-122873571D01*
X121043571Y-122873571D01*
X120900714Y-122945000D01*
X120829285Y-123016429D01*
X120757856Y-123159286D01*
X120757856Y-123587857D01*
X120829285Y-123730714D01*
X120900714Y-123802143D01*
X121043571Y-123873571D01*
X121257856Y-123873571D01*
X120114999Y-122873571D02*
X120114999Y-123873571D01*
X120114999Y-123016429D02*
X120043571Y-122945000D01*
X119900713Y-122873571D01*
X119686428Y-122873571D01*
X119543571Y-122945000D01*
X119472142Y-123087857D01*
X119472142Y-123873571D01*
X117686428Y-123445000D02*
X116972142Y-123445000D01*
X117829285Y-123873571D02*
X117329285Y-122373571D01*
X116829285Y-123873571D01*
D12*
X145303000Y-125666000D02*
G75*
G02X146363000Y-126726000I0J-1060000D01*
G01*
X107043000Y-126726000D02*
G75*
G02X108103000Y-125666000I1060000J0D01*
G01*
X145303000Y-138286000D02*
G75*
G03X146363000Y-137226000I0J1060000D01*
G01*
X108103000Y-138286000D02*
G75*
G02X107043000Y-137226000I0J1060000D01*
G01*
X138719470Y-129714256D02*
G75*
G03X137084689Y-127766000I-1634781J288256D01*
G01*
X114686530Y-129714256D02*
G75*
G02X116321311Y-127766000I1634781J288256D01*
G01*
X137820202Y-134814256D02*
G75*
G02X136185421Y-136186000I-1634781J288256D01*
G01*
X115585798Y-134814256D02*
G75*
G03X117220579Y-136186000I1634781J288256D01*
G01*
X145303000Y-125666000D02*
X108103000Y-125666000D01*
X107043000Y-126726000D02*
X107043000Y-137226000D01*
X108103000Y-138286000D02*
X145303000Y-138286000D01*
X146363000Y-137226000D02*
X146363000Y-126726000D01*
X136648000Y-124771662D02*
X136148000Y-124771662D01*
X136148000Y-124771662D02*
X136398000Y-125204675D01*
X136398000Y-125204675D02*
X136648000Y-124771662D01*
X137084689Y-127766000D02*
X116321311Y-127766000D01*
X136185421Y-136186000D02*
X117220579Y-136186000D01*
X114686530Y-129714256D02*
X115585798Y-134814256D01*
X138719470Y-129714256D02*
X137820202Y-134814256D01*
M02*
