M48
;DRILL file {KiCad 4.0.7} date 10/17/18 19:09:23
;FORMAT={2:4/ absolute / inch / suppress leading zeros}
FMAT,2
INCH,TZ
T1C0.016
T2C0.031
T3C0.039
T4C0.150
%
G90
G05
M72
T1
X37750Y-41000
X37750Y-42500
X38000Y-40750
X38000Y-42000
X38250Y-41000
X38250Y-42250
X38500Y-41250
X38500Y-42000
X41750Y-41000
X42500Y-40250
X43750Y-46750
X44250Y-49000
X45750Y-37250
X45750Y-38000
X46250Y-38500
X48500Y-41900
X48500Y-42600
X50000Y-45750
X50000Y-50750
X50250Y-49500
X50500Y-47500
X50500Y-49750
X52250Y-46500
X55500Y-40500
X56500Y-40750
X57500Y-41000
X58250Y-40750
X58250Y-42000
X58500Y-40500
X58750Y-41500
X58750Y-42000
X59250Y-44500
X59750Y-44750
X60250Y-46500
X61750Y-44750
T2
X37250Y-41750
X37250Y-45750
X37250Y-47250
X37250Y-48750
X37250Y-55250
X38000Y-51000
X38000Y-52000
X38000Y-53000
X38500Y-44250
X38500Y-45750
X39500Y-42750
X39500Y-50000
X39500Y-54000
X40500Y-42750
X41000Y-50000
X41000Y-54000
X41250Y-47250
X41250Y-48750
X41250Y-55250
X41500Y-42750
X42500Y-44250
X42500Y-45750
X43750Y-41750
X43750Y-45750
X45250Y-41750
X45250Y-45750
X46750Y-41750
X46750Y-45750
X48500Y-44250
X48500Y-45250
X48500Y-46250
X51250Y-44250
X51250Y-45250
X51250Y-46250
X53000Y-41750
X53000Y-45750
X54250Y-44250
X54250Y-45750
X55250Y-42750
X56250Y-42750
X57250Y-42750
X58250Y-44250
X58250Y-45750
X58500Y-47250
X58500Y-48750
X58500Y-55250
X59500Y-41750
X59500Y-45750
X59500Y-51000
X59500Y-52000
X59500Y-53000
X61000Y-41750
X61000Y-45750
X61000Y-50000
X61000Y-54000
X62500Y-41750
X62500Y-45750
X62500Y-47250
X62500Y-48750
X62500Y-50000
X62500Y-54000
X62500Y-55250
T3
X40638Y-38750
X41183Y-37632
X41728Y-38750
X42274Y-37632
X42819Y-38750
X43364Y-37632
X43909Y-38750
X44455Y-37632
X45000Y-38750
X46066Y-51400
X46611Y-52518
X47157Y-51400
X47702Y-52518
X48247Y-51400
X48793Y-52518
X49338Y-51400
X49883Y-52518
X49900Y-36600
X49900Y-37600
X49900Y-38600
X49900Y-39600
X49900Y-40600
X49900Y-41600
X50428Y-51400
X50974Y-52518
X51519Y-51400
X52064Y-52518
X52609Y-51400
X53155Y-52518
X53700Y-51400
X54811Y-38750
X55356Y-37632
X55902Y-38750
X56447Y-37632
X56992Y-38750
X57537Y-37632
X58083Y-38750
X58628Y-37632
X59173Y-38750
T4
X37898Y-38191
X43328Y-51959
X47740Y-38191
X52071Y-38191
X56438Y-51959
X61913Y-38191
T0
M30
