M48
;DRILL file {KiCad 4.0.7} date 09/30/18 18:55:54
;FORMAT={2:4/ absolute / inch / suppress leading zeros}
FMAT,2
INCH,TZ
T1C0.016
T2C0.024
T3C0.031
T4C0.039
T5C0.157
%
G90
G05
M72
T1
X37750Y-41000
X37750Y-42500
X38000Y-40750
X38000Y-42000
X38250Y-41000
X38250Y-42250
X38500Y-41250
X38500Y-42000
X41000Y-37000
X43000Y-36750
X43750Y-46750
X44250Y-49000
X45750Y-41000
X50000Y-45750
X50000Y-50750
X50250Y-49500
X50500Y-47000
X50500Y-49750
X55500Y-40250
X56000Y-40750
X56250Y-40250
X57000Y-40250
X57500Y-40250
X58000Y-42000
X58250Y-41000
X58500Y-42000
X59250Y-44500
X59750Y-44750
X60250Y-46500
X61750Y-44750
T2
X38000Y-51500
X38000Y-52000
X38000Y-52500
X40000Y-42750
X40500Y-42750
X41000Y-42750
X48500Y-44750
X48500Y-45250
X48500Y-45750
X51250Y-44750
X51250Y-45250
X51250Y-45750
X55750Y-42750
X56250Y-42750
X56750Y-42750
X59500Y-51500
X59500Y-52000
X59500Y-52500
T3
X37250Y-41750
X37250Y-45750
X37250Y-47250
X37250Y-48750
X37250Y-55250
X38500Y-44250
X38500Y-45750
X39500Y-50000
X39500Y-54000
X41000Y-50000
X41000Y-54000
X41250Y-47250
X41250Y-48750
X41250Y-55250
X42500Y-44250
X42500Y-45750
X43750Y-41750
X43750Y-45750
X45250Y-41750
X45250Y-45750
X46750Y-41750
X46750Y-45750
X53000Y-41750
X53000Y-45750
X54250Y-44250
X54250Y-45750
X58250Y-44250
X58250Y-45750
X58500Y-47250
X58500Y-48750
X58500Y-55250
X59500Y-41750
X59500Y-45750
X61000Y-41750
X61000Y-45750
X61000Y-50000
X61000Y-54000
X62500Y-41750
X62500Y-45750
X62500Y-47250
X62500Y-48750
X62500Y-50000
X62500Y-54000
X62500Y-55250
T4
X40700Y-38000
X41245Y-39118
X41791Y-38000
X42336Y-39118
X42881Y-38000
X43426Y-39118
X43972Y-38000
X44517Y-39118
X45062Y-38000
X46066Y-51400
X46611Y-52518
X47157Y-51400
X47702Y-52518
X48247Y-51400
X48793Y-52518
X49338Y-51400
X49883Y-52518
X49900Y-36600
X49900Y-37600
X49900Y-38600
X49900Y-39600
X49900Y-40600
X50428Y-51400
X50974Y-52518
X51519Y-51400
X52064Y-52518
X52609Y-51400
X53155Y-52518
X53700Y-51400
X54750Y-38000
X55295Y-39118
X55841Y-38000
X56386Y-39118
X56931Y-38000
X57476Y-39118
X58022Y-38000
X58567Y-39118
X59112Y-38000
T5
X37960Y-38559
X43328Y-51959
X47802Y-38559
X52010Y-38559
X56438Y-51959
X61852Y-38559
T0
M30
