G04 #@! TF.FileFunction,Copper,L1,Top,Signal*
%FSLAX46Y46*%
G04 Gerber Fmt 4.6, Leading zero omitted, Abs format (unit mm)*
G04 Created by KiCad (PCBNEW 4.0.7) date 09/30/18 18:55:51*
%MOMM*%
%LPD*%
G01*
G04 APERTURE LIST*
%ADD10C,0.100000*%
%ADD11C,1.600000*%
%ADD12O,1.600000X1.600000*%
%ADD13O,1.500000X0.900000*%
%ADD14R,1.500000X0.900000*%
%ADD15O,0.900000X1.500000*%
%ADD16R,0.900000X1.500000*%
%ADD17R,1.600000X1.600000*%
%ADD18C,5.000000*%
%ADD19R,1.700000X1.700000*%
%ADD20O,1.700000X1.700000*%
%ADD21C,0.600000*%
%ADD22C,0.250000*%
G04 APERTURE END LIST*
D10*
D11*
X118745000Y-106045000D03*
D12*
X118745000Y-116205000D03*
D11*
X114935000Y-116205000D03*
D12*
X114935000Y-106045000D03*
D11*
X111125000Y-106045000D03*
D12*
X111125000Y-116205000D03*
D11*
X94615000Y-106045000D03*
D12*
X94615000Y-116205000D03*
D11*
X107950000Y-116205000D03*
D12*
X97790000Y-116205000D03*
D11*
X107950000Y-112395000D03*
D12*
X97790000Y-112395000D03*
D11*
X104775000Y-120015000D03*
D12*
X94615000Y-120015000D03*
D11*
X94615000Y-123825000D03*
D12*
X104775000Y-123825000D03*
D11*
X94615000Y-140335000D03*
D12*
X104775000Y-140335000D03*
D11*
X104140000Y-127000000D03*
D12*
X104140000Y-137160000D03*
D11*
X100330000Y-127000000D03*
D12*
X100330000Y-137160000D03*
D11*
X158750000Y-106045000D03*
D12*
X158750000Y-116205000D03*
D11*
X154940000Y-116205000D03*
D12*
X154940000Y-106045000D03*
D11*
X151130000Y-106045000D03*
D12*
X151130000Y-116205000D03*
D11*
X134620000Y-106045000D03*
D12*
X134620000Y-116205000D03*
D11*
X147955000Y-116205000D03*
D12*
X137795000Y-116205000D03*
D11*
X147955000Y-112395000D03*
D12*
X137795000Y-112395000D03*
D11*
X158750000Y-120015000D03*
D12*
X148590000Y-120015000D03*
D11*
X148590000Y-123825000D03*
D12*
X158750000Y-123825000D03*
D11*
X148590000Y-140335000D03*
D12*
X158750000Y-140335000D03*
D11*
X158750000Y-127000000D03*
D12*
X158750000Y-137160000D03*
D11*
X154940000Y-127000000D03*
D12*
X154940000Y-137160000D03*
D13*
X123190000Y-114935000D03*
X123190000Y-116205000D03*
D14*
X123190000Y-113665000D03*
D15*
X102870000Y-108585000D03*
X104140000Y-108585000D03*
D16*
X101600000Y-108585000D03*
D13*
X96520000Y-132080000D03*
X96520000Y-130810000D03*
D14*
X96520000Y-133350000D03*
D13*
X130175000Y-114935000D03*
X130175000Y-113665000D03*
D14*
X130175000Y-116205000D03*
D15*
X142875000Y-108585000D03*
X144145000Y-108585000D03*
D16*
X141605000Y-108585000D03*
D13*
X151130000Y-132080000D03*
X151130000Y-130810000D03*
D14*
X151130000Y-133350000D03*
D17*
X103378000Y-96520000D03*
D11*
X106148000Y-96520000D03*
X108918000Y-96520000D03*
X111688000Y-96520000D03*
X114458000Y-96520000D03*
X104763000Y-99360000D03*
X107533000Y-99360000D03*
X110303000Y-99360000D03*
X113073000Y-99360000D03*
D18*
X121418000Y-97940000D03*
X96418000Y-97940000D03*
D17*
X139065000Y-96520000D03*
D11*
X141835000Y-96520000D03*
X144605000Y-96520000D03*
X147375000Y-96520000D03*
X150145000Y-96520000D03*
X140450000Y-99360000D03*
X143220000Y-99360000D03*
X145990000Y-99360000D03*
X148760000Y-99360000D03*
D18*
X157105000Y-97940000D03*
X132105000Y-97940000D03*
D17*
X136398000Y-130556000D03*
D11*
X133628000Y-130556000D03*
X130858000Y-130556000D03*
X128088000Y-130556000D03*
X125318000Y-130556000D03*
X122548000Y-130556000D03*
X119778000Y-130556000D03*
X117008000Y-130556000D03*
X135013000Y-133396000D03*
X132243000Y-133396000D03*
X129473000Y-133396000D03*
X126703000Y-133396000D03*
X123933000Y-133396000D03*
X121163000Y-133396000D03*
X118393000Y-133396000D03*
D18*
X143353000Y-131976000D03*
X110053000Y-131976000D03*
D19*
X126746000Y-92964000D03*
D20*
X126746000Y-95504000D03*
X126746000Y-98044000D03*
X126746000Y-100584000D03*
X126746000Y-103124000D03*
D21*
X147955000Y-104140000D03*
X156845000Y-113665000D03*
X146050000Y-102235000D03*
X128270000Y-119380000D03*
X127000000Y-116205000D03*
X128270000Y-126365000D03*
X104140000Y-93980000D03*
X97155000Y-107315000D03*
X97155000Y-104140000D03*
X150495000Y-113030000D03*
X148590000Y-106680000D03*
X144780000Y-102235000D03*
X127000000Y-128905000D03*
X127635000Y-125730000D03*
X109220000Y-93345000D03*
X97790000Y-106680000D03*
X97790000Y-104775000D03*
X111125000Y-118745000D03*
X112395000Y-124460000D03*
X96520000Y-106680000D03*
X96520000Y-103505000D03*
X95885000Y-107950000D03*
X95885000Y-104140000D03*
X116205000Y-104140000D03*
X153035000Y-118110000D03*
X151765000Y-113665000D03*
X147320000Y-106680000D03*
X142875000Y-102235000D03*
X142240000Y-103505000D03*
X140970000Y-102235000D03*
D22*
X96520000Y-130810000D02*
X96520000Y-118110000D01*
X96520000Y-118110000D02*
X94615000Y-116205000D01*
X123933000Y-129432000D02*
X125730000Y-127635000D01*
X123933000Y-129432000D02*
X123933000Y-133396000D01*
X123190000Y-113665000D02*
X125095000Y-113665000D01*
X125730000Y-127635000D02*
X125730000Y-125730000D01*
X125730000Y-114300000D02*
X125730000Y-125730000D01*
X125095000Y-113665000D02*
X125730000Y-114300000D01*
X123190000Y-114935000D02*
X121920000Y-114935000D01*
X120650000Y-116205000D02*
X118745000Y-116205000D01*
X121920000Y-114935000D02*
X120650000Y-116205000D01*
X102870000Y-108585000D02*
X102870000Y-107315000D01*
X107950000Y-107315000D02*
X107950000Y-112395000D01*
X107315000Y-106680000D02*
X107950000Y-107315000D01*
X103505000Y-106680000D02*
X107315000Y-106680000D01*
X102870000Y-107315000D02*
X103505000Y-106680000D01*
X107950000Y-112395000D02*
X107950000Y-116205000D01*
X101600000Y-108585000D02*
X101600000Y-106045000D01*
X102745000Y-106045000D02*
X102870000Y-106045000D01*
X102870000Y-106045000D02*
X101600000Y-106045000D01*
X101600000Y-106045000D02*
X100312000Y-106045000D01*
X111125000Y-106045000D02*
X102870000Y-106045000D01*
X94615000Y-106045000D02*
X100312000Y-106045000D01*
X111125000Y-106045000D02*
X114935000Y-106045000D01*
X96520000Y-132080000D02*
X99060000Y-132080000D01*
X100330000Y-130810000D02*
X99060000Y-132080000D01*
X100330000Y-130810000D02*
X100330000Y-127000000D01*
X100330000Y-127000000D02*
X104140000Y-127000000D01*
X96520000Y-133350000D02*
X94615000Y-133350000D01*
X94615000Y-133350000D02*
X94615000Y-130810000D01*
X94615000Y-140335000D02*
X94615000Y-135255000D01*
X94615000Y-133350000D02*
X94615000Y-135255000D01*
X94615000Y-130175000D02*
X94615000Y-123825000D01*
X94615000Y-130810000D02*
X94615000Y-130175000D01*
X94615000Y-120015000D02*
X94615000Y-123825000D01*
X126746000Y-100584000D02*
X129794000Y-100584000D01*
X129794000Y-100584000D02*
X131445000Y-102235000D01*
X155575000Y-104140000D02*
X156845000Y-105410000D01*
X147955000Y-104140000D02*
X155575000Y-104140000D01*
X145990000Y-99360000D02*
X145990000Y-102175000D01*
X156845000Y-105410000D02*
X156845000Y-113665000D01*
X145990000Y-102175000D02*
X146050000Y-102235000D01*
X145415000Y-94615000D02*
X137795000Y-94615000D01*
X137795000Y-94615000D02*
X137160000Y-95250000D01*
X154940000Y-116205000D02*
X158750000Y-120015000D01*
X126365000Y-111760000D02*
X127000000Y-111125000D01*
X127000000Y-111125000D02*
X130810000Y-111125000D01*
X130810000Y-111125000D02*
X131445000Y-110490000D01*
X131445000Y-110490000D02*
X131445000Y-102235000D01*
X131445000Y-102235000D02*
X132080000Y-101600000D01*
X132080000Y-101600000D02*
X136525000Y-101600000D01*
X136525000Y-101600000D02*
X137160000Y-100965000D01*
X137160000Y-100965000D02*
X137160000Y-95250000D01*
X145990000Y-99360000D02*
X145990000Y-95190000D01*
X145990000Y-95190000D02*
X145415000Y-94615000D01*
X126365000Y-124460000D02*
X126365000Y-127000000D01*
X128270000Y-128270000D02*
X129473000Y-129473000D01*
X127635000Y-128270000D02*
X128270000Y-128270000D01*
X126365000Y-127000000D02*
X127635000Y-128270000D01*
X129473000Y-133396000D02*
X129473000Y-129473000D01*
X125095000Y-107315000D02*
X116840000Y-107315000D01*
X126365000Y-108585000D02*
X125095000Y-107315000D01*
X126365000Y-124460000D02*
X126365000Y-111760000D01*
X126365000Y-111760000D02*
X126365000Y-108585000D01*
X113665000Y-119380000D02*
X111760000Y-121285000D01*
X104775000Y-120015000D02*
X104775000Y-120650000D01*
X104775000Y-120650000D02*
X105410000Y-121285000D01*
X105410000Y-121285000D02*
X111760000Y-121285000D01*
X114935000Y-116205000D02*
X114935000Y-118110000D01*
X114935000Y-118110000D02*
X113665000Y-119380000D01*
X114935000Y-116205000D02*
X114935000Y-109220000D01*
X112543000Y-101600000D02*
X110303000Y-99360000D01*
X114935000Y-101600000D02*
X112543000Y-101600000D01*
X116840000Y-103505000D02*
X114935000Y-101600000D01*
X116840000Y-107315000D02*
X116840000Y-103505000D01*
X114935000Y-109220000D02*
X116840000Y-107315000D01*
X151130000Y-118745000D02*
X152400000Y-117475000D01*
X154940000Y-117475000D02*
X156210000Y-118745000D01*
X152400000Y-117475000D02*
X154940000Y-117475000D01*
X139065000Y-96520000D02*
X139065000Y-101600000D01*
X127635000Y-111760000D02*
X127000000Y-112395000D01*
X131445000Y-111760000D02*
X127635000Y-111760000D01*
X132080000Y-111125000D02*
X131445000Y-111760000D01*
X132080000Y-102870000D02*
X132080000Y-111125000D01*
X132715000Y-102235000D02*
X132080000Y-102870000D01*
X138430000Y-102235000D02*
X132715000Y-102235000D01*
X139065000Y-101600000D02*
X138430000Y-102235000D01*
X127000000Y-112395000D02*
X127000000Y-116205000D01*
X156845000Y-120015000D02*
X156845000Y-119380000D01*
X156845000Y-119380000D02*
X156210000Y-118745000D01*
X128270000Y-126365000D02*
X128270000Y-119380000D01*
X157480000Y-123825000D02*
X158750000Y-123825000D01*
X156845000Y-123190000D02*
X157480000Y-123825000D01*
X156845000Y-120015000D02*
X156845000Y-123190000D01*
X128905000Y-118745000D02*
X150495000Y-118745000D01*
X150495000Y-118745000D02*
X151130000Y-118745000D01*
X128270000Y-119380000D02*
X128905000Y-118745000D01*
X126746000Y-95504000D02*
X125984000Y-95504000D01*
X125984000Y-95504000D02*
X124460000Y-93980000D01*
X124460000Y-93980000D02*
X104140000Y-93980000D01*
X99695000Y-103505000D02*
X97790000Y-103505000D01*
X98425000Y-110490000D02*
X99695000Y-111760000D01*
X97790000Y-110490000D02*
X98425000Y-110490000D01*
X97155000Y-109855000D02*
X97790000Y-110490000D01*
X97155000Y-107315000D02*
X97155000Y-109855000D01*
X97790000Y-103505000D02*
X97155000Y-104140000D01*
X119778000Y-130556000D02*
X119778000Y-129938000D01*
X119778000Y-129938000D02*
X112395000Y-122555000D01*
X101600000Y-101600000D02*
X101600000Y-97155000D01*
X102235000Y-96520000D02*
X103378000Y-96520000D01*
X101600000Y-97155000D02*
X102235000Y-96520000D01*
X105410000Y-122555000D02*
X100330000Y-122555000D01*
X100330000Y-122555000D02*
X99695000Y-121920000D01*
X99695000Y-121920000D02*
X99695000Y-111760000D01*
X99695000Y-103505000D02*
X101600000Y-101600000D01*
X104775000Y-123825000D02*
X104775000Y-123190000D01*
X104775000Y-123190000D02*
X105410000Y-122555000D01*
X105410000Y-122555000D02*
X112395000Y-122555000D01*
X130175000Y-116205000D02*
X128270000Y-116205000D01*
X132243000Y-128905000D02*
X132243000Y-133396000D01*
X132080000Y-128905000D02*
X131445000Y-128270000D01*
X131445000Y-128270000D02*
X129540000Y-128270000D01*
X129540000Y-128270000D02*
X128905000Y-127635000D01*
X128905000Y-127635000D02*
X128270000Y-127635000D01*
X128270000Y-127635000D02*
X127000000Y-126365000D01*
X127000000Y-126365000D02*
X127000000Y-117475000D01*
X127000000Y-117475000D02*
X128270000Y-116205000D01*
X132243000Y-128905000D02*
X132080000Y-128905000D01*
X144605000Y-100790000D02*
X144605000Y-102060000D01*
X144605000Y-96520000D02*
X144605000Y-100790000D01*
X150495000Y-113030000D02*
X149860000Y-112395000D01*
X149860000Y-112395000D02*
X149860000Y-110490000D01*
X149860000Y-110490000D02*
X149225000Y-109855000D01*
X149225000Y-109855000D02*
X149225000Y-107315000D01*
X149225000Y-107315000D02*
X148590000Y-106680000D01*
X144605000Y-102060000D02*
X144780000Y-102235000D01*
X151130000Y-116205000D02*
X151130000Y-117475000D01*
X150495000Y-118110000D02*
X149225000Y-118110000D01*
X151130000Y-117475000D02*
X150495000Y-118110000D01*
X126703000Y-129202000D02*
X127000000Y-128905000D01*
X126703000Y-133396000D02*
X126703000Y-129202000D01*
X128270000Y-118110000D02*
X149225000Y-118110000D01*
X127635000Y-118745000D02*
X128270000Y-118110000D01*
X127635000Y-125730000D02*
X127635000Y-118745000D01*
X126746000Y-92964000D02*
X109601000Y-92964000D01*
X109601000Y-92964000D02*
X109220000Y-93345000D01*
X100330000Y-104140000D02*
X98425000Y-104140000D01*
X99060000Y-109855000D02*
X100330000Y-111125000D01*
X98425000Y-109855000D02*
X99060000Y-109855000D01*
X97790000Y-109220000D02*
X98425000Y-109855000D01*
X97790000Y-106680000D02*
X97790000Y-109220000D01*
X98425000Y-104140000D02*
X97790000Y-104775000D01*
X114300000Y-126365000D02*
X114300000Y-132080000D01*
X114300000Y-126365000D02*
X112395000Y-124460000D01*
X115616000Y-133396000D02*
X118393000Y-133396000D01*
X114300000Y-132080000D02*
X115616000Y-133396000D01*
X102235000Y-98425000D02*
X102235000Y-102235000D01*
X102870000Y-97790000D02*
X102235000Y-98425000D01*
X107950000Y-97790000D02*
X102870000Y-97790000D01*
X108918000Y-96822000D02*
X107950000Y-97790000D01*
X110490000Y-118745000D02*
X111125000Y-118745000D01*
X109855000Y-118110000D02*
X110490000Y-118745000D01*
X100965000Y-118110000D02*
X109855000Y-118110000D01*
X100330000Y-117475000D02*
X100965000Y-118110000D01*
X100330000Y-116205000D02*
X100330000Y-117475000D01*
X100330000Y-111125000D02*
X100330000Y-116205000D01*
X102235000Y-102235000D02*
X100330000Y-104140000D01*
X108918000Y-96520000D02*
X108918000Y-96822000D01*
X111125000Y-118745000D02*
X111125000Y-116205000D01*
X99060000Y-102870000D02*
X97155000Y-102870000D01*
X98425000Y-114300000D02*
X99060000Y-114935000D01*
X97155000Y-114300000D02*
X98425000Y-114300000D01*
X96520000Y-113665000D02*
X97155000Y-114300000D01*
X96520000Y-106680000D02*
X96520000Y-113665000D01*
X97155000Y-102870000D02*
X96520000Y-103505000D01*
X106148000Y-96520000D02*
X106148000Y-95988000D01*
X106148000Y-95988000D02*
X105410000Y-95250000D01*
X105410000Y-95250000D02*
X101600000Y-95250000D01*
X101600000Y-95250000D02*
X100965000Y-95885000D01*
X102235000Y-125095000D02*
X100330000Y-125095000D01*
X104140000Y-130175000D02*
X106045000Y-128270000D01*
X106045000Y-128270000D02*
X106045000Y-126365000D01*
X106045000Y-126365000D02*
X104775000Y-125095000D01*
X104775000Y-125095000D02*
X102235000Y-125095000D01*
X104140000Y-137160000D02*
X104140000Y-130175000D01*
X99060000Y-123825000D02*
X99060000Y-114935000D01*
X100330000Y-125095000D02*
X99060000Y-123825000D01*
X100965000Y-100965000D02*
X100965000Y-95885000D01*
X99060000Y-102870000D02*
X100965000Y-100965000D01*
X98425000Y-102235000D02*
X96520000Y-102235000D01*
X95885000Y-107950000D02*
X95885000Y-111125000D01*
X95885000Y-102870000D02*
X95885000Y-104140000D01*
X96520000Y-102235000D02*
X95885000Y-102870000D01*
X100330000Y-95250000D02*
X100965000Y-94615000D01*
X100330000Y-100330000D02*
X100330000Y-95250000D01*
X99695000Y-100965000D02*
X100330000Y-100330000D01*
X98425000Y-102235000D02*
X99695000Y-100965000D01*
X95885000Y-114935000D02*
X95885000Y-111125000D01*
X97155000Y-116205000D02*
X95885000Y-114935000D01*
X111688000Y-95178000D02*
X111688000Y-96520000D01*
X111125000Y-94615000D02*
X111688000Y-95178000D01*
X100965000Y-94615000D02*
X111125000Y-94615000D01*
X97790000Y-116205000D02*
X97155000Y-116205000D01*
X126746000Y-98044000D02*
X125476000Y-98044000D01*
X123825000Y-106045000D02*
X118745000Y-106045000D01*
X125095000Y-104775000D02*
X123825000Y-106045000D01*
X125095000Y-98425000D02*
X125095000Y-104775000D01*
X125476000Y-98044000D02*
X125095000Y-98425000D01*
X104763000Y-99360000D02*
X104763000Y-102858000D01*
X106045000Y-104140000D02*
X116205000Y-104140000D01*
X104763000Y-102858000D02*
X106045000Y-104140000D01*
X151765000Y-113665000D02*
X149860000Y-113665000D01*
X149225000Y-113030000D02*
X149225000Y-111125000D01*
X149860000Y-113665000D02*
X149225000Y-113030000D01*
X141835000Y-100560000D02*
X141835000Y-101195000D01*
X149225000Y-111125000D02*
X148590000Y-110490000D01*
X148590000Y-110490000D02*
X148590000Y-107950000D01*
X148590000Y-107950000D02*
X147320000Y-106680000D01*
X142875000Y-102235000D02*
X142240000Y-101600000D01*
X153670000Y-124460000D02*
X153035000Y-123825000D01*
X154940000Y-125730000D02*
X153670000Y-124460000D01*
X160020000Y-128270000D02*
X160020000Y-126365000D01*
X158750000Y-129540000D02*
X160020000Y-128270000D01*
X158750000Y-137160000D02*
X158750000Y-129540000D01*
X159385000Y-125730000D02*
X157480000Y-125730000D01*
X160020000Y-126365000D02*
X159385000Y-125730000D01*
X157480000Y-125730000D02*
X154940000Y-125730000D01*
X153035000Y-123825000D02*
X153035000Y-120015000D01*
X141835000Y-100560000D02*
X141835000Y-96520000D01*
X153035000Y-120015000D02*
X153035000Y-118110000D01*
X141835000Y-101195000D02*
X142240000Y-101600000D01*
X147320000Y-96575000D02*
X147375000Y-96520000D01*
X147320000Y-102235000D02*
X147320000Y-96575000D01*
X146685000Y-102870000D02*
X147320000Y-102235000D01*
X137795000Y-114935000D02*
X135890000Y-113030000D01*
X135890000Y-113030000D02*
X133985000Y-113030000D01*
X133985000Y-113030000D02*
X132715000Y-111760000D01*
X132715000Y-111760000D02*
X132715000Y-103505000D01*
X132715000Y-103505000D02*
X133350000Y-102870000D01*
X133350000Y-102870000D02*
X144780000Y-102870000D01*
X137795000Y-116205000D02*
X137795000Y-114935000D01*
X146685000Y-102870000D02*
X144780000Y-102870000D01*
X140450000Y-99360000D02*
X140450000Y-101715000D01*
X158750000Y-104775000D02*
X158750000Y-106045000D01*
X157480000Y-103505000D02*
X158750000Y-104775000D01*
X142240000Y-103505000D02*
X157480000Y-103505000D01*
X140450000Y-101715000D02*
X140970000Y-102235000D01*
X130175000Y-114935000D02*
X131445000Y-114935000D01*
X146685000Y-117475000D02*
X148590000Y-117475000D01*
X158115000Y-114300000D02*
X150495000Y-114300000D01*
X158750000Y-114935000D02*
X158115000Y-114300000D01*
X158750000Y-114935000D02*
X158750000Y-116205000D01*
X149225000Y-117475000D02*
X149860000Y-116840000D01*
X149860000Y-116840000D02*
X149860000Y-114935000D01*
X149860000Y-114935000D02*
X150495000Y-114300000D01*
X148590000Y-117475000D02*
X149225000Y-117475000D01*
X133350000Y-117475000D02*
X132080000Y-116205000D01*
X132080000Y-116205000D02*
X132080000Y-115570000D01*
X146685000Y-117475000D02*
X133350000Y-117475000D01*
X131445000Y-114935000D02*
X132080000Y-115570000D01*
X147955000Y-108585000D02*
X146050000Y-106680000D01*
X147955000Y-112395000D02*
X147955000Y-108585000D01*
X142875000Y-107315000D02*
X142875000Y-108585000D01*
X143510000Y-106680000D02*
X142875000Y-107315000D01*
X146050000Y-106680000D02*
X143510000Y-106680000D01*
X147955000Y-116205000D02*
X147955000Y-112395000D01*
X141605000Y-108585000D02*
X141605000Y-106045000D01*
X134620000Y-106045000D02*
X141605000Y-106045000D01*
X141605000Y-106045000D02*
X142875000Y-106045000D01*
X142875000Y-106045000D02*
X151130000Y-106045000D01*
X151130000Y-106045000D02*
X154940000Y-106045000D01*
X151130000Y-132080000D02*
X153670000Y-132080000D01*
X154940000Y-130810000D02*
X153670000Y-132080000D01*
X154940000Y-130810000D02*
X154940000Y-127000000D01*
X154940000Y-127000000D02*
X158750000Y-127000000D01*
X151130000Y-133350000D02*
X148590000Y-133350000D01*
X148590000Y-133350000D02*
X148590000Y-130810000D01*
X148590000Y-140335000D02*
X148590000Y-133350000D01*
X148590000Y-130810000D02*
X148590000Y-123825000D01*
X148590000Y-120015000D02*
X148590000Y-123825000D01*
M02*
