G04 #@! TF.FileFunction,Copper,L2,Bot,Signal*
%FSLAX46Y46*%
G04 Gerber Fmt 4.6, Leading zero omitted, Abs format (unit mm)*
G04 Created by KiCad (PCBNEW 4.0.7) date 09/30/18 13:22:59*
%MOMM*%
%LPD*%
G01*
G04 APERTURE LIST*
%ADD10C,0.100000*%
%ADD11C,1.600000*%
%ADD12O,1.600000X1.600000*%
%ADD13R,1.600000X1.600000*%
%ADD14O,1.500000X0.900000*%
%ADD15R,1.500000X0.900000*%
%ADD16O,0.900000X1.500000*%
%ADD17R,0.900000X1.500000*%
%ADD18C,0.600000*%
%ADD19C,0.250000*%
%ADD20C,0.254000*%
G04 APERTURE END LIST*
D10*
D11*
X118745000Y-106045000D03*
D12*
X118745000Y-116205000D03*
D11*
X114935000Y-116205000D03*
D12*
X114935000Y-106045000D03*
D11*
X111125000Y-106045000D03*
D12*
X111125000Y-116205000D03*
D11*
X94615000Y-106045000D03*
D12*
X94615000Y-116205000D03*
D11*
X107950000Y-116205000D03*
D12*
X97790000Y-116205000D03*
D11*
X107950000Y-112395000D03*
D12*
X97790000Y-112395000D03*
D11*
X104775000Y-120015000D03*
D12*
X94615000Y-120015000D03*
D11*
X94615000Y-123825000D03*
D12*
X104775000Y-123825000D03*
D11*
X94615000Y-140335000D03*
D12*
X104775000Y-140335000D03*
D11*
X104140000Y-127000000D03*
D12*
X104140000Y-137160000D03*
D11*
X100330000Y-127000000D03*
D12*
X100330000Y-137160000D03*
D11*
X158750000Y-106045000D03*
D12*
X158750000Y-116205000D03*
D11*
X154940000Y-116205000D03*
D12*
X154940000Y-106045000D03*
D11*
X151130000Y-106045000D03*
D12*
X151130000Y-116205000D03*
D11*
X134620000Y-106045000D03*
D12*
X134620000Y-116205000D03*
D11*
X147955000Y-116205000D03*
D12*
X137795000Y-116205000D03*
D11*
X147955000Y-112395000D03*
D12*
X137795000Y-112395000D03*
D11*
X158750000Y-120015000D03*
D12*
X148590000Y-120015000D03*
D11*
X148590000Y-123825000D03*
D12*
X158750000Y-123825000D03*
D11*
X148590000Y-140335000D03*
D12*
X158750000Y-140335000D03*
D11*
X158750000Y-127000000D03*
D12*
X158750000Y-137160000D03*
D11*
X154940000Y-127000000D03*
D12*
X154940000Y-137160000D03*
D13*
X136398000Y-130556000D03*
D11*
X133628000Y-130556000D03*
X130858000Y-130556000D03*
X128088000Y-130556000D03*
X125318000Y-130556000D03*
X122548000Y-130556000D03*
X119778000Y-130556000D03*
X117008000Y-130556000D03*
X135013000Y-133396000D03*
X132243000Y-133396000D03*
X129473000Y-133396000D03*
X126703000Y-133396000D03*
X123933000Y-133396000D03*
X121163000Y-133396000D03*
X118393000Y-133396000D03*
D13*
X103378000Y-96520000D03*
D11*
X106148000Y-96520000D03*
X108918000Y-96520000D03*
X111688000Y-96520000D03*
X114458000Y-96520000D03*
X104763000Y-99360000D03*
X107533000Y-99360000D03*
X110303000Y-99360000D03*
X113073000Y-99360000D03*
D13*
X139065000Y-96520000D03*
D11*
X141835000Y-96520000D03*
X144605000Y-96520000D03*
X147375000Y-96520000D03*
X150145000Y-96520000D03*
X140450000Y-99360000D03*
X143220000Y-99360000D03*
X145990000Y-99360000D03*
X148760000Y-99360000D03*
D14*
X123190000Y-114935000D03*
X123190000Y-116205000D03*
D15*
X123190000Y-113665000D03*
D16*
X102870000Y-108585000D03*
X104140000Y-108585000D03*
D17*
X101600000Y-108585000D03*
D14*
X96520000Y-132080000D03*
X96520000Y-130810000D03*
D15*
X96520000Y-133350000D03*
D14*
X130175000Y-114935000D03*
X130175000Y-113665000D03*
D15*
X130175000Y-116205000D03*
D16*
X142875000Y-108585000D03*
X144145000Y-108585000D03*
D17*
X141605000Y-108585000D03*
D14*
X151130000Y-132080000D03*
X151130000Y-130810000D03*
D15*
X151130000Y-133350000D03*
D18*
X147955000Y-104140000D03*
X156845000Y-113665000D03*
X146050000Y-102235000D03*
X128270000Y-119380000D03*
X127000000Y-116205000D03*
X128270000Y-126365000D03*
X97155000Y-107315000D03*
X97155000Y-104140000D03*
X150495000Y-113030000D03*
X148590000Y-106680000D03*
X144780000Y-102235000D03*
X127000000Y-128905000D03*
X127635000Y-125730000D03*
X97790000Y-106680000D03*
X97790000Y-104775000D03*
X111125000Y-118745000D03*
X112395000Y-124460000D03*
X96520000Y-106680000D03*
X96520000Y-103505000D03*
X95885000Y-107950000D03*
X95885000Y-104140000D03*
X116205000Y-104140000D03*
X153035000Y-118110000D03*
X151765000Y-113665000D03*
X147320000Y-106680000D03*
X142875000Y-102235000D03*
X142240000Y-103505000D03*
X140970000Y-102235000D03*
D19*
X146050000Y-102235000D02*
X147955000Y-104140000D01*
X156845000Y-113665000D02*
X154940000Y-115570000D01*
X154940000Y-115570000D02*
X154940000Y-116205000D01*
X128270000Y-117475000D02*
X128270000Y-119380000D01*
X127000000Y-116205000D02*
X128270000Y-117475000D01*
X128088000Y-126547000D02*
X128270000Y-126365000D01*
X128088000Y-130556000D02*
X128088000Y-126547000D01*
X97155000Y-104140000D02*
X97155000Y-107315000D01*
X151130000Y-113665000D02*
X150495000Y-113030000D01*
X148590000Y-106680000D02*
X144780000Y-102870000D01*
X144780000Y-102870000D02*
X144780000Y-102235000D01*
X151130000Y-113665000D02*
X151130000Y-116205000D01*
X127000000Y-128905000D02*
X127000000Y-126365000D01*
X127000000Y-126365000D02*
X127635000Y-125730000D01*
X97790000Y-104775000D02*
X97790000Y-106680000D01*
X111125000Y-118745000D02*
X111125000Y-123190000D01*
X112395000Y-124460000D02*
X111125000Y-123190000D01*
X96520000Y-103505000D02*
X96520000Y-106680000D01*
X95885000Y-104140000D02*
X95885000Y-107950000D01*
X118745000Y-104775000D02*
X118745000Y-106045000D01*
X118110000Y-104140000D02*
X118745000Y-104775000D01*
X116205000Y-104140000D02*
X118110000Y-104140000D01*
X153035000Y-118110000D02*
X152400000Y-117475000D01*
X152400000Y-117475000D02*
X152400000Y-114300000D01*
X152400000Y-114300000D02*
X151765000Y-113665000D01*
X147320000Y-106680000D02*
X142875000Y-102235000D01*
X140970000Y-102235000D02*
X142240000Y-103505000D01*
D20*
G36*
X159593979Y-93475478D02*
X159771145Y-93593856D01*
X159889521Y-93771019D01*
X159945000Y-94049931D01*
X159945000Y-105210918D01*
X159563923Y-104829176D01*
X159036691Y-104610250D01*
X158465813Y-104609752D01*
X157938200Y-104827757D01*
X157534176Y-105231077D01*
X157315250Y-105758309D01*
X157314752Y-106329187D01*
X157532757Y-106856800D01*
X157936077Y-107260824D01*
X158463309Y-107479750D01*
X159034187Y-107480248D01*
X159561800Y-107262243D01*
X159945000Y-106879711D01*
X159945000Y-115432030D01*
X159764698Y-115162189D01*
X159299151Y-114851120D01*
X158750000Y-114741887D01*
X158200849Y-114851120D01*
X157735302Y-115162189D01*
X157424233Y-115627736D01*
X157315000Y-116176887D01*
X157315000Y-116233113D01*
X157424233Y-116782264D01*
X157735302Y-117247811D01*
X158200849Y-117558880D01*
X158750000Y-117668113D01*
X159299151Y-117558880D01*
X159764698Y-117247811D01*
X159945000Y-116977970D01*
X159945000Y-119180918D01*
X159563923Y-118799176D01*
X159036691Y-118580250D01*
X158465813Y-118579752D01*
X157938200Y-118797757D01*
X157534176Y-119201077D01*
X157315250Y-119728309D01*
X157314752Y-120299187D01*
X157532757Y-120826800D01*
X157936077Y-121230824D01*
X158463309Y-121449750D01*
X159034187Y-121450248D01*
X159561800Y-121232243D01*
X159945000Y-120849711D01*
X159945000Y-123038069D01*
X159792811Y-122810302D01*
X159327264Y-122499233D01*
X158778113Y-122390000D01*
X158721887Y-122390000D01*
X158172736Y-122499233D01*
X157707189Y-122810302D01*
X157396120Y-123275849D01*
X157286887Y-123825000D01*
X157396120Y-124374151D01*
X157707189Y-124839698D01*
X158172736Y-125150767D01*
X158721887Y-125260000D01*
X158778113Y-125260000D01*
X159327264Y-125150767D01*
X159792811Y-124839698D01*
X159945000Y-124611931D01*
X159945000Y-126165918D01*
X159563923Y-125784176D01*
X159036691Y-125565250D01*
X158465813Y-125564752D01*
X157938200Y-125782757D01*
X157534176Y-126186077D01*
X157315250Y-126713309D01*
X157314752Y-127284187D01*
X157532757Y-127811800D01*
X157936077Y-128215824D01*
X158463309Y-128434750D01*
X159034187Y-128435248D01*
X159561800Y-128217243D01*
X159945000Y-127834711D01*
X159945000Y-136387030D01*
X159764698Y-136117189D01*
X159299151Y-135806120D01*
X158750000Y-135696887D01*
X158200849Y-135806120D01*
X157735302Y-136117189D01*
X157424233Y-136582736D01*
X157315000Y-137131887D01*
X157315000Y-137188113D01*
X157424233Y-137737264D01*
X157735302Y-138202811D01*
X158200849Y-138513880D01*
X158750000Y-138623113D01*
X159299151Y-138513880D01*
X159764698Y-138202811D01*
X159945000Y-137932970D01*
X159945000Y-139557791D01*
X159605134Y-139182611D01*
X159099041Y-138943086D01*
X158877000Y-139064371D01*
X158877000Y-140208000D01*
X158897000Y-140208000D01*
X158897000Y-140462000D01*
X158877000Y-140462000D01*
X158877000Y-140482000D01*
X158623000Y-140482000D01*
X158623000Y-140462000D01*
X157480085Y-140462000D01*
X157358096Y-140684039D01*
X157518959Y-141072423D01*
X157894866Y-141487389D01*
X157984899Y-141530000D01*
X149424082Y-141530000D01*
X149805824Y-141148923D01*
X150024750Y-140621691D01*
X150025248Y-140050813D01*
X149998452Y-139985961D01*
X157358096Y-139985961D01*
X157480085Y-140208000D01*
X158623000Y-140208000D01*
X158623000Y-139064371D01*
X158400959Y-138943086D01*
X157894866Y-139182611D01*
X157518959Y-139597577D01*
X157358096Y-139985961D01*
X149998452Y-139985961D01*
X149807243Y-139523200D01*
X149403923Y-139119176D01*
X148876691Y-138900250D01*
X148305813Y-138899752D01*
X147778200Y-139117757D01*
X147374176Y-139521077D01*
X147155250Y-140048309D01*
X147154752Y-140619187D01*
X147372757Y-141146800D01*
X147755289Y-141530000D01*
X105540101Y-141530000D01*
X105630134Y-141487389D01*
X106006041Y-141072423D01*
X106166904Y-140684039D01*
X106044915Y-140462000D01*
X104902000Y-140462000D01*
X104902000Y-140482000D01*
X104648000Y-140482000D01*
X104648000Y-140462000D01*
X103505085Y-140462000D01*
X103383096Y-140684039D01*
X103543959Y-141072423D01*
X103919866Y-141487389D01*
X104009899Y-141530000D01*
X95449082Y-141530000D01*
X95830824Y-141148923D01*
X96049750Y-140621691D01*
X96050248Y-140050813D01*
X96023452Y-139985961D01*
X103383096Y-139985961D01*
X103505085Y-140208000D01*
X104648000Y-140208000D01*
X104648000Y-139064371D01*
X104902000Y-139064371D01*
X104902000Y-140208000D01*
X106044915Y-140208000D01*
X106166904Y-139985961D01*
X106006041Y-139597577D01*
X105630134Y-139182611D01*
X105124041Y-138943086D01*
X104902000Y-139064371D01*
X104648000Y-139064371D01*
X104425959Y-138943086D01*
X103919866Y-139182611D01*
X103543959Y-139597577D01*
X103383096Y-139985961D01*
X96023452Y-139985961D01*
X95832243Y-139523200D01*
X95428923Y-139119176D01*
X94901691Y-138900250D01*
X94330813Y-138899752D01*
X93803200Y-139117757D01*
X93420000Y-139500289D01*
X93420000Y-137509041D01*
X98938086Y-137509041D01*
X99177611Y-138015134D01*
X99592577Y-138391041D01*
X99980961Y-138551904D01*
X100203000Y-138429915D01*
X100203000Y-137287000D01*
X100457000Y-137287000D01*
X100457000Y-138429915D01*
X100679039Y-138551904D01*
X101067423Y-138391041D01*
X101482389Y-138015134D01*
X101721914Y-137509041D01*
X101600629Y-137287000D01*
X100457000Y-137287000D01*
X100203000Y-137287000D01*
X99059371Y-137287000D01*
X98938086Y-137509041D01*
X93420000Y-137509041D01*
X93420000Y-137131887D01*
X102705000Y-137131887D01*
X102705000Y-137188113D01*
X102814233Y-137737264D01*
X103125302Y-138202811D01*
X103590849Y-138513880D01*
X104140000Y-138623113D01*
X104689151Y-138513880D01*
X105154698Y-138202811D01*
X105465767Y-137737264D01*
X105511163Y-137509041D01*
X153548086Y-137509041D01*
X153787611Y-138015134D01*
X154202577Y-138391041D01*
X154590961Y-138551904D01*
X154813000Y-138429915D01*
X154813000Y-137287000D01*
X155067000Y-137287000D01*
X155067000Y-138429915D01*
X155289039Y-138551904D01*
X155677423Y-138391041D01*
X156092389Y-138015134D01*
X156331914Y-137509041D01*
X156210629Y-137287000D01*
X155067000Y-137287000D01*
X154813000Y-137287000D01*
X153669371Y-137287000D01*
X153548086Y-137509041D01*
X105511163Y-137509041D01*
X105575000Y-137188113D01*
X105575000Y-137131887D01*
X105511164Y-136810959D01*
X153548086Y-136810959D01*
X153669371Y-137033000D01*
X154813000Y-137033000D01*
X154813000Y-135890085D01*
X155067000Y-135890085D01*
X155067000Y-137033000D01*
X156210629Y-137033000D01*
X156331914Y-136810959D01*
X156092389Y-136304866D01*
X155677423Y-135928959D01*
X155289039Y-135768096D01*
X155067000Y-135890085D01*
X154813000Y-135890085D01*
X154590961Y-135768096D01*
X154202577Y-135928959D01*
X153787611Y-136304866D01*
X153548086Y-136810959D01*
X105511164Y-136810959D01*
X105465767Y-136582736D01*
X105154698Y-136117189D01*
X104689151Y-135806120D01*
X104140000Y-135696887D01*
X103590849Y-135806120D01*
X103125302Y-136117189D01*
X102814233Y-136582736D01*
X102705000Y-137131887D01*
X93420000Y-137131887D01*
X93420000Y-136810959D01*
X98938086Y-136810959D01*
X99059371Y-137033000D01*
X100203000Y-137033000D01*
X100203000Y-135890085D01*
X100457000Y-135890085D01*
X100457000Y-137033000D01*
X101600629Y-137033000D01*
X101721914Y-136810959D01*
X101482389Y-136304866D01*
X101067423Y-135928959D01*
X100679039Y-135768096D01*
X100457000Y-135890085D01*
X100203000Y-135890085D01*
X99980961Y-135768096D01*
X99592577Y-135928959D01*
X99177611Y-136304866D01*
X98938086Y-136810959D01*
X93420000Y-136810959D01*
X93420000Y-132080000D01*
X95107866Y-132080000D01*
X95190457Y-132495212D01*
X95233759Y-132560019D01*
X95173569Y-132648110D01*
X95122560Y-132900000D01*
X95122560Y-133800000D01*
X95166838Y-134035317D01*
X95305910Y-134251441D01*
X95518110Y-134396431D01*
X95770000Y-134447440D01*
X97270000Y-134447440D01*
X97505317Y-134403162D01*
X97721441Y-134264090D01*
X97866431Y-134051890D01*
X97917440Y-133800000D01*
X97917440Y-133680187D01*
X116957752Y-133680187D01*
X117175757Y-134207800D01*
X117579077Y-134611824D01*
X118106309Y-134830750D01*
X118677187Y-134831248D01*
X119204800Y-134613243D01*
X119608824Y-134209923D01*
X119778146Y-133802150D01*
X119945757Y-134207800D01*
X120349077Y-134611824D01*
X120876309Y-134830750D01*
X121447187Y-134831248D01*
X121974800Y-134613243D01*
X122378824Y-134209923D01*
X122548146Y-133802150D01*
X122715757Y-134207800D01*
X123119077Y-134611824D01*
X123646309Y-134830750D01*
X124217187Y-134831248D01*
X124744800Y-134613243D01*
X125148824Y-134209923D01*
X125318146Y-133802150D01*
X125485757Y-134207800D01*
X125889077Y-134611824D01*
X126416309Y-134830750D01*
X126987187Y-134831248D01*
X127514800Y-134613243D01*
X127918824Y-134209923D01*
X128088146Y-133802150D01*
X128255757Y-134207800D01*
X128659077Y-134611824D01*
X129186309Y-134830750D01*
X129757187Y-134831248D01*
X130284800Y-134613243D01*
X130688824Y-134209923D01*
X130858146Y-133802150D01*
X131025757Y-134207800D01*
X131429077Y-134611824D01*
X131956309Y-134830750D01*
X132527187Y-134831248D01*
X133054800Y-134613243D01*
X133458824Y-134209923D01*
X133628146Y-133802150D01*
X133795757Y-134207800D01*
X134199077Y-134611824D01*
X134726309Y-134830750D01*
X135297187Y-134831248D01*
X135824800Y-134613243D01*
X136228824Y-134209923D01*
X136447750Y-133682691D01*
X136448248Y-133111813D01*
X136230243Y-132584200D01*
X135826923Y-132180176D01*
X135585673Y-132080000D01*
X149717866Y-132080000D01*
X149800457Y-132495212D01*
X149843759Y-132560019D01*
X149783569Y-132648110D01*
X149732560Y-132900000D01*
X149732560Y-133800000D01*
X149776838Y-134035317D01*
X149915910Y-134251441D01*
X150128110Y-134396431D01*
X150380000Y-134447440D01*
X151880000Y-134447440D01*
X152115317Y-134403162D01*
X152331441Y-134264090D01*
X152476431Y-134051890D01*
X152527440Y-133800000D01*
X152527440Y-132900000D01*
X152483162Y-132664683D01*
X152416022Y-132560345D01*
X152459543Y-132495212D01*
X152542134Y-132080000D01*
X152459543Y-131664788D01*
X152309830Y-131440726D01*
X152474408Y-131104001D01*
X152347502Y-130937000D01*
X151257000Y-130937000D01*
X151257000Y-130957000D01*
X151003000Y-130957000D01*
X151003000Y-130937000D01*
X149912498Y-130937000D01*
X149785592Y-131104001D01*
X149950170Y-131440726D01*
X149800457Y-131664788D01*
X149717866Y-132080000D01*
X135585673Y-132080000D01*
X135299691Y-131961250D01*
X134728813Y-131960752D01*
X134201200Y-132178757D01*
X133797176Y-132582077D01*
X133627854Y-132989850D01*
X133460243Y-132584200D01*
X133056923Y-132180176D01*
X132529691Y-131961250D01*
X131958813Y-131960752D01*
X131431200Y-132178757D01*
X131027176Y-132582077D01*
X130857854Y-132989850D01*
X130690243Y-132584200D01*
X130286923Y-132180176D01*
X129759691Y-131961250D01*
X129188813Y-131960752D01*
X128661200Y-132178757D01*
X128257176Y-132582077D01*
X128087854Y-132989850D01*
X127920243Y-132584200D01*
X127516923Y-132180176D01*
X126989691Y-131961250D01*
X126418813Y-131960752D01*
X125891200Y-132178757D01*
X125487176Y-132582077D01*
X125317854Y-132989850D01*
X125150243Y-132584200D01*
X124746923Y-132180176D01*
X124219691Y-131961250D01*
X123648813Y-131960752D01*
X123121200Y-132178757D01*
X122717176Y-132582077D01*
X122547854Y-132989850D01*
X122380243Y-132584200D01*
X121976923Y-132180176D01*
X121449691Y-131961250D01*
X120878813Y-131960752D01*
X120351200Y-132178757D01*
X119947176Y-132582077D01*
X119777854Y-132989850D01*
X119610243Y-132584200D01*
X119206923Y-132180176D01*
X118679691Y-131961250D01*
X118108813Y-131960752D01*
X117581200Y-132178757D01*
X117177176Y-132582077D01*
X116958250Y-133109309D01*
X116957752Y-133680187D01*
X97917440Y-133680187D01*
X97917440Y-132900000D01*
X97873162Y-132664683D01*
X97806022Y-132560345D01*
X97849543Y-132495212D01*
X97932134Y-132080000D01*
X97849543Y-131664788D01*
X97782029Y-131563745D01*
X116179861Y-131563745D01*
X116253995Y-131809864D01*
X116791223Y-132002965D01*
X117361454Y-131975778D01*
X117762005Y-131809864D01*
X117836139Y-131563745D01*
X117008000Y-130735605D01*
X116179861Y-131563745D01*
X97782029Y-131563745D01*
X97699830Y-131440726D01*
X97864408Y-131104001D01*
X97737502Y-130937000D01*
X96647000Y-130937000D01*
X96647000Y-130957000D01*
X96393000Y-130957000D01*
X96393000Y-130937000D01*
X95302498Y-130937000D01*
X95175592Y-131104001D01*
X95340170Y-131440726D01*
X95190457Y-131664788D01*
X95107866Y-132080000D01*
X93420000Y-132080000D01*
X93420000Y-130515999D01*
X95175592Y-130515999D01*
X95302498Y-130683000D01*
X96393000Y-130683000D01*
X96393000Y-129725000D01*
X96647000Y-129725000D01*
X96647000Y-130683000D01*
X97737502Y-130683000D01*
X97864408Y-130515999D01*
X97778007Y-130339223D01*
X115561035Y-130339223D01*
X115588222Y-130909454D01*
X115754136Y-131310005D01*
X116000255Y-131384139D01*
X116828395Y-130556000D01*
X117187605Y-130556000D01*
X118015745Y-131384139D01*
X118261864Y-131310005D01*
X118389804Y-130954062D01*
X118560757Y-131367800D01*
X118964077Y-131771824D01*
X119491309Y-131990750D01*
X120062187Y-131991248D01*
X120589800Y-131773243D01*
X120993824Y-131369923D01*
X121163146Y-130962150D01*
X121330757Y-131367800D01*
X121734077Y-131771824D01*
X122261309Y-131990750D01*
X122832187Y-131991248D01*
X123359800Y-131773243D01*
X123763824Y-131369923D01*
X123933146Y-130962150D01*
X124100757Y-131367800D01*
X124504077Y-131771824D01*
X125031309Y-131990750D01*
X125602187Y-131991248D01*
X126129800Y-131773243D01*
X126533824Y-131369923D01*
X126703146Y-130962150D01*
X126870757Y-131367800D01*
X127274077Y-131771824D01*
X127801309Y-131990750D01*
X128372187Y-131991248D01*
X128899800Y-131773243D01*
X129303824Y-131369923D01*
X129473146Y-130962150D01*
X129640757Y-131367800D01*
X130044077Y-131771824D01*
X130571309Y-131990750D01*
X131142187Y-131991248D01*
X131669800Y-131773243D01*
X132073824Y-131369923D01*
X132243146Y-130962150D01*
X132410757Y-131367800D01*
X132814077Y-131771824D01*
X133341309Y-131990750D01*
X133912187Y-131991248D01*
X134439800Y-131773243D01*
X134843824Y-131369923D01*
X134950560Y-131112874D01*
X134950560Y-131356000D01*
X134994838Y-131591317D01*
X135133910Y-131807441D01*
X135346110Y-131952431D01*
X135598000Y-132003440D01*
X137198000Y-132003440D01*
X137433317Y-131959162D01*
X137649441Y-131820090D01*
X137794431Y-131607890D01*
X137845440Y-131356000D01*
X137845440Y-130515999D01*
X149785592Y-130515999D01*
X149912498Y-130683000D01*
X151003000Y-130683000D01*
X151003000Y-129725000D01*
X151257000Y-129725000D01*
X151257000Y-130683000D01*
X152347502Y-130683000D01*
X152474408Y-130515999D01*
X152287013Y-130132592D01*
X151962544Y-129856192D01*
X151557000Y-129725000D01*
X151257000Y-129725000D01*
X151003000Y-129725000D01*
X150703000Y-129725000D01*
X150297456Y-129856192D01*
X149972987Y-130132592D01*
X149785592Y-130515999D01*
X137845440Y-130515999D01*
X137845440Y-129756000D01*
X137801162Y-129520683D01*
X137662090Y-129304559D01*
X137449890Y-129159569D01*
X137198000Y-129108560D01*
X135598000Y-129108560D01*
X135362683Y-129152838D01*
X135146559Y-129291910D01*
X135001569Y-129504110D01*
X134950560Y-129756000D01*
X134950560Y-129999087D01*
X134845243Y-129744200D01*
X134441923Y-129340176D01*
X133914691Y-129121250D01*
X133343813Y-129120752D01*
X132816200Y-129338757D01*
X132412176Y-129742077D01*
X132242854Y-130149850D01*
X132075243Y-129744200D01*
X131671923Y-129340176D01*
X131144691Y-129121250D01*
X130573813Y-129120752D01*
X130046200Y-129338757D01*
X129642176Y-129742077D01*
X129472854Y-130149850D01*
X129305243Y-129744200D01*
X128901923Y-129340176D01*
X128848000Y-129317785D01*
X128848000Y-127284187D01*
X153504752Y-127284187D01*
X153722757Y-127811800D01*
X154126077Y-128215824D01*
X154653309Y-128434750D01*
X155224187Y-128435248D01*
X155751800Y-128217243D01*
X156155824Y-127813923D01*
X156374750Y-127286691D01*
X156375248Y-126715813D01*
X156157243Y-126188200D01*
X155753923Y-125784176D01*
X155226691Y-125565250D01*
X154655813Y-125564752D01*
X154128200Y-125782757D01*
X153724176Y-126186077D01*
X153505250Y-126713309D01*
X153504752Y-127284187D01*
X128848000Y-127284187D01*
X128848000Y-127109146D01*
X129062192Y-126895327D01*
X129204838Y-126551799D01*
X129205162Y-126179833D01*
X129063117Y-125836057D01*
X128800327Y-125572808D01*
X128536446Y-125463235D01*
X128428117Y-125201057D01*
X128165327Y-124937808D01*
X127821799Y-124795162D01*
X127449833Y-124794838D01*
X127106057Y-124936883D01*
X126842808Y-125199673D01*
X126700162Y-125543201D01*
X126700121Y-125590077D01*
X126462599Y-125827599D01*
X126297852Y-126074161D01*
X126240000Y-126365000D01*
X126240000Y-128342537D01*
X126207808Y-128374673D01*
X126065162Y-128718201D01*
X126064838Y-129090167D01*
X126193716Y-129402077D01*
X126131923Y-129340176D01*
X125604691Y-129121250D01*
X125033813Y-129120752D01*
X124506200Y-129338757D01*
X124102176Y-129742077D01*
X123932854Y-130149850D01*
X123765243Y-129744200D01*
X123361923Y-129340176D01*
X122834691Y-129121250D01*
X122263813Y-129120752D01*
X121736200Y-129338757D01*
X121332176Y-129742077D01*
X121162854Y-130149850D01*
X120995243Y-129744200D01*
X120591923Y-129340176D01*
X120064691Y-129121250D01*
X119493813Y-129120752D01*
X118966200Y-129338757D01*
X118562176Y-129742077D01*
X118399410Y-130134060D01*
X118261864Y-129801995D01*
X118015745Y-129727861D01*
X117187605Y-130556000D01*
X116828395Y-130556000D01*
X116000255Y-129727861D01*
X115754136Y-129801995D01*
X115561035Y-130339223D01*
X97778007Y-130339223D01*
X97677013Y-130132592D01*
X97352544Y-129856192D01*
X96947000Y-129725000D01*
X96647000Y-129725000D01*
X96393000Y-129725000D01*
X96093000Y-129725000D01*
X95687456Y-129856192D01*
X95362987Y-130132592D01*
X95175592Y-130515999D01*
X93420000Y-130515999D01*
X93420000Y-129548255D01*
X116179861Y-129548255D01*
X117008000Y-130376395D01*
X117836139Y-129548255D01*
X117762005Y-129302136D01*
X117224777Y-129109035D01*
X116654546Y-129136222D01*
X116253995Y-129302136D01*
X116179861Y-129548255D01*
X93420000Y-129548255D01*
X93420000Y-127284187D01*
X98894752Y-127284187D01*
X99112757Y-127811800D01*
X99516077Y-128215824D01*
X100043309Y-128434750D01*
X100614187Y-128435248D01*
X101141800Y-128217243D01*
X101545824Y-127813923D01*
X101764750Y-127286691D01*
X101764752Y-127284187D01*
X102704752Y-127284187D01*
X102922757Y-127811800D01*
X103326077Y-128215824D01*
X103853309Y-128434750D01*
X104424187Y-128435248D01*
X104951800Y-128217243D01*
X105355824Y-127813923D01*
X105574750Y-127286691D01*
X105575248Y-126715813D01*
X105357243Y-126188200D01*
X104953923Y-125784176D01*
X104426691Y-125565250D01*
X103855813Y-125564752D01*
X103328200Y-125782757D01*
X102924176Y-126186077D01*
X102705250Y-126713309D01*
X102704752Y-127284187D01*
X101764752Y-127284187D01*
X101765248Y-126715813D01*
X101547243Y-126188200D01*
X101143923Y-125784176D01*
X100616691Y-125565250D01*
X100045813Y-125564752D01*
X99518200Y-125782757D01*
X99114176Y-126186077D01*
X98895250Y-126713309D01*
X98894752Y-127284187D01*
X93420000Y-127284187D01*
X93420000Y-124659082D01*
X93801077Y-125040824D01*
X94328309Y-125259750D01*
X94899187Y-125260248D01*
X95426800Y-125042243D01*
X95830824Y-124638923D01*
X96049750Y-124111691D01*
X96050000Y-123825000D01*
X103311887Y-123825000D01*
X103421120Y-124374151D01*
X103732189Y-124839698D01*
X104197736Y-125150767D01*
X104746887Y-125260000D01*
X104803113Y-125260000D01*
X105352264Y-125150767D01*
X105817811Y-124839698D01*
X106128880Y-124374151D01*
X106238113Y-123825000D01*
X106128880Y-123275849D01*
X105817811Y-122810302D01*
X105352264Y-122499233D01*
X104803113Y-122390000D01*
X104746887Y-122390000D01*
X104197736Y-122499233D01*
X103732189Y-122810302D01*
X103421120Y-123275849D01*
X103311887Y-123825000D01*
X96050000Y-123825000D01*
X96050248Y-123540813D01*
X95832243Y-123013200D01*
X95428923Y-122609176D01*
X94901691Y-122390250D01*
X94330813Y-122389752D01*
X93803200Y-122607757D01*
X93420000Y-122990289D01*
X93420000Y-120801931D01*
X93572189Y-121029698D01*
X94037736Y-121340767D01*
X94586887Y-121450000D01*
X94643113Y-121450000D01*
X95192264Y-121340767D01*
X95657811Y-121029698D01*
X95968880Y-120564151D01*
X96021584Y-120299187D01*
X103339752Y-120299187D01*
X103557757Y-120826800D01*
X103961077Y-121230824D01*
X104488309Y-121449750D01*
X105059187Y-121450248D01*
X105586800Y-121232243D01*
X105990824Y-120828923D01*
X106209750Y-120301691D01*
X106210248Y-119730813D01*
X105992243Y-119203200D01*
X105719686Y-118930167D01*
X110189838Y-118930167D01*
X110331883Y-119273943D01*
X110365000Y-119307118D01*
X110365000Y-123190000D01*
X110422852Y-123480839D01*
X110587599Y-123727401D01*
X111459878Y-124599680D01*
X111459838Y-124645167D01*
X111601883Y-124988943D01*
X111864673Y-125252192D01*
X112208201Y-125394838D01*
X112580167Y-125395162D01*
X112923943Y-125253117D01*
X113187192Y-124990327D01*
X113329838Y-124646799D01*
X113330162Y-124274833D01*
X113261719Y-124109187D01*
X147154752Y-124109187D01*
X147372757Y-124636800D01*
X147776077Y-125040824D01*
X148303309Y-125259750D01*
X148874187Y-125260248D01*
X149401800Y-125042243D01*
X149805824Y-124638923D01*
X150024750Y-124111691D01*
X150025248Y-123540813D01*
X149807243Y-123013200D01*
X149403923Y-122609176D01*
X148876691Y-122390250D01*
X148305813Y-122389752D01*
X147778200Y-122607757D01*
X147374176Y-123011077D01*
X147155250Y-123538309D01*
X147154752Y-124109187D01*
X113261719Y-124109187D01*
X113188117Y-123931057D01*
X112925327Y-123667808D01*
X112581799Y-123525162D01*
X112534923Y-123525121D01*
X111885000Y-122875198D01*
X111885000Y-119307463D01*
X111917192Y-119275327D01*
X112059838Y-118931799D01*
X112060162Y-118559833D01*
X111918117Y-118216057D01*
X111655327Y-117952808D01*
X111311799Y-117810162D01*
X110939833Y-117809838D01*
X110596057Y-117951883D01*
X110332808Y-118214673D01*
X110190162Y-118558201D01*
X110189838Y-118930167D01*
X105719686Y-118930167D01*
X105588923Y-118799176D01*
X105061691Y-118580250D01*
X104490813Y-118579752D01*
X103963200Y-118797757D01*
X103559176Y-119201077D01*
X103340250Y-119728309D01*
X103339752Y-120299187D01*
X96021584Y-120299187D01*
X96078113Y-120015000D01*
X95968880Y-119465849D01*
X95657811Y-119000302D01*
X95192264Y-118689233D01*
X94643113Y-118580000D01*
X94586887Y-118580000D01*
X94037736Y-118689233D01*
X93572189Y-119000302D01*
X93420000Y-119228069D01*
X93420000Y-116970101D01*
X93462611Y-117060134D01*
X93877577Y-117436041D01*
X94265961Y-117596904D01*
X94488000Y-117474915D01*
X94488000Y-116332000D01*
X94742000Y-116332000D01*
X94742000Y-117474915D01*
X94964039Y-117596904D01*
X95352423Y-117436041D01*
X95767389Y-117060134D01*
X96006914Y-116554041D01*
X95885629Y-116332000D01*
X94742000Y-116332000D01*
X94488000Y-116332000D01*
X94468000Y-116332000D01*
X94468000Y-116205000D01*
X96326887Y-116205000D01*
X96436120Y-116754151D01*
X96747189Y-117219698D01*
X97212736Y-117530767D01*
X97761887Y-117640000D01*
X97818113Y-117640000D01*
X98367264Y-117530767D01*
X98832811Y-117219698D01*
X99143880Y-116754151D01*
X99196584Y-116489187D01*
X106514752Y-116489187D01*
X106732757Y-117016800D01*
X107136077Y-117420824D01*
X107663309Y-117639750D01*
X108234187Y-117640248D01*
X108761800Y-117422243D01*
X109165824Y-117018923D01*
X109384750Y-116491691D01*
X109385024Y-116176887D01*
X109690000Y-116176887D01*
X109690000Y-116233113D01*
X109799233Y-116782264D01*
X110110302Y-117247811D01*
X110575849Y-117558880D01*
X111125000Y-117668113D01*
X111674151Y-117558880D01*
X112139698Y-117247811D01*
X112450767Y-116782264D01*
X112509063Y-116489187D01*
X113499752Y-116489187D01*
X113717757Y-117016800D01*
X114121077Y-117420824D01*
X114648309Y-117639750D01*
X115219187Y-117640248D01*
X115746800Y-117422243D01*
X116150824Y-117018923D01*
X116369750Y-116491691D01*
X116370024Y-116176887D01*
X117310000Y-116176887D01*
X117310000Y-116233113D01*
X117419233Y-116782264D01*
X117730302Y-117247811D01*
X118195849Y-117558880D01*
X118745000Y-117668113D01*
X119294151Y-117558880D01*
X119759698Y-117247811D01*
X120070767Y-116782264D01*
X120127111Y-116499001D01*
X121845592Y-116499001D01*
X122032987Y-116882408D01*
X122357456Y-117158808D01*
X122763000Y-117290000D01*
X123063000Y-117290000D01*
X123063000Y-116332000D01*
X123317000Y-116332000D01*
X123317000Y-117290000D01*
X123617000Y-117290000D01*
X124022544Y-117158808D01*
X124347013Y-116882408D01*
X124534408Y-116499001D01*
X124451704Y-116390167D01*
X126064838Y-116390167D01*
X126206883Y-116733943D01*
X126469673Y-116997192D01*
X126813201Y-117139838D01*
X126860077Y-117139879D01*
X127510000Y-117789802D01*
X127510000Y-118817537D01*
X127477808Y-118849673D01*
X127335162Y-119193201D01*
X127334838Y-119565167D01*
X127476883Y-119908943D01*
X127739673Y-120172192D01*
X128083201Y-120314838D01*
X128455167Y-120315162D01*
X128798943Y-120173117D01*
X128957336Y-120015000D01*
X147126887Y-120015000D01*
X147236120Y-120564151D01*
X147547189Y-121029698D01*
X148012736Y-121340767D01*
X148561887Y-121450000D01*
X148618113Y-121450000D01*
X149167264Y-121340767D01*
X149632811Y-121029698D01*
X149943880Y-120564151D01*
X150053113Y-120015000D01*
X149943880Y-119465849D01*
X149632811Y-119000302D01*
X149167264Y-118689233D01*
X148618113Y-118580000D01*
X148561887Y-118580000D01*
X148012736Y-118689233D01*
X147547189Y-119000302D01*
X147236120Y-119465849D01*
X147126887Y-120015000D01*
X128957336Y-120015000D01*
X129062192Y-119910327D01*
X129204838Y-119566799D01*
X129205162Y-119194833D01*
X129063117Y-118851057D01*
X129030000Y-118817882D01*
X129030000Y-117475000D01*
X128972148Y-117184161D01*
X128972148Y-117184160D01*
X128807401Y-116937599D01*
X127935122Y-116065320D01*
X127935162Y-116019833D01*
X127793117Y-115676057D01*
X127530327Y-115412808D01*
X127186799Y-115270162D01*
X126814833Y-115269838D01*
X126471057Y-115411883D01*
X126207808Y-115674673D01*
X126065162Y-116018201D01*
X126064838Y-116390167D01*
X124451704Y-116390167D01*
X124407502Y-116332000D01*
X123317000Y-116332000D01*
X123063000Y-116332000D01*
X121972498Y-116332000D01*
X121845592Y-116499001D01*
X120127111Y-116499001D01*
X120180000Y-116233113D01*
X120180000Y-116176887D01*
X120070767Y-115627736D01*
X119759698Y-115162189D01*
X119419687Y-114935000D01*
X121777866Y-114935000D01*
X121860457Y-115350212D01*
X122010170Y-115574274D01*
X121845592Y-115910999D01*
X121972498Y-116078000D01*
X123063000Y-116078000D01*
X123063000Y-116058000D01*
X123317000Y-116058000D01*
X123317000Y-116078000D01*
X124407502Y-116078000D01*
X124534408Y-115910999D01*
X124369830Y-115574274D01*
X124519543Y-115350212D01*
X124602134Y-114935000D01*
X128762866Y-114935000D01*
X128845457Y-115350212D01*
X128888759Y-115415019D01*
X128828569Y-115503110D01*
X128777560Y-115755000D01*
X128777560Y-116655000D01*
X128821838Y-116890317D01*
X128960910Y-117106441D01*
X129173110Y-117251431D01*
X129425000Y-117302440D01*
X130925000Y-117302440D01*
X131160317Y-117258162D01*
X131376441Y-117119090D01*
X131521431Y-116906890D01*
X131572440Y-116655000D01*
X131572440Y-116554041D01*
X133228086Y-116554041D01*
X133467611Y-117060134D01*
X133882577Y-117436041D01*
X134270961Y-117596904D01*
X134493000Y-117474915D01*
X134493000Y-116332000D01*
X134747000Y-116332000D01*
X134747000Y-117474915D01*
X134969039Y-117596904D01*
X135357423Y-117436041D01*
X135772389Y-117060134D01*
X136011914Y-116554041D01*
X135890629Y-116332000D01*
X134747000Y-116332000D01*
X134493000Y-116332000D01*
X133349371Y-116332000D01*
X133228086Y-116554041D01*
X131572440Y-116554041D01*
X131572440Y-116205000D01*
X136331887Y-116205000D01*
X136441120Y-116754151D01*
X136752189Y-117219698D01*
X137217736Y-117530767D01*
X137766887Y-117640000D01*
X137823113Y-117640000D01*
X138372264Y-117530767D01*
X138837811Y-117219698D01*
X139148880Y-116754151D01*
X139201584Y-116489187D01*
X146519752Y-116489187D01*
X146737757Y-117016800D01*
X147141077Y-117420824D01*
X147668309Y-117639750D01*
X148239187Y-117640248D01*
X148766800Y-117422243D01*
X149170824Y-117018923D01*
X149389750Y-116491691D01*
X149390248Y-115920813D01*
X149172243Y-115393200D01*
X148768923Y-114989176D01*
X148241691Y-114770250D01*
X147670813Y-114769752D01*
X147143200Y-114987757D01*
X146739176Y-115391077D01*
X146520250Y-115918309D01*
X146519752Y-116489187D01*
X139201584Y-116489187D01*
X139258113Y-116205000D01*
X139148880Y-115655849D01*
X138837811Y-115190302D01*
X138372264Y-114879233D01*
X137823113Y-114770000D01*
X137766887Y-114770000D01*
X137217736Y-114879233D01*
X136752189Y-115190302D01*
X136441120Y-115655849D01*
X136331887Y-116205000D01*
X131572440Y-116205000D01*
X131572440Y-115855959D01*
X133228086Y-115855959D01*
X133349371Y-116078000D01*
X134493000Y-116078000D01*
X134493000Y-114935085D01*
X134747000Y-114935085D01*
X134747000Y-116078000D01*
X135890629Y-116078000D01*
X136011914Y-115855959D01*
X135772389Y-115349866D01*
X135357423Y-114973959D01*
X134969039Y-114813096D01*
X134747000Y-114935085D01*
X134493000Y-114935085D01*
X134270961Y-114813096D01*
X133882577Y-114973959D01*
X133467611Y-115349866D01*
X133228086Y-115855959D01*
X131572440Y-115855959D01*
X131572440Y-115755000D01*
X131528162Y-115519683D01*
X131461022Y-115415345D01*
X131504543Y-115350212D01*
X131587134Y-114935000D01*
X131504543Y-114519788D01*
X131354830Y-114295726D01*
X131519408Y-113959001D01*
X131392502Y-113792000D01*
X130302000Y-113792000D01*
X130302000Y-113812000D01*
X130048000Y-113812000D01*
X130048000Y-113792000D01*
X128957498Y-113792000D01*
X128830592Y-113959001D01*
X128995170Y-114295726D01*
X128845457Y-114519788D01*
X128762866Y-114935000D01*
X124602134Y-114935000D01*
X124519543Y-114519788D01*
X124476241Y-114454981D01*
X124536431Y-114366890D01*
X124587440Y-114115000D01*
X124587440Y-113370999D01*
X128830592Y-113370999D01*
X128957498Y-113538000D01*
X130048000Y-113538000D01*
X130048000Y-112580000D01*
X130302000Y-112580000D01*
X130302000Y-113538000D01*
X131392502Y-113538000D01*
X131519408Y-113370999D01*
X131332013Y-112987592D01*
X131046104Y-112744039D01*
X136403096Y-112744039D01*
X136563959Y-113132423D01*
X136939866Y-113547389D01*
X137445959Y-113786914D01*
X137668000Y-113665629D01*
X137668000Y-112522000D01*
X137922000Y-112522000D01*
X137922000Y-113665629D01*
X138144041Y-113786914D01*
X138650134Y-113547389D01*
X139026041Y-113132423D01*
X139186904Y-112744039D01*
X139151275Y-112679187D01*
X146519752Y-112679187D01*
X146737757Y-113206800D01*
X147141077Y-113610824D01*
X147668309Y-113829750D01*
X148239187Y-113830248D01*
X148766800Y-113612243D01*
X149164569Y-113215167D01*
X149559838Y-113215167D01*
X149701883Y-113558943D01*
X149964673Y-113822192D01*
X150308201Y-113964838D01*
X150355077Y-113964879D01*
X150370000Y-113979802D01*
X150370000Y-114992005D01*
X150115302Y-115162189D01*
X149804233Y-115627736D01*
X149695000Y-116176887D01*
X149695000Y-116233113D01*
X149804233Y-116782264D01*
X150115302Y-117247811D01*
X150580849Y-117558880D01*
X151130000Y-117668113D01*
X151657540Y-117563179D01*
X151697852Y-117765839D01*
X151862599Y-118012401D01*
X152099878Y-118249680D01*
X152099838Y-118295167D01*
X152241883Y-118638943D01*
X152504673Y-118902192D01*
X152848201Y-119044838D01*
X153220167Y-119045162D01*
X153563943Y-118903117D01*
X153827192Y-118640327D01*
X153969838Y-118296799D01*
X153970162Y-117924833D01*
X153828117Y-117581057D01*
X153565327Y-117317808D01*
X153221799Y-117175162D01*
X153174923Y-117175121D01*
X153160000Y-117160198D01*
X153160000Y-116489187D01*
X153504752Y-116489187D01*
X153722757Y-117016800D01*
X154126077Y-117420824D01*
X154653309Y-117639750D01*
X155224187Y-117640248D01*
X155751800Y-117422243D01*
X156155824Y-117018923D01*
X156374750Y-116491691D01*
X156375248Y-115920813D01*
X156167289Y-115417513D01*
X156984680Y-114600122D01*
X157030167Y-114600162D01*
X157373943Y-114458117D01*
X157637192Y-114195327D01*
X157779838Y-113851799D01*
X157780162Y-113479833D01*
X157638117Y-113136057D01*
X157375327Y-112872808D01*
X157031799Y-112730162D01*
X156659833Y-112729838D01*
X156316057Y-112871883D01*
X156052808Y-113134673D01*
X155910162Y-113478201D01*
X155910121Y-113525077D01*
X154665438Y-114769760D01*
X154655813Y-114769752D01*
X154128200Y-114987757D01*
X153724176Y-115391077D01*
X153505250Y-115918309D01*
X153504752Y-116489187D01*
X153160000Y-116489187D01*
X153160000Y-114300000D01*
X153102148Y-114009161D01*
X152937401Y-113762599D01*
X152700122Y-113525320D01*
X152700162Y-113479833D01*
X152558117Y-113136057D01*
X152295327Y-112872808D01*
X151951799Y-112730162D01*
X151579833Y-112729838D01*
X151411403Y-112799432D01*
X151288117Y-112501057D01*
X151025327Y-112237808D01*
X150681799Y-112095162D01*
X150309833Y-112094838D01*
X149966057Y-112236883D01*
X149702808Y-112499673D01*
X149560162Y-112843201D01*
X149559838Y-113215167D01*
X149164569Y-113215167D01*
X149170824Y-113208923D01*
X149389750Y-112681691D01*
X149390248Y-112110813D01*
X149172243Y-111583200D01*
X148768923Y-111179176D01*
X148241691Y-110960250D01*
X147670813Y-110959752D01*
X147143200Y-111177757D01*
X146739176Y-111581077D01*
X146520250Y-112108309D01*
X146519752Y-112679187D01*
X139151275Y-112679187D01*
X139064915Y-112522000D01*
X137922000Y-112522000D01*
X137668000Y-112522000D01*
X136525085Y-112522000D01*
X136403096Y-112744039D01*
X131046104Y-112744039D01*
X131007544Y-112711192D01*
X130602000Y-112580000D01*
X130302000Y-112580000D01*
X130048000Y-112580000D01*
X129748000Y-112580000D01*
X129342456Y-112711192D01*
X129017987Y-112987592D01*
X128830592Y-113370999D01*
X124587440Y-113370999D01*
X124587440Y-113215000D01*
X124543162Y-112979683D01*
X124404090Y-112763559D01*
X124191890Y-112618569D01*
X123940000Y-112567560D01*
X122440000Y-112567560D01*
X122204683Y-112611838D01*
X121988559Y-112750910D01*
X121843569Y-112963110D01*
X121792560Y-113215000D01*
X121792560Y-114115000D01*
X121836838Y-114350317D01*
X121903978Y-114454655D01*
X121860457Y-114519788D01*
X121777866Y-114935000D01*
X119419687Y-114935000D01*
X119294151Y-114851120D01*
X118745000Y-114741887D01*
X118195849Y-114851120D01*
X117730302Y-115162189D01*
X117419233Y-115627736D01*
X117310000Y-116176887D01*
X116370024Y-116176887D01*
X116370248Y-115920813D01*
X116152243Y-115393200D01*
X115748923Y-114989176D01*
X115221691Y-114770250D01*
X114650813Y-114769752D01*
X114123200Y-114987757D01*
X113719176Y-115391077D01*
X113500250Y-115918309D01*
X113499752Y-116489187D01*
X112509063Y-116489187D01*
X112560000Y-116233113D01*
X112560000Y-116176887D01*
X112450767Y-115627736D01*
X112139698Y-115162189D01*
X111674151Y-114851120D01*
X111125000Y-114741887D01*
X110575849Y-114851120D01*
X110110302Y-115162189D01*
X109799233Y-115627736D01*
X109690000Y-116176887D01*
X109385024Y-116176887D01*
X109385248Y-115920813D01*
X109167243Y-115393200D01*
X108763923Y-114989176D01*
X108236691Y-114770250D01*
X107665813Y-114769752D01*
X107138200Y-114987757D01*
X106734176Y-115391077D01*
X106515250Y-115918309D01*
X106514752Y-116489187D01*
X99196584Y-116489187D01*
X99253113Y-116205000D01*
X99143880Y-115655849D01*
X98832811Y-115190302D01*
X98367264Y-114879233D01*
X97818113Y-114770000D01*
X97761887Y-114770000D01*
X97212736Y-114879233D01*
X96747189Y-115190302D01*
X96436120Y-115655849D01*
X96326887Y-116205000D01*
X94468000Y-116205000D01*
X94468000Y-116078000D01*
X94488000Y-116078000D01*
X94488000Y-114935085D01*
X94742000Y-114935085D01*
X94742000Y-116078000D01*
X95885629Y-116078000D01*
X96006914Y-115855959D01*
X95767389Y-115349866D01*
X95352423Y-114973959D01*
X94964039Y-114813096D01*
X94742000Y-114935085D01*
X94488000Y-114935085D01*
X94265961Y-114813096D01*
X93877577Y-114973959D01*
X93462611Y-115349866D01*
X93420000Y-115439899D01*
X93420000Y-112744039D01*
X96398096Y-112744039D01*
X96558959Y-113132423D01*
X96934866Y-113547389D01*
X97440959Y-113786914D01*
X97663000Y-113665629D01*
X97663000Y-112522000D01*
X97917000Y-112522000D01*
X97917000Y-113665629D01*
X98139041Y-113786914D01*
X98645134Y-113547389D01*
X99021041Y-113132423D01*
X99181904Y-112744039D01*
X99146275Y-112679187D01*
X106514752Y-112679187D01*
X106732757Y-113206800D01*
X107136077Y-113610824D01*
X107663309Y-113829750D01*
X108234187Y-113830248D01*
X108761800Y-113612243D01*
X109165824Y-113208923D01*
X109384750Y-112681691D01*
X109385248Y-112110813D01*
X109358452Y-112045961D01*
X136403096Y-112045961D01*
X136525085Y-112268000D01*
X137668000Y-112268000D01*
X137668000Y-111124371D01*
X137922000Y-111124371D01*
X137922000Y-112268000D01*
X139064915Y-112268000D01*
X139186904Y-112045961D01*
X139026041Y-111657577D01*
X138650134Y-111242611D01*
X138144041Y-111003086D01*
X137922000Y-111124371D01*
X137668000Y-111124371D01*
X137445959Y-111003086D01*
X136939866Y-111242611D01*
X136563959Y-111657577D01*
X136403096Y-112045961D01*
X109358452Y-112045961D01*
X109167243Y-111583200D01*
X108763923Y-111179176D01*
X108236691Y-110960250D01*
X107665813Y-110959752D01*
X107138200Y-111177757D01*
X106734176Y-111581077D01*
X106515250Y-112108309D01*
X106514752Y-112679187D01*
X99146275Y-112679187D01*
X99059915Y-112522000D01*
X97917000Y-112522000D01*
X97663000Y-112522000D01*
X96520085Y-112522000D01*
X96398096Y-112744039D01*
X93420000Y-112744039D01*
X93420000Y-112045961D01*
X96398096Y-112045961D01*
X96520085Y-112268000D01*
X97663000Y-112268000D01*
X97663000Y-111124371D01*
X97917000Y-111124371D01*
X97917000Y-112268000D01*
X99059915Y-112268000D01*
X99181904Y-112045961D01*
X99021041Y-111657577D01*
X98645134Y-111242611D01*
X98139041Y-111003086D01*
X97917000Y-111124371D01*
X97663000Y-111124371D01*
X97440959Y-111003086D01*
X96934866Y-111242611D01*
X96558959Y-111657577D01*
X96398096Y-112045961D01*
X93420000Y-112045961D01*
X93420000Y-106879082D01*
X93801077Y-107260824D01*
X94328309Y-107479750D01*
X94899187Y-107480248D01*
X95125000Y-107386944D01*
X95125000Y-107387537D01*
X95092808Y-107419673D01*
X94950162Y-107763201D01*
X94949838Y-108135167D01*
X95091883Y-108478943D01*
X95354673Y-108742192D01*
X95698201Y-108884838D01*
X96070167Y-108885162D01*
X96413943Y-108743117D01*
X96677192Y-108480327D01*
X96801622Y-108180668D01*
X96968201Y-108249838D01*
X97340167Y-108250162D01*
X97683943Y-108108117D01*
X97947192Y-107845327D01*
X97951480Y-107835000D01*
X100502560Y-107835000D01*
X100502560Y-109335000D01*
X100546838Y-109570317D01*
X100685910Y-109786441D01*
X100898110Y-109931431D01*
X101150000Y-109982440D01*
X102050000Y-109982440D01*
X102285317Y-109938162D01*
X102389655Y-109871022D01*
X102454788Y-109914543D01*
X102870000Y-109997134D01*
X103285212Y-109914543D01*
X103509274Y-109764830D01*
X103845999Y-109929408D01*
X104013000Y-109802502D01*
X104013000Y-108712000D01*
X104267000Y-108712000D01*
X104267000Y-109802502D01*
X104434001Y-109929408D01*
X104817408Y-109742013D01*
X105093808Y-109417544D01*
X105225000Y-109012000D01*
X105225000Y-108712000D01*
X104267000Y-108712000D01*
X104013000Y-108712000D01*
X103993000Y-108712000D01*
X103993000Y-108458000D01*
X104013000Y-108458000D01*
X104013000Y-107367498D01*
X104267000Y-107367498D01*
X104267000Y-108458000D01*
X105225000Y-108458000D01*
X105225000Y-108158000D01*
X105120511Y-107835000D01*
X140507560Y-107835000D01*
X140507560Y-109335000D01*
X140551838Y-109570317D01*
X140690910Y-109786441D01*
X140903110Y-109931431D01*
X141155000Y-109982440D01*
X142055000Y-109982440D01*
X142290317Y-109938162D01*
X142394655Y-109871022D01*
X142459788Y-109914543D01*
X142875000Y-109997134D01*
X143290212Y-109914543D01*
X143514274Y-109764830D01*
X143850999Y-109929408D01*
X144018000Y-109802502D01*
X144018000Y-108712000D01*
X144272000Y-108712000D01*
X144272000Y-109802502D01*
X144439001Y-109929408D01*
X144822408Y-109742013D01*
X145098808Y-109417544D01*
X145230000Y-109012000D01*
X145230000Y-108712000D01*
X144272000Y-108712000D01*
X144018000Y-108712000D01*
X143998000Y-108712000D01*
X143998000Y-108458000D01*
X144018000Y-108458000D01*
X144018000Y-107367498D01*
X144272000Y-107367498D01*
X144272000Y-108458000D01*
X145230000Y-108458000D01*
X145230000Y-108158000D01*
X145098808Y-107752456D01*
X144822408Y-107427987D01*
X144439001Y-107240592D01*
X144272000Y-107367498D01*
X144018000Y-107367498D01*
X143850999Y-107240592D01*
X143514274Y-107405170D01*
X143290212Y-107255457D01*
X142875000Y-107172866D01*
X142459788Y-107255457D01*
X142394981Y-107298759D01*
X142306890Y-107238569D01*
X142055000Y-107187560D01*
X141155000Y-107187560D01*
X140919683Y-107231838D01*
X140703559Y-107370910D01*
X140558569Y-107583110D01*
X140507560Y-107835000D01*
X105120511Y-107835000D01*
X105093808Y-107752456D01*
X104817408Y-107427987D01*
X104434001Y-107240592D01*
X104267000Y-107367498D01*
X104013000Y-107367498D01*
X103845999Y-107240592D01*
X103509274Y-107405170D01*
X103285212Y-107255457D01*
X102870000Y-107172866D01*
X102454788Y-107255457D01*
X102389981Y-107298759D01*
X102301890Y-107238569D01*
X102050000Y-107187560D01*
X101150000Y-107187560D01*
X100914683Y-107231838D01*
X100698559Y-107370910D01*
X100553569Y-107583110D01*
X100502560Y-107835000D01*
X97951480Y-107835000D01*
X98056765Y-107581446D01*
X98318943Y-107473117D01*
X98582192Y-107210327D01*
X98724838Y-106866799D01*
X98725162Y-106494833D01*
X98656719Y-106329187D01*
X109689752Y-106329187D01*
X109907757Y-106856800D01*
X110311077Y-107260824D01*
X110838309Y-107479750D01*
X111409187Y-107480248D01*
X111936800Y-107262243D01*
X112340824Y-106858923D01*
X112559750Y-106331691D01*
X112560024Y-106016887D01*
X113500000Y-106016887D01*
X113500000Y-106073113D01*
X113609233Y-106622264D01*
X113920302Y-107087811D01*
X114385849Y-107398880D01*
X114935000Y-107508113D01*
X115484151Y-107398880D01*
X115949698Y-107087811D01*
X116260767Y-106622264D01*
X116370000Y-106073113D01*
X116370000Y-106016887D01*
X116260767Y-105467736D01*
X115990576Y-105063367D01*
X116018201Y-105074838D01*
X116390167Y-105075162D01*
X116733943Y-104933117D01*
X116767118Y-104900000D01*
X117795198Y-104900000D01*
X117827986Y-104932788D01*
X117529176Y-105231077D01*
X117310250Y-105758309D01*
X117309752Y-106329187D01*
X117527757Y-106856800D01*
X117931077Y-107260824D01*
X118458309Y-107479750D01*
X119029187Y-107480248D01*
X119556800Y-107262243D01*
X119960824Y-106858923D01*
X120179750Y-106331691D01*
X120179752Y-106329187D01*
X133184752Y-106329187D01*
X133402757Y-106856800D01*
X133806077Y-107260824D01*
X134333309Y-107479750D01*
X134904187Y-107480248D01*
X135431800Y-107262243D01*
X135835824Y-106858923D01*
X136054750Y-106331691D01*
X136055248Y-105760813D01*
X135837243Y-105233200D01*
X135433923Y-104829176D01*
X134906691Y-104610250D01*
X134335813Y-104609752D01*
X133808200Y-104827757D01*
X133404176Y-105231077D01*
X133185250Y-105758309D01*
X133184752Y-106329187D01*
X120179752Y-106329187D01*
X120180248Y-105760813D01*
X119962243Y-105233200D01*
X119558923Y-104829176D01*
X119505000Y-104806785D01*
X119505000Y-104775000D01*
X119447148Y-104484161D01*
X119282401Y-104237599D01*
X118647401Y-103602599D01*
X118400839Y-103437852D01*
X118110000Y-103380000D01*
X116767463Y-103380000D01*
X116735327Y-103347808D01*
X116391799Y-103205162D01*
X116019833Y-103204838D01*
X115676057Y-103346883D01*
X115412808Y-103609673D01*
X115270162Y-103953201D01*
X115269838Y-104325167D01*
X115411883Y-104668943D01*
X115421601Y-104678678D01*
X114935000Y-104581887D01*
X114385849Y-104691120D01*
X113920302Y-105002189D01*
X113609233Y-105467736D01*
X113500000Y-106016887D01*
X112560024Y-106016887D01*
X112560248Y-105760813D01*
X112342243Y-105233200D01*
X111938923Y-104829176D01*
X111411691Y-104610250D01*
X110840813Y-104609752D01*
X110313200Y-104827757D01*
X109909176Y-105231077D01*
X109690250Y-105758309D01*
X109689752Y-106329187D01*
X98656719Y-106329187D01*
X98583117Y-106151057D01*
X98550000Y-106117882D01*
X98550000Y-105337463D01*
X98582192Y-105305327D01*
X98724838Y-104961799D01*
X98725162Y-104589833D01*
X98583117Y-104246057D01*
X98320327Y-103982808D01*
X98056446Y-103873235D01*
X97948117Y-103611057D01*
X97685327Y-103347808D01*
X97421446Y-103238235D01*
X97313117Y-102976057D01*
X97050327Y-102712808D01*
X96706799Y-102570162D01*
X96334833Y-102569838D01*
X95991057Y-102711883D01*
X95727808Y-102974673D01*
X95618235Y-103238554D01*
X95356057Y-103346883D01*
X95092808Y-103609673D01*
X94950162Y-103953201D01*
X94949838Y-104325167D01*
X95091883Y-104668943D01*
X95125000Y-104702118D01*
X95125000Y-104702976D01*
X94901691Y-104610250D01*
X94330813Y-104609752D01*
X93803200Y-104827757D01*
X93420000Y-105210289D01*
X93420000Y-102420167D01*
X140034838Y-102420167D01*
X140176883Y-102763943D01*
X140439673Y-103027192D01*
X140783201Y-103169838D01*
X140830077Y-103169879D01*
X141304878Y-103644680D01*
X141304838Y-103690167D01*
X141446883Y-104033943D01*
X141709673Y-104297192D01*
X142053201Y-104439838D01*
X142425167Y-104440162D01*
X142768943Y-104298117D01*
X143032192Y-104035327D01*
X143174838Y-103691799D01*
X143174910Y-103609712D01*
X146384878Y-106819680D01*
X146384838Y-106865167D01*
X146526883Y-107208943D01*
X146789673Y-107472192D01*
X147133201Y-107614838D01*
X147505167Y-107615162D01*
X147848943Y-107473117D01*
X147954954Y-107367290D01*
X148059673Y-107472192D01*
X148403201Y-107614838D01*
X148775167Y-107615162D01*
X149118943Y-107473117D01*
X149382192Y-107210327D01*
X149524838Y-106866799D01*
X149525162Y-106494833D01*
X149456719Y-106329187D01*
X149694752Y-106329187D01*
X149912757Y-106856800D01*
X150316077Y-107260824D01*
X150843309Y-107479750D01*
X151414187Y-107480248D01*
X151941800Y-107262243D01*
X152345824Y-106858923D01*
X152564750Y-106331691D01*
X152565024Y-106016887D01*
X153505000Y-106016887D01*
X153505000Y-106073113D01*
X153614233Y-106622264D01*
X153925302Y-107087811D01*
X154390849Y-107398880D01*
X154940000Y-107508113D01*
X155489151Y-107398880D01*
X155954698Y-107087811D01*
X156265767Y-106622264D01*
X156375000Y-106073113D01*
X156375000Y-106016887D01*
X156265767Y-105467736D01*
X155954698Y-105002189D01*
X155489151Y-104691120D01*
X154940000Y-104581887D01*
X154390849Y-104691120D01*
X153925302Y-105002189D01*
X153614233Y-105467736D01*
X153505000Y-106016887D01*
X152565024Y-106016887D01*
X152565248Y-105760813D01*
X152347243Y-105233200D01*
X151943923Y-104829176D01*
X151416691Y-104610250D01*
X150845813Y-104609752D01*
X150318200Y-104827757D01*
X149914176Y-105231077D01*
X149695250Y-105758309D01*
X149694752Y-106329187D01*
X149456719Y-106329187D01*
X149383117Y-106151057D01*
X149120327Y-105887808D01*
X148776799Y-105745162D01*
X148729923Y-105745121D01*
X148059894Y-105075092D01*
X148140167Y-105075162D01*
X148483943Y-104933117D01*
X148747192Y-104670327D01*
X148889838Y-104326799D01*
X148890162Y-103954833D01*
X148748117Y-103611057D01*
X148485327Y-103347808D01*
X148141799Y-103205162D01*
X148094923Y-103205121D01*
X146985122Y-102095320D01*
X146985162Y-102049833D01*
X146843117Y-101706057D01*
X146580327Y-101442808D01*
X146236799Y-101300162D01*
X145864833Y-101299838D01*
X145521057Y-101441883D01*
X145415046Y-101547710D01*
X145310327Y-101442808D01*
X144966799Y-101300162D01*
X144594833Y-101299838D01*
X144251057Y-101441883D01*
X143987808Y-101704673D01*
X143845162Y-102048201D01*
X143845090Y-102130288D01*
X143810122Y-102095320D01*
X143810162Y-102049833D01*
X143668117Y-101706057D01*
X143405327Y-101442808D01*
X143061799Y-101300162D01*
X142689833Y-101299838D01*
X142346057Y-101441883D01*
X142082808Y-101704673D01*
X141940162Y-102048201D01*
X141940090Y-102130288D01*
X141905122Y-102095320D01*
X141905162Y-102049833D01*
X141763117Y-101706057D01*
X141500327Y-101442808D01*
X141156799Y-101300162D01*
X140784833Y-101299838D01*
X140441057Y-101441883D01*
X140177808Y-101704673D01*
X140035162Y-102048201D01*
X140034838Y-102420167D01*
X93420000Y-102420167D01*
X93420000Y-99644187D01*
X103327752Y-99644187D01*
X103545757Y-100171800D01*
X103949077Y-100575824D01*
X104476309Y-100794750D01*
X105047187Y-100795248D01*
X105574800Y-100577243D01*
X105978824Y-100173923D01*
X106148146Y-99766150D01*
X106315757Y-100171800D01*
X106719077Y-100575824D01*
X107246309Y-100794750D01*
X107817187Y-100795248D01*
X108344800Y-100577243D01*
X108748824Y-100173923D01*
X108918146Y-99766150D01*
X109085757Y-100171800D01*
X109489077Y-100575824D01*
X110016309Y-100794750D01*
X110587187Y-100795248D01*
X111114800Y-100577243D01*
X111518824Y-100173923D01*
X111688146Y-99766150D01*
X111855757Y-100171800D01*
X112259077Y-100575824D01*
X112786309Y-100794750D01*
X113357187Y-100795248D01*
X113884800Y-100577243D01*
X114288824Y-100173923D01*
X114507750Y-99646691D01*
X114507752Y-99644187D01*
X139014752Y-99644187D01*
X139232757Y-100171800D01*
X139636077Y-100575824D01*
X140163309Y-100794750D01*
X140734187Y-100795248D01*
X141261800Y-100577243D01*
X141665824Y-100173923D01*
X141835146Y-99766150D01*
X142002757Y-100171800D01*
X142406077Y-100575824D01*
X142933309Y-100794750D01*
X143504187Y-100795248D01*
X144031800Y-100577243D01*
X144435824Y-100173923D01*
X144605146Y-99766150D01*
X144772757Y-100171800D01*
X145176077Y-100575824D01*
X145703309Y-100794750D01*
X146274187Y-100795248D01*
X146801800Y-100577243D01*
X147205824Y-100173923D01*
X147375146Y-99766150D01*
X147542757Y-100171800D01*
X147946077Y-100575824D01*
X148473309Y-100794750D01*
X149044187Y-100795248D01*
X149571800Y-100577243D01*
X149975824Y-100173923D01*
X150194750Y-99646691D01*
X150195248Y-99075813D01*
X149977243Y-98548200D01*
X149573923Y-98144176D01*
X149046691Y-97925250D01*
X148475813Y-97924752D01*
X147948200Y-98142757D01*
X147544176Y-98546077D01*
X147374854Y-98953850D01*
X147207243Y-98548200D01*
X146803923Y-98144176D01*
X146276691Y-97925250D01*
X145705813Y-97924752D01*
X145178200Y-98142757D01*
X144774176Y-98546077D01*
X144604854Y-98953850D01*
X144437243Y-98548200D01*
X144033923Y-98144176D01*
X143506691Y-97925250D01*
X142935813Y-97924752D01*
X142408200Y-98142757D01*
X142004176Y-98546077D01*
X141834854Y-98953850D01*
X141667243Y-98548200D01*
X141263923Y-98144176D01*
X140736691Y-97925250D01*
X140165813Y-97924752D01*
X139638200Y-98142757D01*
X139234176Y-98546077D01*
X139015250Y-99073309D01*
X139014752Y-99644187D01*
X114507752Y-99644187D01*
X114508248Y-99075813D01*
X114290243Y-98548200D01*
X113886923Y-98144176D01*
X113359691Y-97925250D01*
X112788813Y-97924752D01*
X112261200Y-98142757D01*
X111857176Y-98546077D01*
X111687854Y-98953850D01*
X111520243Y-98548200D01*
X111116923Y-98144176D01*
X110589691Y-97925250D01*
X110018813Y-97924752D01*
X109491200Y-98142757D01*
X109087176Y-98546077D01*
X108917854Y-98953850D01*
X108750243Y-98548200D01*
X108346923Y-98144176D01*
X107819691Y-97925250D01*
X107248813Y-97924752D01*
X106721200Y-98142757D01*
X106317176Y-98546077D01*
X106147854Y-98953850D01*
X105980243Y-98548200D01*
X105576923Y-98144176D01*
X105049691Y-97925250D01*
X104478813Y-97924752D01*
X103951200Y-98142757D01*
X103547176Y-98546077D01*
X103328250Y-99073309D01*
X103327752Y-99644187D01*
X93420000Y-99644187D01*
X93420000Y-95720000D01*
X101930560Y-95720000D01*
X101930560Y-97320000D01*
X101974838Y-97555317D01*
X102113910Y-97771441D01*
X102326110Y-97916431D01*
X102578000Y-97967440D01*
X104178000Y-97967440D01*
X104413317Y-97923162D01*
X104629441Y-97784090D01*
X104774431Y-97571890D01*
X104825440Y-97320000D01*
X104825440Y-97076913D01*
X104930757Y-97331800D01*
X105334077Y-97735824D01*
X105861309Y-97954750D01*
X106432187Y-97955248D01*
X106959800Y-97737243D01*
X107363824Y-97333923D01*
X107533146Y-96926150D01*
X107700757Y-97331800D01*
X108104077Y-97735824D01*
X108631309Y-97954750D01*
X109202187Y-97955248D01*
X109729800Y-97737243D01*
X110133824Y-97333923D01*
X110303146Y-96926150D01*
X110470757Y-97331800D01*
X110874077Y-97735824D01*
X111401309Y-97954750D01*
X111972187Y-97955248D01*
X112499800Y-97737243D01*
X112903824Y-97333923D01*
X113073146Y-96926150D01*
X113240757Y-97331800D01*
X113644077Y-97735824D01*
X114171309Y-97954750D01*
X114742187Y-97955248D01*
X115269800Y-97737243D01*
X115673824Y-97333923D01*
X115892750Y-96806691D01*
X115893248Y-96235813D01*
X115680119Y-95720000D01*
X137617560Y-95720000D01*
X137617560Y-97320000D01*
X137661838Y-97555317D01*
X137800910Y-97771441D01*
X138013110Y-97916431D01*
X138265000Y-97967440D01*
X139865000Y-97967440D01*
X140100317Y-97923162D01*
X140316441Y-97784090D01*
X140461431Y-97571890D01*
X140512440Y-97320000D01*
X140512440Y-97076913D01*
X140617757Y-97331800D01*
X141021077Y-97735824D01*
X141548309Y-97954750D01*
X142119187Y-97955248D01*
X142646800Y-97737243D01*
X143050824Y-97333923D01*
X143220146Y-96926150D01*
X143387757Y-97331800D01*
X143791077Y-97735824D01*
X144318309Y-97954750D01*
X144889187Y-97955248D01*
X145416800Y-97737243D01*
X145820824Y-97333923D01*
X145990146Y-96926150D01*
X146157757Y-97331800D01*
X146561077Y-97735824D01*
X147088309Y-97954750D01*
X147659187Y-97955248D01*
X148186800Y-97737243D01*
X148590824Y-97333923D01*
X148760146Y-96926150D01*
X148927757Y-97331800D01*
X149331077Y-97735824D01*
X149858309Y-97954750D01*
X150429187Y-97955248D01*
X150956800Y-97737243D01*
X151360824Y-97333923D01*
X151579750Y-96806691D01*
X151580248Y-96235813D01*
X151362243Y-95708200D01*
X150958923Y-95304176D01*
X150431691Y-95085250D01*
X149860813Y-95084752D01*
X149333200Y-95302757D01*
X148929176Y-95706077D01*
X148759854Y-96113850D01*
X148592243Y-95708200D01*
X148188923Y-95304176D01*
X147661691Y-95085250D01*
X147090813Y-95084752D01*
X146563200Y-95302757D01*
X146159176Y-95706077D01*
X145989854Y-96113850D01*
X145822243Y-95708200D01*
X145418923Y-95304176D01*
X144891691Y-95085250D01*
X144320813Y-95084752D01*
X143793200Y-95302757D01*
X143389176Y-95706077D01*
X143219854Y-96113850D01*
X143052243Y-95708200D01*
X142648923Y-95304176D01*
X142121691Y-95085250D01*
X141550813Y-95084752D01*
X141023200Y-95302757D01*
X140619176Y-95706077D01*
X140512440Y-95963126D01*
X140512440Y-95720000D01*
X140468162Y-95484683D01*
X140329090Y-95268559D01*
X140116890Y-95123569D01*
X139865000Y-95072560D01*
X138265000Y-95072560D01*
X138029683Y-95116838D01*
X137813559Y-95255910D01*
X137668569Y-95468110D01*
X137617560Y-95720000D01*
X115680119Y-95720000D01*
X115675243Y-95708200D01*
X115271923Y-95304176D01*
X114744691Y-95085250D01*
X114173813Y-95084752D01*
X113646200Y-95302757D01*
X113242176Y-95706077D01*
X113072854Y-96113850D01*
X112905243Y-95708200D01*
X112501923Y-95304176D01*
X111974691Y-95085250D01*
X111403813Y-95084752D01*
X110876200Y-95302757D01*
X110472176Y-95706077D01*
X110302854Y-96113850D01*
X110135243Y-95708200D01*
X109731923Y-95304176D01*
X109204691Y-95085250D01*
X108633813Y-95084752D01*
X108106200Y-95302757D01*
X107702176Y-95706077D01*
X107532854Y-96113850D01*
X107365243Y-95708200D01*
X106961923Y-95304176D01*
X106434691Y-95085250D01*
X105863813Y-95084752D01*
X105336200Y-95302757D01*
X104932176Y-95706077D01*
X104825440Y-95963126D01*
X104825440Y-95720000D01*
X104781162Y-95484683D01*
X104642090Y-95268559D01*
X104429890Y-95123569D01*
X104178000Y-95072560D01*
X102578000Y-95072560D01*
X102342683Y-95116838D01*
X102126559Y-95255910D01*
X101981569Y-95468110D01*
X101930560Y-95720000D01*
X93420000Y-95720000D01*
X93420000Y-94049930D01*
X93475478Y-93771021D01*
X93593856Y-93593855D01*
X93771019Y-93475479D01*
X94049931Y-93420000D01*
X159315070Y-93420000D01*
X159593979Y-93475478D01*
X159593979Y-93475478D01*
G37*
X159593979Y-93475478D02*
X159771145Y-93593856D01*
X159889521Y-93771019D01*
X159945000Y-94049931D01*
X159945000Y-105210918D01*
X159563923Y-104829176D01*
X159036691Y-104610250D01*
X158465813Y-104609752D01*
X157938200Y-104827757D01*
X157534176Y-105231077D01*
X157315250Y-105758309D01*
X157314752Y-106329187D01*
X157532757Y-106856800D01*
X157936077Y-107260824D01*
X158463309Y-107479750D01*
X159034187Y-107480248D01*
X159561800Y-107262243D01*
X159945000Y-106879711D01*
X159945000Y-115432030D01*
X159764698Y-115162189D01*
X159299151Y-114851120D01*
X158750000Y-114741887D01*
X158200849Y-114851120D01*
X157735302Y-115162189D01*
X157424233Y-115627736D01*
X157315000Y-116176887D01*
X157315000Y-116233113D01*
X157424233Y-116782264D01*
X157735302Y-117247811D01*
X158200849Y-117558880D01*
X158750000Y-117668113D01*
X159299151Y-117558880D01*
X159764698Y-117247811D01*
X159945000Y-116977970D01*
X159945000Y-119180918D01*
X159563923Y-118799176D01*
X159036691Y-118580250D01*
X158465813Y-118579752D01*
X157938200Y-118797757D01*
X157534176Y-119201077D01*
X157315250Y-119728309D01*
X157314752Y-120299187D01*
X157532757Y-120826800D01*
X157936077Y-121230824D01*
X158463309Y-121449750D01*
X159034187Y-121450248D01*
X159561800Y-121232243D01*
X159945000Y-120849711D01*
X159945000Y-123038069D01*
X159792811Y-122810302D01*
X159327264Y-122499233D01*
X158778113Y-122390000D01*
X158721887Y-122390000D01*
X158172736Y-122499233D01*
X157707189Y-122810302D01*
X157396120Y-123275849D01*
X157286887Y-123825000D01*
X157396120Y-124374151D01*
X157707189Y-124839698D01*
X158172736Y-125150767D01*
X158721887Y-125260000D01*
X158778113Y-125260000D01*
X159327264Y-125150767D01*
X159792811Y-124839698D01*
X159945000Y-124611931D01*
X159945000Y-126165918D01*
X159563923Y-125784176D01*
X159036691Y-125565250D01*
X158465813Y-125564752D01*
X157938200Y-125782757D01*
X157534176Y-126186077D01*
X157315250Y-126713309D01*
X157314752Y-127284187D01*
X157532757Y-127811800D01*
X157936077Y-128215824D01*
X158463309Y-128434750D01*
X159034187Y-128435248D01*
X159561800Y-128217243D01*
X159945000Y-127834711D01*
X159945000Y-136387030D01*
X159764698Y-136117189D01*
X159299151Y-135806120D01*
X158750000Y-135696887D01*
X158200849Y-135806120D01*
X157735302Y-136117189D01*
X157424233Y-136582736D01*
X157315000Y-137131887D01*
X157315000Y-137188113D01*
X157424233Y-137737264D01*
X157735302Y-138202811D01*
X158200849Y-138513880D01*
X158750000Y-138623113D01*
X159299151Y-138513880D01*
X159764698Y-138202811D01*
X159945000Y-137932970D01*
X159945000Y-139557791D01*
X159605134Y-139182611D01*
X159099041Y-138943086D01*
X158877000Y-139064371D01*
X158877000Y-140208000D01*
X158897000Y-140208000D01*
X158897000Y-140462000D01*
X158877000Y-140462000D01*
X158877000Y-140482000D01*
X158623000Y-140482000D01*
X158623000Y-140462000D01*
X157480085Y-140462000D01*
X157358096Y-140684039D01*
X157518959Y-141072423D01*
X157894866Y-141487389D01*
X157984899Y-141530000D01*
X149424082Y-141530000D01*
X149805824Y-141148923D01*
X150024750Y-140621691D01*
X150025248Y-140050813D01*
X149998452Y-139985961D01*
X157358096Y-139985961D01*
X157480085Y-140208000D01*
X158623000Y-140208000D01*
X158623000Y-139064371D01*
X158400959Y-138943086D01*
X157894866Y-139182611D01*
X157518959Y-139597577D01*
X157358096Y-139985961D01*
X149998452Y-139985961D01*
X149807243Y-139523200D01*
X149403923Y-139119176D01*
X148876691Y-138900250D01*
X148305813Y-138899752D01*
X147778200Y-139117757D01*
X147374176Y-139521077D01*
X147155250Y-140048309D01*
X147154752Y-140619187D01*
X147372757Y-141146800D01*
X147755289Y-141530000D01*
X105540101Y-141530000D01*
X105630134Y-141487389D01*
X106006041Y-141072423D01*
X106166904Y-140684039D01*
X106044915Y-140462000D01*
X104902000Y-140462000D01*
X104902000Y-140482000D01*
X104648000Y-140482000D01*
X104648000Y-140462000D01*
X103505085Y-140462000D01*
X103383096Y-140684039D01*
X103543959Y-141072423D01*
X103919866Y-141487389D01*
X104009899Y-141530000D01*
X95449082Y-141530000D01*
X95830824Y-141148923D01*
X96049750Y-140621691D01*
X96050248Y-140050813D01*
X96023452Y-139985961D01*
X103383096Y-139985961D01*
X103505085Y-140208000D01*
X104648000Y-140208000D01*
X104648000Y-139064371D01*
X104902000Y-139064371D01*
X104902000Y-140208000D01*
X106044915Y-140208000D01*
X106166904Y-139985961D01*
X106006041Y-139597577D01*
X105630134Y-139182611D01*
X105124041Y-138943086D01*
X104902000Y-139064371D01*
X104648000Y-139064371D01*
X104425959Y-138943086D01*
X103919866Y-139182611D01*
X103543959Y-139597577D01*
X103383096Y-139985961D01*
X96023452Y-139985961D01*
X95832243Y-139523200D01*
X95428923Y-139119176D01*
X94901691Y-138900250D01*
X94330813Y-138899752D01*
X93803200Y-139117757D01*
X93420000Y-139500289D01*
X93420000Y-137509041D01*
X98938086Y-137509041D01*
X99177611Y-138015134D01*
X99592577Y-138391041D01*
X99980961Y-138551904D01*
X100203000Y-138429915D01*
X100203000Y-137287000D01*
X100457000Y-137287000D01*
X100457000Y-138429915D01*
X100679039Y-138551904D01*
X101067423Y-138391041D01*
X101482389Y-138015134D01*
X101721914Y-137509041D01*
X101600629Y-137287000D01*
X100457000Y-137287000D01*
X100203000Y-137287000D01*
X99059371Y-137287000D01*
X98938086Y-137509041D01*
X93420000Y-137509041D01*
X93420000Y-137131887D01*
X102705000Y-137131887D01*
X102705000Y-137188113D01*
X102814233Y-137737264D01*
X103125302Y-138202811D01*
X103590849Y-138513880D01*
X104140000Y-138623113D01*
X104689151Y-138513880D01*
X105154698Y-138202811D01*
X105465767Y-137737264D01*
X105511163Y-137509041D01*
X153548086Y-137509041D01*
X153787611Y-138015134D01*
X154202577Y-138391041D01*
X154590961Y-138551904D01*
X154813000Y-138429915D01*
X154813000Y-137287000D01*
X155067000Y-137287000D01*
X155067000Y-138429915D01*
X155289039Y-138551904D01*
X155677423Y-138391041D01*
X156092389Y-138015134D01*
X156331914Y-137509041D01*
X156210629Y-137287000D01*
X155067000Y-137287000D01*
X154813000Y-137287000D01*
X153669371Y-137287000D01*
X153548086Y-137509041D01*
X105511163Y-137509041D01*
X105575000Y-137188113D01*
X105575000Y-137131887D01*
X105511164Y-136810959D01*
X153548086Y-136810959D01*
X153669371Y-137033000D01*
X154813000Y-137033000D01*
X154813000Y-135890085D01*
X155067000Y-135890085D01*
X155067000Y-137033000D01*
X156210629Y-137033000D01*
X156331914Y-136810959D01*
X156092389Y-136304866D01*
X155677423Y-135928959D01*
X155289039Y-135768096D01*
X155067000Y-135890085D01*
X154813000Y-135890085D01*
X154590961Y-135768096D01*
X154202577Y-135928959D01*
X153787611Y-136304866D01*
X153548086Y-136810959D01*
X105511164Y-136810959D01*
X105465767Y-136582736D01*
X105154698Y-136117189D01*
X104689151Y-135806120D01*
X104140000Y-135696887D01*
X103590849Y-135806120D01*
X103125302Y-136117189D01*
X102814233Y-136582736D01*
X102705000Y-137131887D01*
X93420000Y-137131887D01*
X93420000Y-136810959D01*
X98938086Y-136810959D01*
X99059371Y-137033000D01*
X100203000Y-137033000D01*
X100203000Y-135890085D01*
X100457000Y-135890085D01*
X100457000Y-137033000D01*
X101600629Y-137033000D01*
X101721914Y-136810959D01*
X101482389Y-136304866D01*
X101067423Y-135928959D01*
X100679039Y-135768096D01*
X100457000Y-135890085D01*
X100203000Y-135890085D01*
X99980961Y-135768096D01*
X99592577Y-135928959D01*
X99177611Y-136304866D01*
X98938086Y-136810959D01*
X93420000Y-136810959D01*
X93420000Y-132080000D01*
X95107866Y-132080000D01*
X95190457Y-132495212D01*
X95233759Y-132560019D01*
X95173569Y-132648110D01*
X95122560Y-132900000D01*
X95122560Y-133800000D01*
X95166838Y-134035317D01*
X95305910Y-134251441D01*
X95518110Y-134396431D01*
X95770000Y-134447440D01*
X97270000Y-134447440D01*
X97505317Y-134403162D01*
X97721441Y-134264090D01*
X97866431Y-134051890D01*
X97917440Y-133800000D01*
X97917440Y-133680187D01*
X116957752Y-133680187D01*
X117175757Y-134207800D01*
X117579077Y-134611824D01*
X118106309Y-134830750D01*
X118677187Y-134831248D01*
X119204800Y-134613243D01*
X119608824Y-134209923D01*
X119778146Y-133802150D01*
X119945757Y-134207800D01*
X120349077Y-134611824D01*
X120876309Y-134830750D01*
X121447187Y-134831248D01*
X121974800Y-134613243D01*
X122378824Y-134209923D01*
X122548146Y-133802150D01*
X122715757Y-134207800D01*
X123119077Y-134611824D01*
X123646309Y-134830750D01*
X124217187Y-134831248D01*
X124744800Y-134613243D01*
X125148824Y-134209923D01*
X125318146Y-133802150D01*
X125485757Y-134207800D01*
X125889077Y-134611824D01*
X126416309Y-134830750D01*
X126987187Y-134831248D01*
X127514800Y-134613243D01*
X127918824Y-134209923D01*
X128088146Y-133802150D01*
X128255757Y-134207800D01*
X128659077Y-134611824D01*
X129186309Y-134830750D01*
X129757187Y-134831248D01*
X130284800Y-134613243D01*
X130688824Y-134209923D01*
X130858146Y-133802150D01*
X131025757Y-134207800D01*
X131429077Y-134611824D01*
X131956309Y-134830750D01*
X132527187Y-134831248D01*
X133054800Y-134613243D01*
X133458824Y-134209923D01*
X133628146Y-133802150D01*
X133795757Y-134207800D01*
X134199077Y-134611824D01*
X134726309Y-134830750D01*
X135297187Y-134831248D01*
X135824800Y-134613243D01*
X136228824Y-134209923D01*
X136447750Y-133682691D01*
X136448248Y-133111813D01*
X136230243Y-132584200D01*
X135826923Y-132180176D01*
X135585673Y-132080000D01*
X149717866Y-132080000D01*
X149800457Y-132495212D01*
X149843759Y-132560019D01*
X149783569Y-132648110D01*
X149732560Y-132900000D01*
X149732560Y-133800000D01*
X149776838Y-134035317D01*
X149915910Y-134251441D01*
X150128110Y-134396431D01*
X150380000Y-134447440D01*
X151880000Y-134447440D01*
X152115317Y-134403162D01*
X152331441Y-134264090D01*
X152476431Y-134051890D01*
X152527440Y-133800000D01*
X152527440Y-132900000D01*
X152483162Y-132664683D01*
X152416022Y-132560345D01*
X152459543Y-132495212D01*
X152542134Y-132080000D01*
X152459543Y-131664788D01*
X152309830Y-131440726D01*
X152474408Y-131104001D01*
X152347502Y-130937000D01*
X151257000Y-130937000D01*
X151257000Y-130957000D01*
X151003000Y-130957000D01*
X151003000Y-130937000D01*
X149912498Y-130937000D01*
X149785592Y-131104001D01*
X149950170Y-131440726D01*
X149800457Y-131664788D01*
X149717866Y-132080000D01*
X135585673Y-132080000D01*
X135299691Y-131961250D01*
X134728813Y-131960752D01*
X134201200Y-132178757D01*
X133797176Y-132582077D01*
X133627854Y-132989850D01*
X133460243Y-132584200D01*
X133056923Y-132180176D01*
X132529691Y-131961250D01*
X131958813Y-131960752D01*
X131431200Y-132178757D01*
X131027176Y-132582077D01*
X130857854Y-132989850D01*
X130690243Y-132584200D01*
X130286923Y-132180176D01*
X129759691Y-131961250D01*
X129188813Y-131960752D01*
X128661200Y-132178757D01*
X128257176Y-132582077D01*
X128087854Y-132989850D01*
X127920243Y-132584200D01*
X127516923Y-132180176D01*
X126989691Y-131961250D01*
X126418813Y-131960752D01*
X125891200Y-132178757D01*
X125487176Y-132582077D01*
X125317854Y-132989850D01*
X125150243Y-132584200D01*
X124746923Y-132180176D01*
X124219691Y-131961250D01*
X123648813Y-131960752D01*
X123121200Y-132178757D01*
X122717176Y-132582077D01*
X122547854Y-132989850D01*
X122380243Y-132584200D01*
X121976923Y-132180176D01*
X121449691Y-131961250D01*
X120878813Y-131960752D01*
X120351200Y-132178757D01*
X119947176Y-132582077D01*
X119777854Y-132989850D01*
X119610243Y-132584200D01*
X119206923Y-132180176D01*
X118679691Y-131961250D01*
X118108813Y-131960752D01*
X117581200Y-132178757D01*
X117177176Y-132582077D01*
X116958250Y-133109309D01*
X116957752Y-133680187D01*
X97917440Y-133680187D01*
X97917440Y-132900000D01*
X97873162Y-132664683D01*
X97806022Y-132560345D01*
X97849543Y-132495212D01*
X97932134Y-132080000D01*
X97849543Y-131664788D01*
X97782029Y-131563745D01*
X116179861Y-131563745D01*
X116253995Y-131809864D01*
X116791223Y-132002965D01*
X117361454Y-131975778D01*
X117762005Y-131809864D01*
X117836139Y-131563745D01*
X117008000Y-130735605D01*
X116179861Y-131563745D01*
X97782029Y-131563745D01*
X97699830Y-131440726D01*
X97864408Y-131104001D01*
X97737502Y-130937000D01*
X96647000Y-130937000D01*
X96647000Y-130957000D01*
X96393000Y-130957000D01*
X96393000Y-130937000D01*
X95302498Y-130937000D01*
X95175592Y-131104001D01*
X95340170Y-131440726D01*
X95190457Y-131664788D01*
X95107866Y-132080000D01*
X93420000Y-132080000D01*
X93420000Y-130515999D01*
X95175592Y-130515999D01*
X95302498Y-130683000D01*
X96393000Y-130683000D01*
X96393000Y-129725000D01*
X96647000Y-129725000D01*
X96647000Y-130683000D01*
X97737502Y-130683000D01*
X97864408Y-130515999D01*
X97778007Y-130339223D01*
X115561035Y-130339223D01*
X115588222Y-130909454D01*
X115754136Y-131310005D01*
X116000255Y-131384139D01*
X116828395Y-130556000D01*
X117187605Y-130556000D01*
X118015745Y-131384139D01*
X118261864Y-131310005D01*
X118389804Y-130954062D01*
X118560757Y-131367800D01*
X118964077Y-131771824D01*
X119491309Y-131990750D01*
X120062187Y-131991248D01*
X120589800Y-131773243D01*
X120993824Y-131369923D01*
X121163146Y-130962150D01*
X121330757Y-131367800D01*
X121734077Y-131771824D01*
X122261309Y-131990750D01*
X122832187Y-131991248D01*
X123359800Y-131773243D01*
X123763824Y-131369923D01*
X123933146Y-130962150D01*
X124100757Y-131367800D01*
X124504077Y-131771824D01*
X125031309Y-131990750D01*
X125602187Y-131991248D01*
X126129800Y-131773243D01*
X126533824Y-131369923D01*
X126703146Y-130962150D01*
X126870757Y-131367800D01*
X127274077Y-131771824D01*
X127801309Y-131990750D01*
X128372187Y-131991248D01*
X128899800Y-131773243D01*
X129303824Y-131369923D01*
X129473146Y-130962150D01*
X129640757Y-131367800D01*
X130044077Y-131771824D01*
X130571309Y-131990750D01*
X131142187Y-131991248D01*
X131669800Y-131773243D01*
X132073824Y-131369923D01*
X132243146Y-130962150D01*
X132410757Y-131367800D01*
X132814077Y-131771824D01*
X133341309Y-131990750D01*
X133912187Y-131991248D01*
X134439800Y-131773243D01*
X134843824Y-131369923D01*
X134950560Y-131112874D01*
X134950560Y-131356000D01*
X134994838Y-131591317D01*
X135133910Y-131807441D01*
X135346110Y-131952431D01*
X135598000Y-132003440D01*
X137198000Y-132003440D01*
X137433317Y-131959162D01*
X137649441Y-131820090D01*
X137794431Y-131607890D01*
X137845440Y-131356000D01*
X137845440Y-130515999D01*
X149785592Y-130515999D01*
X149912498Y-130683000D01*
X151003000Y-130683000D01*
X151003000Y-129725000D01*
X151257000Y-129725000D01*
X151257000Y-130683000D01*
X152347502Y-130683000D01*
X152474408Y-130515999D01*
X152287013Y-130132592D01*
X151962544Y-129856192D01*
X151557000Y-129725000D01*
X151257000Y-129725000D01*
X151003000Y-129725000D01*
X150703000Y-129725000D01*
X150297456Y-129856192D01*
X149972987Y-130132592D01*
X149785592Y-130515999D01*
X137845440Y-130515999D01*
X137845440Y-129756000D01*
X137801162Y-129520683D01*
X137662090Y-129304559D01*
X137449890Y-129159569D01*
X137198000Y-129108560D01*
X135598000Y-129108560D01*
X135362683Y-129152838D01*
X135146559Y-129291910D01*
X135001569Y-129504110D01*
X134950560Y-129756000D01*
X134950560Y-129999087D01*
X134845243Y-129744200D01*
X134441923Y-129340176D01*
X133914691Y-129121250D01*
X133343813Y-129120752D01*
X132816200Y-129338757D01*
X132412176Y-129742077D01*
X132242854Y-130149850D01*
X132075243Y-129744200D01*
X131671923Y-129340176D01*
X131144691Y-129121250D01*
X130573813Y-129120752D01*
X130046200Y-129338757D01*
X129642176Y-129742077D01*
X129472854Y-130149850D01*
X129305243Y-129744200D01*
X128901923Y-129340176D01*
X128848000Y-129317785D01*
X128848000Y-127284187D01*
X153504752Y-127284187D01*
X153722757Y-127811800D01*
X154126077Y-128215824D01*
X154653309Y-128434750D01*
X155224187Y-128435248D01*
X155751800Y-128217243D01*
X156155824Y-127813923D01*
X156374750Y-127286691D01*
X156375248Y-126715813D01*
X156157243Y-126188200D01*
X155753923Y-125784176D01*
X155226691Y-125565250D01*
X154655813Y-125564752D01*
X154128200Y-125782757D01*
X153724176Y-126186077D01*
X153505250Y-126713309D01*
X153504752Y-127284187D01*
X128848000Y-127284187D01*
X128848000Y-127109146D01*
X129062192Y-126895327D01*
X129204838Y-126551799D01*
X129205162Y-126179833D01*
X129063117Y-125836057D01*
X128800327Y-125572808D01*
X128536446Y-125463235D01*
X128428117Y-125201057D01*
X128165327Y-124937808D01*
X127821799Y-124795162D01*
X127449833Y-124794838D01*
X127106057Y-124936883D01*
X126842808Y-125199673D01*
X126700162Y-125543201D01*
X126700121Y-125590077D01*
X126462599Y-125827599D01*
X126297852Y-126074161D01*
X126240000Y-126365000D01*
X126240000Y-128342537D01*
X126207808Y-128374673D01*
X126065162Y-128718201D01*
X126064838Y-129090167D01*
X126193716Y-129402077D01*
X126131923Y-129340176D01*
X125604691Y-129121250D01*
X125033813Y-129120752D01*
X124506200Y-129338757D01*
X124102176Y-129742077D01*
X123932854Y-130149850D01*
X123765243Y-129744200D01*
X123361923Y-129340176D01*
X122834691Y-129121250D01*
X122263813Y-129120752D01*
X121736200Y-129338757D01*
X121332176Y-129742077D01*
X121162854Y-130149850D01*
X120995243Y-129744200D01*
X120591923Y-129340176D01*
X120064691Y-129121250D01*
X119493813Y-129120752D01*
X118966200Y-129338757D01*
X118562176Y-129742077D01*
X118399410Y-130134060D01*
X118261864Y-129801995D01*
X118015745Y-129727861D01*
X117187605Y-130556000D01*
X116828395Y-130556000D01*
X116000255Y-129727861D01*
X115754136Y-129801995D01*
X115561035Y-130339223D01*
X97778007Y-130339223D01*
X97677013Y-130132592D01*
X97352544Y-129856192D01*
X96947000Y-129725000D01*
X96647000Y-129725000D01*
X96393000Y-129725000D01*
X96093000Y-129725000D01*
X95687456Y-129856192D01*
X95362987Y-130132592D01*
X95175592Y-130515999D01*
X93420000Y-130515999D01*
X93420000Y-129548255D01*
X116179861Y-129548255D01*
X117008000Y-130376395D01*
X117836139Y-129548255D01*
X117762005Y-129302136D01*
X117224777Y-129109035D01*
X116654546Y-129136222D01*
X116253995Y-129302136D01*
X116179861Y-129548255D01*
X93420000Y-129548255D01*
X93420000Y-127284187D01*
X98894752Y-127284187D01*
X99112757Y-127811800D01*
X99516077Y-128215824D01*
X100043309Y-128434750D01*
X100614187Y-128435248D01*
X101141800Y-128217243D01*
X101545824Y-127813923D01*
X101764750Y-127286691D01*
X101764752Y-127284187D01*
X102704752Y-127284187D01*
X102922757Y-127811800D01*
X103326077Y-128215824D01*
X103853309Y-128434750D01*
X104424187Y-128435248D01*
X104951800Y-128217243D01*
X105355824Y-127813923D01*
X105574750Y-127286691D01*
X105575248Y-126715813D01*
X105357243Y-126188200D01*
X104953923Y-125784176D01*
X104426691Y-125565250D01*
X103855813Y-125564752D01*
X103328200Y-125782757D01*
X102924176Y-126186077D01*
X102705250Y-126713309D01*
X102704752Y-127284187D01*
X101764752Y-127284187D01*
X101765248Y-126715813D01*
X101547243Y-126188200D01*
X101143923Y-125784176D01*
X100616691Y-125565250D01*
X100045813Y-125564752D01*
X99518200Y-125782757D01*
X99114176Y-126186077D01*
X98895250Y-126713309D01*
X98894752Y-127284187D01*
X93420000Y-127284187D01*
X93420000Y-124659082D01*
X93801077Y-125040824D01*
X94328309Y-125259750D01*
X94899187Y-125260248D01*
X95426800Y-125042243D01*
X95830824Y-124638923D01*
X96049750Y-124111691D01*
X96050000Y-123825000D01*
X103311887Y-123825000D01*
X103421120Y-124374151D01*
X103732189Y-124839698D01*
X104197736Y-125150767D01*
X104746887Y-125260000D01*
X104803113Y-125260000D01*
X105352264Y-125150767D01*
X105817811Y-124839698D01*
X106128880Y-124374151D01*
X106238113Y-123825000D01*
X106128880Y-123275849D01*
X105817811Y-122810302D01*
X105352264Y-122499233D01*
X104803113Y-122390000D01*
X104746887Y-122390000D01*
X104197736Y-122499233D01*
X103732189Y-122810302D01*
X103421120Y-123275849D01*
X103311887Y-123825000D01*
X96050000Y-123825000D01*
X96050248Y-123540813D01*
X95832243Y-123013200D01*
X95428923Y-122609176D01*
X94901691Y-122390250D01*
X94330813Y-122389752D01*
X93803200Y-122607757D01*
X93420000Y-122990289D01*
X93420000Y-120801931D01*
X93572189Y-121029698D01*
X94037736Y-121340767D01*
X94586887Y-121450000D01*
X94643113Y-121450000D01*
X95192264Y-121340767D01*
X95657811Y-121029698D01*
X95968880Y-120564151D01*
X96021584Y-120299187D01*
X103339752Y-120299187D01*
X103557757Y-120826800D01*
X103961077Y-121230824D01*
X104488309Y-121449750D01*
X105059187Y-121450248D01*
X105586800Y-121232243D01*
X105990824Y-120828923D01*
X106209750Y-120301691D01*
X106210248Y-119730813D01*
X105992243Y-119203200D01*
X105719686Y-118930167D01*
X110189838Y-118930167D01*
X110331883Y-119273943D01*
X110365000Y-119307118D01*
X110365000Y-123190000D01*
X110422852Y-123480839D01*
X110587599Y-123727401D01*
X111459878Y-124599680D01*
X111459838Y-124645167D01*
X111601883Y-124988943D01*
X111864673Y-125252192D01*
X112208201Y-125394838D01*
X112580167Y-125395162D01*
X112923943Y-125253117D01*
X113187192Y-124990327D01*
X113329838Y-124646799D01*
X113330162Y-124274833D01*
X113261719Y-124109187D01*
X147154752Y-124109187D01*
X147372757Y-124636800D01*
X147776077Y-125040824D01*
X148303309Y-125259750D01*
X148874187Y-125260248D01*
X149401800Y-125042243D01*
X149805824Y-124638923D01*
X150024750Y-124111691D01*
X150025248Y-123540813D01*
X149807243Y-123013200D01*
X149403923Y-122609176D01*
X148876691Y-122390250D01*
X148305813Y-122389752D01*
X147778200Y-122607757D01*
X147374176Y-123011077D01*
X147155250Y-123538309D01*
X147154752Y-124109187D01*
X113261719Y-124109187D01*
X113188117Y-123931057D01*
X112925327Y-123667808D01*
X112581799Y-123525162D01*
X112534923Y-123525121D01*
X111885000Y-122875198D01*
X111885000Y-119307463D01*
X111917192Y-119275327D01*
X112059838Y-118931799D01*
X112060162Y-118559833D01*
X111918117Y-118216057D01*
X111655327Y-117952808D01*
X111311799Y-117810162D01*
X110939833Y-117809838D01*
X110596057Y-117951883D01*
X110332808Y-118214673D01*
X110190162Y-118558201D01*
X110189838Y-118930167D01*
X105719686Y-118930167D01*
X105588923Y-118799176D01*
X105061691Y-118580250D01*
X104490813Y-118579752D01*
X103963200Y-118797757D01*
X103559176Y-119201077D01*
X103340250Y-119728309D01*
X103339752Y-120299187D01*
X96021584Y-120299187D01*
X96078113Y-120015000D01*
X95968880Y-119465849D01*
X95657811Y-119000302D01*
X95192264Y-118689233D01*
X94643113Y-118580000D01*
X94586887Y-118580000D01*
X94037736Y-118689233D01*
X93572189Y-119000302D01*
X93420000Y-119228069D01*
X93420000Y-116970101D01*
X93462611Y-117060134D01*
X93877577Y-117436041D01*
X94265961Y-117596904D01*
X94488000Y-117474915D01*
X94488000Y-116332000D01*
X94742000Y-116332000D01*
X94742000Y-117474915D01*
X94964039Y-117596904D01*
X95352423Y-117436041D01*
X95767389Y-117060134D01*
X96006914Y-116554041D01*
X95885629Y-116332000D01*
X94742000Y-116332000D01*
X94488000Y-116332000D01*
X94468000Y-116332000D01*
X94468000Y-116205000D01*
X96326887Y-116205000D01*
X96436120Y-116754151D01*
X96747189Y-117219698D01*
X97212736Y-117530767D01*
X97761887Y-117640000D01*
X97818113Y-117640000D01*
X98367264Y-117530767D01*
X98832811Y-117219698D01*
X99143880Y-116754151D01*
X99196584Y-116489187D01*
X106514752Y-116489187D01*
X106732757Y-117016800D01*
X107136077Y-117420824D01*
X107663309Y-117639750D01*
X108234187Y-117640248D01*
X108761800Y-117422243D01*
X109165824Y-117018923D01*
X109384750Y-116491691D01*
X109385024Y-116176887D01*
X109690000Y-116176887D01*
X109690000Y-116233113D01*
X109799233Y-116782264D01*
X110110302Y-117247811D01*
X110575849Y-117558880D01*
X111125000Y-117668113D01*
X111674151Y-117558880D01*
X112139698Y-117247811D01*
X112450767Y-116782264D01*
X112509063Y-116489187D01*
X113499752Y-116489187D01*
X113717757Y-117016800D01*
X114121077Y-117420824D01*
X114648309Y-117639750D01*
X115219187Y-117640248D01*
X115746800Y-117422243D01*
X116150824Y-117018923D01*
X116369750Y-116491691D01*
X116370024Y-116176887D01*
X117310000Y-116176887D01*
X117310000Y-116233113D01*
X117419233Y-116782264D01*
X117730302Y-117247811D01*
X118195849Y-117558880D01*
X118745000Y-117668113D01*
X119294151Y-117558880D01*
X119759698Y-117247811D01*
X120070767Y-116782264D01*
X120127111Y-116499001D01*
X121845592Y-116499001D01*
X122032987Y-116882408D01*
X122357456Y-117158808D01*
X122763000Y-117290000D01*
X123063000Y-117290000D01*
X123063000Y-116332000D01*
X123317000Y-116332000D01*
X123317000Y-117290000D01*
X123617000Y-117290000D01*
X124022544Y-117158808D01*
X124347013Y-116882408D01*
X124534408Y-116499001D01*
X124451704Y-116390167D01*
X126064838Y-116390167D01*
X126206883Y-116733943D01*
X126469673Y-116997192D01*
X126813201Y-117139838D01*
X126860077Y-117139879D01*
X127510000Y-117789802D01*
X127510000Y-118817537D01*
X127477808Y-118849673D01*
X127335162Y-119193201D01*
X127334838Y-119565167D01*
X127476883Y-119908943D01*
X127739673Y-120172192D01*
X128083201Y-120314838D01*
X128455167Y-120315162D01*
X128798943Y-120173117D01*
X128957336Y-120015000D01*
X147126887Y-120015000D01*
X147236120Y-120564151D01*
X147547189Y-121029698D01*
X148012736Y-121340767D01*
X148561887Y-121450000D01*
X148618113Y-121450000D01*
X149167264Y-121340767D01*
X149632811Y-121029698D01*
X149943880Y-120564151D01*
X150053113Y-120015000D01*
X149943880Y-119465849D01*
X149632811Y-119000302D01*
X149167264Y-118689233D01*
X148618113Y-118580000D01*
X148561887Y-118580000D01*
X148012736Y-118689233D01*
X147547189Y-119000302D01*
X147236120Y-119465849D01*
X147126887Y-120015000D01*
X128957336Y-120015000D01*
X129062192Y-119910327D01*
X129204838Y-119566799D01*
X129205162Y-119194833D01*
X129063117Y-118851057D01*
X129030000Y-118817882D01*
X129030000Y-117475000D01*
X128972148Y-117184161D01*
X128972148Y-117184160D01*
X128807401Y-116937599D01*
X127935122Y-116065320D01*
X127935162Y-116019833D01*
X127793117Y-115676057D01*
X127530327Y-115412808D01*
X127186799Y-115270162D01*
X126814833Y-115269838D01*
X126471057Y-115411883D01*
X126207808Y-115674673D01*
X126065162Y-116018201D01*
X126064838Y-116390167D01*
X124451704Y-116390167D01*
X124407502Y-116332000D01*
X123317000Y-116332000D01*
X123063000Y-116332000D01*
X121972498Y-116332000D01*
X121845592Y-116499001D01*
X120127111Y-116499001D01*
X120180000Y-116233113D01*
X120180000Y-116176887D01*
X120070767Y-115627736D01*
X119759698Y-115162189D01*
X119419687Y-114935000D01*
X121777866Y-114935000D01*
X121860457Y-115350212D01*
X122010170Y-115574274D01*
X121845592Y-115910999D01*
X121972498Y-116078000D01*
X123063000Y-116078000D01*
X123063000Y-116058000D01*
X123317000Y-116058000D01*
X123317000Y-116078000D01*
X124407502Y-116078000D01*
X124534408Y-115910999D01*
X124369830Y-115574274D01*
X124519543Y-115350212D01*
X124602134Y-114935000D01*
X128762866Y-114935000D01*
X128845457Y-115350212D01*
X128888759Y-115415019D01*
X128828569Y-115503110D01*
X128777560Y-115755000D01*
X128777560Y-116655000D01*
X128821838Y-116890317D01*
X128960910Y-117106441D01*
X129173110Y-117251431D01*
X129425000Y-117302440D01*
X130925000Y-117302440D01*
X131160317Y-117258162D01*
X131376441Y-117119090D01*
X131521431Y-116906890D01*
X131572440Y-116655000D01*
X131572440Y-116554041D01*
X133228086Y-116554041D01*
X133467611Y-117060134D01*
X133882577Y-117436041D01*
X134270961Y-117596904D01*
X134493000Y-117474915D01*
X134493000Y-116332000D01*
X134747000Y-116332000D01*
X134747000Y-117474915D01*
X134969039Y-117596904D01*
X135357423Y-117436041D01*
X135772389Y-117060134D01*
X136011914Y-116554041D01*
X135890629Y-116332000D01*
X134747000Y-116332000D01*
X134493000Y-116332000D01*
X133349371Y-116332000D01*
X133228086Y-116554041D01*
X131572440Y-116554041D01*
X131572440Y-116205000D01*
X136331887Y-116205000D01*
X136441120Y-116754151D01*
X136752189Y-117219698D01*
X137217736Y-117530767D01*
X137766887Y-117640000D01*
X137823113Y-117640000D01*
X138372264Y-117530767D01*
X138837811Y-117219698D01*
X139148880Y-116754151D01*
X139201584Y-116489187D01*
X146519752Y-116489187D01*
X146737757Y-117016800D01*
X147141077Y-117420824D01*
X147668309Y-117639750D01*
X148239187Y-117640248D01*
X148766800Y-117422243D01*
X149170824Y-117018923D01*
X149389750Y-116491691D01*
X149390248Y-115920813D01*
X149172243Y-115393200D01*
X148768923Y-114989176D01*
X148241691Y-114770250D01*
X147670813Y-114769752D01*
X147143200Y-114987757D01*
X146739176Y-115391077D01*
X146520250Y-115918309D01*
X146519752Y-116489187D01*
X139201584Y-116489187D01*
X139258113Y-116205000D01*
X139148880Y-115655849D01*
X138837811Y-115190302D01*
X138372264Y-114879233D01*
X137823113Y-114770000D01*
X137766887Y-114770000D01*
X137217736Y-114879233D01*
X136752189Y-115190302D01*
X136441120Y-115655849D01*
X136331887Y-116205000D01*
X131572440Y-116205000D01*
X131572440Y-115855959D01*
X133228086Y-115855959D01*
X133349371Y-116078000D01*
X134493000Y-116078000D01*
X134493000Y-114935085D01*
X134747000Y-114935085D01*
X134747000Y-116078000D01*
X135890629Y-116078000D01*
X136011914Y-115855959D01*
X135772389Y-115349866D01*
X135357423Y-114973959D01*
X134969039Y-114813096D01*
X134747000Y-114935085D01*
X134493000Y-114935085D01*
X134270961Y-114813096D01*
X133882577Y-114973959D01*
X133467611Y-115349866D01*
X133228086Y-115855959D01*
X131572440Y-115855959D01*
X131572440Y-115755000D01*
X131528162Y-115519683D01*
X131461022Y-115415345D01*
X131504543Y-115350212D01*
X131587134Y-114935000D01*
X131504543Y-114519788D01*
X131354830Y-114295726D01*
X131519408Y-113959001D01*
X131392502Y-113792000D01*
X130302000Y-113792000D01*
X130302000Y-113812000D01*
X130048000Y-113812000D01*
X130048000Y-113792000D01*
X128957498Y-113792000D01*
X128830592Y-113959001D01*
X128995170Y-114295726D01*
X128845457Y-114519788D01*
X128762866Y-114935000D01*
X124602134Y-114935000D01*
X124519543Y-114519788D01*
X124476241Y-114454981D01*
X124536431Y-114366890D01*
X124587440Y-114115000D01*
X124587440Y-113370999D01*
X128830592Y-113370999D01*
X128957498Y-113538000D01*
X130048000Y-113538000D01*
X130048000Y-112580000D01*
X130302000Y-112580000D01*
X130302000Y-113538000D01*
X131392502Y-113538000D01*
X131519408Y-113370999D01*
X131332013Y-112987592D01*
X131046104Y-112744039D01*
X136403096Y-112744039D01*
X136563959Y-113132423D01*
X136939866Y-113547389D01*
X137445959Y-113786914D01*
X137668000Y-113665629D01*
X137668000Y-112522000D01*
X137922000Y-112522000D01*
X137922000Y-113665629D01*
X138144041Y-113786914D01*
X138650134Y-113547389D01*
X139026041Y-113132423D01*
X139186904Y-112744039D01*
X139151275Y-112679187D01*
X146519752Y-112679187D01*
X146737757Y-113206800D01*
X147141077Y-113610824D01*
X147668309Y-113829750D01*
X148239187Y-113830248D01*
X148766800Y-113612243D01*
X149164569Y-113215167D01*
X149559838Y-113215167D01*
X149701883Y-113558943D01*
X149964673Y-113822192D01*
X150308201Y-113964838D01*
X150355077Y-113964879D01*
X150370000Y-113979802D01*
X150370000Y-114992005D01*
X150115302Y-115162189D01*
X149804233Y-115627736D01*
X149695000Y-116176887D01*
X149695000Y-116233113D01*
X149804233Y-116782264D01*
X150115302Y-117247811D01*
X150580849Y-117558880D01*
X151130000Y-117668113D01*
X151657540Y-117563179D01*
X151697852Y-117765839D01*
X151862599Y-118012401D01*
X152099878Y-118249680D01*
X152099838Y-118295167D01*
X152241883Y-118638943D01*
X152504673Y-118902192D01*
X152848201Y-119044838D01*
X153220167Y-119045162D01*
X153563943Y-118903117D01*
X153827192Y-118640327D01*
X153969838Y-118296799D01*
X153970162Y-117924833D01*
X153828117Y-117581057D01*
X153565327Y-117317808D01*
X153221799Y-117175162D01*
X153174923Y-117175121D01*
X153160000Y-117160198D01*
X153160000Y-116489187D01*
X153504752Y-116489187D01*
X153722757Y-117016800D01*
X154126077Y-117420824D01*
X154653309Y-117639750D01*
X155224187Y-117640248D01*
X155751800Y-117422243D01*
X156155824Y-117018923D01*
X156374750Y-116491691D01*
X156375248Y-115920813D01*
X156167289Y-115417513D01*
X156984680Y-114600122D01*
X157030167Y-114600162D01*
X157373943Y-114458117D01*
X157637192Y-114195327D01*
X157779838Y-113851799D01*
X157780162Y-113479833D01*
X157638117Y-113136057D01*
X157375327Y-112872808D01*
X157031799Y-112730162D01*
X156659833Y-112729838D01*
X156316057Y-112871883D01*
X156052808Y-113134673D01*
X155910162Y-113478201D01*
X155910121Y-113525077D01*
X154665438Y-114769760D01*
X154655813Y-114769752D01*
X154128200Y-114987757D01*
X153724176Y-115391077D01*
X153505250Y-115918309D01*
X153504752Y-116489187D01*
X153160000Y-116489187D01*
X153160000Y-114300000D01*
X153102148Y-114009161D01*
X152937401Y-113762599D01*
X152700122Y-113525320D01*
X152700162Y-113479833D01*
X152558117Y-113136057D01*
X152295327Y-112872808D01*
X151951799Y-112730162D01*
X151579833Y-112729838D01*
X151411403Y-112799432D01*
X151288117Y-112501057D01*
X151025327Y-112237808D01*
X150681799Y-112095162D01*
X150309833Y-112094838D01*
X149966057Y-112236883D01*
X149702808Y-112499673D01*
X149560162Y-112843201D01*
X149559838Y-113215167D01*
X149164569Y-113215167D01*
X149170824Y-113208923D01*
X149389750Y-112681691D01*
X149390248Y-112110813D01*
X149172243Y-111583200D01*
X148768923Y-111179176D01*
X148241691Y-110960250D01*
X147670813Y-110959752D01*
X147143200Y-111177757D01*
X146739176Y-111581077D01*
X146520250Y-112108309D01*
X146519752Y-112679187D01*
X139151275Y-112679187D01*
X139064915Y-112522000D01*
X137922000Y-112522000D01*
X137668000Y-112522000D01*
X136525085Y-112522000D01*
X136403096Y-112744039D01*
X131046104Y-112744039D01*
X131007544Y-112711192D01*
X130602000Y-112580000D01*
X130302000Y-112580000D01*
X130048000Y-112580000D01*
X129748000Y-112580000D01*
X129342456Y-112711192D01*
X129017987Y-112987592D01*
X128830592Y-113370999D01*
X124587440Y-113370999D01*
X124587440Y-113215000D01*
X124543162Y-112979683D01*
X124404090Y-112763559D01*
X124191890Y-112618569D01*
X123940000Y-112567560D01*
X122440000Y-112567560D01*
X122204683Y-112611838D01*
X121988559Y-112750910D01*
X121843569Y-112963110D01*
X121792560Y-113215000D01*
X121792560Y-114115000D01*
X121836838Y-114350317D01*
X121903978Y-114454655D01*
X121860457Y-114519788D01*
X121777866Y-114935000D01*
X119419687Y-114935000D01*
X119294151Y-114851120D01*
X118745000Y-114741887D01*
X118195849Y-114851120D01*
X117730302Y-115162189D01*
X117419233Y-115627736D01*
X117310000Y-116176887D01*
X116370024Y-116176887D01*
X116370248Y-115920813D01*
X116152243Y-115393200D01*
X115748923Y-114989176D01*
X115221691Y-114770250D01*
X114650813Y-114769752D01*
X114123200Y-114987757D01*
X113719176Y-115391077D01*
X113500250Y-115918309D01*
X113499752Y-116489187D01*
X112509063Y-116489187D01*
X112560000Y-116233113D01*
X112560000Y-116176887D01*
X112450767Y-115627736D01*
X112139698Y-115162189D01*
X111674151Y-114851120D01*
X111125000Y-114741887D01*
X110575849Y-114851120D01*
X110110302Y-115162189D01*
X109799233Y-115627736D01*
X109690000Y-116176887D01*
X109385024Y-116176887D01*
X109385248Y-115920813D01*
X109167243Y-115393200D01*
X108763923Y-114989176D01*
X108236691Y-114770250D01*
X107665813Y-114769752D01*
X107138200Y-114987757D01*
X106734176Y-115391077D01*
X106515250Y-115918309D01*
X106514752Y-116489187D01*
X99196584Y-116489187D01*
X99253113Y-116205000D01*
X99143880Y-115655849D01*
X98832811Y-115190302D01*
X98367264Y-114879233D01*
X97818113Y-114770000D01*
X97761887Y-114770000D01*
X97212736Y-114879233D01*
X96747189Y-115190302D01*
X96436120Y-115655849D01*
X96326887Y-116205000D01*
X94468000Y-116205000D01*
X94468000Y-116078000D01*
X94488000Y-116078000D01*
X94488000Y-114935085D01*
X94742000Y-114935085D01*
X94742000Y-116078000D01*
X95885629Y-116078000D01*
X96006914Y-115855959D01*
X95767389Y-115349866D01*
X95352423Y-114973959D01*
X94964039Y-114813096D01*
X94742000Y-114935085D01*
X94488000Y-114935085D01*
X94265961Y-114813096D01*
X93877577Y-114973959D01*
X93462611Y-115349866D01*
X93420000Y-115439899D01*
X93420000Y-112744039D01*
X96398096Y-112744039D01*
X96558959Y-113132423D01*
X96934866Y-113547389D01*
X97440959Y-113786914D01*
X97663000Y-113665629D01*
X97663000Y-112522000D01*
X97917000Y-112522000D01*
X97917000Y-113665629D01*
X98139041Y-113786914D01*
X98645134Y-113547389D01*
X99021041Y-113132423D01*
X99181904Y-112744039D01*
X99146275Y-112679187D01*
X106514752Y-112679187D01*
X106732757Y-113206800D01*
X107136077Y-113610824D01*
X107663309Y-113829750D01*
X108234187Y-113830248D01*
X108761800Y-113612243D01*
X109165824Y-113208923D01*
X109384750Y-112681691D01*
X109385248Y-112110813D01*
X109358452Y-112045961D01*
X136403096Y-112045961D01*
X136525085Y-112268000D01*
X137668000Y-112268000D01*
X137668000Y-111124371D01*
X137922000Y-111124371D01*
X137922000Y-112268000D01*
X139064915Y-112268000D01*
X139186904Y-112045961D01*
X139026041Y-111657577D01*
X138650134Y-111242611D01*
X138144041Y-111003086D01*
X137922000Y-111124371D01*
X137668000Y-111124371D01*
X137445959Y-111003086D01*
X136939866Y-111242611D01*
X136563959Y-111657577D01*
X136403096Y-112045961D01*
X109358452Y-112045961D01*
X109167243Y-111583200D01*
X108763923Y-111179176D01*
X108236691Y-110960250D01*
X107665813Y-110959752D01*
X107138200Y-111177757D01*
X106734176Y-111581077D01*
X106515250Y-112108309D01*
X106514752Y-112679187D01*
X99146275Y-112679187D01*
X99059915Y-112522000D01*
X97917000Y-112522000D01*
X97663000Y-112522000D01*
X96520085Y-112522000D01*
X96398096Y-112744039D01*
X93420000Y-112744039D01*
X93420000Y-112045961D01*
X96398096Y-112045961D01*
X96520085Y-112268000D01*
X97663000Y-112268000D01*
X97663000Y-111124371D01*
X97917000Y-111124371D01*
X97917000Y-112268000D01*
X99059915Y-112268000D01*
X99181904Y-112045961D01*
X99021041Y-111657577D01*
X98645134Y-111242611D01*
X98139041Y-111003086D01*
X97917000Y-111124371D01*
X97663000Y-111124371D01*
X97440959Y-111003086D01*
X96934866Y-111242611D01*
X96558959Y-111657577D01*
X96398096Y-112045961D01*
X93420000Y-112045961D01*
X93420000Y-106879082D01*
X93801077Y-107260824D01*
X94328309Y-107479750D01*
X94899187Y-107480248D01*
X95125000Y-107386944D01*
X95125000Y-107387537D01*
X95092808Y-107419673D01*
X94950162Y-107763201D01*
X94949838Y-108135167D01*
X95091883Y-108478943D01*
X95354673Y-108742192D01*
X95698201Y-108884838D01*
X96070167Y-108885162D01*
X96413943Y-108743117D01*
X96677192Y-108480327D01*
X96801622Y-108180668D01*
X96968201Y-108249838D01*
X97340167Y-108250162D01*
X97683943Y-108108117D01*
X97947192Y-107845327D01*
X97951480Y-107835000D01*
X100502560Y-107835000D01*
X100502560Y-109335000D01*
X100546838Y-109570317D01*
X100685910Y-109786441D01*
X100898110Y-109931431D01*
X101150000Y-109982440D01*
X102050000Y-109982440D01*
X102285317Y-109938162D01*
X102389655Y-109871022D01*
X102454788Y-109914543D01*
X102870000Y-109997134D01*
X103285212Y-109914543D01*
X103509274Y-109764830D01*
X103845999Y-109929408D01*
X104013000Y-109802502D01*
X104013000Y-108712000D01*
X104267000Y-108712000D01*
X104267000Y-109802502D01*
X104434001Y-109929408D01*
X104817408Y-109742013D01*
X105093808Y-109417544D01*
X105225000Y-109012000D01*
X105225000Y-108712000D01*
X104267000Y-108712000D01*
X104013000Y-108712000D01*
X103993000Y-108712000D01*
X103993000Y-108458000D01*
X104013000Y-108458000D01*
X104013000Y-107367498D01*
X104267000Y-107367498D01*
X104267000Y-108458000D01*
X105225000Y-108458000D01*
X105225000Y-108158000D01*
X105120511Y-107835000D01*
X140507560Y-107835000D01*
X140507560Y-109335000D01*
X140551838Y-109570317D01*
X140690910Y-109786441D01*
X140903110Y-109931431D01*
X141155000Y-109982440D01*
X142055000Y-109982440D01*
X142290317Y-109938162D01*
X142394655Y-109871022D01*
X142459788Y-109914543D01*
X142875000Y-109997134D01*
X143290212Y-109914543D01*
X143514274Y-109764830D01*
X143850999Y-109929408D01*
X144018000Y-109802502D01*
X144018000Y-108712000D01*
X144272000Y-108712000D01*
X144272000Y-109802502D01*
X144439001Y-109929408D01*
X144822408Y-109742013D01*
X145098808Y-109417544D01*
X145230000Y-109012000D01*
X145230000Y-108712000D01*
X144272000Y-108712000D01*
X144018000Y-108712000D01*
X143998000Y-108712000D01*
X143998000Y-108458000D01*
X144018000Y-108458000D01*
X144018000Y-107367498D01*
X144272000Y-107367498D01*
X144272000Y-108458000D01*
X145230000Y-108458000D01*
X145230000Y-108158000D01*
X145098808Y-107752456D01*
X144822408Y-107427987D01*
X144439001Y-107240592D01*
X144272000Y-107367498D01*
X144018000Y-107367498D01*
X143850999Y-107240592D01*
X143514274Y-107405170D01*
X143290212Y-107255457D01*
X142875000Y-107172866D01*
X142459788Y-107255457D01*
X142394981Y-107298759D01*
X142306890Y-107238569D01*
X142055000Y-107187560D01*
X141155000Y-107187560D01*
X140919683Y-107231838D01*
X140703559Y-107370910D01*
X140558569Y-107583110D01*
X140507560Y-107835000D01*
X105120511Y-107835000D01*
X105093808Y-107752456D01*
X104817408Y-107427987D01*
X104434001Y-107240592D01*
X104267000Y-107367498D01*
X104013000Y-107367498D01*
X103845999Y-107240592D01*
X103509274Y-107405170D01*
X103285212Y-107255457D01*
X102870000Y-107172866D01*
X102454788Y-107255457D01*
X102389981Y-107298759D01*
X102301890Y-107238569D01*
X102050000Y-107187560D01*
X101150000Y-107187560D01*
X100914683Y-107231838D01*
X100698559Y-107370910D01*
X100553569Y-107583110D01*
X100502560Y-107835000D01*
X97951480Y-107835000D01*
X98056765Y-107581446D01*
X98318943Y-107473117D01*
X98582192Y-107210327D01*
X98724838Y-106866799D01*
X98725162Y-106494833D01*
X98656719Y-106329187D01*
X109689752Y-106329187D01*
X109907757Y-106856800D01*
X110311077Y-107260824D01*
X110838309Y-107479750D01*
X111409187Y-107480248D01*
X111936800Y-107262243D01*
X112340824Y-106858923D01*
X112559750Y-106331691D01*
X112560024Y-106016887D01*
X113500000Y-106016887D01*
X113500000Y-106073113D01*
X113609233Y-106622264D01*
X113920302Y-107087811D01*
X114385849Y-107398880D01*
X114935000Y-107508113D01*
X115484151Y-107398880D01*
X115949698Y-107087811D01*
X116260767Y-106622264D01*
X116370000Y-106073113D01*
X116370000Y-106016887D01*
X116260767Y-105467736D01*
X115990576Y-105063367D01*
X116018201Y-105074838D01*
X116390167Y-105075162D01*
X116733943Y-104933117D01*
X116767118Y-104900000D01*
X117795198Y-104900000D01*
X117827986Y-104932788D01*
X117529176Y-105231077D01*
X117310250Y-105758309D01*
X117309752Y-106329187D01*
X117527757Y-106856800D01*
X117931077Y-107260824D01*
X118458309Y-107479750D01*
X119029187Y-107480248D01*
X119556800Y-107262243D01*
X119960824Y-106858923D01*
X120179750Y-106331691D01*
X120179752Y-106329187D01*
X133184752Y-106329187D01*
X133402757Y-106856800D01*
X133806077Y-107260824D01*
X134333309Y-107479750D01*
X134904187Y-107480248D01*
X135431800Y-107262243D01*
X135835824Y-106858923D01*
X136054750Y-106331691D01*
X136055248Y-105760813D01*
X135837243Y-105233200D01*
X135433923Y-104829176D01*
X134906691Y-104610250D01*
X134335813Y-104609752D01*
X133808200Y-104827757D01*
X133404176Y-105231077D01*
X133185250Y-105758309D01*
X133184752Y-106329187D01*
X120179752Y-106329187D01*
X120180248Y-105760813D01*
X119962243Y-105233200D01*
X119558923Y-104829176D01*
X119505000Y-104806785D01*
X119505000Y-104775000D01*
X119447148Y-104484161D01*
X119282401Y-104237599D01*
X118647401Y-103602599D01*
X118400839Y-103437852D01*
X118110000Y-103380000D01*
X116767463Y-103380000D01*
X116735327Y-103347808D01*
X116391799Y-103205162D01*
X116019833Y-103204838D01*
X115676057Y-103346883D01*
X115412808Y-103609673D01*
X115270162Y-103953201D01*
X115269838Y-104325167D01*
X115411883Y-104668943D01*
X115421601Y-104678678D01*
X114935000Y-104581887D01*
X114385849Y-104691120D01*
X113920302Y-105002189D01*
X113609233Y-105467736D01*
X113500000Y-106016887D01*
X112560024Y-106016887D01*
X112560248Y-105760813D01*
X112342243Y-105233200D01*
X111938923Y-104829176D01*
X111411691Y-104610250D01*
X110840813Y-104609752D01*
X110313200Y-104827757D01*
X109909176Y-105231077D01*
X109690250Y-105758309D01*
X109689752Y-106329187D01*
X98656719Y-106329187D01*
X98583117Y-106151057D01*
X98550000Y-106117882D01*
X98550000Y-105337463D01*
X98582192Y-105305327D01*
X98724838Y-104961799D01*
X98725162Y-104589833D01*
X98583117Y-104246057D01*
X98320327Y-103982808D01*
X98056446Y-103873235D01*
X97948117Y-103611057D01*
X97685327Y-103347808D01*
X97421446Y-103238235D01*
X97313117Y-102976057D01*
X97050327Y-102712808D01*
X96706799Y-102570162D01*
X96334833Y-102569838D01*
X95991057Y-102711883D01*
X95727808Y-102974673D01*
X95618235Y-103238554D01*
X95356057Y-103346883D01*
X95092808Y-103609673D01*
X94950162Y-103953201D01*
X94949838Y-104325167D01*
X95091883Y-104668943D01*
X95125000Y-104702118D01*
X95125000Y-104702976D01*
X94901691Y-104610250D01*
X94330813Y-104609752D01*
X93803200Y-104827757D01*
X93420000Y-105210289D01*
X93420000Y-102420167D01*
X140034838Y-102420167D01*
X140176883Y-102763943D01*
X140439673Y-103027192D01*
X140783201Y-103169838D01*
X140830077Y-103169879D01*
X141304878Y-103644680D01*
X141304838Y-103690167D01*
X141446883Y-104033943D01*
X141709673Y-104297192D01*
X142053201Y-104439838D01*
X142425167Y-104440162D01*
X142768943Y-104298117D01*
X143032192Y-104035327D01*
X143174838Y-103691799D01*
X143174910Y-103609712D01*
X146384878Y-106819680D01*
X146384838Y-106865167D01*
X146526883Y-107208943D01*
X146789673Y-107472192D01*
X147133201Y-107614838D01*
X147505167Y-107615162D01*
X147848943Y-107473117D01*
X147954954Y-107367290D01*
X148059673Y-107472192D01*
X148403201Y-107614838D01*
X148775167Y-107615162D01*
X149118943Y-107473117D01*
X149382192Y-107210327D01*
X149524838Y-106866799D01*
X149525162Y-106494833D01*
X149456719Y-106329187D01*
X149694752Y-106329187D01*
X149912757Y-106856800D01*
X150316077Y-107260824D01*
X150843309Y-107479750D01*
X151414187Y-107480248D01*
X151941800Y-107262243D01*
X152345824Y-106858923D01*
X152564750Y-106331691D01*
X152565024Y-106016887D01*
X153505000Y-106016887D01*
X153505000Y-106073113D01*
X153614233Y-106622264D01*
X153925302Y-107087811D01*
X154390849Y-107398880D01*
X154940000Y-107508113D01*
X155489151Y-107398880D01*
X155954698Y-107087811D01*
X156265767Y-106622264D01*
X156375000Y-106073113D01*
X156375000Y-106016887D01*
X156265767Y-105467736D01*
X155954698Y-105002189D01*
X155489151Y-104691120D01*
X154940000Y-104581887D01*
X154390849Y-104691120D01*
X153925302Y-105002189D01*
X153614233Y-105467736D01*
X153505000Y-106016887D01*
X152565024Y-106016887D01*
X152565248Y-105760813D01*
X152347243Y-105233200D01*
X151943923Y-104829176D01*
X151416691Y-104610250D01*
X150845813Y-104609752D01*
X150318200Y-104827757D01*
X149914176Y-105231077D01*
X149695250Y-105758309D01*
X149694752Y-106329187D01*
X149456719Y-106329187D01*
X149383117Y-106151057D01*
X149120327Y-105887808D01*
X148776799Y-105745162D01*
X148729923Y-105745121D01*
X148059894Y-105075092D01*
X148140167Y-105075162D01*
X148483943Y-104933117D01*
X148747192Y-104670327D01*
X148889838Y-104326799D01*
X148890162Y-103954833D01*
X148748117Y-103611057D01*
X148485327Y-103347808D01*
X148141799Y-103205162D01*
X148094923Y-103205121D01*
X146985122Y-102095320D01*
X146985162Y-102049833D01*
X146843117Y-101706057D01*
X146580327Y-101442808D01*
X146236799Y-101300162D01*
X145864833Y-101299838D01*
X145521057Y-101441883D01*
X145415046Y-101547710D01*
X145310327Y-101442808D01*
X144966799Y-101300162D01*
X144594833Y-101299838D01*
X144251057Y-101441883D01*
X143987808Y-101704673D01*
X143845162Y-102048201D01*
X143845090Y-102130288D01*
X143810122Y-102095320D01*
X143810162Y-102049833D01*
X143668117Y-101706057D01*
X143405327Y-101442808D01*
X143061799Y-101300162D01*
X142689833Y-101299838D01*
X142346057Y-101441883D01*
X142082808Y-101704673D01*
X141940162Y-102048201D01*
X141940090Y-102130288D01*
X141905122Y-102095320D01*
X141905162Y-102049833D01*
X141763117Y-101706057D01*
X141500327Y-101442808D01*
X141156799Y-101300162D01*
X140784833Y-101299838D01*
X140441057Y-101441883D01*
X140177808Y-101704673D01*
X140035162Y-102048201D01*
X140034838Y-102420167D01*
X93420000Y-102420167D01*
X93420000Y-99644187D01*
X103327752Y-99644187D01*
X103545757Y-100171800D01*
X103949077Y-100575824D01*
X104476309Y-100794750D01*
X105047187Y-100795248D01*
X105574800Y-100577243D01*
X105978824Y-100173923D01*
X106148146Y-99766150D01*
X106315757Y-100171800D01*
X106719077Y-100575824D01*
X107246309Y-100794750D01*
X107817187Y-100795248D01*
X108344800Y-100577243D01*
X108748824Y-100173923D01*
X108918146Y-99766150D01*
X109085757Y-100171800D01*
X109489077Y-100575824D01*
X110016309Y-100794750D01*
X110587187Y-100795248D01*
X111114800Y-100577243D01*
X111518824Y-100173923D01*
X111688146Y-99766150D01*
X111855757Y-100171800D01*
X112259077Y-100575824D01*
X112786309Y-100794750D01*
X113357187Y-100795248D01*
X113884800Y-100577243D01*
X114288824Y-100173923D01*
X114507750Y-99646691D01*
X114507752Y-99644187D01*
X139014752Y-99644187D01*
X139232757Y-100171800D01*
X139636077Y-100575824D01*
X140163309Y-100794750D01*
X140734187Y-100795248D01*
X141261800Y-100577243D01*
X141665824Y-100173923D01*
X141835146Y-99766150D01*
X142002757Y-100171800D01*
X142406077Y-100575824D01*
X142933309Y-100794750D01*
X143504187Y-100795248D01*
X144031800Y-100577243D01*
X144435824Y-100173923D01*
X144605146Y-99766150D01*
X144772757Y-100171800D01*
X145176077Y-100575824D01*
X145703309Y-100794750D01*
X146274187Y-100795248D01*
X146801800Y-100577243D01*
X147205824Y-100173923D01*
X147375146Y-99766150D01*
X147542757Y-100171800D01*
X147946077Y-100575824D01*
X148473309Y-100794750D01*
X149044187Y-100795248D01*
X149571800Y-100577243D01*
X149975824Y-100173923D01*
X150194750Y-99646691D01*
X150195248Y-99075813D01*
X149977243Y-98548200D01*
X149573923Y-98144176D01*
X149046691Y-97925250D01*
X148475813Y-97924752D01*
X147948200Y-98142757D01*
X147544176Y-98546077D01*
X147374854Y-98953850D01*
X147207243Y-98548200D01*
X146803923Y-98144176D01*
X146276691Y-97925250D01*
X145705813Y-97924752D01*
X145178200Y-98142757D01*
X144774176Y-98546077D01*
X144604854Y-98953850D01*
X144437243Y-98548200D01*
X144033923Y-98144176D01*
X143506691Y-97925250D01*
X142935813Y-97924752D01*
X142408200Y-98142757D01*
X142004176Y-98546077D01*
X141834854Y-98953850D01*
X141667243Y-98548200D01*
X141263923Y-98144176D01*
X140736691Y-97925250D01*
X140165813Y-97924752D01*
X139638200Y-98142757D01*
X139234176Y-98546077D01*
X139015250Y-99073309D01*
X139014752Y-99644187D01*
X114507752Y-99644187D01*
X114508248Y-99075813D01*
X114290243Y-98548200D01*
X113886923Y-98144176D01*
X113359691Y-97925250D01*
X112788813Y-97924752D01*
X112261200Y-98142757D01*
X111857176Y-98546077D01*
X111687854Y-98953850D01*
X111520243Y-98548200D01*
X111116923Y-98144176D01*
X110589691Y-97925250D01*
X110018813Y-97924752D01*
X109491200Y-98142757D01*
X109087176Y-98546077D01*
X108917854Y-98953850D01*
X108750243Y-98548200D01*
X108346923Y-98144176D01*
X107819691Y-97925250D01*
X107248813Y-97924752D01*
X106721200Y-98142757D01*
X106317176Y-98546077D01*
X106147854Y-98953850D01*
X105980243Y-98548200D01*
X105576923Y-98144176D01*
X105049691Y-97925250D01*
X104478813Y-97924752D01*
X103951200Y-98142757D01*
X103547176Y-98546077D01*
X103328250Y-99073309D01*
X103327752Y-99644187D01*
X93420000Y-99644187D01*
X93420000Y-95720000D01*
X101930560Y-95720000D01*
X101930560Y-97320000D01*
X101974838Y-97555317D01*
X102113910Y-97771441D01*
X102326110Y-97916431D01*
X102578000Y-97967440D01*
X104178000Y-97967440D01*
X104413317Y-97923162D01*
X104629441Y-97784090D01*
X104774431Y-97571890D01*
X104825440Y-97320000D01*
X104825440Y-97076913D01*
X104930757Y-97331800D01*
X105334077Y-97735824D01*
X105861309Y-97954750D01*
X106432187Y-97955248D01*
X106959800Y-97737243D01*
X107363824Y-97333923D01*
X107533146Y-96926150D01*
X107700757Y-97331800D01*
X108104077Y-97735824D01*
X108631309Y-97954750D01*
X109202187Y-97955248D01*
X109729800Y-97737243D01*
X110133824Y-97333923D01*
X110303146Y-96926150D01*
X110470757Y-97331800D01*
X110874077Y-97735824D01*
X111401309Y-97954750D01*
X111972187Y-97955248D01*
X112499800Y-97737243D01*
X112903824Y-97333923D01*
X113073146Y-96926150D01*
X113240757Y-97331800D01*
X113644077Y-97735824D01*
X114171309Y-97954750D01*
X114742187Y-97955248D01*
X115269800Y-97737243D01*
X115673824Y-97333923D01*
X115892750Y-96806691D01*
X115893248Y-96235813D01*
X115680119Y-95720000D01*
X137617560Y-95720000D01*
X137617560Y-97320000D01*
X137661838Y-97555317D01*
X137800910Y-97771441D01*
X138013110Y-97916431D01*
X138265000Y-97967440D01*
X139865000Y-97967440D01*
X140100317Y-97923162D01*
X140316441Y-97784090D01*
X140461431Y-97571890D01*
X140512440Y-97320000D01*
X140512440Y-97076913D01*
X140617757Y-97331800D01*
X141021077Y-97735824D01*
X141548309Y-97954750D01*
X142119187Y-97955248D01*
X142646800Y-97737243D01*
X143050824Y-97333923D01*
X143220146Y-96926150D01*
X143387757Y-97331800D01*
X143791077Y-97735824D01*
X144318309Y-97954750D01*
X144889187Y-97955248D01*
X145416800Y-97737243D01*
X145820824Y-97333923D01*
X145990146Y-96926150D01*
X146157757Y-97331800D01*
X146561077Y-97735824D01*
X147088309Y-97954750D01*
X147659187Y-97955248D01*
X148186800Y-97737243D01*
X148590824Y-97333923D01*
X148760146Y-96926150D01*
X148927757Y-97331800D01*
X149331077Y-97735824D01*
X149858309Y-97954750D01*
X150429187Y-97955248D01*
X150956800Y-97737243D01*
X151360824Y-97333923D01*
X151579750Y-96806691D01*
X151580248Y-96235813D01*
X151362243Y-95708200D01*
X150958923Y-95304176D01*
X150431691Y-95085250D01*
X149860813Y-95084752D01*
X149333200Y-95302757D01*
X148929176Y-95706077D01*
X148759854Y-96113850D01*
X148592243Y-95708200D01*
X148188923Y-95304176D01*
X147661691Y-95085250D01*
X147090813Y-95084752D01*
X146563200Y-95302757D01*
X146159176Y-95706077D01*
X145989854Y-96113850D01*
X145822243Y-95708200D01*
X145418923Y-95304176D01*
X144891691Y-95085250D01*
X144320813Y-95084752D01*
X143793200Y-95302757D01*
X143389176Y-95706077D01*
X143219854Y-96113850D01*
X143052243Y-95708200D01*
X142648923Y-95304176D01*
X142121691Y-95085250D01*
X141550813Y-95084752D01*
X141023200Y-95302757D01*
X140619176Y-95706077D01*
X140512440Y-95963126D01*
X140512440Y-95720000D01*
X140468162Y-95484683D01*
X140329090Y-95268559D01*
X140116890Y-95123569D01*
X139865000Y-95072560D01*
X138265000Y-95072560D01*
X138029683Y-95116838D01*
X137813559Y-95255910D01*
X137668569Y-95468110D01*
X137617560Y-95720000D01*
X115680119Y-95720000D01*
X115675243Y-95708200D01*
X115271923Y-95304176D01*
X114744691Y-95085250D01*
X114173813Y-95084752D01*
X113646200Y-95302757D01*
X113242176Y-95706077D01*
X113072854Y-96113850D01*
X112905243Y-95708200D01*
X112501923Y-95304176D01*
X111974691Y-95085250D01*
X111403813Y-95084752D01*
X110876200Y-95302757D01*
X110472176Y-95706077D01*
X110302854Y-96113850D01*
X110135243Y-95708200D01*
X109731923Y-95304176D01*
X109204691Y-95085250D01*
X108633813Y-95084752D01*
X108106200Y-95302757D01*
X107702176Y-95706077D01*
X107532854Y-96113850D01*
X107365243Y-95708200D01*
X106961923Y-95304176D01*
X106434691Y-95085250D01*
X105863813Y-95084752D01*
X105336200Y-95302757D01*
X104932176Y-95706077D01*
X104825440Y-95963126D01*
X104825440Y-95720000D01*
X104781162Y-95484683D01*
X104642090Y-95268559D01*
X104429890Y-95123569D01*
X104178000Y-95072560D01*
X102578000Y-95072560D01*
X102342683Y-95116838D01*
X102126559Y-95255910D01*
X101981569Y-95468110D01*
X101930560Y-95720000D01*
X93420000Y-95720000D01*
X93420000Y-94049930D01*
X93475478Y-93771021D01*
X93593856Y-93593855D01*
X93771019Y-93475479D01*
X94049931Y-93420000D01*
X159315070Y-93420000D01*
X159593979Y-93475478D01*
M02*
