G04 #@! TF.GenerationSoftware,KiCad,Pcbnew,9.0.6-9.0.6~ubuntu24.04.1*
G04 #@! TF.CreationDate,2025-12-07T01:13:07+01:00*
G04 #@! TF.ProjectId,Acorn Joystick Adapter,41636f72-6e20-44a6-9f79-737469636b20,rev?*
G04 #@! TF.SameCoordinates,Original*
G04 #@! TF.FileFunction,Legend,Bot*
G04 #@! TF.FilePolarity,Positive*
%FSLAX46Y46*%
G04 Gerber Fmt 4.6, Leading zero omitted, Abs format (unit mm)*
G04 Created by KiCad (PCBNEW 9.0.6-9.0.6~ubuntu24.04.1) date 2025-12-07 01:13:07*
%MOMM*%
%LPD*%
G01*
G04 APERTURE LIST*
%ADD10C,0.100000*%
%ADD11C,0.125000*%
%ADD12C,0.150000*%
%ADD13C,0.120000*%
G04 APERTURE END LIST*
D10*
X128648782Y-97977609D02*
X128982115Y-97977609D01*
X128982115Y-98501419D02*
X128982115Y-97501419D01*
X128982115Y-97501419D02*
X128505925Y-97501419D01*
X128648782Y-100517609D02*
X128982115Y-100517609D01*
X128982115Y-101041419D02*
X128982115Y-100041419D01*
X128982115Y-100041419D02*
X128505925Y-100041419D01*
X128791639Y-95485228D02*
X128791639Y-95961419D01*
X129124972Y-94961419D02*
X128791639Y-95485228D01*
X128791639Y-95485228D02*
X128458306Y-94961419D01*
X124664115Y-105740466D02*
X123902211Y-105740466D01*
X129077353Y-92421419D02*
X128410687Y-93421419D01*
X128410687Y-92421419D02*
X129077353Y-93421419D01*
X134793572Y-122091704D02*
X134317382Y-122091704D01*
X134888810Y-122377419D02*
X134555477Y-121377419D01*
X134555477Y-121377419D02*
X134222144Y-122377419D01*
X133460239Y-122329800D02*
X133555477Y-122377419D01*
X133555477Y-122377419D02*
X133745953Y-122377419D01*
X133745953Y-122377419D02*
X133841191Y-122329800D01*
X133841191Y-122329800D02*
X133888810Y-122282180D01*
X133888810Y-122282180D02*
X133936429Y-122186942D01*
X133936429Y-122186942D02*
X133936429Y-121901228D01*
X133936429Y-121901228D02*
X133888810Y-121805990D01*
X133888810Y-121805990D02*
X133841191Y-121758371D01*
X133841191Y-121758371D02*
X133745953Y-121710752D01*
X133745953Y-121710752D02*
X133555477Y-121710752D01*
X133555477Y-121710752D02*
X133460239Y-121758371D01*
X132888810Y-122377419D02*
X132984048Y-122329800D01*
X132984048Y-122329800D02*
X133031667Y-122282180D01*
X133031667Y-122282180D02*
X133079286Y-122186942D01*
X133079286Y-122186942D02*
X133079286Y-121901228D01*
X133079286Y-121901228D02*
X133031667Y-121805990D01*
X133031667Y-121805990D02*
X132984048Y-121758371D01*
X132984048Y-121758371D02*
X132888810Y-121710752D01*
X132888810Y-121710752D02*
X132745953Y-121710752D01*
X132745953Y-121710752D02*
X132650715Y-121758371D01*
X132650715Y-121758371D02*
X132603096Y-121805990D01*
X132603096Y-121805990D02*
X132555477Y-121901228D01*
X132555477Y-121901228D02*
X132555477Y-122186942D01*
X132555477Y-122186942D02*
X132603096Y-122282180D01*
X132603096Y-122282180D02*
X132650715Y-122329800D01*
X132650715Y-122329800D02*
X132745953Y-122377419D01*
X132745953Y-122377419D02*
X132888810Y-122377419D01*
X132126905Y-122377419D02*
X132126905Y-121710752D01*
X132126905Y-121901228D02*
X132079286Y-121805990D01*
X132079286Y-121805990D02*
X132031667Y-121758371D01*
X132031667Y-121758371D02*
X131936429Y-121710752D01*
X131936429Y-121710752D02*
X131841191Y-121710752D01*
X131507857Y-121710752D02*
X131507857Y-122377419D01*
X131507857Y-121805990D02*
X131460238Y-121758371D01*
X131460238Y-121758371D02*
X131365000Y-121710752D01*
X131365000Y-121710752D02*
X131222143Y-121710752D01*
X131222143Y-121710752D02*
X131126905Y-121758371D01*
X131126905Y-121758371D02*
X131079286Y-121853609D01*
X131079286Y-121853609D02*
X131079286Y-122377419D01*
X129555476Y-121377419D02*
X129555476Y-122091704D01*
X129555476Y-122091704D02*
X129603095Y-122234561D01*
X129603095Y-122234561D02*
X129698333Y-122329800D01*
X129698333Y-122329800D02*
X129841190Y-122377419D01*
X129841190Y-122377419D02*
X129936428Y-122377419D01*
X128936428Y-122377419D02*
X129031666Y-122329800D01*
X129031666Y-122329800D02*
X129079285Y-122282180D01*
X129079285Y-122282180D02*
X129126904Y-122186942D01*
X129126904Y-122186942D02*
X129126904Y-121901228D01*
X129126904Y-121901228D02*
X129079285Y-121805990D01*
X129079285Y-121805990D02*
X129031666Y-121758371D01*
X129031666Y-121758371D02*
X128936428Y-121710752D01*
X128936428Y-121710752D02*
X128793571Y-121710752D01*
X128793571Y-121710752D02*
X128698333Y-121758371D01*
X128698333Y-121758371D02*
X128650714Y-121805990D01*
X128650714Y-121805990D02*
X128603095Y-121901228D01*
X128603095Y-121901228D02*
X128603095Y-122186942D01*
X128603095Y-122186942D02*
X128650714Y-122282180D01*
X128650714Y-122282180D02*
X128698333Y-122329800D01*
X128698333Y-122329800D02*
X128793571Y-122377419D01*
X128793571Y-122377419D02*
X128936428Y-122377419D01*
X128269761Y-121710752D02*
X128031666Y-122377419D01*
X127793571Y-121710752D02*
X128031666Y-122377419D01*
X128031666Y-122377419D02*
X128126904Y-122615514D01*
X128126904Y-122615514D02*
X128174523Y-122663133D01*
X128174523Y-122663133D02*
X128269761Y-122710752D01*
X127460237Y-122329800D02*
X127364999Y-122377419D01*
X127364999Y-122377419D02*
X127174523Y-122377419D01*
X127174523Y-122377419D02*
X127079285Y-122329800D01*
X127079285Y-122329800D02*
X127031666Y-122234561D01*
X127031666Y-122234561D02*
X127031666Y-122186942D01*
X127031666Y-122186942D02*
X127079285Y-122091704D01*
X127079285Y-122091704D02*
X127174523Y-122044085D01*
X127174523Y-122044085D02*
X127317380Y-122044085D01*
X127317380Y-122044085D02*
X127412618Y-121996466D01*
X127412618Y-121996466D02*
X127460237Y-121901228D01*
X127460237Y-121901228D02*
X127460237Y-121853609D01*
X127460237Y-121853609D02*
X127412618Y-121758371D01*
X127412618Y-121758371D02*
X127317380Y-121710752D01*
X127317380Y-121710752D02*
X127174523Y-121710752D01*
X127174523Y-121710752D02*
X127079285Y-121758371D01*
X126745951Y-121710752D02*
X126364999Y-121710752D01*
X126603094Y-121377419D02*
X126603094Y-122234561D01*
X126603094Y-122234561D02*
X126555475Y-122329800D01*
X126555475Y-122329800D02*
X126460237Y-122377419D01*
X126460237Y-122377419D02*
X126364999Y-122377419D01*
X126031665Y-122377419D02*
X126031665Y-121710752D01*
X126031665Y-121377419D02*
X126079284Y-121425038D01*
X126079284Y-121425038D02*
X126031665Y-121472657D01*
X126031665Y-121472657D02*
X125984046Y-121425038D01*
X125984046Y-121425038D02*
X126031665Y-121377419D01*
X126031665Y-121377419D02*
X126031665Y-121472657D01*
X125126904Y-122329800D02*
X125222142Y-122377419D01*
X125222142Y-122377419D02*
X125412618Y-122377419D01*
X125412618Y-122377419D02*
X125507856Y-122329800D01*
X125507856Y-122329800D02*
X125555475Y-122282180D01*
X125555475Y-122282180D02*
X125603094Y-122186942D01*
X125603094Y-122186942D02*
X125603094Y-121901228D01*
X125603094Y-121901228D02*
X125555475Y-121805990D01*
X125555475Y-121805990D02*
X125507856Y-121758371D01*
X125507856Y-121758371D02*
X125412618Y-121710752D01*
X125412618Y-121710752D02*
X125222142Y-121710752D01*
X125222142Y-121710752D02*
X125126904Y-121758371D01*
X124698332Y-122377419D02*
X124698332Y-121377419D01*
X124603094Y-121996466D02*
X124317380Y-122377419D01*
X124317380Y-121710752D02*
X124698332Y-122091704D01*
X123174522Y-122091704D02*
X122698332Y-122091704D01*
X123269760Y-122377419D02*
X122936427Y-121377419D01*
X122936427Y-121377419D02*
X122603094Y-122377419D01*
X121841189Y-122377419D02*
X121841189Y-121377419D01*
X121841189Y-122329800D02*
X121936427Y-122377419D01*
X121936427Y-122377419D02*
X122126903Y-122377419D01*
X122126903Y-122377419D02*
X122222141Y-122329800D01*
X122222141Y-122329800D02*
X122269760Y-122282180D01*
X122269760Y-122282180D02*
X122317379Y-122186942D01*
X122317379Y-122186942D02*
X122317379Y-121901228D01*
X122317379Y-121901228D02*
X122269760Y-121805990D01*
X122269760Y-121805990D02*
X122222141Y-121758371D01*
X122222141Y-121758371D02*
X122126903Y-121710752D01*
X122126903Y-121710752D02*
X121936427Y-121710752D01*
X121936427Y-121710752D02*
X121841189Y-121758371D01*
X120936427Y-122377419D02*
X120936427Y-121853609D01*
X120936427Y-121853609D02*
X120984046Y-121758371D01*
X120984046Y-121758371D02*
X121079284Y-121710752D01*
X121079284Y-121710752D02*
X121269760Y-121710752D01*
X121269760Y-121710752D02*
X121364998Y-121758371D01*
X120936427Y-122329800D02*
X121031665Y-122377419D01*
X121031665Y-122377419D02*
X121269760Y-122377419D01*
X121269760Y-122377419D02*
X121364998Y-122329800D01*
X121364998Y-122329800D02*
X121412617Y-122234561D01*
X121412617Y-122234561D02*
X121412617Y-122139323D01*
X121412617Y-122139323D02*
X121364998Y-122044085D01*
X121364998Y-122044085D02*
X121269760Y-121996466D01*
X121269760Y-121996466D02*
X121031665Y-121996466D01*
X121031665Y-121996466D02*
X120936427Y-121948847D01*
X120460236Y-121710752D02*
X120460236Y-122710752D01*
X120460236Y-121758371D02*
X120364998Y-121710752D01*
X120364998Y-121710752D02*
X120174522Y-121710752D01*
X120174522Y-121710752D02*
X120079284Y-121758371D01*
X120079284Y-121758371D02*
X120031665Y-121805990D01*
X120031665Y-121805990D02*
X119984046Y-121901228D01*
X119984046Y-121901228D02*
X119984046Y-122186942D01*
X119984046Y-122186942D02*
X120031665Y-122282180D01*
X120031665Y-122282180D02*
X120079284Y-122329800D01*
X120079284Y-122329800D02*
X120174522Y-122377419D01*
X120174522Y-122377419D02*
X120364998Y-122377419D01*
X120364998Y-122377419D02*
X120460236Y-122329800D01*
X119698331Y-121710752D02*
X119317379Y-121710752D01*
X119555474Y-121377419D02*
X119555474Y-122234561D01*
X119555474Y-122234561D02*
X119507855Y-122329800D01*
X119507855Y-122329800D02*
X119412617Y-122377419D01*
X119412617Y-122377419D02*
X119317379Y-122377419D01*
X118603093Y-122329800D02*
X118698331Y-122377419D01*
X118698331Y-122377419D02*
X118888807Y-122377419D01*
X118888807Y-122377419D02*
X118984045Y-122329800D01*
X118984045Y-122329800D02*
X119031664Y-122234561D01*
X119031664Y-122234561D02*
X119031664Y-121853609D01*
X119031664Y-121853609D02*
X118984045Y-121758371D01*
X118984045Y-121758371D02*
X118888807Y-121710752D01*
X118888807Y-121710752D02*
X118698331Y-121710752D01*
X118698331Y-121710752D02*
X118603093Y-121758371D01*
X118603093Y-121758371D02*
X118555474Y-121853609D01*
X118555474Y-121853609D02*
X118555474Y-121948847D01*
X118555474Y-121948847D02*
X119031664Y-122044085D01*
X118126902Y-122377419D02*
X118126902Y-121710752D01*
X118126902Y-121901228D02*
X118079283Y-121805990D01*
X118079283Y-121805990D02*
X118031664Y-121758371D01*
X118031664Y-121758371D02*
X117936426Y-121710752D01*
X117936426Y-121710752D02*
X117841188Y-121710752D01*
D11*
X124647668Y-103199166D02*
X123885764Y-103199166D01*
X124266716Y-103580119D02*
X124266716Y-102818214D01*
D12*
X145113333Y-136614819D02*
X145113333Y-137329104D01*
X145113333Y-137329104D02*
X145160952Y-137471961D01*
X145160952Y-137471961D02*
X145256190Y-137567200D01*
X145256190Y-137567200D02*
X145399047Y-137614819D01*
X145399047Y-137614819D02*
X145494285Y-137614819D01*
X144113333Y-137614819D02*
X144684761Y-137614819D01*
X144399047Y-137614819D02*
X144399047Y-136614819D01*
X144399047Y-136614819D02*
X144494285Y-136757676D01*
X144494285Y-136757676D02*
X144589523Y-136852914D01*
X144589523Y-136852914D02*
X144684761Y-136900533D01*
X132512524Y-139455104D02*
X132036334Y-139455104D01*
X132607762Y-139740819D02*
X132274429Y-138740819D01*
X132274429Y-138740819D02*
X131941096Y-139740819D01*
X131179191Y-139693200D02*
X131274429Y-139740819D01*
X131274429Y-139740819D02*
X131464905Y-139740819D01*
X131464905Y-139740819D02*
X131560143Y-139693200D01*
X131560143Y-139693200D02*
X131607762Y-139645580D01*
X131607762Y-139645580D02*
X131655381Y-139550342D01*
X131655381Y-139550342D02*
X131655381Y-139264628D01*
X131655381Y-139264628D02*
X131607762Y-139169390D01*
X131607762Y-139169390D02*
X131560143Y-139121771D01*
X131560143Y-139121771D02*
X131464905Y-139074152D01*
X131464905Y-139074152D02*
X131274429Y-139074152D01*
X131274429Y-139074152D02*
X131179191Y-139121771D01*
X130607762Y-139740819D02*
X130703000Y-139693200D01*
X130703000Y-139693200D02*
X130750619Y-139645580D01*
X130750619Y-139645580D02*
X130798238Y-139550342D01*
X130798238Y-139550342D02*
X130798238Y-139264628D01*
X130798238Y-139264628D02*
X130750619Y-139169390D01*
X130750619Y-139169390D02*
X130703000Y-139121771D01*
X130703000Y-139121771D02*
X130607762Y-139074152D01*
X130607762Y-139074152D02*
X130464905Y-139074152D01*
X130464905Y-139074152D02*
X130369667Y-139121771D01*
X130369667Y-139121771D02*
X130322048Y-139169390D01*
X130322048Y-139169390D02*
X130274429Y-139264628D01*
X130274429Y-139264628D02*
X130274429Y-139550342D01*
X130274429Y-139550342D02*
X130322048Y-139645580D01*
X130322048Y-139645580D02*
X130369667Y-139693200D01*
X130369667Y-139693200D02*
X130464905Y-139740819D01*
X130464905Y-139740819D02*
X130607762Y-139740819D01*
X129845857Y-139740819D02*
X129845857Y-139074152D01*
X129845857Y-139264628D02*
X129798238Y-139169390D01*
X129798238Y-139169390D02*
X129750619Y-139121771D01*
X129750619Y-139121771D02*
X129655381Y-139074152D01*
X129655381Y-139074152D02*
X129560143Y-139074152D01*
X129226809Y-139074152D02*
X129226809Y-139740819D01*
X129226809Y-139169390D02*
X129179190Y-139121771D01*
X129179190Y-139121771D02*
X129083952Y-139074152D01*
X129083952Y-139074152D02*
X128941095Y-139074152D01*
X128941095Y-139074152D02*
X128845857Y-139121771D01*
X128845857Y-139121771D02*
X128798238Y-139217009D01*
X128798238Y-139217009D02*
X128798238Y-139740819D01*
X126988714Y-139645580D02*
X127036333Y-139693200D01*
X127036333Y-139693200D02*
X127179190Y-139740819D01*
X127179190Y-139740819D02*
X127274428Y-139740819D01*
X127274428Y-139740819D02*
X127417285Y-139693200D01*
X127417285Y-139693200D02*
X127512523Y-139597961D01*
X127512523Y-139597961D02*
X127560142Y-139502723D01*
X127560142Y-139502723D02*
X127607761Y-139312247D01*
X127607761Y-139312247D02*
X127607761Y-139169390D01*
X127607761Y-139169390D02*
X127560142Y-138978914D01*
X127560142Y-138978914D02*
X127512523Y-138883676D01*
X127512523Y-138883676D02*
X127417285Y-138788438D01*
X127417285Y-138788438D02*
X127274428Y-138740819D01*
X127274428Y-138740819D02*
X127179190Y-138740819D01*
X127179190Y-138740819D02*
X127036333Y-138788438D01*
X127036333Y-138788438D02*
X126988714Y-138836057D01*
X126417285Y-139740819D02*
X126512523Y-139693200D01*
X126512523Y-139693200D02*
X126560142Y-139645580D01*
X126560142Y-139645580D02*
X126607761Y-139550342D01*
X126607761Y-139550342D02*
X126607761Y-139264628D01*
X126607761Y-139264628D02*
X126560142Y-139169390D01*
X126560142Y-139169390D02*
X126512523Y-139121771D01*
X126512523Y-139121771D02*
X126417285Y-139074152D01*
X126417285Y-139074152D02*
X126274428Y-139074152D01*
X126274428Y-139074152D02*
X126179190Y-139121771D01*
X126179190Y-139121771D02*
X126131571Y-139169390D01*
X126131571Y-139169390D02*
X126083952Y-139264628D01*
X126083952Y-139264628D02*
X126083952Y-139550342D01*
X126083952Y-139550342D02*
X126131571Y-139645580D01*
X126131571Y-139645580D02*
X126179190Y-139693200D01*
X126179190Y-139693200D02*
X126274428Y-139740819D01*
X126274428Y-139740819D02*
X126417285Y-139740819D01*
X125655380Y-139740819D02*
X125655380Y-139074152D01*
X125655380Y-139169390D02*
X125607761Y-139121771D01*
X125607761Y-139121771D02*
X125512523Y-139074152D01*
X125512523Y-139074152D02*
X125369666Y-139074152D01*
X125369666Y-139074152D02*
X125274428Y-139121771D01*
X125274428Y-139121771D02*
X125226809Y-139217009D01*
X125226809Y-139217009D02*
X125226809Y-139740819D01*
X125226809Y-139217009D02*
X125179190Y-139121771D01*
X125179190Y-139121771D02*
X125083952Y-139074152D01*
X125083952Y-139074152D02*
X124941095Y-139074152D01*
X124941095Y-139074152D02*
X124845856Y-139121771D01*
X124845856Y-139121771D02*
X124798237Y-139217009D01*
X124798237Y-139217009D02*
X124798237Y-139740819D01*
X124322047Y-139074152D02*
X124322047Y-140074152D01*
X124322047Y-139121771D02*
X124226809Y-139074152D01*
X124226809Y-139074152D02*
X124036333Y-139074152D01*
X124036333Y-139074152D02*
X123941095Y-139121771D01*
X123941095Y-139121771D02*
X123893476Y-139169390D01*
X123893476Y-139169390D02*
X123845857Y-139264628D01*
X123845857Y-139264628D02*
X123845857Y-139550342D01*
X123845857Y-139550342D02*
X123893476Y-139645580D01*
X123893476Y-139645580D02*
X123941095Y-139693200D01*
X123941095Y-139693200D02*
X124036333Y-139740819D01*
X124036333Y-139740819D02*
X124226809Y-139740819D01*
X124226809Y-139740819D02*
X124322047Y-139693200D01*
X122988714Y-139074152D02*
X122988714Y-139740819D01*
X123417285Y-139074152D02*
X123417285Y-139597961D01*
X123417285Y-139597961D02*
X123369666Y-139693200D01*
X123369666Y-139693200D02*
X123274428Y-139740819D01*
X123274428Y-139740819D02*
X123131571Y-139740819D01*
X123131571Y-139740819D02*
X123036333Y-139693200D01*
X123036333Y-139693200D02*
X122988714Y-139645580D01*
X122655380Y-139074152D02*
X122274428Y-139074152D01*
X122512523Y-138740819D02*
X122512523Y-139597961D01*
X122512523Y-139597961D02*
X122464904Y-139693200D01*
X122464904Y-139693200D02*
X122369666Y-139740819D01*
X122369666Y-139740819D02*
X122274428Y-139740819D01*
X121560142Y-139693200D02*
X121655380Y-139740819D01*
X121655380Y-139740819D02*
X121845856Y-139740819D01*
X121845856Y-139740819D02*
X121941094Y-139693200D01*
X121941094Y-139693200D02*
X121988713Y-139597961D01*
X121988713Y-139597961D02*
X121988713Y-139217009D01*
X121988713Y-139217009D02*
X121941094Y-139121771D01*
X121941094Y-139121771D02*
X121845856Y-139074152D01*
X121845856Y-139074152D02*
X121655380Y-139074152D01*
X121655380Y-139074152D02*
X121560142Y-139121771D01*
X121560142Y-139121771D02*
X121512523Y-139217009D01*
X121512523Y-139217009D02*
X121512523Y-139312247D01*
X121512523Y-139312247D02*
X121988713Y-139407485D01*
X121083951Y-139740819D02*
X121083951Y-139074152D01*
X121083951Y-139264628D02*
X121036332Y-139169390D01*
X121036332Y-139169390D02*
X120988713Y-139121771D01*
X120988713Y-139121771D02*
X120893475Y-139074152D01*
X120893475Y-139074152D02*
X120798237Y-139074152D01*
D13*
X107043000Y-126726000D02*
X107043000Y-137226000D01*
X108103000Y-138286000D02*
X145303000Y-138286000D01*
X114686530Y-129714256D02*
X115585798Y-134814256D01*
X136148000Y-124771662D02*
X136398000Y-125204675D01*
X136185421Y-136186000D02*
X117220579Y-136186000D01*
X136398000Y-125204675D02*
X136648000Y-124771662D01*
X136648000Y-124771662D02*
X136148000Y-124771662D01*
X137084689Y-127766000D02*
X116321311Y-127766000D01*
X138719470Y-129714256D02*
X137820202Y-134814256D01*
X145303000Y-125666000D02*
X108103000Y-125666000D01*
X146363000Y-137226000D02*
X146363000Y-126726000D01*
X107043000Y-126726000D02*
G75*
G02*
X108103000Y-125666000I1060000J0D01*
G01*
X108103000Y-138286000D02*
G75*
G02*
X107043000Y-137226000I0J1060000D01*
G01*
X114686530Y-129714256D02*
G75*
G02*
X116321311Y-127766011I1634770J288256D01*
G01*
X117220579Y-136186000D02*
G75*
G02*
X115585818Y-134814252I21J1660000D01*
G01*
X137084689Y-127766000D02*
G75*
G02*
X138719470Y-129714256I0J-1660000D01*
G01*
X137820202Y-134814256D02*
G75*
G02*
X136185421Y-136186000I-1634780J288255D01*
G01*
X145303000Y-125666000D02*
G75*
G02*
X146363000Y-126726000I-1J-1060001D01*
G01*
X146363000Y-137226000D02*
G75*
G02*
X145303000Y-138286000I-1060001J1D01*
G01*
M02*
