G04 #@! TF.GenerationSoftware,KiCad,Pcbnew,9.0.6-9.0.6~ubuntu24.04.1*
G04 #@! TF.CreationDate,2025-12-07T01:13:07+01:00*
G04 #@! TF.ProjectId,Acorn Joystick Adapter,41636f72-6e20-44a6-9f79-737469636b20,rev?*
G04 #@! TF.SameCoordinates,Original*
G04 #@! TF.FileFunction,Soldermask,Top*
G04 #@! TF.FilePolarity,Negative*
%FSLAX46Y46*%
G04 Gerber Fmt 4.6, Leading zero omitted, Abs format (unit mm)*
G04 Created by KiCad (PCBNEW 9.0.6-9.0.6~ubuntu24.04.1) date 2025-12-07 01:13:07*
%MOMM*%
%LPD*%
G01*
G04 APERTURE LIST*
%ADD10C,1.600000*%
%ADD11C,5.000000*%
%ADD12R,1.600000X1.600000*%
%ADD13R,1.500000X1.500000*%
%ADD14C,1.500000*%
%ADD15R,1.700000X1.700000*%
%ADD16C,1.700000*%
G04 APERTURE END LIST*
D10*
X118745000Y-106045000D03*
X118745000Y-116205000D03*
X114935000Y-116205000D03*
X114935000Y-106045000D03*
X111125000Y-106045000D03*
X111125000Y-116205000D03*
X94615000Y-106045000D03*
X94615000Y-116205000D03*
X107950000Y-116205000D03*
X97790000Y-116205000D03*
X107950000Y-112395000D03*
X97790000Y-112395000D03*
X104775000Y-120015000D03*
X94615000Y-120015000D03*
X94615000Y-123825000D03*
X104775000Y-123825000D03*
X94615000Y-140335000D03*
X104775000Y-140335000D03*
X104140000Y-127000000D03*
X104140000Y-137160000D03*
X100330000Y-127000000D03*
X100330000Y-137160000D03*
X158750000Y-106045000D03*
X158750000Y-116205000D03*
X154940000Y-116205000D03*
X154940000Y-106045000D03*
X151130000Y-106045000D03*
X151130000Y-116205000D03*
X134620000Y-106045000D03*
X134620000Y-116205000D03*
X147955000Y-116205000D03*
X137795000Y-116205000D03*
X147955000Y-112395000D03*
X137795000Y-112395000D03*
X158750000Y-120015000D03*
X148590000Y-120015000D03*
X148590000Y-123825000D03*
X158750000Y-123825000D03*
X148590000Y-140335000D03*
X158750000Y-140335000D03*
X158750000Y-127000000D03*
X158750000Y-137160000D03*
X154940000Y-127000000D03*
X154940000Y-137160000D03*
D11*
X121260000Y-97005000D03*
X96260000Y-97005000D03*
D12*
X114300000Y-98425000D03*
D10*
X111530000Y-98425000D03*
X108760000Y-98425000D03*
X105990000Y-98425000D03*
X103220000Y-98425000D03*
X112915000Y-95585000D03*
X110145000Y-95585000D03*
X107375000Y-95585000D03*
X104605000Y-95585000D03*
D11*
X157260000Y-97005000D03*
X132260000Y-97005000D03*
D12*
X150300000Y-98425000D03*
D10*
X147530000Y-98425000D03*
X144760000Y-98425000D03*
X141990000Y-98425000D03*
X139220000Y-98425000D03*
X148915000Y-95585000D03*
X146145000Y-95585000D03*
X143375000Y-95585000D03*
X140605000Y-95585000D03*
D13*
X123190000Y-112395000D03*
D14*
X123190000Y-114935000D03*
X123190000Y-117475000D03*
D13*
X100330000Y-108585000D03*
D14*
X102870000Y-108585000D03*
X105410000Y-108585000D03*
D13*
X96520000Y-134620000D03*
D14*
X96520000Y-132080000D03*
X96520000Y-129540000D03*
D13*
X130175000Y-117475000D03*
D14*
X130175000Y-114935000D03*
X130175000Y-112395000D03*
D13*
X140335000Y-108585000D03*
D14*
X142875000Y-108585000D03*
X145415000Y-108585000D03*
D13*
X151130000Y-134620000D03*
D14*
X151130000Y-132080000D03*
X151130000Y-129540000D03*
D15*
X126746000Y-92964000D03*
D16*
X126746000Y-95504000D03*
X126746000Y-98044000D03*
X126746000Y-100584000D03*
X126746000Y-103124000D03*
X126746000Y-105664000D03*
D11*
X143353000Y-131976000D03*
X110053000Y-131976000D03*
D12*
X136398000Y-130556000D03*
D10*
X133628000Y-130556000D03*
X130858000Y-130556000D03*
X128088000Y-130556000D03*
X125318000Y-130556000D03*
X122548000Y-130556000D03*
X119778000Y-130556000D03*
X117008000Y-130556000D03*
X135013000Y-133396000D03*
X132243000Y-133396000D03*
X129473000Y-133396000D03*
X126703000Y-133396000D03*
X123933000Y-133396000D03*
X121163000Y-133396000D03*
X118393000Y-133396000D03*
M02*
