G04 #@! TF.FileFunction,Soldermask,Bot*
%FSLAX46Y46*%
G04 Gerber Fmt 4.6, Leading zero omitted, Abs format (unit mm)*
G04 Created by KiCad (PCBNEW 4.0.7) date 09/30/18 13:23:00*
%MOMM*%
%LPD*%
G01*
G04 APERTURE LIST*
%ADD10C,0.100000*%
%ADD11C,2.000000*%
%ADD12O,2.000000X2.000000*%
%ADD13R,2.000000X2.000000*%
%ADD14O,1.900000X1.300000*%
%ADD15R,1.900000X1.300000*%
%ADD16O,1.300000X1.900000*%
%ADD17R,1.300000X1.900000*%
G04 APERTURE END LIST*
D10*
D11*
X118745000Y-106045000D03*
D12*
X118745000Y-116205000D03*
D11*
X114935000Y-116205000D03*
D12*
X114935000Y-106045000D03*
D11*
X111125000Y-106045000D03*
D12*
X111125000Y-116205000D03*
D11*
X94615000Y-106045000D03*
D12*
X94615000Y-116205000D03*
D11*
X107950000Y-116205000D03*
D12*
X97790000Y-116205000D03*
D11*
X107950000Y-112395000D03*
D12*
X97790000Y-112395000D03*
D11*
X104775000Y-120015000D03*
D12*
X94615000Y-120015000D03*
D11*
X94615000Y-123825000D03*
D12*
X104775000Y-123825000D03*
D11*
X94615000Y-140335000D03*
D12*
X104775000Y-140335000D03*
D11*
X104140000Y-127000000D03*
D12*
X104140000Y-137160000D03*
D11*
X100330000Y-127000000D03*
D12*
X100330000Y-137160000D03*
D11*
X158750000Y-106045000D03*
D12*
X158750000Y-116205000D03*
D11*
X154940000Y-116205000D03*
D12*
X154940000Y-106045000D03*
D11*
X151130000Y-106045000D03*
D12*
X151130000Y-116205000D03*
D11*
X134620000Y-106045000D03*
D12*
X134620000Y-116205000D03*
D11*
X147955000Y-116205000D03*
D12*
X137795000Y-116205000D03*
D11*
X147955000Y-112395000D03*
D12*
X137795000Y-112395000D03*
D11*
X158750000Y-120015000D03*
D12*
X148590000Y-120015000D03*
D11*
X148590000Y-123825000D03*
D12*
X158750000Y-123825000D03*
D11*
X148590000Y-140335000D03*
D12*
X158750000Y-140335000D03*
D11*
X158750000Y-127000000D03*
D12*
X158750000Y-137160000D03*
D11*
X154940000Y-127000000D03*
D12*
X154940000Y-137160000D03*
D13*
X136398000Y-130556000D03*
D11*
X133628000Y-130556000D03*
X130858000Y-130556000D03*
X128088000Y-130556000D03*
X125318000Y-130556000D03*
X122548000Y-130556000D03*
X119778000Y-130556000D03*
X117008000Y-130556000D03*
X135013000Y-133396000D03*
X132243000Y-133396000D03*
X129473000Y-133396000D03*
X126703000Y-133396000D03*
X123933000Y-133396000D03*
X121163000Y-133396000D03*
X118393000Y-133396000D03*
D13*
X103378000Y-96520000D03*
D11*
X106148000Y-96520000D03*
X108918000Y-96520000D03*
X111688000Y-96520000D03*
X114458000Y-96520000D03*
X104763000Y-99360000D03*
X107533000Y-99360000D03*
X110303000Y-99360000D03*
X113073000Y-99360000D03*
D13*
X139065000Y-96520000D03*
D11*
X141835000Y-96520000D03*
X144605000Y-96520000D03*
X147375000Y-96520000D03*
X150145000Y-96520000D03*
X140450000Y-99360000D03*
X143220000Y-99360000D03*
X145990000Y-99360000D03*
X148760000Y-99360000D03*
D14*
X123190000Y-114935000D03*
X123190000Y-116205000D03*
D15*
X123190000Y-113665000D03*
D16*
X102870000Y-108585000D03*
X104140000Y-108585000D03*
D17*
X101600000Y-108585000D03*
D14*
X96520000Y-132080000D03*
X96520000Y-130810000D03*
D15*
X96520000Y-133350000D03*
D14*
X130175000Y-114935000D03*
X130175000Y-113665000D03*
D15*
X130175000Y-116205000D03*
D16*
X142875000Y-108585000D03*
X144145000Y-108585000D03*
D17*
X141605000Y-108585000D03*
D14*
X151130000Y-132080000D03*
X151130000Y-130810000D03*
D15*
X151130000Y-133350000D03*
M02*
