G04 #@! TF.FileFunction,Legend,Bot*
%FSLAX46Y46*%
G04 Gerber Fmt 4.6, Leading zero omitted, Abs format (unit mm)*
G04 Created by KiCad (PCBNEW 4.0.7) date 09/30/18 18:55:51*
%MOMM*%
%LPD*%
G01*
G04 APERTURE LIST*
%ADD10C,0.100000*%
%ADD11C,0.300000*%
%ADD12C,0.120000*%
%ADD13C,0.150000*%
G04 APERTURE END LIST*
D10*
D11*
X124864857Y-100691143D02*
X123722000Y-100691143D01*
X124293429Y-101262571D02*
X124293429Y-100119714D01*
X124864857Y-103231143D02*
X123722000Y-103231143D01*
X128428857Y-97936857D02*
X128928857Y-97936857D01*
X128928857Y-98722571D02*
X128928857Y-97222571D01*
X128214571Y-97222571D01*
X128643143Y-95468286D02*
X128643143Y-96182571D01*
X129143143Y-94682571D02*
X128643143Y-95468286D01*
X128143143Y-94682571D01*
X129071714Y-92142571D02*
X128071714Y-93642571D01*
X128071714Y-92142571D02*
X129071714Y-93642571D01*
X139007857Y-120895000D02*
X138293571Y-120895000D01*
X139150714Y-121323571D02*
X138650714Y-119823571D01*
X138150714Y-121323571D01*
X137007857Y-121252143D02*
X137150714Y-121323571D01*
X137436428Y-121323571D01*
X137579286Y-121252143D01*
X137650714Y-121180714D01*
X137722143Y-121037857D01*
X137722143Y-120609286D01*
X137650714Y-120466429D01*
X137579286Y-120395000D01*
X137436428Y-120323571D01*
X137150714Y-120323571D01*
X137007857Y-120395000D01*
X136150714Y-121323571D02*
X136293572Y-121252143D01*
X136365000Y-121180714D01*
X136436429Y-121037857D01*
X136436429Y-120609286D01*
X136365000Y-120466429D01*
X136293572Y-120395000D01*
X136150714Y-120323571D01*
X135936429Y-120323571D01*
X135793572Y-120395000D01*
X135722143Y-120466429D01*
X135650714Y-120609286D01*
X135650714Y-121037857D01*
X135722143Y-121180714D01*
X135793572Y-121252143D01*
X135936429Y-121323571D01*
X136150714Y-121323571D01*
X135007857Y-121323571D02*
X135007857Y-120323571D01*
X135007857Y-120609286D02*
X134936429Y-120466429D01*
X134865000Y-120395000D01*
X134722143Y-120323571D01*
X134579286Y-120323571D01*
X134079286Y-120323571D02*
X134079286Y-121323571D01*
X134079286Y-120466429D02*
X134007858Y-120395000D01*
X133865000Y-120323571D01*
X133650715Y-120323571D01*
X133507858Y-120395000D01*
X133436429Y-120537857D01*
X133436429Y-121323571D01*
X131150715Y-119823571D02*
X131150715Y-120895000D01*
X131222143Y-121109286D01*
X131365000Y-121252143D01*
X131579286Y-121323571D01*
X131722143Y-121323571D01*
X130222143Y-121323571D02*
X130365001Y-121252143D01*
X130436429Y-121180714D01*
X130507858Y-121037857D01*
X130507858Y-120609286D01*
X130436429Y-120466429D01*
X130365001Y-120395000D01*
X130222143Y-120323571D01*
X130007858Y-120323571D01*
X129865001Y-120395000D01*
X129793572Y-120466429D01*
X129722143Y-120609286D01*
X129722143Y-121037857D01*
X129793572Y-121180714D01*
X129865001Y-121252143D01*
X130007858Y-121323571D01*
X130222143Y-121323571D01*
X129222143Y-120323571D02*
X128865000Y-121323571D01*
X128507858Y-120323571D02*
X128865000Y-121323571D01*
X129007858Y-121680714D01*
X129079286Y-121752143D01*
X129222143Y-121823571D01*
X128007858Y-121252143D02*
X127865001Y-121323571D01*
X127579286Y-121323571D01*
X127436429Y-121252143D01*
X127365001Y-121109286D01*
X127365001Y-121037857D01*
X127436429Y-120895000D01*
X127579286Y-120823571D01*
X127793572Y-120823571D01*
X127936429Y-120752143D01*
X128007858Y-120609286D01*
X128007858Y-120537857D01*
X127936429Y-120395000D01*
X127793572Y-120323571D01*
X127579286Y-120323571D01*
X127436429Y-120395000D01*
X126936429Y-120323571D02*
X126365000Y-120323571D01*
X126722143Y-119823571D02*
X126722143Y-121109286D01*
X126650715Y-121252143D01*
X126507857Y-121323571D01*
X126365000Y-121323571D01*
X125865000Y-121323571D02*
X125865000Y-120323571D01*
X125865000Y-119823571D02*
X125936429Y-119895000D01*
X125865000Y-119966429D01*
X125793572Y-119895000D01*
X125865000Y-119823571D01*
X125865000Y-119966429D01*
X124507857Y-121252143D02*
X124650714Y-121323571D01*
X124936428Y-121323571D01*
X125079286Y-121252143D01*
X125150714Y-121180714D01*
X125222143Y-121037857D01*
X125222143Y-120609286D01*
X125150714Y-120466429D01*
X125079286Y-120395000D01*
X124936428Y-120323571D01*
X124650714Y-120323571D01*
X124507857Y-120395000D01*
X123865000Y-121323571D02*
X123865000Y-119823571D01*
X123722143Y-120752143D02*
X123293572Y-121323571D01*
X123293572Y-120323571D02*
X123865000Y-120895000D01*
X121579286Y-120895000D02*
X120865000Y-120895000D01*
X121722143Y-121323571D02*
X121222143Y-119823571D01*
X120722143Y-121323571D01*
X119579286Y-121323571D02*
X119579286Y-119823571D01*
X119579286Y-121252143D02*
X119722143Y-121323571D01*
X120007857Y-121323571D01*
X120150715Y-121252143D01*
X120222143Y-121180714D01*
X120293572Y-121037857D01*
X120293572Y-120609286D01*
X120222143Y-120466429D01*
X120150715Y-120395000D01*
X120007857Y-120323571D01*
X119722143Y-120323571D01*
X119579286Y-120395000D01*
X118222143Y-121323571D02*
X118222143Y-120537857D01*
X118293572Y-120395000D01*
X118436429Y-120323571D01*
X118722143Y-120323571D01*
X118865000Y-120395000D01*
X118222143Y-121252143D02*
X118365000Y-121323571D01*
X118722143Y-121323571D01*
X118865000Y-121252143D01*
X118936429Y-121109286D01*
X118936429Y-120966429D01*
X118865000Y-120823571D01*
X118722143Y-120752143D01*
X118365000Y-120752143D01*
X118222143Y-120680714D01*
X117507857Y-120323571D02*
X117507857Y-121823571D01*
X117507857Y-120395000D02*
X117365000Y-120323571D01*
X117079286Y-120323571D01*
X116936429Y-120395000D01*
X116865000Y-120466429D01*
X116793571Y-120609286D01*
X116793571Y-121037857D01*
X116865000Y-121180714D01*
X116936429Y-121252143D01*
X117079286Y-121323571D01*
X117365000Y-121323571D01*
X117507857Y-121252143D01*
X116365000Y-120323571D02*
X115793571Y-120323571D01*
X116150714Y-119823571D02*
X116150714Y-121109286D01*
X116079286Y-121252143D01*
X115936428Y-121323571D01*
X115793571Y-121323571D01*
X114722143Y-121252143D02*
X114865000Y-121323571D01*
X115150714Y-121323571D01*
X115293571Y-121252143D01*
X115365000Y-121109286D01*
X115365000Y-120537857D01*
X115293571Y-120395000D01*
X115150714Y-120323571D01*
X114865000Y-120323571D01*
X114722143Y-120395000D01*
X114650714Y-120537857D01*
X114650714Y-120680714D01*
X115365000Y-120823571D01*
X114007857Y-121323571D02*
X114007857Y-120323571D01*
X114007857Y-120609286D02*
X113936429Y-120466429D01*
X113865000Y-120395000D01*
X113722143Y-120323571D01*
X113579286Y-120323571D01*
X135186428Y-123087857D02*
X134972142Y-123159286D01*
X134900714Y-123230714D01*
X134829285Y-123373571D01*
X134829285Y-123587857D01*
X134900714Y-123730714D01*
X134972142Y-123802143D01*
X135115000Y-123873571D01*
X135686428Y-123873571D01*
X135686428Y-122373571D01*
X135186428Y-122373571D01*
X135043571Y-122445000D01*
X134972142Y-122516429D01*
X134900714Y-122659286D01*
X134900714Y-122802143D01*
X134972142Y-122945000D01*
X135043571Y-123016429D01*
X135186428Y-123087857D01*
X135686428Y-123087857D01*
X133972142Y-123873571D02*
X134115000Y-123802143D01*
X134186428Y-123730714D01*
X134257857Y-123587857D01*
X134257857Y-123159286D01*
X134186428Y-123016429D01*
X134115000Y-122945000D01*
X133972142Y-122873571D01*
X133757857Y-122873571D01*
X133615000Y-122945000D01*
X133543571Y-123016429D01*
X133472142Y-123159286D01*
X133472142Y-123587857D01*
X133543571Y-123730714D01*
X133615000Y-123802143D01*
X133757857Y-123873571D01*
X133972142Y-123873571D01*
X132186428Y-123873571D02*
X132186428Y-123087857D01*
X132257857Y-122945000D01*
X132400714Y-122873571D01*
X132686428Y-122873571D01*
X132829285Y-122945000D01*
X132186428Y-123802143D02*
X132329285Y-123873571D01*
X132686428Y-123873571D01*
X132829285Y-123802143D01*
X132900714Y-123659286D01*
X132900714Y-123516429D01*
X132829285Y-123373571D01*
X132686428Y-123302143D01*
X132329285Y-123302143D01*
X132186428Y-123230714D01*
X131472142Y-123873571D02*
X131472142Y-122873571D01*
X131472142Y-123159286D02*
X131400714Y-123016429D01*
X131329285Y-122945000D01*
X131186428Y-122873571D01*
X131043571Y-122873571D01*
X129900714Y-123873571D02*
X129900714Y-122373571D01*
X129900714Y-123802143D02*
X130043571Y-123873571D01*
X130329285Y-123873571D01*
X130472143Y-123802143D01*
X130543571Y-123730714D01*
X130615000Y-123587857D01*
X130615000Y-123159286D01*
X130543571Y-123016429D01*
X130472143Y-122945000D01*
X130329285Y-122873571D01*
X130043571Y-122873571D01*
X129900714Y-122945000D01*
X127186428Y-123873571D02*
X127686428Y-123159286D01*
X128043571Y-123873571D02*
X128043571Y-122373571D01*
X127472143Y-122373571D01*
X127329285Y-122445000D01*
X127257857Y-122516429D01*
X127186428Y-122659286D01*
X127186428Y-122873571D01*
X127257857Y-123016429D01*
X127329285Y-123087857D01*
X127472143Y-123159286D01*
X128043571Y-123159286D01*
X125972143Y-123802143D02*
X126115000Y-123873571D01*
X126400714Y-123873571D01*
X126543571Y-123802143D01*
X126615000Y-123659286D01*
X126615000Y-123087857D01*
X126543571Y-122945000D01*
X126400714Y-122873571D01*
X126115000Y-122873571D01*
X125972143Y-122945000D01*
X125900714Y-123087857D01*
X125900714Y-123230714D01*
X126615000Y-123373571D01*
X125400714Y-122873571D02*
X125043571Y-123873571D01*
X124686429Y-122873571D01*
X124115000Y-123873571D02*
X124115000Y-122873571D01*
X124115000Y-122373571D02*
X124186429Y-122445000D01*
X124115000Y-122516429D01*
X124043572Y-122445000D01*
X124115000Y-122373571D01*
X124115000Y-122516429D01*
X123472143Y-123802143D02*
X123329286Y-123873571D01*
X123043571Y-123873571D01*
X122900714Y-123802143D01*
X122829286Y-123659286D01*
X122829286Y-123587857D01*
X122900714Y-123445000D01*
X123043571Y-123373571D01*
X123257857Y-123373571D01*
X123400714Y-123302143D01*
X123472143Y-123159286D01*
X123472143Y-123087857D01*
X123400714Y-122945000D01*
X123257857Y-122873571D01*
X123043571Y-122873571D01*
X122900714Y-122945000D01*
X122186428Y-123873571D02*
X122186428Y-122873571D01*
X122186428Y-122373571D02*
X122257857Y-122445000D01*
X122186428Y-122516429D01*
X122115000Y-122445000D01*
X122186428Y-122373571D01*
X122186428Y-122516429D01*
X121257856Y-123873571D02*
X121400714Y-123802143D01*
X121472142Y-123730714D01*
X121543571Y-123587857D01*
X121543571Y-123159286D01*
X121472142Y-123016429D01*
X121400714Y-122945000D01*
X121257856Y-122873571D01*
X121043571Y-122873571D01*
X120900714Y-122945000D01*
X120829285Y-123016429D01*
X120757856Y-123159286D01*
X120757856Y-123587857D01*
X120829285Y-123730714D01*
X120900714Y-123802143D01*
X121043571Y-123873571D01*
X121257856Y-123873571D01*
X120114999Y-122873571D02*
X120114999Y-123873571D01*
X120114999Y-123016429D02*
X120043571Y-122945000D01*
X119900713Y-122873571D01*
X119686428Y-122873571D01*
X119543571Y-122945000D01*
X119472142Y-123087857D01*
X119472142Y-123873571D01*
X117686428Y-123445000D02*
X116972142Y-123445000D01*
X117829285Y-123873571D02*
X117329285Y-122373571D01*
X116829285Y-123873571D01*
D12*
X145303000Y-125666000D02*
G75*
G02X146363000Y-126726000I0J-1060000D01*
G01*
X107043000Y-126726000D02*
G75*
G02X108103000Y-125666000I1060000J0D01*
G01*
X145303000Y-138286000D02*
G75*
G03X146363000Y-137226000I0J1060000D01*
G01*
X108103000Y-138286000D02*
G75*
G02X107043000Y-137226000I0J1060000D01*
G01*
X138719470Y-129714256D02*
G75*
G03X137084689Y-127766000I-1634781J288256D01*
G01*
X114686530Y-129714256D02*
G75*
G02X116321311Y-127766000I1634781J288256D01*
G01*
X137820202Y-134814256D02*
G75*
G02X136185421Y-136186000I-1634781J288256D01*
G01*
X115585798Y-134814256D02*
G75*
G03X117220579Y-136186000I1634781J288256D01*
G01*
X145303000Y-125666000D02*
X108103000Y-125666000D01*
X107043000Y-126726000D02*
X107043000Y-137226000D01*
X108103000Y-138286000D02*
X145303000Y-138286000D01*
X146363000Y-137226000D02*
X146363000Y-126726000D01*
X136648000Y-124771662D02*
X136148000Y-124771662D01*
X136148000Y-124771662D02*
X136398000Y-125204675D01*
X136398000Y-125204675D02*
X136648000Y-124771662D01*
X137084689Y-127766000D02*
X116321311Y-127766000D01*
X136185421Y-136186000D02*
X117220579Y-136186000D01*
X114686530Y-129714256D02*
X115585798Y-134814256D01*
X138719470Y-129714256D02*
X137820202Y-134814256D01*
D13*
X145113333Y-136612381D02*
X145113333Y-137326667D01*
X145160953Y-137469524D01*
X145256191Y-137564762D01*
X145399048Y-137612381D01*
X145494286Y-137612381D01*
X144113333Y-137612381D02*
X144684762Y-137612381D01*
X144399048Y-137612381D02*
X144399048Y-136612381D01*
X144494286Y-136755238D01*
X144589524Y-136850476D01*
X144684762Y-136898095D01*
X132512525Y-139452667D02*
X132036334Y-139452667D01*
X132607763Y-139738381D02*
X132274430Y-138738381D01*
X131941096Y-139738381D01*
X131179191Y-139690762D02*
X131274429Y-139738381D01*
X131464906Y-139738381D01*
X131560144Y-139690762D01*
X131607763Y-139643143D01*
X131655382Y-139547905D01*
X131655382Y-139262190D01*
X131607763Y-139166952D01*
X131560144Y-139119333D01*
X131464906Y-139071714D01*
X131274429Y-139071714D01*
X131179191Y-139119333D01*
X130607763Y-139738381D02*
X130703001Y-139690762D01*
X130750620Y-139643143D01*
X130798239Y-139547905D01*
X130798239Y-139262190D01*
X130750620Y-139166952D01*
X130703001Y-139119333D01*
X130607763Y-139071714D01*
X130464905Y-139071714D01*
X130369667Y-139119333D01*
X130322048Y-139166952D01*
X130274429Y-139262190D01*
X130274429Y-139547905D01*
X130322048Y-139643143D01*
X130369667Y-139690762D01*
X130464905Y-139738381D01*
X130607763Y-139738381D01*
X129845858Y-139738381D02*
X129845858Y-139071714D01*
X129845858Y-139262190D02*
X129798239Y-139166952D01*
X129750620Y-139119333D01*
X129655382Y-139071714D01*
X129560143Y-139071714D01*
X129226810Y-139071714D02*
X129226810Y-139738381D01*
X129226810Y-139166952D02*
X129179191Y-139119333D01*
X129083953Y-139071714D01*
X128941095Y-139071714D01*
X128845857Y-139119333D01*
X128798238Y-139214571D01*
X128798238Y-139738381D01*
X126988714Y-139643143D02*
X127036333Y-139690762D01*
X127179190Y-139738381D01*
X127274428Y-139738381D01*
X127417286Y-139690762D01*
X127512524Y-139595524D01*
X127560143Y-139500286D01*
X127607762Y-139309810D01*
X127607762Y-139166952D01*
X127560143Y-138976476D01*
X127512524Y-138881238D01*
X127417286Y-138786000D01*
X127274428Y-138738381D01*
X127179190Y-138738381D01*
X127036333Y-138786000D01*
X126988714Y-138833619D01*
X126417286Y-139738381D02*
X126512524Y-139690762D01*
X126560143Y-139643143D01*
X126607762Y-139547905D01*
X126607762Y-139262190D01*
X126560143Y-139166952D01*
X126512524Y-139119333D01*
X126417286Y-139071714D01*
X126274428Y-139071714D01*
X126179190Y-139119333D01*
X126131571Y-139166952D01*
X126083952Y-139262190D01*
X126083952Y-139547905D01*
X126131571Y-139643143D01*
X126179190Y-139690762D01*
X126274428Y-139738381D01*
X126417286Y-139738381D01*
X125655381Y-139738381D02*
X125655381Y-139071714D01*
X125655381Y-139166952D02*
X125607762Y-139119333D01*
X125512524Y-139071714D01*
X125369666Y-139071714D01*
X125274428Y-139119333D01*
X125226809Y-139214571D01*
X125226809Y-139738381D01*
X125226809Y-139214571D02*
X125179190Y-139119333D01*
X125083952Y-139071714D01*
X124941095Y-139071714D01*
X124845857Y-139119333D01*
X124798238Y-139214571D01*
X124798238Y-139738381D01*
X124322048Y-139071714D02*
X124322048Y-140071714D01*
X124322048Y-139119333D02*
X124226810Y-139071714D01*
X124036333Y-139071714D01*
X123941095Y-139119333D01*
X123893476Y-139166952D01*
X123845857Y-139262190D01*
X123845857Y-139547905D01*
X123893476Y-139643143D01*
X123941095Y-139690762D01*
X124036333Y-139738381D01*
X124226810Y-139738381D01*
X124322048Y-139690762D01*
X122988714Y-139071714D02*
X122988714Y-139738381D01*
X123417286Y-139071714D02*
X123417286Y-139595524D01*
X123369667Y-139690762D01*
X123274429Y-139738381D01*
X123131571Y-139738381D01*
X123036333Y-139690762D01*
X122988714Y-139643143D01*
X122655381Y-139071714D02*
X122274429Y-139071714D01*
X122512524Y-138738381D02*
X122512524Y-139595524D01*
X122464905Y-139690762D01*
X122369667Y-139738381D01*
X122274429Y-139738381D01*
X121560142Y-139690762D02*
X121655380Y-139738381D01*
X121845857Y-139738381D01*
X121941095Y-139690762D01*
X121988714Y-139595524D01*
X121988714Y-139214571D01*
X121941095Y-139119333D01*
X121845857Y-139071714D01*
X121655380Y-139071714D01*
X121560142Y-139119333D01*
X121512523Y-139214571D01*
X121512523Y-139309810D01*
X121988714Y-139405048D01*
X121083952Y-139738381D02*
X121083952Y-139071714D01*
X121083952Y-139262190D02*
X121036333Y-139166952D01*
X120988714Y-139119333D01*
X120893476Y-139071714D01*
X120798237Y-139071714D01*
M02*
