G04 #@! TF.FileFunction,Copper,L2,Bot,Signal*
%FSLAX46Y46*%
G04 Gerber Fmt 4.6, Leading zero omitted, Abs format (unit mm)*
G04 Created by KiCad (PCBNEW 4.0.7) date 10/17/18 19:09:20*
%MOMM*%
%LPD*%
G01*
G04 APERTURE LIST*
%ADD10C,0.100000*%
%ADD11C,1.600000*%
%ADD12O,1.600000X1.600000*%
%ADD13C,1.520000*%
%ADD14R,1.520000X1.520000*%
%ADD15R,1.700000X1.700000*%
%ADD16O,1.700000X1.700000*%
%ADD17R,1.600000X1.600000*%
%ADD18C,5.000000*%
%ADD19C,0.600000*%
%ADD20C,0.250000*%
%ADD21C,0.254000*%
G04 APERTURE END LIST*
D10*
D11*
X118745000Y-106045000D03*
D12*
X118745000Y-116205000D03*
D11*
X114935000Y-116205000D03*
D12*
X114935000Y-106045000D03*
D11*
X111125000Y-106045000D03*
D12*
X111125000Y-116205000D03*
D11*
X94615000Y-106045000D03*
D12*
X94615000Y-116205000D03*
D11*
X107950000Y-116205000D03*
D12*
X97790000Y-116205000D03*
D11*
X107950000Y-112395000D03*
D12*
X97790000Y-112395000D03*
D11*
X104775000Y-120015000D03*
D12*
X94615000Y-120015000D03*
D11*
X94615000Y-123825000D03*
D12*
X104775000Y-123825000D03*
D11*
X94615000Y-140335000D03*
D12*
X104775000Y-140335000D03*
D11*
X104140000Y-127000000D03*
D12*
X104140000Y-137160000D03*
D11*
X100330000Y-127000000D03*
D12*
X100330000Y-137160000D03*
D11*
X158750000Y-106045000D03*
D12*
X158750000Y-116205000D03*
D11*
X154940000Y-116205000D03*
D12*
X154940000Y-106045000D03*
D11*
X151130000Y-106045000D03*
D12*
X151130000Y-116205000D03*
D11*
X134620000Y-106045000D03*
D12*
X134620000Y-116205000D03*
D11*
X147955000Y-116205000D03*
D12*
X137795000Y-116205000D03*
D11*
X147955000Y-112395000D03*
D12*
X137795000Y-112395000D03*
D11*
X158750000Y-120015000D03*
D12*
X148590000Y-120015000D03*
D11*
X148590000Y-123825000D03*
D12*
X158750000Y-123825000D03*
D11*
X148590000Y-140335000D03*
D12*
X158750000Y-140335000D03*
D11*
X158750000Y-127000000D03*
D12*
X158750000Y-137160000D03*
D11*
X154940000Y-127000000D03*
D12*
X154940000Y-137160000D03*
D13*
X123190000Y-114935000D03*
X123190000Y-117475000D03*
D14*
X123190000Y-112395000D03*
D13*
X102870000Y-108585000D03*
X105410000Y-108585000D03*
D14*
X100330000Y-108585000D03*
D13*
X96520000Y-132080000D03*
X96520000Y-129540000D03*
D14*
X96520000Y-134620000D03*
D13*
X130175000Y-114935000D03*
X130175000Y-112395000D03*
D14*
X130175000Y-117475000D03*
D13*
X142875000Y-108585000D03*
X145415000Y-108585000D03*
D14*
X140335000Y-108585000D03*
D13*
X151130000Y-132080000D03*
X151130000Y-129540000D03*
D14*
X151130000Y-134620000D03*
D15*
X126746000Y-92964000D03*
D16*
X126746000Y-95504000D03*
X126746000Y-98044000D03*
X126746000Y-100584000D03*
X126746000Y-103124000D03*
X126746000Y-105664000D03*
D17*
X150300000Y-98425000D03*
D11*
X147530000Y-98425000D03*
X144760000Y-98425000D03*
X141990000Y-98425000D03*
X139220000Y-98425000D03*
X148915000Y-95585000D03*
X146145000Y-95585000D03*
X143375000Y-95585000D03*
X140605000Y-95585000D03*
D18*
X132260000Y-97005000D03*
X157260000Y-97005000D03*
D17*
X114300000Y-98425000D03*
D11*
X111530000Y-98425000D03*
X108760000Y-98425000D03*
X105990000Y-98425000D03*
X103220000Y-98425000D03*
X112915000Y-95585000D03*
X110145000Y-95585000D03*
X107375000Y-95585000D03*
X104605000Y-95585000D03*
D18*
X96260000Y-97005000D03*
X121260000Y-97005000D03*
D17*
X136398000Y-130556000D03*
D11*
X133628000Y-130556000D03*
X130858000Y-130556000D03*
X128088000Y-130556000D03*
X125318000Y-130556000D03*
X122548000Y-130556000D03*
X119778000Y-130556000D03*
X117008000Y-130556000D03*
X135013000Y-133396000D03*
X132243000Y-133396000D03*
X129473000Y-133396000D03*
X126703000Y-133396000D03*
X123933000Y-133396000D03*
X121163000Y-133396000D03*
X118393000Y-133396000D03*
D18*
X143353000Y-131976000D03*
X110053000Y-131976000D03*
D19*
X123190000Y-106426000D03*
X123190000Y-108204000D03*
X143510000Y-103505000D03*
X156845000Y-113665000D03*
X146050000Y-104140000D03*
X116205000Y-96520000D03*
X116205000Y-94615000D03*
X127000000Y-116205000D03*
X128270000Y-120650000D03*
X148590000Y-102870000D03*
X140970000Y-102870000D03*
X128270000Y-126365000D03*
X117475000Y-97790000D03*
X97155000Y-107315000D03*
X97155000Y-104140000D03*
X149225000Y-106680000D03*
X149225000Y-105410000D03*
X150495000Y-113030000D03*
X127635000Y-125730000D03*
X127000000Y-128905000D03*
X132715000Y-118110000D03*
X97790000Y-104775000D03*
X97790000Y-106680000D03*
X106045000Y-104140000D03*
X107950000Y-102235000D03*
X111125000Y-118745000D03*
X112395000Y-124460000D03*
X96520000Y-103505000D03*
X96520000Y-106680000D03*
X95885000Y-104140000D03*
X95885000Y-107950000D03*
X147955000Y-106680000D03*
X147955000Y-103505000D03*
X151765000Y-113665000D03*
X153035000Y-118110000D03*
D20*
X123190000Y-106426000D02*
X123190000Y-108204000D01*
X144780000Y-104140000D02*
X144145000Y-104140000D01*
X144145000Y-104140000D02*
X143510000Y-103505000D01*
X154940000Y-115570000D02*
X156845000Y-113665000D01*
X146050000Y-104140000D02*
X144780000Y-104140000D01*
X116205000Y-94615000D02*
X116205000Y-96520000D01*
X154940000Y-115570000D02*
X154940000Y-116205000D01*
X127000000Y-116205000D02*
X128270000Y-117475000D01*
X128270000Y-120650000D02*
X128270000Y-117475000D01*
X148590000Y-102870000D02*
X140970000Y-102870000D01*
X128088000Y-126547000D02*
X128270000Y-126365000D01*
X128088000Y-130556000D02*
X128088000Y-126547000D01*
X117475000Y-97790000D02*
X116840000Y-98425000D01*
X114300000Y-98425000D02*
X115570000Y-98425000D01*
X116840000Y-98425000D02*
X115570000Y-98425000D01*
X97155000Y-104140000D02*
X97155000Y-107315000D01*
X149225000Y-106680000D02*
X149225000Y-105410000D01*
X151130000Y-113665000D02*
X150495000Y-113030000D01*
X151130000Y-113665000D02*
X151130000Y-116205000D01*
X127000000Y-126365000D02*
X127635000Y-125730000D01*
X127000000Y-128905000D02*
X127000000Y-126365000D01*
X97790000Y-104775000D02*
X97790000Y-106680000D01*
X107950000Y-102235000D02*
X106045000Y-104140000D01*
X111125000Y-118745000D02*
X111125000Y-123190000D01*
X112395000Y-124460000D02*
X111125000Y-123190000D01*
X96520000Y-103505000D02*
X96520000Y-106680000D01*
X95885000Y-104140000D02*
X95885000Y-107950000D01*
X147955000Y-106680000D02*
X147955000Y-103505000D01*
X152400000Y-114300000D02*
X151765000Y-113665000D01*
X152400000Y-117475000D02*
X152400000Y-114300000D01*
X153035000Y-118110000D02*
X152400000Y-117475000D01*
D21*
G36*
X159593979Y-90935478D02*
X159771145Y-91053856D01*
X159889521Y-91231019D01*
X159945000Y-91509931D01*
X159945000Y-95293749D01*
X159919273Y-95231485D01*
X159038153Y-94348826D01*
X157886326Y-93870546D01*
X156639146Y-93869457D01*
X155486485Y-94345727D01*
X154603826Y-95226847D01*
X154125546Y-96378674D01*
X154124457Y-97625854D01*
X154600727Y-98778515D01*
X155481847Y-99661174D01*
X156633674Y-100139454D01*
X157880854Y-100140543D01*
X159033515Y-99664273D01*
X159916174Y-98783153D01*
X159945000Y-98713732D01*
X159945000Y-105210918D01*
X159563923Y-104829176D01*
X159036691Y-104610250D01*
X158465813Y-104609752D01*
X157938200Y-104827757D01*
X157534176Y-105231077D01*
X157315250Y-105758309D01*
X157314752Y-106329187D01*
X157532757Y-106856800D01*
X157936077Y-107260824D01*
X158463309Y-107479750D01*
X159034187Y-107480248D01*
X159561800Y-107262243D01*
X159945000Y-106879711D01*
X159945000Y-115432030D01*
X159764698Y-115162189D01*
X159299151Y-114851120D01*
X158750000Y-114741887D01*
X158200849Y-114851120D01*
X157735302Y-115162189D01*
X157424233Y-115627736D01*
X157315000Y-116176887D01*
X157315000Y-116233113D01*
X157424233Y-116782264D01*
X157735302Y-117247811D01*
X158200849Y-117558880D01*
X158750000Y-117668113D01*
X159299151Y-117558880D01*
X159764698Y-117247811D01*
X159945000Y-116977970D01*
X159945000Y-119180918D01*
X159563923Y-118799176D01*
X159036691Y-118580250D01*
X158465813Y-118579752D01*
X157938200Y-118797757D01*
X157534176Y-119201077D01*
X157315250Y-119728309D01*
X157314752Y-120299187D01*
X157532757Y-120826800D01*
X157936077Y-121230824D01*
X158463309Y-121449750D01*
X159034187Y-121450248D01*
X159561800Y-121232243D01*
X159945000Y-120849711D01*
X159945000Y-123038069D01*
X159792811Y-122810302D01*
X159327264Y-122499233D01*
X158778113Y-122390000D01*
X158721887Y-122390000D01*
X158172736Y-122499233D01*
X157707189Y-122810302D01*
X157396120Y-123275849D01*
X157286887Y-123825000D01*
X157396120Y-124374151D01*
X157707189Y-124839698D01*
X158172736Y-125150767D01*
X158721887Y-125260000D01*
X158778113Y-125260000D01*
X159327264Y-125150767D01*
X159792811Y-124839698D01*
X159945000Y-124611931D01*
X159945000Y-126165918D01*
X159563923Y-125784176D01*
X159036691Y-125565250D01*
X158465813Y-125564752D01*
X157938200Y-125782757D01*
X157534176Y-126186077D01*
X157315250Y-126713309D01*
X157314752Y-127284187D01*
X157532757Y-127811800D01*
X157936077Y-128215824D01*
X158463309Y-128434750D01*
X159034187Y-128435248D01*
X159561800Y-128217243D01*
X159945000Y-127834711D01*
X159945000Y-136387030D01*
X159764698Y-136117189D01*
X159299151Y-135806120D01*
X158750000Y-135696887D01*
X158200849Y-135806120D01*
X157735302Y-136117189D01*
X157424233Y-136582736D01*
X157315000Y-137131887D01*
X157315000Y-137188113D01*
X157424233Y-137737264D01*
X157735302Y-138202811D01*
X158200849Y-138513880D01*
X158750000Y-138623113D01*
X159299151Y-138513880D01*
X159764698Y-138202811D01*
X159945000Y-137932970D01*
X159945000Y-139557791D01*
X159605134Y-139182611D01*
X159099041Y-138943086D01*
X158877000Y-139064371D01*
X158877000Y-140208000D01*
X158897000Y-140208000D01*
X158897000Y-140462000D01*
X158877000Y-140462000D01*
X158877000Y-140482000D01*
X158623000Y-140482000D01*
X158623000Y-140462000D01*
X157480085Y-140462000D01*
X157358096Y-140684039D01*
X157518959Y-141072423D01*
X157894866Y-141487389D01*
X157984899Y-141530000D01*
X149424082Y-141530000D01*
X149805824Y-141148923D01*
X150024750Y-140621691D01*
X150025248Y-140050813D01*
X149998452Y-139985961D01*
X157358096Y-139985961D01*
X157480085Y-140208000D01*
X158623000Y-140208000D01*
X158623000Y-139064371D01*
X158400959Y-138943086D01*
X157894866Y-139182611D01*
X157518959Y-139597577D01*
X157358096Y-139985961D01*
X149998452Y-139985961D01*
X149807243Y-139523200D01*
X149403923Y-139119176D01*
X148876691Y-138900250D01*
X148305813Y-138899752D01*
X147778200Y-139117757D01*
X147374176Y-139521077D01*
X147155250Y-140048309D01*
X147154752Y-140619187D01*
X147372757Y-141146800D01*
X147755289Y-141530000D01*
X105540101Y-141530000D01*
X105630134Y-141487389D01*
X106006041Y-141072423D01*
X106166904Y-140684039D01*
X106044915Y-140462000D01*
X104902000Y-140462000D01*
X104902000Y-140482000D01*
X104648000Y-140482000D01*
X104648000Y-140462000D01*
X103505085Y-140462000D01*
X103383096Y-140684039D01*
X103543959Y-141072423D01*
X103919866Y-141487389D01*
X104009899Y-141530000D01*
X95449082Y-141530000D01*
X95830824Y-141148923D01*
X96049750Y-140621691D01*
X96050248Y-140050813D01*
X96023452Y-139985961D01*
X103383096Y-139985961D01*
X103505085Y-140208000D01*
X104648000Y-140208000D01*
X104648000Y-139064371D01*
X104902000Y-139064371D01*
X104902000Y-140208000D01*
X106044915Y-140208000D01*
X106166904Y-139985961D01*
X106006041Y-139597577D01*
X105630134Y-139182611D01*
X105124041Y-138943086D01*
X104902000Y-139064371D01*
X104648000Y-139064371D01*
X104425959Y-138943086D01*
X103919866Y-139182611D01*
X103543959Y-139597577D01*
X103383096Y-139985961D01*
X96023452Y-139985961D01*
X95832243Y-139523200D01*
X95428923Y-139119176D01*
X94901691Y-138900250D01*
X94330813Y-138899752D01*
X93803200Y-139117757D01*
X93420000Y-139500289D01*
X93420000Y-137509041D01*
X98938086Y-137509041D01*
X99177611Y-138015134D01*
X99592577Y-138391041D01*
X99980961Y-138551904D01*
X100203000Y-138429915D01*
X100203000Y-137287000D01*
X100457000Y-137287000D01*
X100457000Y-138429915D01*
X100679039Y-138551904D01*
X101067423Y-138391041D01*
X101482389Y-138015134D01*
X101721914Y-137509041D01*
X101600629Y-137287000D01*
X100457000Y-137287000D01*
X100203000Y-137287000D01*
X99059371Y-137287000D01*
X98938086Y-137509041D01*
X93420000Y-137509041D01*
X93420000Y-137131887D01*
X102705000Y-137131887D01*
X102705000Y-137188113D01*
X102814233Y-137737264D01*
X103125302Y-138202811D01*
X103590849Y-138513880D01*
X104140000Y-138623113D01*
X104689151Y-138513880D01*
X105154698Y-138202811D01*
X105465767Y-137737264D01*
X105511163Y-137509041D01*
X153548086Y-137509041D01*
X153787611Y-138015134D01*
X154202577Y-138391041D01*
X154590961Y-138551904D01*
X154813000Y-138429915D01*
X154813000Y-137287000D01*
X155067000Y-137287000D01*
X155067000Y-138429915D01*
X155289039Y-138551904D01*
X155677423Y-138391041D01*
X156092389Y-138015134D01*
X156331914Y-137509041D01*
X156210629Y-137287000D01*
X155067000Y-137287000D01*
X154813000Y-137287000D01*
X153669371Y-137287000D01*
X153548086Y-137509041D01*
X105511163Y-137509041D01*
X105575000Y-137188113D01*
X105575000Y-137131887D01*
X105511164Y-136810959D01*
X153548086Y-136810959D01*
X153669371Y-137033000D01*
X154813000Y-137033000D01*
X154813000Y-135890085D01*
X155067000Y-135890085D01*
X155067000Y-137033000D01*
X156210629Y-137033000D01*
X156331914Y-136810959D01*
X156092389Y-136304866D01*
X155677423Y-135928959D01*
X155289039Y-135768096D01*
X155067000Y-135890085D01*
X154813000Y-135890085D01*
X154590961Y-135768096D01*
X154202577Y-135928959D01*
X153787611Y-136304866D01*
X153548086Y-136810959D01*
X105511164Y-136810959D01*
X105465767Y-136582736D01*
X105154698Y-136117189D01*
X104689151Y-135806120D01*
X104140000Y-135696887D01*
X103590849Y-135806120D01*
X103125302Y-136117189D01*
X102814233Y-136582736D01*
X102705000Y-137131887D01*
X93420000Y-137131887D01*
X93420000Y-136810959D01*
X98938086Y-136810959D01*
X99059371Y-137033000D01*
X100203000Y-137033000D01*
X100203000Y-135890085D01*
X100457000Y-135890085D01*
X100457000Y-137033000D01*
X101600629Y-137033000D01*
X101721914Y-136810959D01*
X101482389Y-136304866D01*
X101067423Y-135928959D01*
X100679039Y-135768096D01*
X100457000Y-135890085D01*
X100203000Y-135890085D01*
X99980961Y-135768096D01*
X99592577Y-135928959D01*
X99177611Y-136304866D01*
X98938086Y-136810959D01*
X93420000Y-136810959D01*
X93420000Y-133860000D01*
X95112560Y-133860000D01*
X95112560Y-135380000D01*
X95156838Y-135615317D01*
X95295910Y-135831441D01*
X95508110Y-135976431D01*
X95760000Y-136027440D01*
X97280000Y-136027440D01*
X97515317Y-135983162D01*
X97731441Y-135844090D01*
X97876431Y-135631890D01*
X97927440Y-135380000D01*
X97927440Y-133860000D01*
X97883162Y-133624683D01*
X97744090Y-133408559D01*
X97531890Y-133263569D01*
X97346520Y-133226031D01*
X97701934Y-132871236D01*
X97815867Y-132596854D01*
X106917457Y-132596854D01*
X107393727Y-133749515D01*
X108274847Y-134632174D01*
X109426674Y-135110454D01*
X110673854Y-135111543D01*
X111826515Y-134635273D01*
X112709174Y-133754153D01*
X112739887Y-133680187D01*
X116957752Y-133680187D01*
X117175757Y-134207800D01*
X117579077Y-134611824D01*
X118106309Y-134830750D01*
X118677187Y-134831248D01*
X119204800Y-134613243D01*
X119608824Y-134209923D01*
X119778146Y-133802150D01*
X119945757Y-134207800D01*
X120349077Y-134611824D01*
X120876309Y-134830750D01*
X121447187Y-134831248D01*
X121974800Y-134613243D01*
X122378824Y-134209923D01*
X122548146Y-133802150D01*
X122715757Y-134207800D01*
X123119077Y-134611824D01*
X123646309Y-134830750D01*
X124217187Y-134831248D01*
X124744800Y-134613243D01*
X125148824Y-134209923D01*
X125318146Y-133802150D01*
X125485757Y-134207800D01*
X125889077Y-134611824D01*
X126416309Y-134830750D01*
X126987187Y-134831248D01*
X127514800Y-134613243D01*
X127918824Y-134209923D01*
X128088146Y-133802150D01*
X128255757Y-134207800D01*
X128659077Y-134611824D01*
X129186309Y-134830750D01*
X129757187Y-134831248D01*
X130284800Y-134613243D01*
X130688824Y-134209923D01*
X130858146Y-133802150D01*
X131025757Y-134207800D01*
X131429077Y-134611824D01*
X131956309Y-134830750D01*
X132527187Y-134831248D01*
X133054800Y-134613243D01*
X133458824Y-134209923D01*
X133628146Y-133802150D01*
X133795757Y-134207800D01*
X134199077Y-134611824D01*
X134726309Y-134830750D01*
X135297187Y-134831248D01*
X135824800Y-134613243D01*
X136228824Y-134209923D01*
X136447750Y-133682691D01*
X136448248Y-133111813D01*
X136235472Y-132596854D01*
X140217457Y-132596854D01*
X140693727Y-133749515D01*
X141574847Y-134632174D01*
X142726674Y-135110454D01*
X143973854Y-135111543D01*
X145126515Y-134635273D01*
X145903142Y-133860000D01*
X149722560Y-133860000D01*
X149722560Y-135380000D01*
X149766838Y-135615317D01*
X149905910Y-135831441D01*
X150118110Y-135976431D01*
X150370000Y-136027440D01*
X151890000Y-136027440D01*
X152125317Y-135983162D01*
X152341441Y-135844090D01*
X152486431Y-135631890D01*
X152537440Y-135380000D01*
X152537440Y-133860000D01*
X152493162Y-133624683D01*
X152354090Y-133408559D01*
X152141890Y-133263569D01*
X151956520Y-133226031D01*
X152311934Y-132871236D01*
X152524758Y-132358700D01*
X152525242Y-131803735D01*
X152313313Y-131290828D01*
X151921236Y-130898066D01*
X151725066Y-130816609D01*
X151859941Y-130760742D01*
X151929159Y-130518764D01*
X151130000Y-129719605D01*
X150330841Y-130518764D01*
X150400059Y-130760742D01*
X150544862Y-130812382D01*
X150340828Y-130896687D01*
X149948066Y-131288764D01*
X149735242Y-131801300D01*
X149734758Y-132356265D01*
X149946687Y-132869172D01*
X150302210Y-133225316D01*
X150134683Y-133256838D01*
X149918559Y-133395910D01*
X149773569Y-133608110D01*
X149722560Y-133860000D01*
X145903142Y-133860000D01*
X146009174Y-133754153D01*
X146487454Y-132602326D01*
X146488543Y-131355146D01*
X146012273Y-130202485D01*
X145144085Y-129332780D01*
X149722845Y-129332780D01*
X149750659Y-129887049D01*
X149909258Y-130269941D01*
X150151236Y-130339159D01*
X150950395Y-129540000D01*
X151309605Y-129540000D01*
X152108764Y-130339159D01*
X152350742Y-130269941D01*
X152537155Y-129747220D01*
X152509341Y-129192951D01*
X152350742Y-128810059D01*
X152108764Y-128740841D01*
X151309605Y-129540000D01*
X150950395Y-129540000D01*
X150151236Y-128740841D01*
X149909258Y-128810059D01*
X149722845Y-129332780D01*
X145144085Y-129332780D01*
X145131153Y-129319826D01*
X143979326Y-128841546D01*
X142732146Y-128840457D01*
X141579485Y-129316727D01*
X140696826Y-130197847D01*
X140218546Y-131349674D01*
X140217457Y-132596854D01*
X136235472Y-132596854D01*
X136230243Y-132584200D01*
X135826923Y-132180176D01*
X135299691Y-131961250D01*
X134728813Y-131960752D01*
X134201200Y-132178757D01*
X133797176Y-132582077D01*
X133627854Y-132989850D01*
X133460243Y-132584200D01*
X133056923Y-132180176D01*
X132529691Y-131961250D01*
X131958813Y-131960752D01*
X131431200Y-132178757D01*
X131027176Y-132582077D01*
X130857854Y-132989850D01*
X130690243Y-132584200D01*
X130286923Y-132180176D01*
X129759691Y-131961250D01*
X129188813Y-131960752D01*
X128661200Y-132178757D01*
X128257176Y-132582077D01*
X128087854Y-132989850D01*
X127920243Y-132584200D01*
X127516923Y-132180176D01*
X126989691Y-131961250D01*
X126418813Y-131960752D01*
X125891200Y-132178757D01*
X125487176Y-132582077D01*
X125317854Y-132989850D01*
X125150243Y-132584200D01*
X124746923Y-132180176D01*
X124219691Y-131961250D01*
X123648813Y-131960752D01*
X123121200Y-132178757D01*
X122717176Y-132582077D01*
X122547854Y-132989850D01*
X122380243Y-132584200D01*
X121976923Y-132180176D01*
X121449691Y-131961250D01*
X120878813Y-131960752D01*
X120351200Y-132178757D01*
X119947176Y-132582077D01*
X119777854Y-132989850D01*
X119610243Y-132584200D01*
X119206923Y-132180176D01*
X118679691Y-131961250D01*
X118108813Y-131960752D01*
X117581200Y-132178757D01*
X117177176Y-132582077D01*
X116958250Y-133109309D01*
X116957752Y-133680187D01*
X112739887Y-133680187D01*
X113187454Y-132602326D01*
X113188360Y-131563745D01*
X116179861Y-131563745D01*
X116253995Y-131809864D01*
X116791223Y-132002965D01*
X117361454Y-131975778D01*
X117762005Y-131809864D01*
X117836139Y-131563745D01*
X117008000Y-130735605D01*
X116179861Y-131563745D01*
X113188360Y-131563745D01*
X113188543Y-131355146D01*
X112768773Y-130339223D01*
X115561035Y-130339223D01*
X115588222Y-130909454D01*
X115754136Y-131310005D01*
X116000255Y-131384139D01*
X116828395Y-130556000D01*
X117187605Y-130556000D01*
X118015745Y-131384139D01*
X118261864Y-131310005D01*
X118389804Y-130954062D01*
X118560757Y-131367800D01*
X118964077Y-131771824D01*
X119491309Y-131990750D01*
X120062187Y-131991248D01*
X120589800Y-131773243D01*
X120993824Y-131369923D01*
X121163146Y-130962150D01*
X121330757Y-131367800D01*
X121734077Y-131771824D01*
X122261309Y-131990750D01*
X122832187Y-131991248D01*
X123359800Y-131773243D01*
X123763824Y-131369923D01*
X123933146Y-130962150D01*
X124100757Y-131367800D01*
X124504077Y-131771824D01*
X125031309Y-131990750D01*
X125602187Y-131991248D01*
X126129800Y-131773243D01*
X126533824Y-131369923D01*
X126703146Y-130962150D01*
X126870757Y-131367800D01*
X127274077Y-131771824D01*
X127801309Y-131990750D01*
X128372187Y-131991248D01*
X128899800Y-131773243D01*
X129303824Y-131369923D01*
X129473146Y-130962150D01*
X129640757Y-131367800D01*
X130044077Y-131771824D01*
X130571309Y-131990750D01*
X131142187Y-131991248D01*
X131669800Y-131773243D01*
X132073824Y-131369923D01*
X132243146Y-130962150D01*
X132410757Y-131367800D01*
X132814077Y-131771824D01*
X133341309Y-131990750D01*
X133912187Y-131991248D01*
X134439800Y-131773243D01*
X134843824Y-131369923D01*
X134950560Y-131112874D01*
X134950560Y-131356000D01*
X134994838Y-131591317D01*
X135133910Y-131807441D01*
X135346110Y-131952431D01*
X135598000Y-132003440D01*
X137198000Y-132003440D01*
X137433317Y-131959162D01*
X137649441Y-131820090D01*
X137794431Y-131607890D01*
X137845440Y-131356000D01*
X137845440Y-129756000D01*
X137801162Y-129520683D01*
X137662090Y-129304559D01*
X137449890Y-129159569D01*
X137198000Y-129108560D01*
X135598000Y-129108560D01*
X135362683Y-129152838D01*
X135146559Y-129291910D01*
X135001569Y-129504110D01*
X134950560Y-129756000D01*
X134950560Y-129999087D01*
X134845243Y-129744200D01*
X134441923Y-129340176D01*
X133914691Y-129121250D01*
X133343813Y-129120752D01*
X132816200Y-129338757D01*
X132412176Y-129742077D01*
X132242854Y-130149850D01*
X132075243Y-129744200D01*
X131671923Y-129340176D01*
X131144691Y-129121250D01*
X130573813Y-129120752D01*
X130046200Y-129338757D01*
X129642176Y-129742077D01*
X129472854Y-130149850D01*
X129305243Y-129744200D01*
X128901923Y-129340176D01*
X128848000Y-129317785D01*
X128848000Y-128561236D01*
X150330841Y-128561236D01*
X151130000Y-129360395D01*
X151929159Y-128561236D01*
X151859941Y-128319258D01*
X151337220Y-128132845D01*
X150782951Y-128160659D01*
X150400059Y-128319258D01*
X150330841Y-128561236D01*
X128848000Y-128561236D01*
X128848000Y-127284187D01*
X153504752Y-127284187D01*
X153722757Y-127811800D01*
X154126077Y-128215824D01*
X154653309Y-128434750D01*
X155224187Y-128435248D01*
X155751800Y-128217243D01*
X156155824Y-127813923D01*
X156374750Y-127286691D01*
X156375248Y-126715813D01*
X156157243Y-126188200D01*
X155753923Y-125784176D01*
X155226691Y-125565250D01*
X154655813Y-125564752D01*
X154128200Y-125782757D01*
X153724176Y-126186077D01*
X153505250Y-126713309D01*
X153504752Y-127284187D01*
X128848000Y-127284187D01*
X128848000Y-127109146D01*
X129062192Y-126895327D01*
X129204838Y-126551799D01*
X129205162Y-126179833D01*
X129063117Y-125836057D01*
X128800327Y-125572808D01*
X128536446Y-125463235D01*
X128428117Y-125201057D01*
X128165327Y-124937808D01*
X127821799Y-124795162D01*
X127449833Y-124794838D01*
X127106057Y-124936883D01*
X126842808Y-125199673D01*
X126700162Y-125543201D01*
X126700121Y-125590077D01*
X126462599Y-125827599D01*
X126297852Y-126074161D01*
X126240000Y-126365000D01*
X126240000Y-128342537D01*
X126207808Y-128374673D01*
X126065162Y-128718201D01*
X126064838Y-129090167D01*
X126193716Y-129402077D01*
X126131923Y-129340176D01*
X125604691Y-129121250D01*
X125033813Y-129120752D01*
X124506200Y-129338757D01*
X124102176Y-129742077D01*
X123932854Y-130149850D01*
X123765243Y-129744200D01*
X123361923Y-129340176D01*
X122834691Y-129121250D01*
X122263813Y-129120752D01*
X121736200Y-129338757D01*
X121332176Y-129742077D01*
X121162854Y-130149850D01*
X120995243Y-129744200D01*
X120591923Y-129340176D01*
X120064691Y-129121250D01*
X119493813Y-129120752D01*
X118966200Y-129338757D01*
X118562176Y-129742077D01*
X118399410Y-130134060D01*
X118261864Y-129801995D01*
X118015745Y-129727861D01*
X117187605Y-130556000D01*
X116828395Y-130556000D01*
X116000255Y-129727861D01*
X115754136Y-129801995D01*
X115561035Y-130339223D01*
X112768773Y-130339223D01*
X112712273Y-130202485D01*
X112059184Y-129548255D01*
X116179861Y-129548255D01*
X117008000Y-130376395D01*
X117836139Y-129548255D01*
X117762005Y-129302136D01*
X117224777Y-129109035D01*
X116654546Y-129136222D01*
X116253995Y-129302136D01*
X116179861Y-129548255D01*
X112059184Y-129548255D01*
X111831153Y-129319826D01*
X110679326Y-128841546D01*
X109432146Y-128840457D01*
X108279485Y-129316727D01*
X107396826Y-130197847D01*
X106918546Y-131349674D01*
X106917457Y-132596854D01*
X97815867Y-132596854D01*
X97914758Y-132358700D01*
X97915242Y-131803735D01*
X97703313Y-131290828D01*
X97311236Y-130898066D01*
X97115066Y-130816609D01*
X97249941Y-130760742D01*
X97319159Y-130518764D01*
X96520000Y-129719605D01*
X95720841Y-130518764D01*
X95790059Y-130760742D01*
X95934862Y-130812382D01*
X95730828Y-130896687D01*
X95338066Y-131288764D01*
X95125242Y-131801300D01*
X95124758Y-132356265D01*
X95336687Y-132869172D01*
X95692210Y-133225316D01*
X95524683Y-133256838D01*
X95308559Y-133395910D01*
X95163569Y-133608110D01*
X95112560Y-133860000D01*
X93420000Y-133860000D01*
X93420000Y-129332780D01*
X95112845Y-129332780D01*
X95140659Y-129887049D01*
X95299258Y-130269941D01*
X95541236Y-130339159D01*
X96340395Y-129540000D01*
X96699605Y-129540000D01*
X97498764Y-130339159D01*
X97740742Y-130269941D01*
X97927155Y-129747220D01*
X97899341Y-129192951D01*
X97740742Y-128810059D01*
X97498764Y-128740841D01*
X96699605Y-129540000D01*
X96340395Y-129540000D01*
X95541236Y-128740841D01*
X95299258Y-128810059D01*
X95112845Y-129332780D01*
X93420000Y-129332780D01*
X93420000Y-128561236D01*
X95720841Y-128561236D01*
X96520000Y-129360395D01*
X97319159Y-128561236D01*
X97249941Y-128319258D01*
X96727220Y-128132845D01*
X96172951Y-128160659D01*
X95790059Y-128319258D01*
X95720841Y-128561236D01*
X93420000Y-128561236D01*
X93420000Y-127284187D01*
X98894752Y-127284187D01*
X99112757Y-127811800D01*
X99516077Y-128215824D01*
X100043309Y-128434750D01*
X100614187Y-128435248D01*
X101141800Y-128217243D01*
X101545824Y-127813923D01*
X101764750Y-127286691D01*
X101764752Y-127284187D01*
X102704752Y-127284187D01*
X102922757Y-127811800D01*
X103326077Y-128215824D01*
X103853309Y-128434750D01*
X104424187Y-128435248D01*
X104951800Y-128217243D01*
X105355824Y-127813923D01*
X105574750Y-127286691D01*
X105575248Y-126715813D01*
X105357243Y-126188200D01*
X104953923Y-125784176D01*
X104426691Y-125565250D01*
X103855813Y-125564752D01*
X103328200Y-125782757D01*
X102924176Y-126186077D01*
X102705250Y-126713309D01*
X102704752Y-127284187D01*
X101764752Y-127284187D01*
X101765248Y-126715813D01*
X101547243Y-126188200D01*
X101143923Y-125784176D01*
X100616691Y-125565250D01*
X100045813Y-125564752D01*
X99518200Y-125782757D01*
X99114176Y-126186077D01*
X98895250Y-126713309D01*
X98894752Y-127284187D01*
X93420000Y-127284187D01*
X93420000Y-124659082D01*
X93801077Y-125040824D01*
X94328309Y-125259750D01*
X94899187Y-125260248D01*
X95426800Y-125042243D01*
X95830824Y-124638923D01*
X96049750Y-124111691D01*
X96050000Y-123825000D01*
X103311887Y-123825000D01*
X103421120Y-124374151D01*
X103732189Y-124839698D01*
X104197736Y-125150767D01*
X104746887Y-125260000D01*
X104803113Y-125260000D01*
X105352264Y-125150767D01*
X105817811Y-124839698D01*
X106128880Y-124374151D01*
X106238113Y-123825000D01*
X106128880Y-123275849D01*
X105817811Y-122810302D01*
X105352264Y-122499233D01*
X104803113Y-122390000D01*
X104746887Y-122390000D01*
X104197736Y-122499233D01*
X103732189Y-122810302D01*
X103421120Y-123275849D01*
X103311887Y-123825000D01*
X96050000Y-123825000D01*
X96050248Y-123540813D01*
X95832243Y-123013200D01*
X95428923Y-122609176D01*
X94901691Y-122390250D01*
X94330813Y-122389752D01*
X93803200Y-122607757D01*
X93420000Y-122990289D01*
X93420000Y-120801931D01*
X93572189Y-121029698D01*
X94037736Y-121340767D01*
X94586887Y-121450000D01*
X94643113Y-121450000D01*
X95192264Y-121340767D01*
X95657811Y-121029698D01*
X95968880Y-120564151D01*
X96021584Y-120299187D01*
X103339752Y-120299187D01*
X103557757Y-120826800D01*
X103961077Y-121230824D01*
X104488309Y-121449750D01*
X105059187Y-121450248D01*
X105586800Y-121232243D01*
X105990824Y-120828923D01*
X106209750Y-120301691D01*
X106210248Y-119730813D01*
X105992243Y-119203200D01*
X105719686Y-118930167D01*
X110189838Y-118930167D01*
X110331883Y-119273943D01*
X110365000Y-119307118D01*
X110365000Y-123190000D01*
X110422852Y-123480839D01*
X110587599Y-123727401D01*
X111459878Y-124599680D01*
X111459838Y-124645167D01*
X111601883Y-124988943D01*
X111864673Y-125252192D01*
X112208201Y-125394838D01*
X112580167Y-125395162D01*
X112923943Y-125253117D01*
X113187192Y-124990327D01*
X113329838Y-124646799D01*
X113330162Y-124274833D01*
X113261719Y-124109187D01*
X147154752Y-124109187D01*
X147372757Y-124636800D01*
X147776077Y-125040824D01*
X148303309Y-125259750D01*
X148874187Y-125260248D01*
X149401800Y-125042243D01*
X149805824Y-124638923D01*
X150024750Y-124111691D01*
X150025248Y-123540813D01*
X149807243Y-123013200D01*
X149403923Y-122609176D01*
X148876691Y-122390250D01*
X148305813Y-122389752D01*
X147778200Y-122607757D01*
X147374176Y-123011077D01*
X147155250Y-123538309D01*
X147154752Y-124109187D01*
X113261719Y-124109187D01*
X113188117Y-123931057D01*
X112925327Y-123667808D01*
X112581799Y-123525162D01*
X112534923Y-123525121D01*
X111885000Y-122875198D01*
X111885000Y-119307463D01*
X111917192Y-119275327D01*
X112059838Y-118931799D01*
X112060162Y-118559833D01*
X112016336Y-118453764D01*
X122390841Y-118453764D01*
X122460059Y-118695742D01*
X122982780Y-118882155D01*
X123537049Y-118854341D01*
X123919941Y-118695742D01*
X123989159Y-118453764D01*
X123190000Y-117654605D01*
X122390841Y-118453764D01*
X112016336Y-118453764D01*
X111918117Y-118216057D01*
X111655327Y-117952808D01*
X111311799Y-117810162D01*
X110939833Y-117809838D01*
X110596057Y-117951883D01*
X110332808Y-118214673D01*
X110190162Y-118558201D01*
X110189838Y-118930167D01*
X105719686Y-118930167D01*
X105588923Y-118799176D01*
X105061691Y-118580250D01*
X104490813Y-118579752D01*
X103963200Y-118797757D01*
X103559176Y-119201077D01*
X103340250Y-119728309D01*
X103339752Y-120299187D01*
X96021584Y-120299187D01*
X96078113Y-120015000D01*
X95968880Y-119465849D01*
X95657811Y-119000302D01*
X95192264Y-118689233D01*
X94643113Y-118580000D01*
X94586887Y-118580000D01*
X94037736Y-118689233D01*
X93572189Y-119000302D01*
X93420000Y-119228069D01*
X93420000Y-116970101D01*
X93462611Y-117060134D01*
X93877577Y-117436041D01*
X94265961Y-117596904D01*
X94488000Y-117474915D01*
X94488000Y-116332000D01*
X94742000Y-116332000D01*
X94742000Y-117474915D01*
X94964039Y-117596904D01*
X95352423Y-117436041D01*
X95767389Y-117060134D01*
X96006914Y-116554041D01*
X95885629Y-116332000D01*
X94742000Y-116332000D01*
X94488000Y-116332000D01*
X94468000Y-116332000D01*
X94468000Y-116205000D01*
X96326887Y-116205000D01*
X96436120Y-116754151D01*
X96747189Y-117219698D01*
X97212736Y-117530767D01*
X97761887Y-117640000D01*
X97818113Y-117640000D01*
X98367264Y-117530767D01*
X98832811Y-117219698D01*
X99143880Y-116754151D01*
X99196584Y-116489187D01*
X106514752Y-116489187D01*
X106732757Y-117016800D01*
X107136077Y-117420824D01*
X107663309Y-117639750D01*
X108234187Y-117640248D01*
X108761800Y-117422243D01*
X109165824Y-117018923D01*
X109384750Y-116491691D01*
X109385024Y-116176887D01*
X109690000Y-116176887D01*
X109690000Y-116233113D01*
X109799233Y-116782264D01*
X110110302Y-117247811D01*
X110575849Y-117558880D01*
X111125000Y-117668113D01*
X111674151Y-117558880D01*
X112139698Y-117247811D01*
X112450767Y-116782264D01*
X112509063Y-116489187D01*
X113499752Y-116489187D01*
X113717757Y-117016800D01*
X114121077Y-117420824D01*
X114648309Y-117639750D01*
X115219187Y-117640248D01*
X115746800Y-117422243D01*
X116150824Y-117018923D01*
X116369750Y-116491691D01*
X116370024Y-116176887D01*
X117310000Y-116176887D01*
X117310000Y-116233113D01*
X117419233Y-116782264D01*
X117730302Y-117247811D01*
X118195849Y-117558880D01*
X118745000Y-117668113D01*
X119294151Y-117558880D01*
X119729812Y-117267780D01*
X121782845Y-117267780D01*
X121810659Y-117822049D01*
X121969258Y-118204941D01*
X122211236Y-118274159D01*
X123010395Y-117475000D01*
X123369605Y-117475000D01*
X124168764Y-118274159D01*
X124410742Y-118204941D01*
X124597155Y-117682220D01*
X124569341Y-117127951D01*
X124410742Y-116745059D01*
X124168764Y-116675841D01*
X123369605Y-117475000D01*
X123010395Y-117475000D01*
X122211236Y-116675841D01*
X121969258Y-116745059D01*
X121782845Y-117267780D01*
X119729812Y-117267780D01*
X119759698Y-117247811D01*
X120070767Y-116782264D01*
X120180000Y-116233113D01*
X120180000Y-116176887D01*
X120070767Y-115627736D01*
X119759698Y-115162189D01*
X119294151Y-114851120D01*
X118745000Y-114741887D01*
X118195849Y-114851120D01*
X117730302Y-115162189D01*
X117419233Y-115627736D01*
X117310000Y-116176887D01*
X116370024Y-116176887D01*
X116370248Y-115920813D01*
X116152243Y-115393200D01*
X115748923Y-114989176D01*
X115221691Y-114770250D01*
X114650813Y-114769752D01*
X114123200Y-114987757D01*
X113719176Y-115391077D01*
X113500250Y-115918309D01*
X113499752Y-116489187D01*
X112509063Y-116489187D01*
X112560000Y-116233113D01*
X112560000Y-116176887D01*
X112450767Y-115627736D01*
X112139698Y-115162189D01*
X111674151Y-114851120D01*
X111125000Y-114741887D01*
X110575849Y-114851120D01*
X110110302Y-115162189D01*
X109799233Y-115627736D01*
X109690000Y-116176887D01*
X109385024Y-116176887D01*
X109385248Y-115920813D01*
X109167243Y-115393200D01*
X108763923Y-114989176D01*
X108236691Y-114770250D01*
X107665813Y-114769752D01*
X107138200Y-114987757D01*
X106734176Y-115391077D01*
X106515250Y-115918309D01*
X106514752Y-116489187D01*
X99196584Y-116489187D01*
X99253113Y-116205000D01*
X99143880Y-115655849D01*
X98832811Y-115190302D01*
X98367264Y-114879233D01*
X97818113Y-114770000D01*
X97761887Y-114770000D01*
X97212736Y-114879233D01*
X96747189Y-115190302D01*
X96436120Y-115655849D01*
X96326887Y-116205000D01*
X94468000Y-116205000D01*
X94468000Y-116078000D01*
X94488000Y-116078000D01*
X94488000Y-114935085D01*
X94742000Y-114935085D01*
X94742000Y-116078000D01*
X95885629Y-116078000D01*
X96006914Y-115855959D01*
X95767389Y-115349866D01*
X95352423Y-114973959D01*
X94964039Y-114813096D01*
X94742000Y-114935085D01*
X94488000Y-114935085D01*
X94265961Y-114813096D01*
X93877577Y-114973959D01*
X93462611Y-115349866D01*
X93420000Y-115439899D01*
X93420000Y-112744039D01*
X96398096Y-112744039D01*
X96558959Y-113132423D01*
X96934866Y-113547389D01*
X97440959Y-113786914D01*
X97663000Y-113665629D01*
X97663000Y-112522000D01*
X97917000Y-112522000D01*
X97917000Y-113665629D01*
X98139041Y-113786914D01*
X98645134Y-113547389D01*
X99021041Y-113132423D01*
X99181904Y-112744039D01*
X99146275Y-112679187D01*
X106514752Y-112679187D01*
X106732757Y-113206800D01*
X107136077Y-113610824D01*
X107663309Y-113829750D01*
X108234187Y-113830248D01*
X108761800Y-113612243D01*
X109165824Y-113208923D01*
X109384750Y-112681691D01*
X109385248Y-112110813D01*
X109188647Y-111635000D01*
X121782560Y-111635000D01*
X121782560Y-113155000D01*
X121826838Y-113390317D01*
X121965910Y-113606441D01*
X122178110Y-113751431D01*
X122363480Y-113788969D01*
X122008066Y-114143764D01*
X121795242Y-114656300D01*
X121794758Y-115211265D01*
X122006687Y-115724172D01*
X122398764Y-116116934D01*
X122594934Y-116198391D01*
X122460059Y-116254258D01*
X122390841Y-116496236D01*
X123190000Y-117295395D01*
X123989159Y-116496236D01*
X123958818Y-116390167D01*
X126064838Y-116390167D01*
X126206883Y-116733943D01*
X126469673Y-116997192D01*
X126813201Y-117139838D01*
X126860077Y-117139879D01*
X127510000Y-117789802D01*
X127510000Y-120087537D01*
X127477808Y-120119673D01*
X127335162Y-120463201D01*
X127334838Y-120835167D01*
X127476883Y-121178943D01*
X127739673Y-121442192D01*
X128083201Y-121584838D01*
X128455167Y-121585162D01*
X128798943Y-121443117D01*
X129062192Y-121180327D01*
X129204838Y-120836799D01*
X129205162Y-120464833D01*
X129063117Y-120121057D01*
X129030000Y-120087882D01*
X129030000Y-120015000D01*
X147126887Y-120015000D01*
X147236120Y-120564151D01*
X147547189Y-121029698D01*
X148012736Y-121340767D01*
X148561887Y-121450000D01*
X148618113Y-121450000D01*
X149167264Y-121340767D01*
X149632811Y-121029698D01*
X149943880Y-120564151D01*
X150053113Y-120015000D01*
X149943880Y-119465849D01*
X149632811Y-119000302D01*
X149167264Y-118689233D01*
X148618113Y-118580000D01*
X148561887Y-118580000D01*
X148012736Y-118689233D01*
X147547189Y-119000302D01*
X147236120Y-119465849D01*
X147126887Y-120015000D01*
X129030000Y-120015000D01*
X129030000Y-118740481D01*
X129163110Y-118831431D01*
X129415000Y-118882440D01*
X130935000Y-118882440D01*
X131170317Y-118838162D01*
X131386441Y-118699090D01*
X131531431Y-118486890D01*
X131570255Y-118295167D01*
X131779838Y-118295167D01*
X131921883Y-118638943D01*
X132184673Y-118902192D01*
X132528201Y-119044838D01*
X132900167Y-119045162D01*
X133243943Y-118903117D01*
X133507192Y-118640327D01*
X133649838Y-118296799D01*
X133650162Y-117924833D01*
X133508117Y-117581057D01*
X133245327Y-117317808D01*
X132901799Y-117175162D01*
X132529833Y-117174838D01*
X132186057Y-117316883D01*
X131922808Y-117579673D01*
X131780162Y-117923201D01*
X131779838Y-118295167D01*
X131570255Y-118295167D01*
X131582440Y-118235000D01*
X131582440Y-116715000D01*
X131552154Y-116554041D01*
X133228086Y-116554041D01*
X133467611Y-117060134D01*
X133882577Y-117436041D01*
X134270961Y-117596904D01*
X134493000Y-117474915D01*
X134493000Y-116332000D01*
X134747000Y-116332000D01*
X134747000Y-117474915D01*
X134969039Y-117596904D01*
X135357423Y-117436041D01*
X135772389Y-117060134D01*
X136011914Y-116554041D01*
X135890629Y-116332000D01*
X134747000Y-116332000D01*
X134493000Y-116332000D01*
X133349371Y-116332000D01*
X133228086Y-116554041D01*
X131552154Y-116554041D01*
X131538162Y-116479683D01*
X131399090Y-116263559D01*
X131313387Y-116205000D01*
X136331887Y-116205000D01*
X136441120Y-116754151D01*
X136752189Y-117219698D01*
X137217736Y-117530767D01*
X137766887Y-117640000D01*
X137823113Y-117640000D01*
X138372264Y-117530767D01*
X138837811Y-117219698D01*
X139148880Y-116754151D01*
X139201584Y-116489187D01*
X146519752Y-116489187D01*
X146737757Y-117016800D01*
X147141077Y-117420824D01*
X147668309Y-117639750D01*
X148239187Y-117640248D01*
X148766800Y-117422243D01*
X149170824Y-117018923D01*
X149389750Y-116491691D01*
X149390248Y-115920813D01*
X149172243Y-115393200D01*
X148768923Y-114989176D01*
X148241691Y-114770250D01*
X147670813Y-114769752D01*
X147143200Y-114987757D01*
X146739176Y-115391077D01*
X146520250Y-115918309D01*
X146519752Y-116489187D01*
X139201584Y-116489187D01*
X139258113Y-116205000D01*
X139148880Y-115655849D01*
X138837811Y-115190302D01*
X138372264Y-114879233D01*
X137823113Y-114770000D01*
X137766887Y-114770000D01*
X137217736Y-114879233D01*
X136752189Y-115190302D01*
X136441120Y-115655849D01*
X136331887Y-116205000D01*
X131313387Y-116205000D01*
X131186890Y-116118569D01*
X131001520Y-116081031D01*
X131226984Y-115855959D01*
X133228086Y-115855959D01*
X133349371Y-116078000D01*
X134493000Y-116078000D01*
X134493000Y-114935085D01*
X134747000Y-114935085D01*
X134747000Y-116078000D01*
X135890629Y-116078000D01*
X136011914Y-115855959D01*
X135772389Y-115349866D01*
X135357423Y-114973959D01*
X134969039Y-114813096D01*
X134747000Y-114935085D01*
X134493000Y-114935085D01*
X134270961Y-114813096D01*
X133882577Y-114973959D01*
X133467611Y-115349866D01*
X133228086Y-115855959D01*
X131226984Y-115855959D01*
X131356934Y-115726236D01*
X131569758Y-115213700D01*
X131570242Y-114658735D01*
X131358313Y-114145828D01*
X130966236Y-113753066D01*
X130770066Y-113671609D01*
X130904941Y-113615742D01*
X130974159Y-113373764D01*
X130175000Y-112574605D01*
X129375841Y-113373764D01*
X129445059Y-113615742D01*
X129589862Y-113667382D01*
X129385828Y-113751687D01*
X128993066Y-114143764D01*
X128780242Y-114656300D01*
X128779758Y-115211265D01*
X128991687Y-115724172D01*
X129347210Y-116080316D01*
X129179683Y-116111838D01*
X128963559Y-116250910D01*
X128818569Y-116463110D01*
X128767560Y-116715000D01*
X128767560Y-116897758D01*
X127935122Y-116065320D01*
X127935162Y-116019833D01*
X127793117Y-115676057D01*
X127530327Y-115412808D01*
X127186799Y-115270162D01*
X126814833Y-115269838D01*
X126471057Y-115411883D01*
X126207808Y-115674673D01*
X126065162Y-116018201D01*
X126064838Y-116390167D01*
X123958818Y-116390167D01*
X123919941Y-116254258D01*
X123775138Y-116202618D01*
X123979172Y-116118313D01*
X124371934Y-115726236D01*
X124584758Y-115213700D01*
X124585242Y-114658735D01*
X124373313Y-114145828D01*
X124017790Y-113789684D01*
X124185317Y-113758162D01*
X124401441Y-113619090D01*
X124546431Y-113406890D01*
X124597440Y-113155000D01*
X124597440Y-112187780D01*
X128767845Y-112187780D01*
X128795659Y-112742049D01*
X128954258Y-113124941D01*
X129196236Y-113194159D01*
X129995395Y-112395000D01*
X130354605Y-112395000D01*
X131153764Y-113194159D01*
X131395742Y-113124941D01*
X131531579Y-112744039D01*
X136403096Y-112744039D01*
X136563959Y-113132423D01*
X136939866Y-113547389D01*
X137445959Y-113786914D01*
X137668000Y-113665629D01*
X137668000Y-112522000D01*
X137922000Y-112522000D01*
X137922000Y-113665629D01*
X138144041Y-113786914D01*
X138650134Y-113547389D01*
X139026041Y-113132423D01*
X139186904Y-112744039D01*
X139151275Y-112679187D01*
X146519752Y-112679187D01*
X146737757Y-113206800D01*
X147141077Y-113610824D01*
X147668309Y-113829750D01*
X148239187Y-113830248D01*
X148766800Y-113612243D01*
X149164569Y-113215167D01*
X149559838Y-113215167D01*
X149701883Y-113558943D01*
X149964673Y-113822192D01*
X150308201Y-113964838D01*
X150355077Y-113964879D01*
X150370000Y-113979802D01*
X150370000Y-114992005D01*
X150115302Y-115162189D01*
X149804233Y-115627736D01*
X149695000Y-116176887D01*
X149695000Y-116233113D01*
X149804233Y-116782264D01*
X150115302Y-117247811D01*
X150580849Y-117558880D01*
X151130000Y-117668113D01*
X151657540Y-117563179D01*
X151697852Y-117765839D01*
X151862599Y-118012401D01*
X152099878Y-118249680D01*
X152099838Y-118295167D01*
X152241883Y-118638943D01*
X152504673Y-118902192D01*
X152848201Y-119044838D01*
X153220167Y-119045162D01*
X153563943Y-118903117D01*
X153827192Y-118640327D01*
X153969838Y-118296799D01*
X153970162Y-117924833D01*
X153828117Y-117581057D01*
X153565327Y-117317808D01*
X153221799Y-117175162D01*
X153174923Y-117175121D01*
X153160000Y-117160198D01*
X153160000Y-116489187D01*
X153504752Y-116489187D01*
X153722757Y-117016800D01*
X154126077Y-117420824D01*
X154653309Y-117639750D01*
X155224187Y-117640248D01*
X155751800Y-117422243D01*
X156155824Y-117018923D01*
X156374750Y-116491691D01*
X156375248Y-115920813D01*
X156167289Y-115417513D01*
X156984680Y-114600122D01*
X157030167Y-114600162D01*
X157373943Y-114458117D01*
X157637192Y-114195327D01*
X157779838Y-113851799D01*
X157780162Y-113479833D01*
X157638117Y-113136057D01*
X157375327Y-112872808D01*
X157031799Y-112730162D01*
X156659833Y-112729838D01*
X156316057Y-112871883D01*
X156052808Y-113134673D01*
X155910162Y-113478201D01*
X155910121Y-113525077D01*
X154665438Y-114769760D01*
X154655813Y-114769752D01*
X154128200Y-114987757D01*
X153724176Y-115391077D01*
X153505250Y-115918309D01*
X153504752Y-116489187D01*
X153160000Y-116489187D01*
X153160000Y-114300000D01*
X153102148Y-114009161D01*
X152937401Y-113762599D01*
X152700122Y-113525320D01*
X152700162Y-113479833D01*
X152558117Y-113136057D01*
X152295327Y-112872808D01*
X151951799Y-112730162D01*
X151579833Y-112729838D01*
X151411403Y-112799432D01*
X151288117Y-112501057D01*
X151025327Y-112237808D01*
X150681799Y-112095162D01*
X150309833Y-112094838D01*
X149966057Y-112236883D01*
X149702808Y-112499673D01*
X149560162Y-112843201D01*
X149559838Y-113215167D01*
X149164569Y-113215167D01*
X149170824Y-113208923D01*
X149389750Y-112681691D01*
X149390248Y-112110813D01*
X149172243Y-111583200D01*
X148768923Y-111179176D01*
X148241691Y-110960250D01*
X147670813Y-110959752D01*
X147143200Y-111177757D01*
X146739176Y-111581077D01*
X146520250Y-112108309D01*
X146519752Y-112679187D01*
X139151275Y-112679187D01*
X139064915Y-112522000D01*
X137922000Y-112522000D01*
X137668000Y-112522000D01*
X136525085Y-112522000D01*
X136403096Y-112744039D01*
X131531579Y-112744039D01*
X131582155Y-112602220D01*
X131554341Y-112047951D01*
X131553517Y-112045961D01*
X136403096Y-112045961D01*
X136525085Y-112268000D01*
X137668000Y-112268000D01*
X137668000Y-111124371D01*
X137922000Y-111124371D01*
X137922000Y-112268000D01*
X139064915Y-112268000D01*
X139186904Y-112045961D01*
X139026041Y-111657577D01*
X138650134Y-111242611D01*
X138144041Y-111003086D01*
X137922000Y-111124371D01*
X137668000Y-111124371D01*
X137445959Y-111003086D01*
X136939866Y-111242611D01*
X136563959Y-111657577D01*
X136403096Y-112045961D01*
X131553517Y-112045961D01*
X131395742Y-111665059D01*
X131153764Y-111595841D01*
X130354605Y-112395000D01*
X129995395Y-112395000D01*
X129196236Y-111595841D01*
X128954258Y-111665059D01*
X128767845Y-112187780D01*
X124597440Y-112187780D01*
X124597440Y-111635000D01*
X124556277Y-111416236D01*
X129375841Y-111416236D01*
X130175000Y-112215395D01*
X130974159Y-111416236D01*
X130904941Y-111174258D01*
X130382220Y-110987845D01*
X129827951Y-111015659D01*
X129445059Y-111174258D01*
X129375841Y-111416236D01*
X124556277Y-111416236D01*
X124553162Y-111399683D01*
X124414090Y-111183559D01*
X124201890Y-111038569D01*
X123950000Y-110987560D01*
X122430000Y-110987560D01*
X122194683Y-111031838D01*
X121978559Y-111170910D01*
X121833569Y-111383110D01*
X121782560Y-111635000D01*
X109188647Y-111635000D01*
X109167243Y-111583200D01*
X108763923Y-111179176D01*
X108236691Y-110960250D01*
X107665813Y-110959752D01*
X107138200Y-111177757D01*
X106734176Y-111581077D01*
X106515250Y-112108309D01*
X106514752Y-112679187D01*
X99146275Y-112679187D01*
X99059915Y-112522000D01*
X97917000Y-112522000D01*
X97663000Y-112522000D01*
X96520085Y-112522000D01*
X96398096Y-112744039D01*
X93420000Y-112744039D01*
X93420000Y-112045961D01*
X96398096Y-112045961D01*
X96520085Y-112268000D01*
X97663000Y-112268000D01*
X97663000Y-111124371D01*
X97917000Y-111124371D01*
X97917000Y-112268000D01*
X99059915Y-112268000D01*
X99181904Y-112045961D01*
X99021041Y-111657577D01*
X98645134Y-111242611D01*
X98139041Y-111003086D01*
X97917000Y-111124371D01*
X97663000Y-111124371D01*
X97440959Y-111003086D01*
X96934866Y-111242611D01*
X96558959Y-111657577D01*
X96398096Y-112045961D01*
X93420000Y-112045961D01*
X93420000Y-106879082D01*
X93801077Y-107260824D01*
X94328309Y-107479750D01*
X94899187Y-107480248D01*
X95125000Y-107386944D01*
X95125000Y-107387537D01*
X95092808Y-107419673D01*
X94950162Y-107763201D01*
X94949838Y-108135167D01*
X95091883Y-108478943D01*
X95354673Y-108742192D01*
X95698201Y-108884838D01*
X96070167Y-108885162D01*
X96413943Y-108743117D01*
X96677192Y-108480327D01*
X96801622Y-108180668D01*
X96968201Y-108249838D01*
X97340167Y-108250162D01*
X97683943Y-108108117D01*
X97947192Y-107845327D01*
X97955632Y-107825000D01*
X98922560Y-107825000D01*
X98922560Y-109345000D01*
X98966838Y-109580317D01*
X99105910Y-109796441D01*
X99318110Y-109941431D01*
X99570000Y-109992440D01*
X101090000Y-109992440D01*
X101325317Y-109948162D01*
X101541441Y-109809090D01*
X101686431Y-109596890D01*
X101723969Y-109411520D01*
X102078764Y-109766934D01*
X102591300Y-109979758D01*
X103146265Y-109980242D01*
X103659172Y-109768313D01*
X103864078Y-109563764D01*
X104610841Y-109563764D01*
X104680059Y-109805742D01*
X105202780Y-109992155D01*
X105757049Y-109964341D01*
X106139941Y-109805742D01*
X106209159Y-109563764D01*
X105410000Y-108764605D01*
X104610841Y-109563764D01*
X103864078Y-109563764D01*
X104051934Y-109376236D01*
X104133391Y-109180066D01*
X104189258Y-109314941D01*
X104431236Y-109384159D01*
X105230395Y-108585000D01*
X105589605Y-108585000D01*
X106388764Y-109384159D01*
X106630742Y-109314941D01*
X106817155Y-108792220D01*
X106789341Y-108237951D01*
X106630742Y-107855059D01*
X106388764Y-107785841D01*
X105589605Y-108585000D01*
X105230395Y-108585000D01*
X104431236Y-107785841D01*
X104189258Y-107855059D01*
X104137618Y-107999862D01*
X104053313Y-107795828D01*
X103864052Y-107606236D01*
X104610841Y-107606236D01*
X105410000Y-108405395D01*
X106209159Y-107606236D01*
X106139941Y-107364258D01*
X105617220Y-107177845D01*
X105062951Y-107205659D01*
X104680059Y-107364258D01*
X104610841Y-107606236D01*
X103864052Y-107606236D01*
X103661236Y-107403066D01*
X103148700Y-107190242D01*
X102593735Y-107189758D01*
X102080828Y-107401687D01*
X101724684Y-107757210D01*
X101693162Y-107589683D01*
X101554090Y-107373559D01*
X101341890Y-107228569D01*
X101090000Y-107177560D01*
X99570000Y-107177560D01*
X99334683Y-107221838D01*
X99118559Y-107360910D01*
X98973569Y-107573110D01*
X98922560Y-107825000D01*
X97955632Y-107825000D01*
X98056765Y-107581446D01*
X98318943Y-107473117D01*
X98582192Y-107210327D01*
X98724838Y-106866799D01*
X98725162Y-106494833D01*
X98656719Y-106329187D01*
X109689752Y-106329187D01*
X109907757Y-106856800D01*
X110311077Y-107260824D01*
X110838309Y-107479750D01*
X111409187Y-107480248D01*
X111936800Y-107262243D01*
X112340824Y-106858923D01*
X112559750Y-106331691D01*
X112560024Y-106016887D01*
X113500000Y-106016887D01*
X113500000Y-106073113D01*
X113609233Y-106622264D01*
X113920302Y-107087811D01*
X114385849Y-107398880D01*
X114935000Y-107508113D01*
X115484151Y-107398880D01*
X115949698Y-107087811D01*
X116260767Y-106622264D01*
X116319063Y-106329187D01*
X117309752Y-106329187D01*
X117527757Y-106856800D01*
X117931077Y-107260824D01*
X118458309Y-107479750D01*
X119029187Y-107480248D01*
X119556800Y-107262243D01*
X119960824Y-106858923D01*
X120063701Y-106611167D01*
X122254838Y-106611167D01*
X122396883Y-106954943D01*
X122430000Y-106988118D01*
X122430000Y-107641537D01*
X122397808Y-107673673D01*
X122255162Y-108017201D01*
X122254838Y-108389167D01*
X122396883Y-108732943D01*
X122659673Y-108996192D01*
X123003201Y-109138838D01*
X123375167Y-109139162D01*
X123718943Y-108997117D01*
X123982192Y-108734327D01*
X124124838Y-108390799D01*
X124125162Y-108018833D01*
X124045073Y-107825000D01*
X138927560Y-107825000D01*
X138927560Y-109345000D01*
X138971838Y-109580317D01*
X139110910Y-109796441D01*
X139323110Y-109941431D01*
X139575000Y-109992440D01*
X141095000Y-109992440D01*
X141330317Y-109948162D01*
X141546441Y-109809090D01*
X141691431Y-109596890D01*
X141728969Y-109411520D01*
X142083764Y-109766934D01*
X142596300Y-109979758D01*
X143151265Y-109980242D01*
X143664172Y-109768313D01*
X143869078Y-109563764D01*
X144615841Y-109563764D01*
X144685059Y-109805742D01*
X145207780Y-109992155D01*
X145762049Y-109964341D01*
X146144941Y-109805742D01*
X146214159Y-109563764D01*
X145415000Y-108764605D01*
X144615841Y-109563764D01*
X143869078Y-109563764D01*
X144056934Y-109376236D01*
X144138391Y-109180066D01*
X144194258Y-109314941D01*
X144436236Y-109384159D01*
X145235395Y-108585000D01*
X145594605Y-108585000D01*
X146393764Y-109384159D01*
X146635742Y-109314941D01*
X146822155Y-108792220D01*
X146794341Y-108237951D01*
X146635742Y-107855059D01*
X146393764Y-107785841D01*
X145594605Y-108585000D01*
X145235395Y-108585000D01*
X144436236Y-107785841D01*
X144194258Y-107855059D01*
X144142618Y-107999862D01*
X144058313Y-107795828D01*
X143869052Y-107606236D01*
X144615841Y-107606236D01*
X145415000Y-108405395D01*
X146214159Y-107606236D01*
X146144941Y-107364258D01*
X145622220Y-107177845D01*
X145067951Y-107205659D01*
X144685059Y-107364258D01*
X144615841Y-107606236D01*
X143869052Y-107606236D01*
X143666236Y-107403066D01*
X143153700Y-107190242D01*
X142598735Y-107189758D01*
X142085828Y-107401687D01*
X141729684Y-107757210D01*
X141698162Y-107589683D01*
X141559090Y-107373559D01*
X141346890Y-107228569D01*
X141095000Y-107177560D01*
X139575000Y-107177560D01*
X139339683Y-107221838D01*
X139123559Y-107360910D01*
X138978569Y-107573110D01*
X138927560Y-107825000D01*
X124045073Y-107825000D01*
X123983117Y-107675057D01*
X123950000Y-107641882D01*
X123950000Y-106988463D01*
X123982192Y-106956327D01*
X124124838Y-106612799D01*
X124125162Y-106240833D01*
X124034284Y-106020890D01*
X125304524Y-106020890D01*
X125474355Y-106430924D01*
X125864642Y-106859183D01*
X126389108Y-107105486D01*
X126619000Y-106984819D01*
X126619000Y-105791000D01*
X126873000Y-105791000D01*
X126873000Y-106984819D01*
X127102892Y-107105486D01*
X127627358Y-106859183D01*
X128017645Y-106430924D01*
X128059783Y-106329187D01*
X133184752Y-106329187D01*
X133402757Y-106856800D01*
X133806077Y-107260824D01*
X134333309Y-107479750D01*
X134904187Y-107480248D01*
X135431800Y-107262243D01*
X135835824Y-106858923D01*
X136054750Y-106331691D01*
X136055248Y-105760813D01*
X135837243Y-105233200D01*
X135433923Y-104829176D01*
X134906691Y-104610250D01*
X134335813Y-104609752D01*
X133808200Y-104827757D01*
X133404176Y-105231077D01*
X133185250Y-105758309D01*
X133184752Y-106329187D01*
X128059783Y-106329187D01*
X128187476Y-106020890D01*
X128066155Y-105791000D01*
X126873000Y-105791000D01*
X126619000Y-105791000D01*
X125425845Y-105791000D01*
X125304524Y-106020890D01*
X124034284Y-106020890D01*
X123983117Y-105897057D01*
X123720327Y-105633808D01*
X123376799Y-105491162D01*
X123004833Y-105490838D01*
X122661057Y-105632883D01*
X122397808Y-105895673D01*
X122255162Y-106239201D01*
X122254838Y-106611167D01*
X120063701Y-106611167D01*
X120179750Y-106331691D01*
X120180248Y-105760813D01*
X119962243Y-105233200D01*
X119558923Y-104829176D01*
X119031691Y-104610250D01*
X118460813Y-104609752D01*
X117933200Y-104827757D01*
X117529176Y-105231077D01*
X117310250Y-105758309D01*
X117309752Y-106329187D01*
X116319063Y-106329187D01*
X116370000Y-106073113D01*
X116370000Y-106016887D01*
X116260767Y-105467736D01*
X115949698Y-105002189D01*
X115484151Y-104691120D01*
X114935000Y-104581887D01*
X114385849Y-104691120D01*
X113920302Y-105002189D01*
X113609233Y-105467736D01*
X113500000Y-106016887D01*
X112560024Y-106016887D01*
X112560248Y-105760813D01*
X112342243Y-105233200D01*
X111938923Y-104829176D01*
X111411691Y-104610250D01*
X110840813Y-104609752D01*
X110313200Y-104827757D01*
X109909176Y-105231077D01*
X109690250Y-105758309D01*
X109689752Y-106329187D01*
X98656719Y-106329187D01*
X98583117Y-106151057D01*
X98550000Y-106117882D01*
X98550000Y-105337463D01*
X98582192Y-105305327D01*
X98724838Y-104961799D01*
X98725162Y-104589833D01*
X98615805Y-104325167D01*
X105109838Y-104325167D01*
X105251883Y-104668943D01*
X105514673Y-104932192D01*
X105858201Y-105074838D01*
X106230167Y-105075162D01*
X106573943Y-104933117D01*
X106837192Y-104670327D01*
X106979838Y-104326799D01*
X106979879Y-104279923D01*
X108089680Y-103170122D01*
X108135167Y-103170162D01*
X108478943Y-103028117D01*
X108742192Y-102765327D01*
X108884838Y-102421799D01*
X108885162Y-102049833D01*
X108743117Y-101706057D01*
X108480327Y-101442808D01*
X108136799Y-101300162D01*
X107764833Y-101299838D01*
X107421057Y-101441883D01*
X107157808Y-101704673D01*
X107015162Y-102048201D01*
X107015121Y-102095077D01*
X105905320Y-103204878D01*
X105859833Y-103204838D01*
X105516057Y-103346883D01*
X105252808Y-103609673D01*
X105110162Y-103953201D01*
X105109838Y-104325167D01*
X98615805Y-104325167D01*
X98583117Y-104246057D01*
X98320327Y-103982808D01*
X98056446Y-103873235D01*
X97948117Y-103611057D01*
X97685327Y-103347808D01*
X97421446Y-103238235D01*
X97313117Y-102976057D01*
X97050327Y-102712808D01*
X96706799Y-102570162D01*
X96334833Y-102569838D01*
X95991057Y-102711883D01*
X95727808Y-102974673D01*
X95618235Y-103238554D01*
X95356057Y-103346883D01*
X95092808Y-103609673D01*
X94950162Y-103953201D01*
X94949838Y-104325167D01*
X95091883Y-104668943D01*
X95125000Y-104702118D01*
X95125000Y-104702976D01*
X94901691Y-104610250D01*
X94330813Y-104609752D01*
X93803200Y-104827757D01*
X93420000Y-105210289D01*
X93420000Y-98341122D01*
X93600727Y-98778515D01*
X94481847Y-99661174D01*
X95633674Y-100139454D01*
X96880854Y-100140543D01*
X98033515Y-99664273D01*
X98916174Y-98783153D01*
X98946887Y-98709187D01*
X101784752Y-98709187D01*
X102002757Y-99236800D01*
X102406077Y-99640824D01*
X102933309Y-99859750D01*
X103504187Y-99860248D01*
X104031800Y-99642243D01*
X104435824Y-99238923D01*
X104605146Y-98831150D01*
X104772757Y-99236800D01*
X105176077Y-99640824D01*
X105703309Y-99859750D01*
X106274187Y-99860248D01*
X106801800Y-99642243D01*
X107205824Y-99238923D01*
X107375146Y-98831150D01*
X107542757Y-99236800D01*
X107946077Y-99640824D01*
X108473309Y-99859750D01*
X109044187Y-99860248D01*
X109571800Y-99642243D01*
X109975824Y-99238923D01*
X110145146Y-98831150D01*
X110312757Y-99236800D01*
X110716077Y-99640824D01*
X111243309Y-99859750D01*
X111814187Y-99860248D01*
X112341800Y-99642243D01*
X112745824Y-99238923D01*
X112852560Y-98981874D01*
X112852560Y-99225000D01*
X112896838Y-99460317D01*
X113035910Y-99676441D01*
X113248110Y-99821431D01*
X113500000Y-99872440D01*
X115100000Y-99872440D01*
X115335317Y-99828162D01*
X115551441Y-99689090D01*
X115696431Y-99476890D01*
X115747440Y-99225000D01*
X115747440Y-99185000D01*
X116840000Y-99185000D01*
X117130839Y-99127148D01*
X117377401Y-98962401D01*
X117614680Y-98725122D01*
X117660167Y-98725162D01*
X118003943Y-98583117D01*
X118267192Y-98320327D01*
X118339478Y-98146244D01*
X118600727Y-98778515D01*
X119481847Y-99661174D01*
X120633674Y-100139454D01*
X121880854Y-100140543D01*
X123033515Y-99664273D01*
X123916174Y-98783153D01*
X124394454Y-97631326D01*
X124395543Y-96384146D01*
X124031874Y-95504000D01*
X125231907Y-95504000D01*
X125344946Y-96072285D01*
X125666853Y-96554054D01*
X125996026Y-96774000D01*
X125666853Y-96993946D01*
X125344946Y-97475715D01*
X125231907Y-98044000D01*
X125344946Y-98612285D01*
X125666853Y-99094054D01*
X125996026Y-99314000D01*
X125666853Y-99533946D01*
X125344946Y-100015715D01*
X125231907Y-100584000D01*
X125344946Y-101152285D01*
X125666853Y-101634054D01*
X125996026Y-101854000D01*
X125666853Y-102073946D01*
X125344946Y-102555715D01*
X125231907Y-103124000D01*
X125344946Y-103692285D01*
X125666853Y-104174054D01*
X126007553Y-104401702D01*
X125864642Y-104468817D01*
X125474355Y-104897076D01*
X125304524Y-105307110D01*
X125425845Y-105537000D01*
X126619000Y-105537000D01*
X126619000Y-105517000D01*
X126873000Y-105517000D01*
X126873000Y-105537000D01*
X128066155Y-105537000D01*
X128187476Y-105307110D01*
X128017645Y-104897076D01*
X127627358Y-104468817D01*
X127484447Y-104401702D01*
X127825147Y-104174054D01*
X128147054Y-103692285D01*
X128260093Y-103124000D01*
X128246402Y-103055167D01*
X140034838Y-103055167D01*
X140176883Y-103398943D01*
X140439673Y-103662192D01*
X140783201Y-103804838D01*
X141155167Y-103805162D01*
X141498943Y-103663117D01*
X141532118Y-103630000D01*
X142574890Y-103630000D01*
X142574838Y-103690167D01*
X142716883Y-104033943D01*
X142979673Y-104297192D01*
X143323201Y-104439838D01*
X143370077Y-104439879D01*
X143607599Y-104677401D01*
X143854161Y-104842148D01*
X144145000Y-104900000D01*
X145487537Y-104900000D01*
X145519673Y-104932192D01*
X145863201Y-105074838D01*
X146235167Y-105075162D01*
X146578943Y-104933117D01*
X146842192Y-104670327D01*
X146984838Y-104326799D01*
X146985162Y-103954833D01*
X146850944Y-103630000D01*
X147019890Y-103630000D01*
X147019838Y-103690167D01*
X147161883Y-104033943D01*
X147195000Y-104067118D01*
X147195000Y-106117537D01*
X147162808Y-106149673D01*
X147020162Y-106493201D01*
X147019838Y-106865167D01*
X147161883Y-107208943D01*
X147424673Y-107472192D01*
X147768201Y-107614838D01*
X148140167Y-107615162D01*
X148483943Y-107473117D01*
X148589954Y-107367290D01*
X148694673Y-107472192D01*
X149038201Y-107614838D01*
X149410167Y-107615162D01*
X149753943Y-107473117D01*
X150017192Y-107210327D01*
X150090186Y-107034539D01*
X150316077Y-107260824D01*
X150843309Y-107479750D01*
X151414187Y-107480248D01*
X151941800Y-107262243D01*
X152345824Y-106858923D01*
X152564750Y-106331691D01*
X152565024Y-106016887D01*
X153505000Y-106016887D01*
X153505000Y-106073113D01*
X153614233Y-106622264D01*
X153925302Y-107087811D01*
X154390849Y-107398880D01*
X154940000Y-107508113D01*
X155489151Y-107398880D01*
X155954698Y-107087811D01*
X156265767Y-106622264D01*
X156375000Y-106073113D01*
X156375000Y-106016887D01*
X156265767Y-105467736D01*
X155954698Y-105002189D01*
X155489151Y-104691120D01*
X154940000Y-104581887D01*
X154390849Y-104691120D01*
X153925302Y-105002189D01*
X153614233Y-105467736D01*
X153505000Y-106016887D01*
X152565024Y-106016887D01*
X152565248Y-105760813D01*
X152347243Y-105233200D01*
X151943923Y-104829176D01*
X151416691Y-104610250D01*
X150845813Y-104609752D01*
X150318200Y-104827757D01*
X150090156Y-105055404D01*
X150018117Y-104881057D01*
X149755327Y-104617808D01*
X149411799Y-104475162D01*
X149039833Y-104474838D01*
X148715000Y-104609056D01*
X148715000Y-104067463D01*
X148747192Y-104035327D01*
X148856765Y-103771446D01*
X149118943Y-103663117D01*
X149382192Y-103400327D01*
X149524838Y-103056799D01*
X149525162Y-102684833D01*
X149383117Y-102341057D01*
X149120327Y-102077808D01*
X148776799Y-101935162D01*
X148404833Y-101934838D01*
X148061057Y-102076883D01*
X148027882Y-102110000D01*
X141532463Y-102110000D01*
X141500327Y-102077808D01*
X141156799Y-101935162D01*
X140784833Y-101934838D01*
X140441057Y-102076883D01*
X140177808Y-102339673D01*
X140035162Y-102683201D01*
X140034838Y-103055167D01*
X128246402Y-103055167D01*
X128147054Y-102555715D01*
X127825147Y-102073946D01*
X127495974Y-101854000D01*
X127825147Y-101634054D01*
X128147054Y-101152285D01*
X128260093Y-100584000D01*
X128147054Y-100015715D01*
X127825147Y-99533946D01*
X127495974Y-99314000D01*
X127825147Y-99094054D01*
X128147054Y-98612285D01*
X128260093Y-98044000D01*
X128176919Y-97625854D01*
X129124457Y-97625854D01*
X129600727Y-98778515D01*
X130481847Y-99661174D01*
X131633674Y-100139454D01*
X132880854Y-100140543D01*
X134033515Y-99664273D01*
X134916174Y-98783153D01*
X134946887Y-98709187D01*
X137784752Y-98709187D01*
X138002757Y-99236800D01*
X138406077Y-99640824D01*
X138933309Y-99859750D01*
X139504187Y-99860248D01*
X140031800Y-99642243D01*
X140435824Y-99238923D01*
X140605146Y-98831150D01*
X140772757Y-99236800D01*
X141176077Y-99640824D01*
X141703309Y-99859750D01*
X142274187Y-99860248D01*
X142801800Y-99642243D01*
X143205824Y-99238923D01*
X143375146Y-98831150D01*
X143542757Y-99236800D01*
X143946077Y-99640824D01*
X144473309Y-99859750D01*
X145044187Y-99860248D01*
X145571800Y-99642243D01*
X145975824Y-99238923D01*
X146145146Y-98831150D01*
X146312757Y-99236800D01*
X146716077Y-99640824D01*
X147243309Y-99859750D01*
X147814187Y-99860248D01*
X148341800Y-99642243D01*
X148745824Y-99238923D01*
X148852560Y-98981874D01*
X148852560Y-99225000D01*
X148896838Y-99460317D01*
X149035910Y-99676441D01*
X149248110Y-99821431D01*
X149500000Y-99872440D01*
X151100000Y-99872440D01*
X151335317Y-99828162D01*
X151551441Y-99689090D01*
X151696431Y-99476890D01*
X151747440Y-99225000D01*
X151747440Y-97625000D01*
X151703162Y-97389683D01*
X151564090Y-97173559D01*
X151351890Y-97028569D01*
X151100000Y-96977560D01*
X149500000Y-96977560D01*
X149264683Y-97021838D01*
X149048559Y-97160910D01*
X148903569Y-97373110D01*
X148852560Y-97625000D01*
X148852560Y-97868087D01*
X148747243Y-97613200D01*
X148343923Y-97209176D01*
X147816691Y-96990250D01*
X147245813Y-96989752D01*
X146718200Y-97207757D01*
X146314176Y-97611077D01*
X146144854Y-98018850D01*
X145977243Y-97613200D01*
X145573923Y-97209176D01*
X145046691Y-96990250D01*
X144475813Y-96989752D01*
X143948200Y-97207757D01*
X143544176Y-97611077D01*
X143374854Y-98018850D01*
X143207243Y-97613200D01*
X142803923Y-97209176D01*
X142276691Y-96990250D01*
X141705813Y-96989752D01*
X141178200Y-97207757D01*
X140774176Y-97611077D01*
X140604854Y-98018850D01*
X140437243Y-97613200D01*
X140033923Y-97209176D01*
X139506691Y-96990250D01*
X138935813Y-96989752D01*
X138408200Y-97207757D01*
X138004176Y-97611077D01*
X137785250Y-98138309D01*
X137784752Y-98709187D01*
X134946887Y-98709187D01*
X135394454Y-97631326D01*
X135395543Y-96384146D01*
X135182767Y-95869187D01*
X139169752Y-95869187D01*
X139387757Y-96396800D01*
X139791077Y-96800824D01*
X140318309Y-97019750D01*
X140889187Y-97020248D01*
X141416800Y-96802243D01*
X141820824Y-96398923D01*
X141990146Y-95991150D01*
X142157757Y-96396800D01*
X142561077Y-96800824D01*
X143088309Y-97019750D01*
X143659187Y-97020248D01*
X144186800Y-96802243D01*
X144590824Y-96398923D01*
X144760146Y-95991150D01*
X144927757Y-96396800D01*
X145331077Y-96800824D01*
X145858309Y-97019750D01*
X146429187Y-97020248D01*
X146956800Y-96802243D01*
X147360824Y-96398923D01*
X147530146Y-95991150D01*
X147697757Y-96396800D01*
X148101077Y-96800824D01*
X148628309Y-97019750D01*
X149199187Y-97020248D01*
X149726800Y-96802243D01*
X150130824Y-96398923D01*
X150349750Y-95871691D01*
X150350248Y-95300813D01*
X150132243Y-94773200D01*
X149728923Y-94369176D01*
X149201691Y-94150250D01*
X148630813Y-94149752D01*
X148103200Y-94367757D01*
X147699176Y-94771077D01*
X147529854Y-95178850D01*
X147362243Y-94773200D01*
X146958923Y-94369176D01*
X146431691Y-94150250D01*
X145860813Y-94149752D01*
X145333200Y-94367757D01*
X144929176Y-94771077D01*
X144759854Y-95178850D01*
X144592243Y-94773200D01*
X144188923Y-94369176D01*
X143661691Y-94150250D01*
X143090813Y-94149752D01*
X142563200Y-94367757D01*
X142159176Y-94771077D01*
X141989854Y-95178850D01*
X141822243Y-94773200D01*
X141418923Y-94369176D01*
X140891691Y-94150250D01*
X140320813Y-94149752D01*
X139793200Y-94367757D01*
X139389176Y-94771077D01*
X139170250Y-95298309D01*
X139169752Y-95869187D01*
X135182767Y-95869187D01*
X134919273Y-95231485D01*
X134038153Y-94348826D01*
X132886326Y-93870546D01*
X131639146Y-93869457D01*
X130486485Y-94345727D01*
X129603826Y-95226847D01*
X129125546Y-96378674D01*
X129124457Y-97625854D01*
X128176919Y-97625854D01*
X128147054Y-97475715D01*
X127825147Y-96993946D01*
X127495974Y-96774000D01*
X127825147Y-96554054D01*
X128147054Y-96072285D01*
X128260093Y-95504000D01*
X128147054Y-94935715D01*
X127825147Y-94453946D01*
X127783548Y-94426150D01*
X127831317Y-94417162D01*
X128047441Y-94278090D01*
X128192431Y-94065890D01*
X128243440Y-93814000D01*
X128243440Y-92114000D01*
X128199162Y-91878683D01*
X128060090Y-91662559D01*
X127847890Y-91517569D01*
X127596000Y-91466560D01*
X125896000Y-91466560D01*
X125660683Y-91510838D01*
X125444559Y-91649910D01*
X125299569Y-91862110D01*
X125248560Y-92114000D01*
X125248560Y-93814000D01*
X125292838Y-94049317D01*
X125431910Y-94265441D01*
X125644110Y-94410431D01*
X125711541Y-94424086D01*
X125666853Y-94453946D01*
X125344946Y-94935715D01*
X125231907Y-95504000D01*
X124031874Y-95504000D01*
X123919273Y-95231485D01*
X123038153Y-94348826D01*
X121886326Y-93870546D01*
X120639146Y-93869457D01*
X119486485Y-94345727D01*
X118603826Y-95226847D01*
X118125546Y-96378674D01*
X118124901Y-97117591D01*
X118005327Y-96997808D01*
X117661799Y-96855162D01*
X117289833Y-96854838D01*
X117034570Y-96960310D01*
X117139838Y-96706799D01*
X117140162Y-96334833D01*
X116998117Y-95991057D01*
X116965000Y-95957882D01*
X116965000Y-95177463D01*
X116997192Y-95145327D01*
X117139838Y-94801799D01*
X117140162Y-94429833D01*
X116998117Y-94086057D01*
X116735327Y-93822808D01*
X116391799Y-93680162D01*
X116019833Y-93679838D01*
X115676057Y-93821883D01*
X115412808Y-94084673D01*
X115270162Y-94428201D01*
X115269838Y-94800167D01*
X115411883Y-95143943D01*
X115445000Y-95177118D01*
X115445000Y-95957537D01*
X115412808Y-95989673D01*
X115270162Y-96333201D01*
X115269838Y-96705167D01*
X115411883Y-97048943D01*
X115476621Y-97113794D01*
X115351890Y-97028569D01*
X115100000Y-96977560D01*
X113500000Y-96977560D01*
X113264683Y-97021838D01*
X113048559Y-97160910D01*
X112903569Y-97373110D01*
X112852560Y-97625000D01*
X112852560Y-97868087D01*
X112747243Y-97613200D01*
X112343923Y-97209176D01*
X111816691Y-96990250D01*
X111245813Y-96989752D01*
X110718200Y-97207757D01*
X110314176Y-97611077D01*
X110144854Y-98018850D01*
X109977243Y-97613200D01*
X109573923Y-97209176D01*
X109046691Y-96990250D01*
X108475813Y-96989752D01*
X107948200Y-97207757D01*
X107544176Y-97611077D01*
X107374854Y-98018850D01*
X107207243Y-97613200D01*
X106803923Y-97209176D01*
X106276691Y-96990250D01*
X105705813Y-96989752D01*
X105178200Y-97207757D01*
X104774176Y-97611077D01*
X104604854Y-98018850D01*
X104437243Y-97613200D01*
X104033923Y-97209176D01*
X103506691Y-96990250D01*
X102935813Y-96989752D01*
X102408200Y-97207757D01*
X102004176Y-97611077D01*
X101785250Y-98138309D01*
X101784752Y-98709187D01*
X98946887Y-98709187D01*
X99394454Y-97631326D01*
X99395543Y-96384146D01*
X99182767Y-95869187D01*
X103169752Y-95869187D01*
X103387757Y-96396800D01*
X103791077Y-96800824D01*
X104318309Y-97019750D01*
X104889187Y-97020248D01*
X105416800Y-96802243D01*
X105820824Y-96398923D01*
X105990146Y-95991150D01*
X106157757Y-96396800D01*
X106561077Y-96800824D01*
X107088309Y-97019750D01*
X107659187Y-97020248D01*
X108186800Y-96802243D01*
X108590824Y-96398923D01*
X108760146Y-95991150D01*
X108927757Y-96396800D01*
X109331077Y-96800824D01*
X109858309Y-97019750D01*
X110429187Y-97020248D01*
X110956800Y-96802243D01*
X111360824Y-96398923D01*
X111530146Y-95991150D01*
X111697757Y-96396800D01*
X112101077Y-96800824D01*
X112628309Y-97019750D01*
X113199187Y-97020248D01*
X113726800Y-96802243D01*
X114130824Y-96398923D01*
X114349750Y-95871691D01*
X114350248Y-95300813D01*
X114132243Y-94773200D01*
X113728923Y-94369176D01*
X113201691Y-94150250D01*
X112630813Y-94149752D01*
X112103200Y-94367757D01*
X111699176Y-94771077D01*
X111529854Y-95178850D01*
X111362243Y-94773200D01*
X110958923Y-94369176D01*
X110431691Y-94150250D01*
X109860813Y-94149752D01*
X109333200Y-94367757D01*
X108929176Y-94771077D01*
X108759854Y-95178850D01*
X108592243Y-94773200D01*
X108188923Y-94369176D01*
X107661691Y-94150250D01*
X107090813Y-94149752D01*
X106563200Y-94367757D01*
X106159176Y-94771077D01*
X105989854Y-95178850D01*
X105822243Y-94773200D01*
X105418923Y-94369176D01*
X104891691Y-94150250D01*
X104320813Y-94149752D01*
X103793200Y-94367757D01*
X103389176Y-94771077D01*
X103170250Y-95298309D01*
X103169752Y-95869187D01*
X99182767Y-95869187D01*
X98919273Y-95231485D01*
X98038153Y-94348826D01*
X96886326Y-93870546D01*
X95639146Y-93869457D01*
X94486485Y-94345727D01*
X93603826Y-95226847D01*
X93420000Y-95669549D01*
X93420000Y-91509930D01*
X93475478Y-91231021D01*
X93593856Y-91053855D01*
X93771019Y-90935479D01*
X94049931Y-90880000D01*
X159315070Y-90880000D01*
X159593979Y-90935478D01*
X159593979Y-90935478D01*
G37*
X159593979Y-90935478D02*
X159771145Y-91053856D01*
X159889521Y-91231019D01*
X159945000Y-91509931D01*
X159945000Y-95293749D01*
X159919273Y-95231485D01*
X159038153Y-94348826D01*
X157886326Y-93870546D01*
X156639146Y-93869457D01*
X155486485Y-94345727D01*
X154603826Y-95226847D01*
X154125546Y-96378674D01*
X154124457Y-97625854D01*
X154600727Y-98778515D01*
X155481847Y-99661174D01*
X156633674Y-100139454D01*
X157880854Y-100140543D01*
X159033515Y-99664273D01*
X159916174Y-98783153D01*
X159945000Y-98713732D01*
X159945000Y-105210918D01*
X159563923Y-104829176D01*
X159036691Y-104610250D01*
X158465813Y-104609752D01*
X157938200Y-104827757D01*
X157534176Y-105231077D01*
X157315250Y-105758309D01*
X157314752Y-106329187D01*
X157532757Y-106856800D01*
X157936077Y-107260824D01*
X158463309Y-107479750D01*
X159034187Y-107480248D01*
X159561800Y-107262243D01*
X159945000Y-106879711D01*
X159945000Y-115432030D01*
X159764698Y-115162189D01*
X159299151Y-114851120D01*
X158750000Y-114741887D01*
X158200849Y-114851120D01*
X157735302Y-115162189D01*
X157424233Y-115627736D01*
X157315000Y-116176887D01*
X157315000Y-116233113D01*
X157424233Y-116782264D01*
X157735302Y-117247811D01*
X158200849Y-117558880D01*
X158750000Y-117668113D01*
X159299151Y-117558880D01*
X159764698Y-117247811D01*
X159945000Y-116977970D01*
X159945000Y-119180918D01*
X159563923Y-118799176D01*
X159036691Y-118580250D01*
X158465813Y-118579752D01*
X157938200Y-118797757D01*
X157534176Y-119201077D01*
X157315250Y-119728309D01*
X157314752Y-120299187D01*
X157532757Y-120826800D01*
X157936077Y-121230824D01*
X158463309Y-121449750D01*
X159034187Y-121450248D01*
X159561800Y-121232243D01*
X159945000Y-120849711D01*
X159945000Y-123038069D01*
X159792811Y-122810302D01*
X159327264Y-122499233D01*
X158778113Y-122390000D01*
X158721887Y-122390000D01*
X158172736Y-122499233D01*
X157707189Y-122810302D01*
X157396120Y-123275849D01*
X157286887Y-123825000D01*
X157396120Y-124374151D01*
X157707189Y-124839698D01*
X158172736Y-125150767D01*
X158721887Y-125260000D01*
X158778113Y-125260000D01*
X159327264Y-125150767D01*
X159792811Y-124839698D01*
X159945000Y-124611931D01*
X159945000Y-126165918D01*
X159563923Y-125784176D01*
X159036691Y-125565250D01*
X158465813Y-125564752D01*
X157938200Y-125782757D01*
X157534176Y-126186077D01*
X157315250Y-126713309D01*
X157314752Y-127284187D01*
X157532757Y-127811800D01*
X157936077Y-128215824D01*
X158463309Y-128434750D01*
X159034187Y-128435248D01*
X159561800Y-128217243D01*
X159945000Y-127834711D01*
X159945000Y-136387030D01*
X159764698Y-136117189D01*
X159299151Y-135806120D01*
X158750000Y-135696887D01*
X158200849Y-135806120D01*
X157735302Y-136117189D01*
X157424233Y-136582736D01*
X157315000Y-137131887D01*
X157315000Y-137188113D01*
X157424233Y-137737264D01*
X157735302Y-138202811D01*
X158200849Y-138513880D01*
X158750000Y-138623113D01*
X159299151Y-138513880D01*
X159764698Y-138202811D01*
X159945000Y-137932970D01*
X159945000Y-139557791D01*
X159605134Y-139182611D01*
X159099041Y-138943086D01*
X158877000Y-139064371D01*
X158877000Y-140208000D01*
X158897000Y-140208000D01*
X158897000Y-140462000D01*
X158877000Y-140462000D01*
X158877000Y-140482000D01*
X158623000Y-140482000D01*
X158623000Y-140462000D01*
X157480085Y-140462000D01*
X157358096Y-140684039D01*
X157518959Y-141072423D01*
X157894866Y-141487389D01*
X157984899Y-141530000D01*
X149424082Y-141530000D01*
X149805824Y-141148923D01*
X150024750Y-140621691D01*
X150025248Y-140050813D01*
X149998452Y-139985961D01*
X157358096Y-139985961D01*
X157480085Y-140208000D01*
X158623000Y-140208000D01*
X158623000Y-139064371D01*
X158400959Y-138943086D01*
X157894866Y-139182611D01*
X157518959Y-139597577D01*
X157358096Y-139985961D01*
X149998452Y-139985961D01*
X149807243Y-139523200D01*
X149403923Y-139119176D01*
X148876691Y-138900250D01*
X148305813Y-138899752D01*
X147778200Y-139117757D01*
X147374176Y-139521077D01*
X147155250Y-140048309D01*
X147154752Y-140619187D01*
X147372757Y-141146800D01*
X147755289Y-141530000D01*
X105540101Y-141530000D01*
X105630134Y-141487389D01*
X106006041Y-141072423D01*
X106166904Y-140684039D01*
X106044915Y-140462000D01*
X104902000Y-140462000D01*
X104902000Y-140482000D01*
X104648000Y-140482000D01*
X104648000Y-140462000D01*
X103505085Y-140462000D01*
X103383096Y-140684039D01*
X103543959Y-141072423D01*
X103919866Y-141487389D01*
X104009899Y-141530000D01*
X95449082Y-141530000D01*
X95830824Y-141148923D01*
X96049750Y-140621691D01*
X96050248Y-140050813D01*
X96023452Y-139985961D01*
X103383096Y-139985961D01*
X103505085Y-140208000D01*
X104648000Y-140208000D01*
X104648000Y-139064371D01*
X104902000Y-139064371D01*
X104902000Y-140208000D01*
X106044915Y-140208000D01*
X106166904Y-139985961D01*
X106006041Y-139597577D01*
X105630134Y-139182611D01*
X105124041Y-138943086D01*
X104902000Y-139064371D01*
X104648000Y-139064371D01*
X104425959Y-138943086D01*
X103919866Y-139182611D01*
X103543959Y-139597577D01*
X103383096Y-139985961D01*
X96023452Y-139985961D01*
X95832243Y-139523200D01*
X95428923Y-139119176D01*
X94901691Y-138900250D01*
X94330813Y-138899752D01*
X93803200Y-139117757D01*
X93420000Y-139500289D01*
X93420000Y-137509041D01*
X98938086Y-137509041D01*
X99177611Y-138015134D01*
X99592577Y-138391041D01*
X99980961Y-138551904D01*
X100203000Y-138429915D01*
X100203000Y-137287000D01*
X100457000Y-137287000D01*
X100457000Y-138429915D01*
X100679039Y-138551904D01*
X101067423Y-138391041D01*
X101482389Y-138015134D01*
X101721914Y-137509041D01*
X101600629Y-137287000D01*
X100457000Y-137287000D01*
X100203000Y-137287000D01*
X99059371Y-137287000D01*
X98938086Y-137509041D01*
X93420000Y-137509041D01*
X93420000Y-137131887D01*
X102705000Y-137131887D01*
X102705000Y-137188113D01*
X102814233Y-137737264D01*
X103125302Y-138202811D01*
X103590849Y-138513880D01*
X104140000Y-138623113D01*
X104689151Y-138513880D01*
X105154698Y-138202811D01*
X105465767Y-137737264D01*
X105511163Y-137509041D01*
X153548086Y-137509041D01*
X153787611Y-138015134D01*
X154202577Y-138391041D01*
X154590961Y-138551904D01*
X154813000Y-138429915D01*
X154813000Y-137287000D01*
X155067000Y-137287000D01*
X155067000Y-138429915D01*
X155289039Y-138551904D01*
X155677423Y-138391041D01*
X156092389Y-138015134D01*
X156331914Y-137509041D01*
X156210629Y-137287000D01*
X155067000Y-137287000D01*
X154813000Y-137287000D01*
X153669371Y-137287000D01*
X153548086Y-137509041D01*
X105511163Y-137509041D01*
X105575000Y-137188113D01*
X105575000Y-137131887D01*
X105511164Y-136810959D01*
X153548086Y-136810959D01*
X153669371Y-137033000D01*
X154813000Y-137033000D01*
X154813000Y-135890085D01*
X155067000Y-135890085D01*
X155067000Y-137033000D01*
X156210629Y-137033000D01*
X156331914Y-136810959D01*
X156092389Y-136304866D01*
X155677423Y-135928959D01*
X155289039Y-135768096D01*
X155067000Y-135890085D01*
X154813000Y-135890085D01*
X154590961Y-135768096D01*
X154202577Y-135928959D01*
X153787611Y-136304866D01*
X153548086Y-136810959D01*
X105511164Y-136810959D01*
X105465767Y-136582736D01*
X105154698Y-136117189D01*
X104689151Y-135806120D01*
X104140000Y-135696887D01*
X103590849Y-135806120D01*
X103125302Y-136117189D01*
X102814233Y-136582736D01*
X102705000Y-137131887D01*
X93420000Y-137131887D01*
X93420000Y-136810959D01*
X98938086Y-136810959D01*
X99059371Y-137033000D01*
X100203000Y-137033000D01*
X100203000Y-135890085D01*
X100457000Y-135890085D01*
X100457000Y-137033000D01*
X101600629Y-137033000D01*
X101721914Y-136810959D01*
X101482389Y-136304866D01*
X101067423Y-135928959D01*
X100679039Y-135768096D01*
X100457000Y-135890085D01*
X100203000Y-135890085D01*
X99980961Y-135768096D01*
X99592577Y-135928959D01*
X99177611Y-136304866D01*
X98938086Y-136810959D01*
X93420000Y-136810959D01*
X93420000Y-133860000D01*
X95112560Y-133860000D01*
X95112560Y-135380000D01*
X95156838Y-135615317D01*
X95295910Y-135831441D01*
X95508110Y-135976431D01*
X95760000Y-136027440D01*
X97280000Y-136027440D01*
X97515317Y-135983162D01*
X97731441Y-135844090D01*
X97876431Y-135631890D01*
X97927440Y-135380000D01*
X97927440Y-133860000D01*
X97883162Y-133624683D01*
X97744090Y-133408559D01*
X97531890Y-133263569D01*
X97346520Y-133226031D01*
X97701934Y-132871236D01*
X97815867Y-132596854D01*
X106917457Y-132596854D01*
X107393727Y-133749515D01*
X108274847Y-134632174D01*
X109426674Y-135110454D01*
X110673854Y-135111543D01*
X111826515Y-134635273D01*
X112709174Y-133754153D01*
X112739887Y-133680187D01*
X116957752Y-133680187D01*
X117175757Y-134207800D01*
X117579077Y-134611824D01*
X118106309Y-134830750D01*
X118677187Y-134831248D01*
X119204800Y-134613243D01*
X119608824Y-134209923D01*
X119778146Y-133802150D01*
X119945757Y-134207800D01*
X120349077Y-134611824D01*
X120876309Y-134830750D01*
X121447187Y-134831248D01*
X121974800Y-134613243D01*
X122378824Y-134209923D01*
X122548146Y-133802150D01*
X122715757Y-134207800D01*
X123119077Y-134611824D01*
X123646309Y-134830750D01*
X124217187Y-134831248D01*
X124744800Y-134613243D01*
X125148824Y-134209923D01*
X125318146Y-133802150D01*
X125485757Y-134207800D01*
X125889077Y-134611824D01*
X126416309Y-134830750D01*
X126987187Y-134831248D01*
X127514800Y-134613243D01*
X127918824Y-134209923D01*
X128088146Y-133802150D01*
X128255757Y-134207800D01*
X128659077Y-134611824D01*
X129186309Y-134830750D01*
X129757187Y-134831248D01*
X130284800Y-134613243D01*
X130688824Y-134209923D01*
X130858146Y-133802150D01*
X131025757Y-134207800D01*
X131429077Y-134611824D01*
X131956309Y-134830750D01*
X132527187Y-134831248D01*
X133054800Y-134613243D01*
X133458824Y-134209923D01*
X133628146Y-133802150D01*
X133795757Y-134207800D01*
X134199077Y-134611824D01*
X134726309Y-134830750D01*
X135297187Y-134831248D01*
X135824800Y-134613243D01*
X136228824Y-134209923D01*
X136447750Y-133682691D01*
X136448248Y-133111813D01*
X136235472Y-132596854D01*
X140217457Y-132596854D01*
X140693727Y-133749515D01*
X141574847Y-134632174D01*
X142726674Y-135110454D01*
X143973854Y-135111543D01*
X145126515Y-134635273D01*
X145903142Y-133860000D01*
X149722560Y-133860000D01*
X149722560Y-135380000D01*
X149766838Y-135615317D01*
X149905910Y-135831441D01*
X150118110Y-135976431D01*
X150370000Y-136027440D01*
X151890000Y-136027440D01*
X152125317Y-135983162D01*
X152341441Y-135844090D01*
X152486431Y-135631890D01*
X152537440Y-135380000D01*
X152537440Y-133860000D01*
X152493162Y-133624683D01*
X152354090Y-133408559D01*
X152141890Y-133263569D01*
X151956520Y-133226031D01*
X152311934Y-132871236D01*
X152524758Y-132358700D01*
X152525242Y-131803735D01*
X152313313Y-131290828D01*
X151921236Y-130898066D01*
X151725066Y-130816609D01*
X151859941Y-130760742D01*
X151929159Y-130518764D01*
X151130000Y-129719605D01*
X150330841Y-130518764D01*
X150400059Y-130760742D01*
X150544862Y-130812382D01*
X150340828Y-130896687D01*
X149948066Y-131288764D01*
X149735242Y-131801300D01*
X149734758Y-132356265D01*
X149946687Y-132869172D01*
X150302210Y-133225316D01*
X150134683Y-133256838D01*
X149918559Y-133395910D01*
X149773569Y-133608110D01*
X149722560Y-133860000D01*
X145903142Y-133860000D01*
X146009174Y-133754153D01*
X146487454Y-132602326D01*
X146488543Y-131355146D01*
X146012273Y-130202485D01*
X145144085Y-129332780D01*
X149722845Y-129332780D01*
X149750659Y-129887049D01*
X149909258Y-130269941D01*
X150151236Y-130339159D01*
X150950395Y-129540000D01*
X151309605Y-129540000D01*
X152108764Y-130339159D01*
X152350742Y-130269941D01*
X152537155Y-129747220D01*
X152509341Y-129192951D01*
X152350742Y-128810059D01*
X152108764Y-128740841D01*
X151309605Y-129540000D01*
X150950395Y-129540000D01*
X150151236Y-128740841D01*
X149909258Y-128810059D01*
X149722845Y-129332780D01*
X145144085Y-129332780D01*
X145131153Y-129319826D01*
X143979326Y-128841546D01*
X142732146Y-128840457D01*
X141579485Y-129316727D01*
X140696826Y-130197847D01*
X140218546Y-131349674D01*
X140217457Y-132596854D01*
X136235472Y-132596854D01*
X136230243Y-132584200D01*
X135826923Y-132180176D01*
X135299691Y-131961250D01*
X134728813Y-131960752D01*
X134201200Y-132178757D01*
X133797176Y-132582077D01*
X133627854Y-132989850D01*
X133460243Y-132584200D01*
X133056923Y-132180176D01*
X132529691Y-131961250D01*
X131958813Y-131960752D01*
X131431200Y-132178757D01*
X131027176Y-132582077D01*
X130857854Y-132989850D01*
X130690243Y-132584200D01*
X130286923Y-132180176D01*
X129759691Y-131961250D01*
X129188813Y-131960752D01*
X128661200Y-132178757D01*
X128257176Y-132582077D01*
X128087854Y-132989850D01*
X127920243Y-132584200D01*
X127516923Y-132180176D01*
X126989691Y-131961250D01*
X126418813Y-131960752D01*
X125891200Y-132178757D01*
X125487176Y-132582077D01*
X125317854Y-132989850D01*
X125150243Y-132584200D01*
X124746923Y-132180176D01*
X124219691Y-131961250D01*
X123648813Y-131960752D01*
X123121200Y-132178757D01*
X122717176Y-132582077D01*
X122547854Y-132989850D01*
X122380243Y-132584200D01*
X121976923Y-132180176D01*
X121449691Y-131961250D01*
X120878813Y-131960752D01*
X120351200Y-132178757D01*
X119947176Y-132582077D01*
X119777854Y-132989850D01*
X119610243Y-132584200D01*
X119206923Y-132180176D01*
X118679691Y-131961250D01*
X118108813Y-131960752D01*
X117581200Y-132178757D01*
X117177176Y-132582077D01*
X116958250Y-133109309D01*
X116957752Y-133680187D01*
X112739887Y-133680187D01*
X113187454Y-132602326D01*
X113188360Y-131563745D01*
X116179861Y-131563745D01*
X116253995Y-131809864D01*
X116791223Y-132002965D01*
X117361454Y-131975778D01*
X117762005Y-131809864D01*
X117836139Y-131563745D01*
X117008000Y-130735605D01*
X116179861Y-131563745D01*
X113188360Y-131563745D01*
X113188543Y-131355146D01*
X112768773Y-130339223D01*
X115561035Y-130339223D01*
X115588222Y-130909454D01*
X115754136Y-131310005D01*
X116000255Y-131384139D01*
X116828395Y-130556000D01*
X117187605Y-130556000D01*
X118015745Y-131384139D01*
X118261864Y-131310005D01*
X118389804Y-130954062D01*
X118560757Y-131367800D01*
X118964077Y-131771824D01*
X119491309Y-131990750D01*
X120062187Y-131991248D01*
X120589800Y-131773243D01*
X120993824Y-131369923D01*
X121163146Y-130962150D01*
X121330757Y-131367800D01*
X121734077Y-131771824D01*
X122261309Y-131990750D01*
X122832187Y-131991248D01*
X123359800Y-131773243D01*
X123763824Y-131369923D01*
X123933146Y-130962150D01*
X124100757Y-131367800D01*
X124504077Y-131771824D01*
X125031309Y-131990750D01*
X125602187Y-131991248D01*
X126129800Y-131773243D01*
X126533824Y-131369923D01*
X126703146Y-130962150D01*
X126870757Y-131367800D01*
X127274077Y-131771824D01*
X127801309Y-131990750D01*
X128372187Y-131991248D01*
X128899800Y-131773243D01*
X129303824Y-131369923D01*
X129473146Y-130962150D01*
X129640757Y-131367800D01*
X130044077Y-131771824D01*
X130571309Y-131990750D01*
X131142187Y-131991248D01*
X131669800Y-131773243D01*
X132073824Y-131369923D01*
X132243146Y-130962150D01*
X132410757Y-131367800D01*
X132814077Y-131771824D01*
X133341309Y-131990750D01*
X133912187Y-131991248D01*
X134439800Y-131773243D01*
X134843824Y-131369923D01*
X134950560Y-131112874D01*
X134950560Y-131356000D01*
X134994838Y-131591317D01*
X135133910Y-131807441D01*
X135346110Y-131952431D01*
X135598000Y-132003440D01*
X137198000Y-132003440D01*
X137433317Y-131959162D01*
X137649441Y-131820090D01*
X137794431Y-131607890D01*
X137845440Y-131356000D01*
X137845440Y-129756000D01*
X137801162Y-129520683D01*
X137662090Y-129304559D01*
X137449890Y-129159569D01*
X137198000Y-129108560D01*
X135598000Y-129108560D01*
X135362683Y-129152838D01*
X135146559Y-129291910D01*
X135001569Y-129504110D01*
X134950560Y-129756000D01*
X134950560Y-129999087D01*
X134845243Y-129744200D01*
X134441923Y-129340176D01*
X133914691Y-129121250D01*
X133343813Y-129120752D01*
X132816200Y-129338757D01*
X132412176Y-129742077D01*
X132242854Y-130149850D01*
X132075243Y-129744200D01*
X131671923Y-129340176D01*
X131144691Y-129121250D01*
X130573813Y-129120752D01*
X130046200Y-129338757D01*
X129642176Y-129742077D01*
X129472854Y-130149850D01*
X129305243Y-129744200D01*
X128901923Y-129340176D01*
X128848000Y-129317785D01*
X128848000Y-128561236D01*
X150330841Y-128561236D01*
X151130000Y-129360395D01*
X151929159Y-128561236D01*
X151859941Y-128319258D01*
X151337220Y-128132845D01*
X150782951Y-128160659D01*
X150400059Y-128319258D01*
X150330841Y-128561236D01*
X128848000Y-128561236D01*
X128848000Y-127284187D01*
X153504752Y-127284187D01*
X153722757Y-127811800D01*
X154126077Y-128215824D01*
X154653309Y-128434750D01*
X155224187Y-128435248D01*
X155751800Y-128217243D01*
X156155824Y-127813923D01*
X156374750Y-127286691D01*
X156375248Y-126715813D01*
X156157243Y-126188200D01*
X155753923Y-125784176D01*
X155226691Y-125565250D01*
X154655813Y-125564752D01*
X154128200Y-125782757D01*
X153724176Y-126186077D01*
X153505250Y-126713309D01*
X153504752Y-127284187D01*
X128848000Y-127284187D01*
X128848000Y-127109146D01*
X129062192Y-126895327D01*
X129204838Y-126551799D01*
X129205162Y-126179833D01*
X129063117Y-125836057D01*
X128800327Y-125572808D01*
X128536446Y-125463235D01*
X128428117Y-125201057D01*
X128165327Y-124937808D01*
X127821799Y-124795162D01*
X127449833Y-124794838D01*
X127106057Y-124936883D01*
X126842808Y-125199673D01*
X126700162Y-125543201D01*
X126700121Y-125590077D01*
X126462599Y-125827599D01*
X126297852Y-126074161D01*
X126240000Y-126365000D01*
X126240000Y-128342537D01*
X126207808Y-128374673D01*
X126065162Y-128718201D01*
X126064838Y-129090167D01*
X126193716Y-129402077D01*
X126131923Y-129340176D01*
X125604691Y-129121250D01*
X125033813Y-129120752D01*
X124506200Y-129338757D01*
X124102176Y-129742077D01*
X123932854Y-130149850D01*
X123765243Y-129744200D01*
X123361923Y-129340176D01*
X122834691Y-129121250D01*
X122263813Y-129120752D01*
X121736200Y-129338757D01*
X121332176Y-129742077D01*
X121162854Y-130149850D01*
X120995243Y-129744200D01*
X120591923Y-129340176D01*
X120064691Y-129121250D01*
X119493813Y-129120752D01*
X118966200Y-129338757D01*
X118562176Y-129742077D01*
X118399410Y-130134060D01*
X118261864Y-129801995D01*
X118015745Y-129727861D01*
X117187605Y-130556000D01*
X116828395Y-130556000D01*
X116000255Y-129727861D01*
X115754136Y-129801995D01*
X115561035Y-130339223D01*
X112768773Y-130339223D01*
X112712273Y-130202485D01*
X112059184Y-129548255D01*
X116179861Y-129548255D01*
X117008000Y-130376395D01*
X117836139Y-129548255D01*
X117762005Y-129302136D01*
X117224777Y-129109035D01*
X116654546Y-129136222D01*
X116253995Y-129302136D01*
X116179861Y-129548255D01*
X112059184Y-129548255D01*
X111831153Y-129319826D01*
X110679326Y-128841546D01*
X109432146Y-128840457D01*
X108279485Y-129316727D01*
X107396826Y-130197847D01*
X106918546Y-131349674D01*
X106917457Y-132596854D01*
X97815867Y-132596854D01*
X97914758Y-132358700D01*
X97915242Y-131803735D01*
X97703313Y-131290828D01*
X97311236Y-130898066D01*
X97115066Y-130816609D01*
X97249941Y-130760742D01*
X97319159Y-130518764D01*
X96520000Y-129719605D01*
X95720841Y-130518764D01*
X95790059Y-130760742D01*
X95934862Y-130812382D01*
X95730828Y-130896687D01*
X95338066Y-131288764D01*
X95125242Y-131801300D01*
X95124758Y-132356265D01*
X95336687Y-132869172D01*
X95692210Y-133225316D01*
X95524683Y-133256838D01*
X95308559Y-133395910D01*
X95163569Y-133608110D01*
X95112560Y-133860000D01*
X93420000Y-133860000D01*
X93420000Y-129332780D01*
X95112845Y-129332780D01*
X95140659Y-129887049D01*
X95299258Y-130269941D01*
X95541236Y-130339159D01*
X96340395Y-129540000D01*
X96699605Y-129540000D01*
X97498764Y-130339159D01*
X97740742Y-130269941D01*
X97927155Y-129747220D01*
X97899341Y-129192951D01*
X97740742Y-128810059D01*
X97498764Y-128740841D01*
X96699605Y-129540000D01*
X96340395Y-129540000D01*
X95541236Y-128740841D01*
X95299258Y-128810059D01*
X95112845Y-129332780D01*
X93420000Y-129332780D01*
X93420000Y-128561236D01*
X95720841Y-128561236D01*
X96520000Y-129360395D01*
X97319159Y-128561236D01*
X97249941Y-128319258D01*
X96727220Y-128132845D01*
X96172951Y-128160659D01*
X95790059Y-128319258D01*
X95720841Y-128561236D01*
X93420000Y-128561236D01*
X93420000Y-127284187D01*
X98894752Y-127284187D01*
X99112757Y-127811800D01*
X99516077Y-128215824D01*
X100043309Y-128434750D01*
X100614187Y-128435248D01*
X101141800Y-128217243D01*
X101545824Y-127813923D01*
X101764750Y-127286691D01*
X101764752Y-127284187D01*
X102704752Y-127284187D01*
X102922757Y-127811800D01*
X103326077Y-128215824D01*
X103853309Y-128434750D01*
X104424187Y-128435248D01*
X104951800Y-128217243D01*
X105355824Y-127813923D01*
X105574750Y-127286691D01*
X105575248Y-126715813D01*
X105357243Y-126188200D01*
X104953923Y-125784176D01*
X104426691Y-125565250D01*
X103855813Y-125564752D01*
X103328200Y-125782757D01*
X102924176Y-126186077D01*
X102705250Y-126713309D01*
X102704752Y-127284187D01*
X101764752Y-127284187D01*
X101765248Y-126715813D01*
X101547243Y-126188200D01*
X101143923Y-125784176D01*
X100616691Y-125565250D01*
X100045813Y-125564752D01*
X99518200Y-125782757D01*
X99114176Y-126186077D01*
X98895250Y-126713309D01*
X98894752Y-127284187D01*
X93420000Y-127284187D01*
X93420000Y-124659082D01*
X93801077Y-125040824D01*
X94328309Y-125259750D01*
X94899187Y-125260248D01*
X95426800Y-125042243D01*
X95830824Y-124638923D01*
X96049750Y-124111691D01*
X96050000Y-123825000D01*
X103311887Y-123825000D01*
X103421120Y-124374151D01*
X103732189Y-124839698D01*
X104197736Y-125150767D01*
X104746887Y-125260000D01*
X104803113Y-125260000D01*
X105352264Y-125150767D01*
X105817811Y-124839698D01*
X106128880Y-124374151D01*
X106238113Y-123825000D01*
X106128880Y-123275849D01*
X105817811Y-122810302D01*
X105352264Y-122499233D01*
X104803113Y-122390000D01*
X104746887Y-122390000D01*
X104197736Y-122499233D01*
X103732189Y-122810302D01*
X103421120Y-123275849D01*
X103311887Y-123825000D01*
X96050000Y-123825000D01*
X96050248Y-123540813D01*
X95832243Y-123013200D01*
X95428923Y-122609176D01*
X94901691Y-122390250D01*
X94330813Y-122389752D01*
X93803200Y-122607757D01*
X93420000Y-122990289D01*
X93420000Y-120801931D01*
X93572189Y-121029698D01*
X94037736Y-121340767D01*
X94586887Y-121450000D01*
X94643113Y-121450000D01*
X95192264Y-121340767D01*
X95657811Y-121029698D01*
X95968880Y-120564151D01*
X96021584Y-120299187D01*
X103339752Y-120299187D01*
X103557757Y-120826800D01*
X103961077Y-121230824D01*
X104488309Y-121449750D01*
X105059187Y-121450248D01*
X105586800Y-121232243D01*
X105990824Y-120828923D01*
X106209750Y-120301691D01*
X106210248Y-119730813D01*
X105992243Y-119203200D01*
X105719686Y-118930167D01*
X110189838Y-118930167D01*
X110331883Y-119273943D01*
X110365000Y-119307118D01*
X110365000Y-123190000D01*
X110422852Y-123480839D01*
X110587599Y-123727401D01*
X111459878Y-124599680D01*
X111459838Y-124645167D01*
X111601883Y-124988943D01*
X111864673Y-125252192D01*
X112208201Y-125394838D01*
X112580167Y-125395162D01*
X112923943Y-125253117D01*
X113187192Y-124990327D01*
X113329838Y-124646799D01*
X113330162Y-124274833D01*
X113261719Y-124109187D01*
X147154752Y-124109187D01*
X147372757Y-124636800D01*
X147776077Y-125040824D01*
X148303309Y-125259750D01*
X148874187Y-125260248D01*
X149401800Y-125042243D01*
X149805824Y-124638923D01*
X150024750Y-124111691D01*
X150025248Y-123540813D01*
X149807243Y-123013200D01*
X149403923Y-122609176D01*
X148876691Y-122390250D01*
X148305813Y-122389752D01*
X147778200Y-122607757D01*
X147374176Y-123011077D01*
X147155250Y-123538309D01*
X147154752Y-124109187D01*
X113261719Y-124109187D01*
X113188117Y-123931057D01*
X112925327Y-123667808D01*
X112581799Y-123525162D01*
X112534923Y-123525121D01*
X111885000Y-122875198D01*
X111885000Y-119307463D01*
X111917192Y-119275327D01*
X112059838Y-118931799D01*
X112060162Y-118559833D01*
X112016336Y-118453764D01*
X122390841Y-118453764D01*
X122460059Y-118695742D01*
X122982780Y-118882155D01*
X123537049Y-118854341D01*
X123919941Y-118695742D01*
X123989159Y-118453764D01*
X123190000Y-117654605D01*
X122390841Y-118453764D01*
X112016336Y-118453764D01*
X111918117Y-118216057D01*
X111655327Y-117952808D01*
X111311799Y-117810162D01*
X110939833Y-117809838D01*
X110596057Y-117951883D01*
X110332808Y-118214673D01*
X110190162Y-118558201D01*
X110189838Y-118930167D01*
X105719686Y-118930167D01*
X105588923Y-118799176D01*
X105061691Y-118580250D01*
X104490813Y-118579752D01*
X103963200Y-118797757D01*
X103559176Y-119201077D01*
X103340250Y-119728309D01*
X103339752Y-120299187D01*
X96021584Y-120299187D01*
X96078113Y-120015000D01*
X95968880Y-119465849D01*
X95657811Y-119000302D01*
X95192264Y-118689233D01*
X94643113Y-118580000D01*
X94586887Y-118580000D01*
X94037736Y-118689233D01*
X93572189Y-119000302D01*
X93420000Y-119228069D01*
X93420000Y-116970101D01*
X93462611Y-117060134D01*
X93877577Y-117436041D01*
X94265961Y-117596904D01*
X94488000Y-117474915D01*
X94488000Y-116332000D01*
X94742000Y-116332000D01*
X94742000Y-117474915D01*
X94964039Y-117596904D01*
X95352423Y-117436041D01*
X95767389Y-117060134D01*
X96006914Y-116554041D01*
X95885629Y-116332000D01*
X94742000Y-116332000D01*
X94488000Y-116332000D01*
X94468000Y-116332000D01*
X94468000Y-116205000D01*
X96326887Y-116205000D01*
X96436120Y-116754151D01*
X96747189Y-117219698D01*
X97212736Y-117530767D01*
X97761887Y-117640000D01*
X97818113Y-117640000D01*
X98367264Y-117530767D01*
X98832811Y-117219698D01*
X99143880Y-116754151D01*
X99196584Y-116489187D01*
X106514752Y-116489187D01*
X106732757Y-117016800D01*
X107136077Y-117420824D01*
X107663309Y-117639750D01*
X108234187Y-117640248D01*
X108761800Y-117422243D01*
X109165824Y-117018923D01*
X109384750Y-116491691D01*
X109385024Y-116176887D01*
X109690000Y-116176887D01*
X109690000Y-116233113D01*
X109799233Y-116782264D01*
X110110302Y-117247811D01*
X110575849Y-117558880D01*
X111125000Y-117668113D01*
X111674151Y-117558880D01*
X112139698Y-117247811D01*
X112450767Y-116782264D01*
X112509063Y-116489187D01*
X113499752Y-116489187D01*
X113717757Y-117016800D01*
X114121077Y-117420824D01*
X114648309Y-117639750D01*
X115219187Y-117640248D01*
X115746800Y-117422243D01*
X116150824Y-117018923D01*
X116369750Y-116491691D01*
X116370024Y-116176887D01*
X117310000Y-116176887D01*
X117310000Y-116233113D01*
X117419233Y-116782264D01*
X117730302Y-117247811D01*
X118195849Y-117558880D01*
X118745000Y-117668113D01*
X119294151Y-117558880D01*
X119729812Y-117267780D01*
X121782845Y-117267780D01*
X121810659Y-117822049D01*
X121969258Y-118204941D01*
X122211236Y-118274159D01*
X123010395Y-117475000D01*
X123369605Y-117475000D01*
X124168764Y-118274159D01*
X124410742Y-118204941D01*
X124597155Y-117682220D01*
X124569341Y-117127951D01*
X124410742Y-116745059D01*
X124168764Y-116675841D01*
X123369605Y-117475000D01*
X123010395Y-117475000D01*
X122211236Y-116675841D01*
X121969258Y-116745059D01*
X121782845Y-117267780D01*
X119729812Y-117267780D01*
X119759698Y-117247811D01*
X120070767Y-116782264D01*
X120180000Y-116233113D01*
X120180000Y-116176887D01*
X120070767Y-115627736D01*
X119759698Y-115162189D01*
X119294151Y-114851120D01*
X118745000Y-114741887D01*
X118195849Y-114851120D01*
X117730302Y-115162189D01*
X117419233Y-115627736D01*
X117310000Y-116176887D01*
X116370024Y-116176887D01*
X116370248Y-115920813D01*
X116152243Y-115393200D01*
X115748923Y-114989176D01*
X115221691Y-114770250D01*
X114650813Y-114769752D01*
X114123200Y-114987757D01*
X113719176Y-115391077D01*
X113500250Y-115918309D01*
X113499752Y-116489187D01*
X112509063Y-116489187D01*
X112560000Y-116233113D01*
X112560000Y-116176887D01*
X112450767Y-115627736D01*
X112139698Y-115162189D01*
X111674151Y-114851120D01*
X111125000Y-114741887D01*
X110575849Y-114851120D01*
X110110302Y-115162189D01*
X109799233Y-115627736D01*
X109690000Y-116176887D01*
X109385024Y-116176887D01*
X109385248Y-115920813D01*
X109167243Y-115393200D01*
X108763923Y-114989176D01*
X108236691Y-114770250D01*
X107665813Y-114769752D01*
X107138200Y-114987757D01*
X106734176Y-115391077D01*
X106515250Y-115918309D01*
X106514752Y-116489187D01*
X99196584Y-116489187D01*
X99253113Y-116205000D01*
X99143880Y-115655849D01*
X98832811Y-115190302D01*
X98367264Y-114879233D01*
X97818113Y-114770000D01*
X97761887Y-114770000D01*
X97212736Y-114879233D01*
X96747189Y-115190302D01*
X96436120Y-115655849D01*
X96326887Y-116205000D01*
X94468000Y-116205000D01*
X94468000Y-116078000D01*
X94488000Y-116078000D01*
X94488000Y-114935085D01*
X94742000Y-114935085D01*
X94742000Y-116078000D01*
X95885629Y-116078000D01*
X96006914Y-115855959D01*
X95767389Y-115349866D01*
X95352423Y-114973959D01*
X94964039Y-114813096D01*
X94742000Y-114935085D01*
X94488000Y-114935085D01*
X94265961Y-114813096D01*
X93877577Y-114973959D01*
X93462611Y-115349866D01*
X93420000Y-115439899D01*
X93420000Y-112744039D01*
X96398096Y-112744039D01*
X96558959Y-113132423D01*
X96934866Y-113547389D01*
X97440959Y-113786914D01*
X97663000Y-113665629D01*
X97663000Y-112522000D01*
X97917000Y-112522000D01*
X97917000Y-113665629D01*
X98139041Y-113786914D01*
X98645134Y-113547389D01*
X99021041Y-113132423D01*
X99181904Y-112744039D01*
X99146275Y-112679187D01*
X106514752Y-112679187D01*
X106732757Y-113206800D01*
X107136077Y-113610824D01*
X107663309Y-113829750D01*
X108234187Y-113830248D01*
X108761800Y-113612243D01*
X109165824Y-113208923D01*
X109384750Y-112681691D01*
X109385248Y-112110813D01*
X109188647Y-111635000D01*
X121782560Y-111635000D01*
X121782560Y-113155000D01*
X121826838Y-113390317D01*
X121965910Y-113606441D01*
X122178110Y-113751431D01*
X122363480Y-113788969D01*
X122008066Y-114143764D01*
X121795242Y-114656300D01*
X121794758Y-115211265D01*
X122006687Y-115724172D01*
X122398764Y-116116934D01*
X122594934Y-116198391D01*
X122460059Y-116254258D01*
X122390841Y-116496236D01*
X123190000Y-117295395D01*
X123989159Y-116496236D01*
X123958818Y-116390167D01*
X126064838Y-116390167D01*
X126206883Y-116733943D01*
X126469673Y-116997192D01*
X126813201Y-117139838D01*
X126860077Y-117139879D01*
X127510000Y-117789802D01*
X127510000Y-120087537D01*
X127477808Y-120119673D01*
X127335162Y-120463201D01*
X127334838Y-120835167D01*
X127476883Y-121178943D01*
X127739673Y-121442192D01*
X128083201Y-121584838D01*
X128455167Y-121585162D01*
X128798943Y-121443117D01*
X129062192Y-121180327D01*
X129204838Y-120836799D01*
X129205162Y-120464833D01*
X129063117Y-120121057D01*
X129030000Y-120087882D01*
X129030000Y-120015000D01*
X147126887Y-120015000D01*
X147236120Y-120564151D01*
X147547189Y-121029698D01*
X148012736Y-121340767D01*
X148561887Y-121450000D01*
X148618113Y-121450000D01*
X149167264Y-121340767D01*
X149632811Y-121029698D01*
X149943880Y-120564151D01*
X150053113Y-120015000D01*
X149943880Y-119465849D01*
X149632811Y-119000302D01*
X149167264Y-118689233D01*
X148618113Y-118580000D01*
X148561887Y-118580000D01*
X148012736Y-118689233D01*
X147547189Y-119000302D01*
X147236120Y-119465849D01*
X147126887Y-120015000D01*
X129030000Y-120015000D01*
X129030000Y-118740481D01*
X129163110Y-118831431D01*
X129415000Y-118882440D01*
X130935000Y-118882440D01*
X131170317Y-118838162D01*
X131386441Y-118699090D01*
X131531431Y-118486890D01*
X131570255Y-118295167D01*
X131779838Y-118295167D01*
X131921883Y-118638943D01*
X132184673Y-118902192D01*
X132528201Y-119044838D01*
X132900167Y-119045162D01*
X133243943Y-118903117D01*
X133507192Y-118640327D01*
X133649838Y-118296799D01*
X133650162Y-117924833D01*
X133508117Y-117581057D01*
X133245327Y-117317808D01*
X132901799Y-117175162D01*
X132529833Y-117174838D01*
X132186057Y-117316883D01*
X131922808Y-117579673D01*
X131780162Y-117923201D01*
X131779838Y-118295167D01*
X131570255Y-118295167D01*
X131582440Y-118235000D01*
X131582440Y-116715000D01*
X131552154Y-116554041D01*
X133228086Y-116554041D01*
X133467611Y-117060134D01*
X133882577Y-117436041D01*
X134270961Y-117596904D01*
X134493000Y-117474915D01*
X134493000Y-116332000D01*
X134747000Y-116332000D01*
X134747000Y-117474915D01*
X134969039Y-117596904D01*
X135357423Y-117436041D01*
X135772389Y-117060134D01*
X136011914Y-116554041D01*
X135890629Y-116332000D01*
X134747000Y-116332000D01*
X134493000Y-116332000D01*
X133349371Y-116332000D01*
X133228086Y-116554041D01*
X131552154Y-116554041D01*
X131538162Y-116479683D01*
X131399090Y-116263559D01*
X131313387Y-116205000D01*
X136331887Y-116205000D01*
X136441120Y-116754151D01*
X136752189Y-117219698D01*
X137217736Y-117530767D01*
X137766887Y-117640000D01*
X137823113Y-117640000D01*
X138372264Y-117530767D01*
X138837811Y-117219698D01*
X139148880Y-116754151D01*
X139201584Y-116489187D01*
X146519752Y-116489187D01*
X146737757Y-117016800D01*
X147141077Y-117420824D01*
X147668309Y-117639750D01*
X148239187Y-117640248D01*
X148766800Y-117422243D01*
X149170824Y-117018923D01*
X149389750Y-116491691D01*
X149390248Y-115920813D01*
X149172243Y-115393200D01*
X148768923Y-114989176D01*
X148241691Y-114770250D01*
X147670813Y-114769752D01*
X147143200Y-114987757D01*
X146739176Y-115391077D01*
X146520250Y-115918309D01*
X146519752Y-116489187D01*
X139201584Y-116489187D01*
X139258113Y-116205000D01*
X139148880Y-115655849D01*
X138837811Y-115190302D01*
X138372264Y-114879233D01*
X137823113Y-114770000D01*
X137766887Y-114770000D01*
X137217736Y-114879233D01*
X136752189Y-115190302D01*
X136441120Y-115655849D01*
X136331887Y-116205000D01*
X131313387Y-116205000D01*
X131186890Y-116118569D01*
X131001520Y-116081031D01*
X131226984Y-115855959D01*
X133228086Y-115855959D01*
X133349371Y-116078000D01*
X134493000Y-116078000D01*
X134493000Y-114935085D01*
X134747000Y-114935085D01*
X134747000Y-116078000D01*
X135890629Y-116078000D01*
X136011914Y-115855959D01*
X135772389Y-115349866D01*
X135357423Y-114973959D01*
X134969039Y-114813096D01*
X134747000Y-114935085D01*
X134493000Y-114935085D01*
X134270961Y-114813096D01*
X133882577Y-114973959D01*
X133467611Y-115349866D01*
X133228086Y-115855959D01*
X131226984Y-115855959D01*
X131356934Y-115726236D01*
X131569758Y-115213700D01*
X131570242Y-114658735D01*
X131358313Y-114145828D01*
X130966236Y-113753066D01*
X130770066Y-113671609D01*
X130904941Y-113615742D01*
X130974159Y-113373764D01*
X130175000Y-112574605D01*
X129375841Y-113373764D01*
X129445059Y-113615742D01*
X129589862Y-113667382D01*
X129385828Y-113751687D01*
X128993066Y-114143764D01*
X128780242Y-114656300D01*
X128779758Y-115211265D01*
X128991687Y-115724172D01*
X129347210Y-116080316D01*
X129179683Y-116111838D01*
X128963559Y-116250910D01*
X128818569Y-116463110D01*
X128767560Y-116715000D01*
X128767560Y-116897758D01*
X127935122Y-116065320D01*
X127935162Y-116019833D01*
X127793117Y-115676057D01*
X127530327Y-115412808D01*
X127186799Y-115270162D01*
X126814833Y-115269838D01*
X126471057Y-115411883D01*
X126207808Y-115674673D01*
X126065162Y-116018201D01*
X126064838Y-116390167D01*
X123958818Y-116390167D01*
X123919941Y-116254258D01*
X123775138Y-116202618D01*
X123979172Y-116118313D01*
X124371934Y-115726236D01*
X124584758Y-115213700D01*
X124585242Y-114658735D01*
X124373313Y-114145828D01*
X124017790Y-113789684D01*
X124185317Y-113758162D01*
X124401441Y-113619090D01*
X124546431Y-113406890D01*
X124597440Y-113155000D01*
X124597440Y-112187780D01*
X128767845Y-112187780D01*
X128795659Y-112742049D01*
X128954258Y-113124941D01*
X129196236Y-113194159D01*
X129995395Y-112395000D01*
X130354605Y-112395000D01*
X131153764Y-113194159D01*
X131395742Y-113124941D01*
X131531579Y-112744039D01*
X136403096Y-112744039D01*
X136563959Y-113132423D01*
X136939866Y-113547389D01*
X137445959Y-113786914D01*
X137668000Y-113665629D01*
X137668000Y-112522000D01*
X137922000Y-112522000D01*
X137922000Y-113665629D01*
X138144041Y-113786914D01*
X138650134Y-113547389D01*
X139026041Y-113132423D01*
X139186904Y-112744039D01*
X139151275Y-112679187D01*
X146519752Y-112679187D01*
X146737757Y-113206800D01*
X147141077Y-113610824D01*
X147668309Y-113829750D01*
X148239187Y-113830248D01*
X148766800Y-113612243D01*
X149164569Y-113215167D01*
X149559838Y-113215167D01*
X149701883Y-113558943D01*
X149964673Y-113822192D01*
X150308201Y-113964838D01*
X150355077Y-113964879D01*
X150370000Y-113979802D01*
X150370000Y-114992005D01*
X150115302Y-115162189D01*
X149804233Y-115627736D01*
X149695000Y-116176887D01*
X149695000Y-116233113D01*
X149804233Y-116782264D01*
X150115302Y-117247811D01*
X150580849Y-117558880D01*
X151130000Y-117668113D01*
X151657540Y-117563179D01*
X151697852Y-117765839D01*
X151862599Y-118012401D01*
X152099878Y-118249680D01*
X152099838Y-118295167D01*
X152241883Y-118638943D01*
X152504673Y-118902192D01*
X152848201Y-119044838D01*
X153220167Y-119045162D01*
X153563943Y-118903117D01*
X153827192Y-118640327D01*
X153969838Y-118296799D01*
X153970162Y-117924833D01*
X153828117Y-117581057D01*
X153565327Y-117317808D01*
X153221799Y-117175162D01*
X153174923Y-117175121D01*
X153160000Y-117160198D01*
X153160000Y-116489187D01*
X153504752Y-116489187D01*
X153722757Y-117016800D01*
X154126077Y-117420824D01*
X154653309Y-117639750D01*
X155224187Y-117640248D01*
X155751800Y-117422243D01*
X156155824Y-117018923D01*
X156374750Y-116491691D01*
X156375248Y-115920813D01*
X156167289Y-115417513D01*
X156984680Y-114600122D01*
X157030167Y-114600162D01*
X157373943Y-114458117D01*
X157637192Y-114195327D01*
X157779838Y-113851799D01*
X157780162Y-113479833D01*
X157638117Y-113136057D01*
X157375327Y-112872808D01*
X157031799Y-112730162D01*
X156659833Y-112729838D01*
X156316057Y-112871883D01*
X156052808Y-113134673D01*
X155910162Y-113478201D01*
X155910121Y-113525077D01*
X154665438Y-114769760D01*
X154655813Y-114769752D01*
X154128200Y-114987757D01*
X153724176Y-115391077D01*
X153505250Y-115918309D01*
X153504752Y-116489187D01*
X153160000Y-116489187D01*
X153160000Y-114300000D01*
X153102148Y-114009161D01*
X152937401Y-113762599D01*
X152700122Y-113525320D01*
X152700162Y-113479833D01*
X152558117Y-113136057D01*
X152295327Y-112872808D01*
X151951799Y-112730162D01*
X151579833Y-112729838D01*
X151411403Y-112799432D01*
X151288117Y-112501057D01*
X151025327Y-112237808D01*
X150681799Y-112095162D01*
X150309833Y-112094838D01*
X149966057Y-112236883D01*
X149702808Y-112499673D01*
X149560162Y-112843201D01*
X149559838Y-113215167D01*
X149164569Y-113215167D01*
X149170824Y-113208923D01*
X149389750Y-112681691D01*
X149390248Y-112110813D01*
X149172243Y-111583200D01*
X148768923Y-111179176D01*
X148241691Y-110960250D01*
X147670813Y-110959752D01*
X147143200Y-111177757D01*
X146739176Y-111581077D01*
X146520250Y-112108309D01*
X146519752Y-112679187D01*
X139151275Y-112679187D01*
X139064915Y-112522000D01*
X137922000Y-112522000D01*
X137668000Y-112522000D01*
X136525085Y-112522000D01*
X136403096Y-112744039D01*
X131531579Y-112744039D01*
X131582155Y-112602220D01*
X131554341Y-112047951D01*
X131553517Y-112045961D01*
X136403096Y-112045961D01*
X136525085Y-112268000D01*
X137668000Y-112268000D01*
X137668000Y-111124371D01*
X137922000Y-111124371D01*
X137922000Y-112268000D01*
X139064915Y-112268000D01*
X139186904Y-112045961D01*
X139026041Y-111657577D01*
X138650134Y-111242611D01*
X138144041Y-111003086D01*
X137922000Y-111124371D01*
X137668000Y-111124371D01*
X137445959Y-111003086D01*
X136939866Y-111242611D01*
X136563959Y-111657577D01*
X136403096Y-112045961D01*
X131553517Y-112045961D01*
X131395742Y-111665059D01*
X131153764Y-111595841D01*
X130354605Y-112395000D01*
X129995395Y-112395000D01*
X129196236Y-111595841D01*
X128954258Y-111665059D01*
X128767845Y-112187780D01*
X124597440Y-112187780D01*
X124597440Y-111635000D01*
X124556277Y-111416236D01*
X129375841Y-111416236D01*
X130175000Y-112215395D01*
X130974159Y-111416236D01*
X130904941Y-111174258D01*
X130382220Y-110987845D01*
X129827951Y-111015659D01*
X129445059Y-111174258D01*
X129375841Y-111416236D01*
X124556277Y-111416236D01*
X124553162Y-111399683D01*
X124414090Y-111183559D01*
X124201890Y-111038569D01*
X123950000Y-110987560D01*
X122430000Y-110987560D01*
X122194683Y-111031838D01*
X121978559Y-111170910D01*
X121833569Y-111383110D01*
X121782560Y-111635000D01*
X109188647Y-111635000D01*
X109167243Y-111583200D01*
X108763923Y-111179176D01*
X108236691Y-110960250D01*
X107665813Y-110959752D01*
X107138200Y-111177757D01*
X106734176Y-111581077D01*
X106515250Y-112108309D01*
X106514752Y-112679187D01*
X99146275Y-112679187D01*
X99059915Y-112522000D01*
X97917000Y-112522000D01*
X97663000Y-112522000D01*
X96520085Y-112522000D01*
X96398096Y-112744039D01*
X93420000Y-112744039D01*
X93420000Y-112045961D01*
X96398096Y-112045961D01*
X96520085Y-112268000D01*
X97663000Y-112268000D01*
X97663000Y-111124371D01*
X97917000Y-111124371D01*
X97917000Y-112268000D01*
X99059915Y-112268000D01*
X99181904Y-112045961D01*
X99021041Y-111657577D01*
X98645134Y-111242611D01*
X98139041Y-111003086D01*
X97917000Y-111124371D01*
X97663000Y-111124371D01*
X97440959Y-111003086D01*
X96934866Y-111242611D01*
X96558959Y-111657577D01*
X96398096Y-112045961D01*
X93420000Y-112045961D01*
X93420000Y-106879082D01*
X93801077Y-107260824D01*
X94328309Y-107479750D01*
X94899187Y-107480248D01*
X95125000Y-107386944D01*
X95125000Y-107387537D01*
X95092808Y-107419673D01*
X94950162Y-107763201D01*
X94949838Y-108135167D01*
X95091883Y-108478943D01*
X95354673Y-108742192D01*
X95698201Y-108884838D01*
X96070167Y-108885162D01*
X96413943Y-108743117D01*
X96677192Y-108480327D01*
X96801622Y-108180668D01*
X96968201Y-108249838D01*
X97340167Y-108250162D01*
X97683943Y-108108117D01*
X97947192Y-107845327D01*
X97955632Y-107825000D01*
X98922560Y-107825000D01*
X98922560Y-109345000D01*
X98966838Y-109580317D01*
X99105910Y-109796441D01*
X99318110Y-109941431D01*
X99570000Y-109992440D01*
X101090000Y-109992440D01*
X101325317Y-109948162D01*
X101541441Y-109809090D01*
X101686431Y-109596890D01*
X101723969Y-109411520D01*
X102078764Y-109766934D01*
X102591300Y-109979758D01*
X103146265Y-109980242D01*
X103659172Y-109768313D01*
X103864078Y-109563764D01*
X104610841Y-109563764D01*
X104680059Y-109805742D01*
X105202780Y-109992155D01*
X105757049Y-109964341D01*
X106139941Y-109805742D01*
X106209159Y-109563764D01*
X105410000Y-108764605D01*
X104610841Y-109563764D01*
X103864078Y-109563764D01*
X104051934Y-109376236D01*
X104133391Y-109180066D01*
X104189258Y-109314941D01*
X104431236Y-109384159D01*
X105230395Y-108585000D01*
X105589605Y-108585000D01*
X106388764Y-109384159D01*
X106630742Y-109314941D01*
X106817155Y-108792220D01*
X106789341Y-108237951D01*
X106630742Y-107855059D01*
X106388764Y-107785841D01*
X105589605Y-108585000D01*
X105230395Y-108585000D01*
X104431236Y-107785841D01*
X104189258Y-107855059D01*
X104137618Y-107999862D01*
X104053313Y-107795828D01*
X103864052Y-107606236D01*
X104610841Y-107606236D01*
X105410000Y-108405395D01*
X106209159Y-107606236D01*
X106139941Y-107364258D01*
X105617220Y-107177845D01*
X105062951Y-107205659D01*
X104680059Y-107364258D01*
X104610841Y-107606236D01*
X103864052Y-107606236D01*
X103661236Y-107403066D01*
X103148700Y-107190242D01*
X102593735Y-107189758D01*
X102080828Y-107401687D01*
X101724684Y-107757210D01*
X101693162Y-107589683D01*
X101554090Y-107373559D01*
X101341890Y-107228569D01*
X101090000Y-107177560D01*
X99570000Y-107177560D01*
X99334683Y-107221838D01*
X99118559Y-107360910D01*
X98973569Y-107573110D01*
X98922560Y-107825000D01*
X97955632Y-107825000D01*
X98056765Y-107581446D01*
X98318943Y-107473117D01*
X98582192Y-107210327D01*
X98724838Y-106866799D01*
X98725162Y-106494833D01*
X98656719Y-106329187D01*
X109689752Y-106329187D01*
X109907757Y-106856800D01*
X110311077Y-107260824D01*
X110838309Y-107479750D01*
X111409187Y-107480248D01*
X111936800Y-107262243D01*
X112340824Y-106858923D01*
X112559750Y-106331691D01*
X112560024Y-106016887D01*
X113500000Y-106016887D01*
X113500000Y-106073113D01*
X113609233Y-106622264D01*
X113920302Y-107087811D01*
X114385849Y-107398880D01*
X114935000Y-107508113D01*
X115484151Y-107398880D01*
X115949698Y-107087811D01*
X116260767Y-106622264D01*
X116319063Y-106329187D01*
X117309752Y-106329187D01*
X117527757Y-106856800D01*
X117931077Y-107260824D01*
X118458309Y-107479750D01*
X119029187Y-107480248D01*
X119556800Y-107262243D01*
X119960824Y-106858923D01*
X120063701Y-106611167D01*
X122254838Y-106611167D01*
X122396883Y-106954943D01*
X122430000Y-106988118D01*
X122430000Y-107641537D01*
X122397808Y-107673673D01*
X122255162Y-108017201D01*
X122254838Y-108389167D01*
X122396883Y-108732943D01*
X122659673Y-108996192D01*
X123003201Y-109138838D01*
X123375167Y-109139162D01*
X123718943Y-108997117D01*
X123982192Y-108734327D01*
X124124838Y-108390799D01*
X124125162Y-108018833D01*
X124045073Y-107825000D01*
X138927560Y-107825000D01*
X138927560Y-109345000D01*
X138971838Y-109580317D01*
X139110910Y-109796441D01*
X139323110Y-109941431D01*
X139575000Y-109992440D01*
X141095000Y-109992440D01*
X141330317Y-109948162D01*
X141546441Y-109809090D01*
X141691431Y-109596890D01*
X141728969Y-109411520D01*
X142083764Y-109766934D01*
X142596300Y-109979758D01*
X143151265Y-109980242D01*
X143664172Y-109768313D01*
X143869078Y-109563764D01*
X144615841Y-109563764D01*
X144685059Y-109805742D01*
X145207780Y-109992155D01*
X145762049Y-109964341D01*
X146144941Y-109805742D01*
X146214159Y-109563764D01*
X145415000Y-108764605D01*
X144615841Y-109563764D01*
X143869078Y-109563764D01*
X144056934Y-109376236D01*
X144138391Y-109180066D01*
X144194258Y-109314941D01*
X144436236Y-109384159D01*
X145235395Y-108585000D01*
X145594605Y-108585000D01*
X146393764Y-109384159D01*
X146635742Y-109314941D01*
X146822155Y-108792220D01*
X146794341Y-108237951D01*
X146635742Y-107855059D01*
X146393764Y-107785841D01*
X145594605Y-108585000D01*
X145235395Y-108585000D01*
X144436236Y-107785841D01*
X144194258Y-107855059D01*
X144142618Y-107999862D01*
X144058313Y-107795828D01*
X143869052Y-107606236D01*
X144615841Y-107606236D01*
X145415000Y-108405395D01*
X146214159Y-107606236D01*
X146144941Y-107364258D01*
X145622220Y-107177845D01*
X145067951Y-107205659D01*
X144685059Y-107364258D01*
X144615841Y-107606236D01*
X143869052Y-107606236D01*
X143666236Y-107403066D01*
X143153700Y-107190242D01*
X142598735Y-107189758D01*
X142085828Y-107401687D01*
X141729684Y-107757210D01*
X141698162Y-107589683D01*
X141559090Y-107373559D01*
X141346890Y-107228569D01*
X141095000Y-107177560D01*
X139575000Y-107177560D01*
X139339683Y-107221838D01*
X139123559Y-107360910D01*
X138978569Y-107573110D01*
X138927560Y-107825000D01*
X124045073Y-107825000D01*
X123983117Y-107675057D01*
X123950000Y-107641882D01*
X123950000Y-106988463D01*
X123982192Y-106956327D01*
X124124838Y-106612799D01*
X124125162Y-106240833D01*
X124034284Y-106020890D01*
X125304524Y-106020890D01*
X125474355Y-106430924D01*
X125864642Y-106859183D01*
X126389108Y-107105486D01*
X126619000Y-106984819D01*
X126619000Y-105791000D01*
X126873000Y-105791000D01*
X126873000Y-106984819D01*
X127102892Y-107105486D01*
X127627358Y-106859183D01*
X128017645Y-106430924D01*
X128059783Y-106329187D01*
X133184752Y-106329187D01*
X133402757Y-106856800D01*
X133806077Y-107260824D01*
X134333309Y-107479750D01*
X134904187Y-107480248D01*
X135431800Y-107262243D01*
X135835824Y-106858923D01*
X136054750Y-106331691D01*
X136055248Y-105760813D01*
X135837243Y-105233200D01*
X135433923Y-104829176D01*
X134906691Y-104610250D01*
X134335813Y-104609752D01*
X133808200Y-104827757D01*
X133404176Y-105231077D01*
X133185250Y-105758309D01*
X133184752Y-106329187D01*
X128059783Y-106329187D01*
X128187476Y-106020890D01*
X128066155Y-105791000D01*
X126873000Y-105791000D01*
X126619000Y-105791000D01*
X125425845Y-105791000D01*
X125304524Y-106020890D01*
X124034284Y-106020890D01*
X123983117Y-105897057D01*
X123720327Y-105633808D01*
X123376799Y-105491162D01*
X123004833Y-105490838D01*
X122661057Y-105632883D01*
X122397808Y-105895673D01*
X122255162Y-106239201D01*
X122254838Y-106611167D01*
X120063701Y-106611167D01*
X120179750Y-106331691D01*
X120180248Y-105760813D01*
X119962243Y-105233200D01*
X119558923Y-104829176D01*
X119031691Y-104610250D01*
X118460813Y-104609752D01*
X117933200Y-104827757D01*
X117529176Y-105231077D01*
X117310250Y-105758309D01*
X117309752Y-106329187D01*
X116319063Y-106329187D01*
X116370000Y-106073113D01*
X116370000Y-106016887D01*
X116260767Y-105467736D01*
X115949698Y-105002189D01*
X115484151Y-104691120D01*
X114935000Y-104581887D01*
X114385849Y-104691120D01*
X113920302Y-105002189D01*
X113609233Y-105467736D01*
X113500000Y-106016887D01*
X112560024Y-106016887D01*
X112560248Y-105760813D01*
X112342243Y-105233200D01*
X111938923Y-104829176D01*
X111411691Y-104610250D01*
X110840813Y-104609752D01*
X110313200Y-104827757D01*
X109909176Y-105231077D01*
X109690250Y-105758309D01*
X109689752Y-106329187D01*
X98656719Y-106329187D01*
X98583117Y-106151057D01*
X98550000Y-106117882D01*
X98550000Y-105337463D01*
X98582192Y-105305327D01*
X98724838Y-104961799D01*
X98725162Y-104589833D01*
X98615805Y-104325167D01*
X105109838Y-104325167D01*
X105251883Y-104668943D01*
X105514673Y-104932192D01*
X105858201Y-105074838D01*
X106230167Y-105075162D01*
X106573943Y-104933117D01*
X106837192Y-104670327D01*
X106979838Y-104326799D01*
X106979879Y-104279923D01*
X108089680Y-103170122D01*
X108135167Y-103170162D01*
X108478943Y-103028117D01*
X108742192Y-102765327D01*
X108884838Y-102421799D01*
X108885162Y-102049833D01*
X108743117Y-101706057D01*
X108480327Y-101442808D01*
X108136799Y-101300162D01*
X107764833Y-101299838D01*
X107421057Y-101441883D01*
X107157808Y-101704673D01*
X107015162Y-102048201D01*
X107015121Y-102095077D01*
X105905320Y-103204878D01*
X105859833Y-103204838D01*
X105516057Y-103346883D01*
X105252808Y-103609673D01*
X105110162Y-103953201D01*
X105109838Y-104325167D01*
X98615805Y-104325167D01*
X98583117Y-104246057D01*
X98320327Y-103982808D01*
X98056446Y-103873235D01*
X97948117Y-103611057D01*
X97685327Y-103347808D01*
X97421446Y-103238235D01*
X97313117Y-102976057D01*
X97050327Y-102712808D01*
X96706799Y-102570162D01*
X96334833Y-102569838D01*
X95991057Y-102711883D01*
X95727808Y-102974673D01*
X95618235Y-103238554D01*
X95356057Y-103346883D01*
X95092808Y-103609673D01*
X94950162Y-103953201D01*
X94949838Y-104325167D01*
X95091883Y-104668943D01*
X95125000Y-104702118D01*
X95125000Y-104702976D01*
X94901691Y-104610250D01*
X94330813Y-104609752D01*
X93803200Y-104827757D01*
X93420000Y-105210289D01*
X93420000Y-98341122D01*
X93600727Y-98778515D01*
X94481847Y-99661174D01*
X95633674Y-100139454D01*
X96880854Y-100140543D01*
X98033515Y-99664273D01*
X98916174Y-98783153D01*
X98946887Y-98709187D01*
X101784752Y-98709187D01*
X102002757Y-99236800D01*
X102406077Y-99640824D01*
X102933309Y-99859750D01*
X103504187Y-99860248D01*
X104031800Y-99642243D01*
X104435824Y-99238923D01*
X104605146Y-98831150D01*
X104772757Y-99236800D01*
X105176077Y-99640824D01*
X105703309Y-99859750D01*
X106274187Y-99860248D01*
X106801800Y-99642243D01*
X107205824Y-99238923D01*
X107375146Y-98831150D01*
X107542757Y-99236800D01*
X107946077Y-99640824D01*
X108473309Y-99859750D01*
X109044187Y-99860248D01*
X109571800Y-99642243D01*
X109975824Y-99238923D01*
X110145146Y-98831150D01*
X110312757Y-99236800D01*
X110716077Y-99640824D01*
X111243309Y-99859750D01*
X111814187Y-99860248D01*
X112341800Y-99642243D01*
X112745824Y-99238923D01*
X112852560Y-98981874D01*
X112852560Y-99225000D01*
X112896838Y-99460317D01*
X113035910Y-99676441D01*
X113248110Y-99821431D01*
X113500000Y-99872440D01*
X115100000Y-99872440D01*
X115335317Y-99828162D01*
X115551441Y-99689090D01*
X115696431Y-99476890D01*
X115747440Y-99225000D01*
X115747440Y-99185000D01*
X116840000Y-99185000D01*
X117130839Y-99127148D01*
X117377401Y-98962401D01*
X117614680Y-98725122D01*
X117660167Y-98725162D01*
X118003943Y-98583117D01*
X118267192Y-98320327D01*
X118339478Y-98146244D01*
X118600727Y-98778515D01*
X119481847Y-99661174D01*
X120633674Y-100139454D01*
X121880854Y-100140543D01*
X123033515Y-99664273D01*
X123916174Y-98783153D01*
X124394454Y-97631326D01*
X124395543Y-96384146D01*
X124031874Y-95504000D01*
X125231907Y-95504000D01*
X125344946Y-96072285D01*
X125666853Y-96554054D01*
X125996026Y-96774000D01*
X125666853Y-96993946D01*
X125344946Y-97475715D01*
X125231907Y-98044000D01*
X125344946Y-98612285D01*
X125666853Y-99094054D01*
X125996026Y-99314000D01*
X125666853Y-99533946D01*
X125344946Y-100015715D01*
X125231907Y-100584000D01*
X125344946Y-101152285D01*
X125666853Y-101634054D01*
X125996026Y-101854000D01*
X125666853Y-102073946D01*
X125344946Y-102555715D01*
X125231907Y-103124000D01*
X125344946Y-103692285D01*
X125666853Y-104174054D01*
X126007553Y-104401702D01*
X125864642Y-104468817D01*
X125474355Y-104897076D01*
X125304524Y-105307110D01*
X125425845Y-105537000D01*
X126619000Y-105537000D01*
X126619000Y-105517000D01*
X126873000Y-105517000D01*
X126873000Y-105537000D01*
X128066155Y-105537000D01*
X128187476Y-105307110D01*
X128017645Y-104897076D01*
X127627358Y-104468817D01*
X127484447Y-104401702D01*
X127825147Y-104174054D01*
X128147054Y-103692285D01*
X128260093Y-103124000D01*
X128246402Y-103055167D01*
X140034838Y-103055167D01*
X140176883Y-103398943D01*
X140439673Y-103662192D01*
X140783201Y-103804838D01*
X141155167Y-103805162D01*
X141498943Y-103663117D01*
X141532118Y-103630000D01*
X142574890Y-103630000D01*
X142574838Y-103690167D01*
X142716883Y-104033943D01*
X142979673Y-104297192D01*
X143323201Y-104439838D01*
X143370077Y-104439879D01*
X143607599Y-104677401D01*
X143854161Y-104842148D01*
X144145000Y-104900000D01*
X145487537Y-104900000D01*
X145519673Y-104932192D01*
X145863201Y-105074838D01*
X146235167Y-105075162D01*
X146578943Y-104933117D01*
X146842192Y-104670327D01*
X146984838Y-104326799D01*
X146985162Y-103954833D01*
X146850944Y-103630000D01*
X147019890Y-103630000D01*
X147019838Y-103690167D01*
X147161883Y-104033943D01*
X147195000Y-104067118D01*
X147195000Y-106117537D01*
X147162808Y-106149673D01*
X147020162Y-106493201D01*
X147019838Y-106865167D01*
X147161883Y-107208943D01*
X147424673Y-107472192D01*
X147768201Y-107614838D01*
X148140167Y-107615162D01*
X148483943Y-107473117D01*
X148589954Y-107367290D01*
X148694673Y-107472192D01*
X149038201Y-107614838D01*
X149410167Y-107615162D01*
X149753943Y-107473117D01*
X150017192Y-107210327D01*
X150090186Y-107034539D01*
X150316077Y-107260824D01*
X150843309Y-107479750D01*
X151414187Y-107480248D01*
X151941800Y-107262243D01*
X152345824Y-106858923D01*
X152564750Y-106331691D01*
X152565024Y-106016887D01*
X153505000Y-106016887D01*
X153505000Y-106073113D01*
X153614233Y-106622264D01*
X153925302Y-107087811D01*
X154390849Y-107398880D01*
X154940000Y-107508113D01*
X155489151Y-107398880D01*
X155954698Y-107087811D01*
X156265767Y-106622264D01*
X156375000Y-106073113D01*
X156375000Y-106016887D01*
X156265767Y-105467736D01*
X155954698Y-105002189D01*
X155489151Y-104691120D01*
X154940000Y-104581887D01*
X154390849Y-104691120D01*
X153925302Y-105002189D01*
X153614233Y-105467736D01*
X153505000Y-106016887D01*
X152565024Y-106016887D01*
X152565248Y-105760813D01*
X152347243Y-105233200D01*
X151943923Y-104829176D01*
X151416691Y-104610250D01*
X150845813Y-104609752D01*
X150318200Y-104827757D01*
X150090156Y-105055404D01*
X150018117Y-104881057D01*
X149755327Y-104617808D01*
X149411799Y-104475162D01*
X149039833Y-104474838D01*
X148715000Y-104609056D01*
X148715000Y-104067463D01*
X148747192Y-104035327D01*
X148856765Y-103771446D01*
X149118943Y-103663117D01*
X149382192Y-103400327D01*
X149524838Y-103056799D01*
X149525162Y-102684833D01*
X149383117Y-102341057D01*
X149120327Y-102077808D01*
X148776799Y-101935162D01*
X148404833Y-101934838D01*
X148061057Y-102076883D01*
X148027882Y-102110000D01*
X141532463Y-102110000D01*
X141500327Y-102077808D01*
X141156799Y-101935162D01*
X140784833Y-101934838D01*
X140441057Y-102076883D01*
X140177808Y-102339673D01*
X140035162Y-102683201D01*
X140034838Y-103055167D01*
X128246402Y-103055167D01*
X128147054Y-102555715D01*
X127825147Y-102073946D01*
X127495974Y-101854000D01*
X127825147Y-101634054D01*
X128147054Y-101152285D01*
X128260093Y-100584000D01*
X128147054Y-100015715D01*
X127825147Y-99533946D01*
X127495974Y-99314000D01*
X127825147Y-99094054D01*
X128147054Y-98612285D01*
X128260093Y-98044000D01*
X128176919Y-97625854D01*
X129124457Y-97625854D01*
X129600727Y-98778515D01*
X130481847Y-99661174D01*
X131633674Y-100139454D01*
X132880854Y-100140543D01*
X134033515Y-99664273D01*
X134916174Y-98783153D01*
X134946887Y-98709187D01*
X137784752Y-98709187D01*
X138002757Y-99236800D01*
X138406077Y-99640824D01*
X138933309Y-99859750D01*
X139504187Y-99860248D01*
X140031800Y-99642243D01*
X140435824Y-99238923D01*
X140605146Y-98831150D01*
X140772757Y-99236800D01*
X141176077Y-99640824D01*
X141703309Y-99859750D01*
X142274187Y-99860248D01*
X142801800Y-99642243D01*
X143205824Y-99238923D01*
X143375146Y-98831150D01*
X143542757Y-99236800D01*
X143946077Y-99640824D01*
X144473309Y-99859750D01*
X145044187Y-99860248D01*
X145571800Y-99642243D01*
X145975824Y-99238923D01*
X146145146Y-98831150D01*
X146312757Y-99236800D01*
X146716077Y-99640824D01*
X147243309Y-99859750D01*
X147814187Y-99860248D01*
X148341800Y-99642243D01*
X148745824Y-99238923D01*
X148852560Y-98981874D01*
X148852560Y-99225000D01*
X148896838Y-99460317D01*
X149035910Y-99676441D01*
X149248110Y-99821431D01*
X149500000Y-99872440D01*
X151100000Y-99872440D01*
X151335317Y-99828162D01*
X151551441Y-99689090D01*
X151696431Y-99476890D01*
X151747440Y-99225000D01*
X151747440Y-97625000D01*
X151703162Y-97389683D01*
X151564090Y-97173559D01*
X151351890Y-97028569D01*
X151100000Y-96977560D01*
X149500000Y-96977560D01*
X149264683Y-97021838D01*
X149048559Y-97160910D01*
X148903569Y-97373110D01*
X148852560Y-97625000D01*
X148852560Y-97868087D01*
X148747243Y-97613200D01*
X148343923Y-97209176D01*
X147816691Y-96990250D01*
X147245813Y-96989752D01*
X146718200Y-97207757D01*
X146314176Y-97611077D01*
X146144854Y-98018850D01*
X145977243Y-97613200D01*
X145573923Y-97209176D01*
X145046691Y-96990250D01*
X144475813Y-96989752D01*
X143948200Y-97207757D01*
X143544176Y-97611077D01*
X143374854Y-98018850D01*
X143207243Y-97613200D01*
X142803923Y-97209176D01*
X142276691Y-96990250D01*
X141705813Y-96989752D01*
X141178200Y-97207757D01*
X140774176Y-97611077D01*
X140604854Y-98018850D01*
X140437243Y-97613200D01*
X140033923Y-97209176D01*
X139506691Y-96990250D01*
X138935813Y-96989752D01*
X138408200Y-97207757D01*
X138004176Y-97611077D01*
X137785250Y-98138309D01*
X137784752Y-98709187D01*
X134946887Y-98709187D01*
X135394454Y-97631326D01*
X135395543Y-96384146D01*
X135182767Y-95869187D01*
X139169752Y-95869187D01*
X139387757Y-96396800D01*
X139791077Y-96800824D01*
X140318309Y-97019750D01*
X140889187Y-97020248D01*
X141416800Y-96802243D01*
X141820824Y-96398923D01*
X141990146Y-95991150D01*
X142157757Y-96396800D01*
X142561077Y-96800824D01*
X143088309Y-97019750D01*
X143659187Y-97020248D01*
X144186800Y-96802243D01*
X144590824Y-96398923D01*
X144760146Y-95991150D01*
X144927757Y-96396800D01*
X145331077Y-96800824D01*
X145858309Y-97019750D01*
X146429187Y-97020248D01*
X146956800Y-96802243D01*
X147360824Y-96398923D01*
X147530146Y-95991150D01*
X147697757Y-96396800D01*
X148101077Y-96800824D01*
X148628309Y-97019750D01*
X149199187Y-97020248D01*
X149726800Y-96802243D01*
X150130824Y-96398923D01*
X150349750Y-95871691D01*
X150350248Y-95300813D01*
X150132243Y-94773200D01*
X149728923Y-94369176D01*
X149201691Y-94150250D01*
X148630813Y-94149752D01*
X148103200Y-94367757D01*
X147699176Y-94771077D01*
X147529854Y-95178850D01*
X147362243Y-94773200D01*
X146958923Y-94369176D01*
X146431691Y-94150250D01*
X145860813Y-94149752D01*
X145333200Y-94367757D01*
X144929176Y-94771077D01*
X144759854Y-95178850D01*
X144592243Y-94773200D01*
X144188923Y-94369176D01*
X143661691Y-94150250D01*
X143090813Y-94149752D01*
X142563200Y-94367757D01*
X142159176Y-94771077D01*
X141989854Y-95178850D01*
X141822243Y-94773200D01*
X141418923Y-94369176D01*
X140891691Y-94150250D01*
X140320813Y-94149752D01*
X139793200Y-94367757D01*
X139389176Y-94771077D01*
X139170250Y-95298309D01*
X139169752Y-95869187D01*
X135182767Y-95869187D01*
X134919273Y-95231485D01*
X134038153Y-94348826D01*
X132886326Y-93870546D01*
X131639146Y-93869457D01*
X130486485Y-94345727D01*
X129603826Y-95226847D01*
X129125546Y-96378674D01*
X129124457Y-97625854D01*
X128176919Y-97625854D01*
X128147054Y-97475715D01*
X127825147Y-96993946D01*
X127495974Y-96774000D01*
X127825147Y-96554054D01*
X128147054Y-96072285D01*
X128260093Y-95504000D01*
X128147054Y-94935715D01*
X127825147Y-94453946D01*
X127783548Y-94426150D01*
X127831317Y-94417162D01*
X128047441Y-94278090D01*
X128192431Y-94065890D01*
X128243440Y-93814000D01*
X128243440Y-92114000D01*
X128199162Y-91878683D01*
X128060090Y-91662559D01*
X127847890Y-91517569D01*
X127596000Y-91466560D01*
X125896000Y-91466560D01*
X125660683Y-91510838D01*
X125444559Y-91649910D01*
X125299569Y-91862110D01*
X125248560Y-92114000D01*
X125248560Y-93814000D01*
X125292838Y-94049317D01*
X125431910Y-94265441D01*
X125644110Y-94410431D01*
X125711541Y-94424086D01*
X125666853Y-94453946D01*
X125344946Y-94935715D01*
X125231907Y-95504000D01*
X124031874Y-95504000D01*
X123919273Y-95231485D01*
X123038153Y-94348826D01*
X121886326Y-93870546D01*
X120639146Y-93869457D01*
X119486485Y-94345727D01*
X118603826Y-95226847D01*
X118125546Y-96378674D01*
X118124901Y-97117591D01*
X118005327Y-96997808D01*
X117661799Y-96855162D01*
X117289833Y-96854838D01*
X117034570Y-96960310D01*
X117139838Y-96706799D01*
X117140162Y-96334833D01*
X116998117Y-95991057D01*
X116965000Y-95957882D01*
X116965000Y-95177463D01*
X116997192Y-95145327D01*
X117139838Y-94801799D01*
X117140162Y-94429833D01*
X116998117Y-94086057D01*
X116735327Y-93822808D01*
X116391799Y-93680162D01*
X116019833Y-93679838D01*
X115676057Y-93821883D01*
X115412808Y-94084673D01*
X115270162Y-94428201D01*
X115269838Y-94800167D01*
X115411883Y-95143943D01*
X115445000Y-95177118D01*
X115445000Y-95957537D01*
X115412808Y-95989673D01*
X115270162Y-96333201D01*
X115269838Y-96705167D01*
X115411883Y-97048943D01*
X115476621Y-97113794D01*
X115351890Y-97028569D01*
X115100000Y-96977560D01*
X113500000Y-96977560D01*
X113264683Y-97021838D01*
X113048559Y-97160910D01*
X112903569Y-97373110D01*
X112852560Y-97625000D01*
X112852560Y-97868087D01*
X112747243Y-97613200D01*
X112343923Y-97209176D01*
X111816691Y-96990250D01*
X111245813Y-96989752D01*
X110718200Y-97207757D01*
X110314176Y-97611077D01*
X110144854Y-98018850D01*
X109977243Y-97613200D01*
X109573923Y-97209176D01*
X109046691Y-96990250D01*
X108475813Y-96989752D01*
X107948200Y-97207757D01*
X107544176Y-97611077D01*
X107374854Y-98018850D01*
X107207243Y-97613200D01*
X106803923Y-97209176D01*
X106276691Y-96990250D01*
X105705813Y-96989752D01*
X105178200Y-97207757D01*
X104774176Y-97611077D01*
X104604854Y-98018850D01*
X104437243Y-97613200D01*
X104033923Y-97209176D01*
X103506691Y-96990250D01*
X102935813Y-96989752D01*
X102408200Y-97207757D01*
X102004176Y-97611077D01*
X101785250Y-98138309D01*
X101784752Y-98709187D01*
X98946887Y-98709187D01*
X99394454Y-97631326D01*
X99395543Y-96384146D01*
X99182767Y-95869187D01*
X103169752Y-95869187D01*
X103387757Y-96396800D01*
X103791077Y-96800824D01*
X104318309Y-97019750D01*
X104889187Y-97020248D01*
X105416800Y-96802243D01*
X105820824Y-96398923D01*
X105990146Y-95991150D01*
X106157757Y-96396800D01*
X106561077Y-96800824D01*
X107088309Y-97019750D01*
X107659187Y-97020248D01*
X108186800Y-96802243D01*
X108590824Y-96398923D01*
X108760146Y-95991150D01*
X108927757Y-96396800D01*
X109331077Y-96800824D01*
X109858309Y-97019750D01*
X110429187Y-97020248D01*
X110956800Y-96802243D01*
X111360824Y-96398923D01*
X111530146Y-95991150D01*
X111697757Y-96396800D01*
X112101077Y-96800824D01*
X112628309Y-97019750D01*
X113199187Y-97020248D01*
X113726800Y-96802243D01*
X114130824Y-96398923D01*
X114349750Y-95871691D01*
X114350248Y-95300813D01*
X114132243Y-94773200D01*
X113728923Y-94369176D01*
X113201691Y-94150250D01*
X112630813Y-94149752D01*
X112103200Y-94367757D01*
X111699176Y-94771077D01*
X111529854Y-95178850D01*
X111362243Y-94773200D01*
X110958923Y-94369176D01*
X110431691Y-94150250D01*
X109860813Y-94149752D01*
X109333200Y-94367757D01*
X108929176Y-94771077D01*
X108759854Y-95178850D01*
X108592243Y-94773200D01*
X108188923Y-94369176D01*
X107661691Y-94150250D01*
X107090813Y-94149752D01*
X106563200Y-94367757D01*
X106159176Y-94771077D01*
X105989854Y-95178850D01*
X105822243Y-94773200D01*
X105418923Y-94369176D01*
X104891691Y-94150250D01*
X104320813Y-94149752D01*
X103793200Y-94367757D01*
X103389176Y-94771077D01*
X103170250Y-95298309D01*
X103169752Y-95869187D01*
X99182767Y-95869187D01*
X98919273Y-95231485D01*
X98038153Y-94348826D01*
X96886326Y-93870546D01*
X95639146Y-93869457D01*
X94486485Y-94345727D01*
X93603826Y-95226847D01*
X93420000Y-95669549D01*
X93420000Y-91509930D01*
X93475478Y-91231021D01*
X93593856Y-91053855D01*
X93771019Y-90935479D01*
X94049931Y-90880000D01*
X159315070Y-90880000D01*
X159593979Y-90935478D01*
M02*
