M48
; DRILL file {KiCad 9.0.6-9.0.6~ubuntu24.04.1} date 2025-12-07T01:13:27+0100
; FORMAT={-:-/ absolute / inch / decimal}
; #@! TF.CreationDate,2025-12-07T01:13:27+01:00
; #@! TF.GenerationSoftware,Kicad,Pcbnew,9.0.6-9.0.6~ubuntu24.04.1
; #@! TF.FileFunction,MixedPlating,1,2
FMAT,2
INCH
; #@! TA.AperFunction,Plated,PTH,ViaDrill
T1C0.0157
; #@! TA.AperFunction,Plated,PTH,ComponentDrill
T2C0.0315
; #@! TA.AperFunction,Plated,PTH,ComponentDrill
T3C0.0394
; #@! TA.AperFunction,NonPlated,NPTH,ComponentDrill
T4C0.1496
%
G90
G05
T1
X3.775Y-4.1
X3.775Y-4.25
X3.8Y-4.075
X3.8Y-4.2
X3.825Y-4.1
X3.825Y-4.225
X3.85Y-4.125
X3.85Y-4.2
X4.175Y-4.1
X4.25Y-4.025
X4.375Y-4.675
X4.425Y-4.9
X4.575Y-3.725
X4.575Y-3.8
X4.625Y-3.85
X4.85Y-4.19
X4.85Y-4.26
X5.0Y-4.575
X5.0Y-5.075
X5.025Y-4.95
X5.05Y-4.75
X5.05Y-4.975
X5.55Y-4.05
X5.65Y-4.075
X5.75Y-4.1
X5.825Y-4.075
X5.825Y-4.2
X5.85Y-4.05
X5.875Y-4.15
X5.875Y-4.2
X5.925Y-4.45
X5.975Y-4.475
X6.025Y-4.65
X6.175Y-4.475
T2
X3.725Y-4.175
X3.725Y-4.575
X3.725Y-4.725
X3.725Y-4.875
X3.725Y-5.525
X3.8Y-5.1
X3.8Y-5.2
X3.8Y-5.3
X3.85Y-4.425
X3.85Y-4.575
X3.95Y-4.275
X3.95Y-5.0
X3.95Y-5.4
X4.05Y-4.275
X4.1Y-5.0
X4.1Y-5.4
X4.125Y-4.725
X4.125Y-4.875
X4.125Y-5.525
X4.15Y-4.275
X4.25Y-4.425
X4.25Y-4.575
X4.375Y-4.175
X4.375Y-4.575
X4.525Y-4.175
X4.525Y-4.575
X4.675Y-4.175
X4.675Y-4.575
X4.85Y-4.425
X4.85Y-4.525
X4.85Y-4.625
X5.125Y-4.425
X5.125Y-4.525
X5.125Y-4.625
X5.3Y-4.175
X5.3Y-4.575
X5.425Y-4.425
X5.425Y-4.575
X5.525Y-4.275
X5.625Y-4.275
X5.725Y-4.275
X5.825Y-4.425
X5.825Y-4.575
X5.85Y-4.725
X5.85Y-4.875
X5.85Y-5.525
X5.95Y-4.175
X5.95Y-4.575
X5.95Y-5.1
X5.95Y-5.2
X5.95Y-5.3
X6.1Y-4.175
X6.1Y-4.575
X6.1Y-5.0
X6.1Y-5.4
X6.25Y-4.175
X6.25Y-4.575
X6.25Y-4.725
X6.25Y-4.875
X6.25Y-5.0
X6.25Y-5.4
X6.25Y-5.525
T3
X4.0638Y-3.875
X4.1183Y-3.7632
X4.1728Y-3.875
X4.2274Y-3.7632
X4.2819Y-3.875
X4.3364Y-3.7632
X4.3909Y-3.875
X4.4455Y-3.7632
X4.5Y-3.875
X4.6066Y-5.14
X4.6611Y-5.2518
X4.7157Y-5.14
X4.7702Y-5.2518
X4.8247Y-5.14
X4.8793Y-5.2518
X4.9338Y-5.14
X4.9883Y-5.2518
X4.99Y-3.66
X4.99Y-3.76
X4.99Y-3.86
X4.99Y-3.96
X4.99Y-4.06
X4.99Y-4.16
X5.0428Y-5.14
X5.0974Y-5.2518
X5.1519Y-5.14
X5.2064Y-5.2518
X5.2609Y-5.14
X5.3155Y-5.2518
X5.37Y-5.14
X5.4811Y-3.875
X5.5356Y-3.7632
X5.5902Y-3.875
X5.6447Y-3.7632
X5.6992Y-3.875
X5.7537Y-3.7632
X5.8083Y-3.875
X5.8628Y-3.7632
X5.9173Y-3.875
T4
X3.7898Y-3.8191
X4.3328Y-5.1959
X4.774Y-3.8191
X5.2071Y-3.8191
X5.6438Y-5.1959
X6.1913Y-3.8191
M30
